<svg xmlns="http://www.w3.org/2000/svg" width="16" height="16" viewBox="0 0 16 16">
  <path id="Icon_awesome-book" data-name="Icon awesome-book" d="M16,11.25V.75A.807.807,0,0,0,15.143,0H3.429A3.237,3.237,0,0,0,0,3V13a3.237,3.237,0,0,0,3.429,3H15.143A.807.807,0,0,0,16,15.25v-.5a.724.724,0,0,0-.318-.584,6.111,6.111,0,0,1,0-2.334A.714.714,0,0,0,16,11.25ZM4.571,4.188A.2.2,0,0,1,4.786,4h7.571a.2.2,0,0,1,.214.188v.625A.2.2,0,0,1,12.357,5H4.786a.2.2,0,0,1-.214-.187Zm0,2A.2.2,0,0,1,4.786,6h7.571a.2.2,0,0,1,.214.188v.625A.2.2,0,0,1,12.357,7H4.786a.2.2,0,0,1-.214-.187ZM13.621,14H3.429a1.077,1.077,0,0,1-1.143-1,1.082,1.082,0,0,1,1.143-1H13.621A9.85,9.85,0,0,0,13.621,14Z" fill="#7624fe"/>
</svg>
