<svg xmlns="http://www.w3.org/2000/svg" width="16" height="16" viewBox="0 0 16 16">
  <path id="Icon_map-art-gallery" data-name="Icon map-art-gallery" d="M7.457,4.32C3.246,4.32.72,8.587.72,10.72s.842,3.734,2.526,3.734,2.527.533,2.527,2.133c0,2.133,1.263,3.733,2.947,3.733,5.474,0,8-3.733,8-7.466C16.72,6.454,12.508,4.32,7.457,4.32ZM6.4,6.454A1.218,1.218,0,0,1,7.457,7.787,1.218,1.218,0,0,1,6.4,9.12,1.218,1.218,0,0,1,5.352,7.787,1.218,1.218,0,0,1,6.4,6.454Zm3.368,0a1.218,1.218,0,0,1,1.053,1.333A1.218,1.218,0,0,1,9.772,9.12,1.218,1.218,0,0,1,8.72,7.787,1.218,1.218,0,0,1,9.772,6.454Zm3.369,2.133A1.218,1.218,0,0,1,14.194,9.92a1.218,1.218,0,0,1-1.053,1.333A1.217,1.217,0,0,1,12.088,9.92,1.218,1.218,0,0,1,13.141,8.587ZM3.457,9.654a1.217,1.217,0,0,1,1.052,1.333A1.218,1.218,0,0,1,3.457,12.32,1.219,1.219,0,0,1,2.4,10.986,1.218,1.218,0,0,1,3.457,9.654ZM8.72,14.987a1.462,1.462,0,0,1,1.263,1.6,1.461,1.461,0,0,1-1.263,1.6,1.461,1.461,0,0,1-1.263-1.6,1.462,1.462,0,0,1,1.263-1.6Z" transform="translate(-0.72 -4.32)" fill="#7624fe"/>
</svg>
