<svg xmlns="http://www.w3.org/2000/svg" xmlns:xlink="http://www.w3.org/1999/xlink" width="17.332" height="20" viewBox="0 0 17.332 20">
  <defs>
    <linearGradient id="linear-gradient" x1="0.5" x2="0.5" y2="1" gradientUnits="objectBoundingBox">
      <stop offset="0" stop-color="#368bff"/>
      <stop offset="1" stop-color="#1b4680"/>
    </linearGradient>
  </defs>
  <g id="avatar-solid" transform="translate(-3.334 -2)">
    <path id="Path_208" data-name="Path 208" d="M20.407,16.347a11.44,11.44,0,0,0-16.813,0,1.007,1.007,0,0,0-.26.667v4a1,1,0,0,0,1,.986H19.666a1,1,0,0,0,1-1V17a1.007,1.007,0,0,0-.26-.653Z" fill="url(#linear-gradient)"/>
    <path id="Path_209" data-name="Path 209" d="M16.667,6.667A4.667,4.667,0,1,1,12,2a4.667,4.667,0,0,1,4.667,4.668Z" fill="url(#linear-gradient)"/>
  </g>
</svg>
