<svg xmlns="http://www.w3.org/2000/svg" width="90" height="90" viewBox="0 0 90 90">
  <g id="feeds-logo" transform="translate(0.005)">
    <path id="Path_21609" data-name="Path 21609" d="M42.375,0h1.541c23.4,0,42.377,20.147,42.377,45S67.321,90,43.917,90H42.375C18.971,90,0,69.853,0,45S18.971,0,42.375,0Z" transform="translate(0.618)" fill="#e5e5e5" opacity="0"/>
    <g id="Group_13193" data-name="Group 13193" transform="translate(-0.005 13.372)">
      <path id="Path_21689" data-name="Path 21689" d="M1726.18,8228.931c-3.522-1.842-5.629-6.656-5.638-12.874l0-2.961c.042-.5.063-1,.061-1.493l-.023-16.814c-.023-9.183-7.034-16.613-15.682-16.626h-.025l-30.207.049c-8.657.025-15.663,7.485-15.66,16.68l.024,16.811c.023,9.183,7.035,16.618,15.682,16.626h.024l30.206-.049a14.908,14.908,0,0,0,8.889-2.957,22.809,22.809,0,0,0,12.277,3.941l.716.012Z" transform="translate(-1659.001 -8165.581)" fill="#ece7f5"/>
      <path id="Path_21690" data-name="Path 21690" d="M1824.667,8177.795c-3.56-1.879-5.684-6.734-5.684-12.992v-2.978c.041-.488.061-.984.061-1.48v-16.811c-.008-9.125-6.972-16.523-15.565-16.536h-30.206c-8.594.013-15.558,7.411-15.567,16.536v16.811c.01,9.121,6.974,16.52,15.567,16.527h30.206a14.861,14.861,0,0,0,8.89-2.97,22.607,22.607,0,0,0,12.276,3.979l.2.008Z" transform="translate(-1734.846 -8126.998)" fill="#cedef3"/>
      <path id="Path_21691" data-name="Path 21691" d="M1796.307,8195.173c-.022-9.129-7-16.511-15.589-16.507l-7.261.012-15.33.025a17.455,17.455,0,0,0-.418,3.789V8199.3c.009,9.125,6.974,16.52,15.567,16.527h23l0-2.366c.041-.483.061-.98.061-1.484Z" transform="translate(-1734.848 -8165.96)" fill="#fff"/>
    </g>
  </g>
</svg>
