<svg xmlns="http://www.w3.org/2000/svg" width="18.506" height="16.5" viewBox="0 0 18.506 16.5">
  <path id="Exclusion_12" data-name="Exclusion 12" d="M.281,16a.277.277,0,0,1-.256-.172.289.289,0,0,1,.053-.311A9.176,9.176,0,0,0,2,12.1,6.593,6.593,0,0,1,0,7.429C0,3.332,4.037,0,9,0s9,3.332,9,7.429-4.037,7.429-9,7.429a2.952,2.952,0,0,1-1.31-.337,3.758,3.758,0,0,0-1.721-.408,5.785,5.785,0,0,0-.744.052,5.18,5.18,0,0,0-2.265.93A4.467,4.467,0,0,1,.281,16ZM9,1C4.589,1,1,3.916,1,7.5a5.73,5.73,0,0,0,1.781,4.085,7.931,7.931,0,0,1-1.713,2.993A.251.251,0,0,0,1.25,15a4.009,4.009,0,0,0,2.38-.792,4.641,4.641,0,0,1,2.013-.814,5.216,5.216,0,0,1,.662-.046,3.381,3.381,0,0,1,1.53.357A2.655,2.655,0,0,0,9,14c4.411,0,8-2.916,8-6.5S13.411,1,9,1Z" transform="translate(0.256 0.25)" stroke="#000" stroke-width="0.5"/>
</svg>
