<svg xmlns="http://www.w3.org/2000/svg" width="16" height="16" viewBox="0 0 16 16">
  <path id="Icon_awesome-calendar-alt" data-name="Icon awesome-calendar-alt" d="M0,14.5A1.618,1.618,0,0,0,1.714,16H14.286A1.618,1.618,0,0,0,16,14.5V6H0ZM11.429,8.375A.406.406,0,0,1,11.857,8h1.429a.406.406,0,0,1,.429.375v1.25a.406.406,0,0,1-.429.375H11.857a.406.406,0,0,1-.429-.375Zm0,4A.406.406,0,0,1,11.857,12h1.429a.406.406,0,0,1,.429.375v1.25a.406.406,0,0,1-.429.375H11.857a.406.406,0,0,1-.429-.375Zm-4.571-4A.406.406,0,0,1,7.286,8H8.714a.406.406,0,0,1,.429.375v1.25A.406.406,0,0,1,8.714,10H7.286a.406.406,0,0,1-.429-.375Zm0,4A.406.406,0,0,1,7.286,12H8.714a.406.406,0,0,1,.429.375v1.25A.406.406,0,0,1,8.714,14H7.286a.406.406,0,0,1-.429-.375Zm-4.571-4A.406.406,0,0,1,2.714,8H4.143a.406.406,0,0,1,.429.375v1.25A.406.406,0,0,1,4.143,10H2.714a.406.406,0,0,1-.429-.375Zm0,4A.406.406,0,0,1,2.714,12H4.143a.406.406,0,0,1,.429.375v1.25A.406.406,0,0,1,4.143,14H2.714a.406.406,0,0,1-.429-.375ZM14.286,2H12.571V.5A.541.541,0,0,0,12,0H10.857a.541.541,0,0,0-.571.5V2H5.714V.5A.541.541,0,0,0,5.143,0H4a.541.541,0,0,0-.571.5V2H1.714A1.618,1.618,0,0,0,0,3.5V5H16V3.5A1.618,1.618,0,0,0,14.286,2Z" fill="#7624fe"/>
</svg>
