<svg xmlns="http://www.w3.org/2000/svg" width="16" height="14" viewBox="0 0 16 14">
    <path id="prefix__bubble_line" fill="#a0a2c4" d="M8 2C3.582 2 0 4.687 0 8a5.78 5.78 0 0 0 3.5 4.963V13a5.242 5.242 0 0 1-.964 2.368.453.453 0 0 0 .417.632c.047 0 .13-.012.128-.007a6.693 6.693 0 0 0 3.377-2.108A10.59 10.59 0 0 0 8 14c4.418 0 8-2.687 8-6s-3.582-6-8-6zm0 11a9.711 9.711 0 0 1-1.4-.1.888.888 0 0 0-.145-.01 1 1 0 0 0-.773.365 6.717 6.717 0 0 1-1.543 1.27 3.915 3.915 0 0 0 .361-1.47v-.092a1 1 0 0 0-.545-.891A4.806 4.806 0 0 1 1 8c0-2.757 3.14-5 7-5s7 2.243 7 5-3.14 5-7 5z" data-name="bubble line" transform="translate(0 -2)"/>
</svg>
