<svg xmlns="http://www.w3.org/2000/svg" width="22.011" height="24.153" viewBox="0 0 22.011 24.153">
    <g id="prefix__Component_555_4" data-name="Component 555 – 4" transform="translate(.891 .884)">
        <path id="prefix__bell" d="M19.179 11.138C16.3 4.94 14.8 2.585 10.1 2.684c-1.676.034-1.274-1.215-2.553-.741S7.366 3.11 6.06 4.183C2.39 7.192 2.727 9.976 4.428 16.612c.716 2.8-1.727 2.932-.76 5.64.706 1.975 5.91 2.8 11.4.767s8.951-6.081 8.245-8.057c-.966-2.71-2.92-1.214-4.133-3.823zm-4.112 11.88c-7.165 2.2-10.7.094-10.872-.382-.293-.821 2.375-4.994 7.981-7.074s10.429-1.857 10.756-.941c.193.542-.7 6.192-7.865 8.4z" transform="translate(-3.199 -1.835)" style="fill:none;stroke:#afb1cb;stroke-width:1.8px"/>
        <path id="prefix__bell-2" d="M12.9 16.935a18.435 18.435 0 0 0-5.5 3.017 3.878 3.878 0 0 0 3.848.355c1.929-.714 3.115-2.357 2.646-3.668-.006-.017-.014-.029-.021-.046-.319.107-.644.218-.973.342z" data-name="bell" transform="translate(-2.199 -1.835)" style="fill:#afb1cb"/>
    </g>
</svg>
