<?xml version="1.0" encoding="UTF-8" standalone="no"?>
<svg
   xmlns:dc="http://purl.org/dc/elements/1.1/"
   xmlns:cc="http://creativecommons.org/ns#"
   xmlns:rdf="http://www.w3.org/1999/02/22-rdf-syntax-ns#"
   xmlns:svg="http://www.w3.org/2000/svg"
   xmlns="http://www.w3.org/2000/svg"
   xmlns:sodipodi="http://sodipodi.sourceforge.net/DTD/sodipodi-0.dtd"
   xmlns:inkscape="http://www.inkscape.org/namespaces/inkscape"
   id="ba0517ec-fec1-49ce-b646-53a5b94e2df0"
   data-name="Layer 1"
   width="1121"
   height="867.01056"
   viewBox="0 0 1121 867.01056"
   version="1.1"
   sodipodi:docname="connect.svg"
   inkscape:version="0.92.4 (5da689c313, 2019-01-14)">
  <metadata
     id="metadata115">
    <rdf:RDF>
      <cc:Work
         rdf:about="">
        <dc:format>image/svg+xml</dc:format>
        <dc:type
           rdf:resource="http://purl.org/dc/dcmitype/StillImage" />
      </cc:Work>
    </rdf:RDF>
  </metadata>
  <defs
     id="defs113">
    <pattern
       y="0"
       x="0"
       height="6"
       width="6"
       patternUnits="userSpaceOnUse"
       id="EMFhbasepattern" />
  </defs>
  <sodipodi:namedview
     pagecolor="#ffffff"
     bordercolor="#666666"
     borderopacity="1"
     objecttolerance="10"
     gridtolerance="10"
     guidetolerance="10"
     inkscape:pageopacity="0"
     inkscape:pageshadow="2"
     inkscape:window-width="1920"
     inkscape:window-height="1017"
     id="namedview111"
     showgrid="false"
     inkscape:zoom="0.50669045"
     inkscape:cx="446.90021"
     inkscape:cy="478.04462"
     inkscape:window-x="-8"
     inkscape:window-y="-8"
     inkscape:window-maximized="1"
     inkscape:current-layer="ba0517ec-fec1-49ce-b646-53a5b94e2df0" />
  <title
     id="title2">connection</title>
  <path
     inkscape:connector-curvature="0"
     style="opacity:0.1;fill:#e32dff;fill-opacity:1;stroke-width:0.86463386"
     d="M 548.56469,217.48243 C 496.98773,215.35785 445.05742,195.63249 395.04185,174.04698 345.02626,152.46144 295.08513,128.54363 243.2627,117.10876 c -33.33155,-7.3557 -70.28753,-8.39437 -92.948,12.17139 -21.81104,19.8292 -24.47173,53.96381 -23.78714,85.67168 0.51084,23.85173 2.56469,48.94987 15.03574,71.28134 8.65162,15.50457 21.72566,28.53521 31.691,43.43546 34.67211,51.66929 26.02623,115.38715 5.29006,165.83842 -9.71506,23.67235 -21.77767,46.26821 -28.18343,71.44184 -6.40559,25.17364 -6.65053,54.05833 6.50397,79.76079 13.05044,25.49462 37.55296,44.60626 62.94252,58.06187 51.58231,27.33591 108.48566,35.15436 163.50679,39.58291 121.76043,9.81074 232.66868,79.1762 352.52186,74.92714 44.35682,-1.57693 98.1622,-76.78743 140.73907,-85.01186 23.64669,-4.57003 47.65441,-11.8125 62.58056,-29.31886 18.93921,-22.21821 18.55316,-59.8465 -0.89572,-87.70188 -32.63991,-46.73086 -104.23493,-58.33572 -129.84029,-108.49415 -14.0722,-27.60039 -8.95937,-58.34504 1.09875,-83.95314 21.58933,-54.91752 64.70973,-103.10254 57.45676,-165.87622 -4.98428,-43.12383 -36.21398,-86.29489 -77.15976,-106.70011 -42.926,-21.46279 -97.33129,-18.74334 -120.88339,16.65656 -24.2687,36.47632 -74.83207,50.47008 -120.36736,48.60049 z"
     id="path2012"
     sodipodi:nodetypes="cscccccccccccccccccccc" />
  <path
     d="m 549.42786,695.7417 c -137.46192,-3.6e-4 -255.78354,-96.47921 -282.59151,-230.41317 -26.80763,-133.93226 45.36651,-268.004 172.36098,-320.26702 126.99447,-52.263029 273.4483,-8.16495 349.812,105.37311 76.36468,113.5395 61.36247,264.88615 -35.83777,361.45885 -53.91785,53.86297 -127.28364,84.05577 -203.7437,83.84823 z m -4.58427,-536.85317 c -157.84428,0 -281.67542,93.75154 -281.67542,250.57671 0,156.82517 131.035,251.87806 288.87928,251.87806 157.84428,0 283.64011,-95.0529 283.64011,-251.87806 0,-156.82516 -132.99969,-250.57671 -290.84397,-250.57671 z"
     id="path4"
     style="fill:#378bfe;fill-opacity:1;stroke-width:0.9355216"
     inkscape:connector-curvature="0"
     sodipodi:nodetypes="csssccsssss" />
  <path
     d="m 573.69812,664.12993 c -5.33576,19.59682 -23.61193,31.73361 -23.61193,31.73361 0,0 -9.6252,-19.63591 -4.28945,-39.23273 5.33575,-19.59681 23.61194,-31.73361 23.61194,-31.73361 0,0 9.62519,19.63591 4.28944,39.23273 z"
     id="path6"
     inkscape:connector-curvature="0"
     style="fill:#7625ff;stroke-width:0.9355216" />
  <path
     d="m 525.15761,664.12993 c 5.33576,19.59682 23.61193,31.73361 23.61193,31.73361 0,0 9.6252,-19.63591 4.28945,-39.23273 -5.33575,-19.59681 -23.61194,-31.73361 -23.61194,-31.73361 0,0 -9.6252,19.63591 -4.28944,39.23273 z"
     id="path8"
     inkscape:connector-curvature="0"
     style="fill:#7625ff;stroke-width:0.9355216" />
  <path
     d="m 532.99812,659.91837 c 14.6414,14.16078 16.42974,35.9292 16.42974,35.9292 0,0 -21.95001,-1.19074 -36.59145,-15.35153 -14.64143,-14.16079 -16.42973,-35.92921 -16.42973,-35.92921 0,0 21.95005,1.19075 36.59144,15.35154 z"
     id="path10"
     inkscape:connector-curvature="0"
     style="fill:#3f3d56;stroke-width:0.9355216" />
  <path
     d="m 565.8576,659.91837 c -14.64139,14.16078 -16.42974,35.9292 -16.42974,35.9292 0,0 21.95002,-1.19074 36.59145,-15.35153 14.64144,-14.16079 16.42973,-35.92921 16.42973,-35.92921 0,0 -21.95004,1.19075 -36.59144,15.35154 z"
     id="path12"
     inkscape:connector-curvature="0"
     style="fill:#3f3d56;stroke-width:0.9355216" />
  <path
     d="m 525.15761,155.88014 c 5.33576,-19.5968 23.61193,-31.73361 23.61193,-31.73361 0,0 9.6252,19.63592 4.28945,39.23273 -5.33575,19.59682 -23.61194,31.7336 -23.61194,31.7336 0,0 -9.6252,-19.6359 -4.28944,-39.23272 z"
     id="path14"
     inkscape:connector-curvature="0"
     style="fill:#7625ff;stroke-width:0.9355216" />
  <path
     d="m 573.69812,155.88014 c -5.33576,-19.5968 -23.61193,-31.73361 -23.61193,-31.73361 0,0 -9.6252,19.63592 -4.28945,39.23273 5.33575,19.59682 23.61194,31.7336 23.61194,31.7336 0,0 9.62519,-19.6359 4.28944,-39.23272 z"
     id="path16"
     inkscape:connector-curvature="0"
     style="fill:#7625ff;stroke-width:0.9355216" />
  <path
     d="m 565.8576,160.09172 c -14.64139,-14.16079 -16.42974,-35.92921 -16.42974,-35.92921 0,0 21.95002,1.19075 36.59145,15.35153 14.64144,14.16078 16.42973,35.9292 16.42973,35.9292 0,0 -21.95004,-1.19074 -36.59144,-15.35152 z"
     id="path18"
     inkscape:connector-curvature="0"
     style="fill:#3f3d56;stroke-width:0.9355216" />
  <path
     d="m 532.99812,160.09172 c 14.6414,-14.16079 16.42974,-35.92921 16.42974,-35.92921 0,0 -21.95001,1.19075 -36.59145,15.35153 -14.64143,14.16078 -16.42973,35.9292 -16.42973,35.9292 0,0 21.95005,-1.19074 36.59144,-15.35152 z"
     id="path20"
     inkscape:connector-curvature="0"
     style="fill:#3f3d56;stroke-width:0.9355216" />
  <rect
     x="42.258244"
     y="56.095825"
     width="373.03424"
     height="376.88394"
     id="rect22"
     style="fill:#7625ff;stroke-width:0.9355216" />
  <polygon
     points="22.935,44.437 22.935,401.365 43.003,401.365 43.003,44.437 397.065,44.437 397.065,22.935 43.003,22.935 22.935,22.935 "
     id="polygon24"
     transform="matrix(0.93855638,0,0,0.93249659,28.529077,44.274742)"
     style="fill:#3f3d56" />
  <polygon
     points="22.935,44.437 22.935,401.365 43.003,401.365 43.003,44.437 397.065,44.437 397.065,22.935 43.003,22.935 22.935,22.935 "
     id="polygon26"
     transform="matrix(0.93855638,0,0,0.93249659,28.529077,44.274742)"
     style="opacity:0.3" />
  <polygon
     points="43.003,96.041 323.959,96.041 323.959,401.365 397.065,401.365 397.065,44.437 339.727,44.437 323.959,44.437 43.003,44.437 "
     id="polygon28"
     transform="matrix(0.93855638,0,0,0.93249659,28.529077,44.274742)"
     style="opacity:0.1" />
  <rect
     x="-1067.2484"
     y="-703.93243"
     width="364.15247"
     height="367.91055"
     transform="scale(-1)"
     id="rect68"
     style="fill:#7625ff;stroke-width:0.9355216" />
  <polygon
     points="1098.611,343.871 1098.611,692.301 1079.02,692.301 1079.02,343.871 733.389,343.871 733.389,322.881 1079.02,322.881 1098.611,322.881 "
     id="polygon70"
     transform="matrix(0.93855638,0,0,0.93249659,28.529077,44.274742)"
     style="fill:#3f3d56" />
  <polygon
     points="1098.611,343.871 1098.611,692.301 1079.02,692.301 1079.02,343.871 733.389,343.871 733.389,322.881 1079.02,322.881 1098.611,322.881 "
     id="polygon72"
     transform="matrix(0.93855638,0,0,0.93249659,28.529077,44.274742)"
     style="opacity:0.3" />
  <polygon
     points="1079.02,394.246 804.754,394.246 804.754,692.301 733.389,692.301 733.389,343.871 789.362,343.871 804.754,343.871 1079.02,343.871 "
     id="polygon74"
     transform="matrix(0.93855638,0,0,0.93249659,28.529077,44.274742)"
     style="opacity:0.1" />
  <path
     id="path1313-3"
     d="m 335.60245,130.17745 c -1.57678,-0.6714 -2.4027,-2.46177 -1.9522,-4.10295 0.0751,-0.1492 0.0751,-0.2984 0.0751,-0.4476 v 0 c 0.15017,-1.64118 -2.02729,-2.46178 -3.07847,-1.11899 v 0 c -0.0751,0.1492 -0.15017,0.2238 -0.15017,0.373 -0.75084,1.56658 -2.55287,2.38717 -4.20473,1.86498 -0.15017,0 -0.22525,-0.0746 -0.37542,-0.0746 v 0 c -1.72685,-0.0746 -2.55278,2.08878 -1.12618,3.13316 v 0 c 0.0751,0.0746 0.22526,0.1492 0.30034,0.1492 1.65177,0.74599 2.4777,2.46178 1.95211,4.17756 -0.0751,0.0746 -0.0751,0.22379 -0.0751,0.37299 v 0 c -0.15017,1.71578 2.02728,2.46177 3.07847,1.11899 v 0 c 0.0751,-0.0746 0.15016,-0.22379 0.22525,-0.29839 0.67576,-1.64119 2.47779,-2.46178 4.12965,-1.93959 0.15017,0.0746 0.30034,0.0746 0.37542,0.0746 v 0 c 1.72694,0.0746 2.55287,-2.08877 1.20135,-3.05856 v 0 c -0.15017,-0.0746 -0.22525,-0.1492 -0.37542,-0.2238 z"
     style="fill:#4d8af0;fill-opacity:1;fill-rule:nonzero;stroke:none;stroke-width:0.9355216"
     inkscape:connector-curvature="0" />
  <path
     id="path1315-2"
     d="m 198.57416,433.2739 c -1.57668,-0.74599 -2.40261,-2.53638 -1.95211,-4.17755 0.0751,-0.1492 0.0751,-0.2238 0.0751,-0.373 v 0 c 0.15017,-1.71578 -2.02728,-2.53637 -3.07847,-1.11899 v 0 c -0.0751,0.0746 -0.15017,0.2238 -0.15017,0.29839 -0.75084,1.64119 -2.55287,2.46178 -4.20473,1.93959 -0.15017,-0.0746 -0.22525,-0.0746 -0.37542,-0.0746 v 0 c -1.72694,-0.1492 -2.55287,2.01417 -1.12627,3.05857 v 0 c 0.0751,0.0746 0.22525,0.14919 0.30034,0.22379 1.65186,0.67139 2.47779,2.46177 1.9522,4.10295 -0.0751,0.1492 -0.0751,0.2984 -0.0751,0.373 v 0 c -0.15017,1.71578 2.02728,2.53637 3.07847,1.19359 v 0 c 0.0751,-0.1492 0.15017,-0.2238 0.22525,-0.373 0.67576,-1.56659 2.47779,-2.38717 4.12965,-1.93957 0.15017,0.0746 0.30034,0.0746 0.37542,0.0746 v 0 c 1.72685,0.14919 2.55278,-2.01419 1.20126,-3.05858 v 0 c -0.15017,-0.0746 -0.22525,-0.14919 -0.37542,-0.14919 z"
     style="fill:#4d8af0;fill-opacity:1;fill-rule:nonzero;stroke:none;stroke-width:0.9355216"
     inkscape:connector-curvature="0" />
  <path
     id="path1317-0"
     d="m 888.52065,322.34492 c 0,3.05857 -2.55287,5.59494 -5.63124,5.59494 -3.07847,0 -5.63134,-2.53637 -5.63134,-5.59494 0,-3.13316 2.55287,-5.59493 5.63134,-5.59493 3.07837,0 5.63124,2.46177 5.63124,5.59493 z"
     style="fill:#f55f44;fill-opacity:1;fill-rule:nonzero;stroke:none;stroke-width:0.9355216"
     inkscape:connector-curvature="0" />
  <path
     id="path1319-1"
     d="m 301.3641,673.55783 c 0,3.05858 -2.47769,5.59495 -5.63124,5.59495 -3.07847,0 -5.63134,-2.53637 -5.63134,-5.59495 0,-3.05856 2.55287,-5.59493 5.63134,-5.59493 3.15355,0 5.63124,2.53637 5.63124,5.59493 z"
     style="fill:#f55f44;fill-opacity:1;fill-rule:nonzero;stroke:none;stroke-width:0.9355216"
     inkscape:connector-curvature="0" />
  <path
     id="path1321-0"
     d="m 848.20055,582.77064 c 0,3.05857 -2.47779,5.59494 -5.63124,5.59494 -3.07847,0 -5.63134,-2.53637 -5.63134,-5.59494 0,-3.05856 2.55287,-5.59493 5.63134,-5.59493 3.15345,0 5.63124,2.53637 5.63124,5.59493 z"
     style="fill:#f55f44;fill-opacity:1;fill-rule:nonzero;stroke:none;stroke-width:0.9355216"
     inkscape:connector-curvature="0" />
  <path
     id="path1323-8"
     d="m 841.51812,157.25695 c -1.65185,-0.74599 -2.47778,-2.53637 -1.95219,-4.17755 0.0751,-0.1492 0.0751,-0.2238 0.0751,-0.373 v 0 c 0.0751,-1.71578 -2.10236,-2.53637 -3.07846,-1.11898 v 0 c -0.0751,0.0746 -0.15017,0.22379 -0.22526,0.29839 -0.67576,1.64118 -2.47779,2.46178 -4.12955,1.93958 -0.15017,-0.0746 -0.30034,-0.0746 -0.45051,-0.0746 v 0 c -1.65186,-0.1492 -2.47779,2.01417 -1.12627,3.05857 v 0 c 0.15017,0.0746 0.22526,0.1492 0.37543,0.22379 1.57668,0.6714 2.40261,2.46178 1.87702,4.10296 0,0.1492 -0.0751,0.29839 -0.0751,0.37299 v 0 c -0.0751,1.71579 2.10237,2.53638 3.15355,1.19359 v 0 c 0.0751,-0.1492 0.15017,-0.2238 0.15017,-0.373 0.75084,-1.56657 2.47779,-2.38717 4.20473,-1.93957 0.0751,0.0746 0.22526,0.0746 0.37542,0.0746 v 0 c 1.72695,0.1492 2.47779,-2.01419 1.12627,-3.05857 v 0 c -0.0751,-0.0746 -0.22525,-0.1492 -0.30034,-0.1492 z"
     style="fill:#4d8af0;fill-opacity:1;fill-rule:nonzero;stroke:none;stroke-width:0.9355216"
     inkscape:connector-curvature="0" />
  <path
     id="path1325-9"
     d="m 935.37302,742.86047 c -1.65176,-0.74599 -2.47769,-2.53637 -1.9521,-4.17755 0.0751,-0.1492 0.0751,-0.2238 0.0751,-0.373 v 0 c 0.0751,-1.71578 -2.10236,-2.53637 -3.07846,-1.11898 v 0 c -0.0751,0.0746 -0.15017,0.22379 -0.22526,0.29839 -0.67576,1.64118 -2.47779,2.46178 -4.12965,1.93958 -0.15017,-0.0746 -0.30034,-0.0746 -0.45051,-0.0746 v 0 c -1.65186,-0.1492 -2.47779,2.01417 -1.12627,3.05857 v 0 c 0.15017,0.0746 0.22525,0.1492 0.37542,0.22379 1.57678,0.6714 2.40271,2.46177 1.87712,4.10296 0,0.1492 -0.0751,0.2984 -0.0751,0.37299 v 0 c -0.0751,1.71579 2.10238,2.53638 3.15356,1.19359 v 0 c 0.0751,-0.1492 0.15017,-0.2238 0.15017,-0.373 0.75084,-1.56658 2.47779,-2.38717 4.20464,-1.93957 0.0751,0.0746 0.22525,0.0746 0.37542,0.0746 v 0 c 1.72694,0.1492 2.47779,-2.01419 1.12627,-3.05857 v 0 c -0.0751,-0.0746 -0.22525,-0.1492 -0.30034,-0.1492 z"
     style="fill:#4d8af0;fill-opacity:1;fill-rule:nonzero;stroke:none;stroke-width:0.9355216"
     inkscape:connector-curvature="0" />
  <path
     id="path1327-8"
     d="m 192.0419,256.10086 c -1.65186,-0.74599 -2.47779,-2.53637 -1.9522,-4.17756 0.0751,-0.1492 0.0751,-0.2238 0.0751,-0.37299 v 0 c 0.0751,-1.71578 -2.10237,-2.53637 -3.07847,-1.11899 v 0 c -0.0751,0.0746 -0.15017,0.2238 -0.22525,0.2984 -0.67576,1.64118 -2.4777,2.46177 -4.12956,1.93958 -0.15017,-0.0746 -0.30034,-0.0746 -0.4505,-0.0746 v 0 c -1.65186,-0.1492 -2.47779,2.01417 -1.12627,3.05856 v 0 c 0.15017,0.0746 0.22525,0.1492 0.37542,0.2238 1.57678,0.6714 2.40271,2.46177 1.87711,4.10296 0,0.1492 -0.0751,0.2984 -0.0751,0.373 v 0 c -0.0751,1.71577 2.10237,2.53637 3.15345,1.19358 v 0 c 0.0751,-0.1492 0.15017,-0.2238 0.15017,-0.373 0.75085,-1.56658 2.47779,-2.38717 4.20474,-1.93958 0.0751,0.0746 0.22525,0.0746 0.37542,0.0746 v 0 c 1.72694,0.1492 2.47779,-2.01417 1.12627,-3.05856 v 0 c -0.0751,-0.0746 -0.22526,-0.1492 -0.30034,-0.1492 z"
     style="fill:#4d8af0;fill-opacity:1;fill-rule:nonzero;stroke:none;stroke-width:0.9355216"
     inkscape:connector-curvature="0" />
  <path
     id="path1329-7"
     d="m 260.59359,350.31961 c 0,3.05857 -2.47779,5.59495 -5.63134,5.59495 -3.07847,0 -5.63134,-2.53638 -5.63134,-5.59495 0,-3.13316 2.55287,-5.59493 5.63134,-5.59493 3.15355,0 5.63134,2.46177 5.63134,5.59493 z"
     style="fill:#47e6b1;fill-opacity:1;fill-rule:nonzero;stroke:none;stroke-width:0.9355216"
     inkscape:connector-curvature="0" />
  <path
     id="path1331-2"
     d="m 925.53703,459.3836 c 0,3.13317 -2.55287,5.59495 -5.63124,5.59495 -3.15355,0 -5.63134,-2.46178 -5.63134,-5.59495 0,-3.05856 2.47779,-5.59493 5.63134,-5.59493 3.07837,0 5.63124,2.53637 5.63124,5.59493 z"
     style="fill:#47e6b1;fill-opacity:1;fill-rule:nonzero;stroke:none;stroke-width:0.9355216"
     inkscape:connector-curvature="0" />
  <path
     id="path1333-7"
     d="m 539.53048,150.76682 h 2.85311 v 15.81503 h -2.85311 z"
     style="fill:#47e6b1;fill-opacity:1;fill-rule:nonzero;stroke:none;stroke-width:0.9355216"
     inkscape:connector-curvature="0" />
  <path
     id="path1335-1"
     d="m 548.91595,157.25695 v 2.83477 h -15.91783 v -2.83477 z"
     style="fill:#47e6b1;fill-opacity:1;fill-rule:nonzero;stroke:none;stroke-width:0.9355216"
     inkscape:connector-curvature="0" />
  <path
     id="path1341-7"
     d="m 205.25668,740.1003 h 2.77813 v 15.81503 h -2.77813 z"
     style="fill:#47e6b1;fill-opacity:1;fill-rule:nonzero;stroke:none;stroke-width:0.9355216"
     inkscape:connector-curvature="0" />
  <path
     id="path1343-6"
     d="m 214.64215,746.59043 v 2.83477 h -15.99291 v -2.83477 z"
     style="fill:#47e6b1;fill-opacity:1;fill-rule:nonzero;stroke:none;stroke-width:0.9355216"
     inkscape:connector-curvature="0" />
  <path
     id="path1345-2"
     d="m 248.20474,571.65536 h 2.85311 v 15.81503 h -2.85311 z"
     style="fill:#47e6b1;fill-opacity:1;fill-rule:nonzero;stroke:none;stroke-width:0.9355216"
     inkscape:connector-curvature="0" />
  <path
     id="path1347-6"
     d="m 257.59021,578.14549 v 2.83477 h -15.91783 v -2.83477 z"
     style="fill:#47e6b1;fill-opacity:1;fill-rule:nonzero;stroke:none;stroke-width:0.9355216"
     inkscape:connector-curvature="0" />
  <path
     id="path1349-9"
     d="m 505.81772,529.80523 -8.55954,-9.4741 2.55287,-1.04438 6.00667,5.52033 8.55963,-12.53266 3.07838,2.53637 z"
     style="fill:#47e6b1;fill-opacity:1;fill-rule:nonzero;stroke:none;stroke-width:0.9355216"
     inkscape:connector-curvature="0" />
  <path
     id="path1405-3"
     d="m 281.84232,579.04068 h -5.25592 c -0.37542,0 -0.67576,0.2984 -0.67576,0.5968 v 2.16337 c 0,0.373 0.30034,0.6714 0.67576,0.6714 h 0.90101 v 3.20776 h 3.52898 v -3.20776 h 0.82593 c 0.37542,0 0.67576,-0.2984 0.67576,-0.6714 v -2.16337 c 0,-0.2984 -0.30034,-0.5968 -0.67576,-0.5968 z"
     style="fill:#e6e6e6;fill-opacity:1;fill-rule:nonzero;stroke:none;stroke-width:0.9355216"
     inkscape:connector-curvature="0" />
  <path
     id="path1407-9"
     d="m 280.79113,579.71208 c -0.0751,1.86497 -3.00338,1.86497 -3.00338,0 z"
     style="fill:#000000;fill-opacity:1;fill-rule:nonzero;stroke:none;stroke-width:0.9355216"
     inkscape:connector-curvature="0" />
  <rect
     x="104.17142"
     y="-324.51746"
     width="243.45007"
     height="191.17966"
     transform="rotate(90)"
     id="rect1082-30-7"
     style="fill:#2f2e41;stroke-width:0.95446026" />
  <rect
     x="100.49385"
     y="96.73774"
     width="256.86703"
     height="96.636673"
     id="rect1084-9-8"
     style="fill:#7625ff;fill-opacity:1;stroke-width:0.95446026" />
  <rect
     x="100.49385"
     y="204.52486"
     width="256.86703"
     height="96.636673"
     id="rect1086-0-1"
     style="fill:#7625ff;fill-opacity:1;stroke-width:0.95446026" />
  <rect
     x="100.49385"
     y="312.3118"
     width="256.86703"
     height="105.74604"
     id="rect1088-1-9"
     style="fill:#7625ff;fill-opacity:1;stroke-width:0.99843293" />
  <rect
     x="100.49385"
     y="137.71198"
     width="256.86703"
     height="14.867182"
     id="rect1090-55-4"
     style="fill:#378bfe;fill-opacity:1;stroke-width:0.95446026" />
  <rect
     x="100.49385"
     y="245.49908"
     width="256.86703"
     height="14.867182"
     id="rect1092-83-4"
     style="fill:#378bfe;fill-opacity:1;stroke-width:0.95446026" />
  <rect
     x="100.49385"
     y="353.28616"
     width="256.86703"
     height="14.867182"
     id="rect1094-7-9"
     style="fill:#378bfe;fill-opacity:1;stroke-width:0.95446026" />
  <ellipse
     cx="307.36017"
     cy="110.6757"
     id="circle1096-2-5"
     style="fill:#378bfe;fill-opacity:1;stroke-width:0.95446026"
     rx="5.8824506"
     ry="5.5751925" />
  <ellipse
     cx="327.94873"
     cy="110.6757"
     id="circle1098-59-0"
     style="fill:#378bfe;fill-opacity:1;stroke-width:0.95446026"
     rx="5.8824506"
     ry="5.5751925" />
  <ellipse
     cx="348.53726"
     cy="110.6757"
     id="circle1100-9-6"
     style="fill:#378bfe;fill-opacity:1;stroke-width:0.95446026"
     rx="5.8824506"
     ry="5.5751925" />
  <ellipse
     cx="307.36017"
     cy="216.60448"
     id="circle1102-1-9"
     style="fill:#378bfe;fill-opacity:1;stroke-width:0.95446026"
     rx="5.8824506"
     ry="5.5751925" />
  <ellipse
     cx="327.94873"
     cy="216.60448"
     id="circle1104-2-7"
     style="fill:#378bfe;fill-opacity:1;stroke-width:0.95446026"
     rx="5.8824506"
     ry="5.5751925" />
  <ellipse
     cx="348.53726"
     cy="216.60448"
     id="circle1106-24-6"
     style="fill:#378bfe;fill-opacity:1;stroke-width:0.95446026"
     rx="5.8824506"
     ry="5.5751925" />
  <ellipse
     cx="307.36017"
     cy="322.53308"
     id="circle1108-6-3"
     style="fill:#378bfe;fill-opacity:1;stroke-width:0.95446026"
     rx="5.8824506"
     ry="5.5751925" />
  <ellipse
     cx="327.94873"
     cy="322.53308"
     id="circle1110-7-0"
     style="fill:#378bfe;fill-opacity:1;stroke-width:0.95446026"
     rx="5.8824506"
     ry="5.5751925" />
  <ellipse
     cx="348.53726"
     cy="322.53308"
     id="circle1112-6-9"
     style="fill:#378bfe;fill-opacity:1;stroke-width:0.95446026"
     rx="5.8824506"
     ry="5.5751925" />
  <rect
     x="381.88861"
     y="-984.76312"
     width="253.92387"
     height="199.42108"
     transform="rotate(90)"
     id="rect1082-30-1"
     style="fill:#2f2e41;stroke-width:0.99556434" />
  <rect
     x="751.08221"
     y="374.1351"
     width="267.94009"
     height="100.7942"
     id="rect1084-9-7"
     style="fill:#7625ff;fill-opacity:1;stroke-width:0.99556434" />
  <rect
     x="751.08221"
     y="486.55945"
     width="267.94009"
     height="100.7942"
     id="rect1086-0-6"
     style="fill:#7625ff;fill-opacity:1;stroke-width:0.99556434" />
  <rect
     x="751.08221"
     y="598.98364"
     width="267.94009"
     height="100.7942"
     id="rect1088-1-2"
     style="fill:#7625ff;fill-opacity:1;stroke-width:0.99556434" />
  <rect
     x="751.08221"
     y="416.87216"
     width="267.94009"
     height="15.506802"
     id="rect1090-55-3"
     style="fill:#378bfe;fill-opacity:1;stroke-width:0.99556434" />
  <rect
     x="751.08221"
     y="529.29645"
     width="267.94009"
     height="15.506802"
     id="rect1092-83-2"
     style="fill:#378bfe;fill-opacity:1;stroke-width:0.99556434" />
  <rect
     x="751.08221"
     y="641.72089"
     width="267.94009"
     height="15.506802"
     id="rect1094-7-4"
     style="fill:#378bfe;fill-opacity:1;stroke-width:0.99556434" />
  <ellipse
     cx="966.86609"
     cy="388.67273"
     id="circle1096-2-8"
     style="fill:#378bfe;fill-opacity:1;stroke-width:0.99556434"
     rx="6.1360331"
     ry="5.8150501" />
  <ellipse
     cx="988.34229"
     cy="388.67273"
     id="circle1098-59-4"
     style="fill:#378bfe;fill-opacity:1;stroke-width:0.99556434"
     rx="6.1360331"
     ry="5.8150501" />
  <ellipse
     cx="1009.8182"
     cy="388.67273"
     id="circle1100-9-2"
     style="fill:#378bfe;fill-opacity:1;stroke-width:0.99556434"
     rx="6.1360331"
     ry="5.8150501" />
  <ellipse
     cx="966.86609"
     cy="499.15875"
     id="circle1102-1-5"
     style="fill:#378bfe;fill-opacity:1;stroke-width:0.99556434"
     rx="6.1360331"
     ry="5.8150501" />
  <ellipse
     cx="988.34229"
     cy="499.15875"
     id="circle1104-2-72"
     style="fill:#378bfe;fill-opacity:1;stroke-width:0.99556434"
     rx="6.1360331"
     ry="5.8150501" />
  <ellipse
     cx="1009.8182"
     cy="499.15875"
     id="circle1106-24-1"
     style="fill:#378bfe;fill-opacity:1;stroke-width:0.99556434"
     rx="6.1360331"
     ry="5.8150501" />
  <ellipse
     cx="966.86609"
     cy="609.64471"
     id="circle1108-6-1"
     style="fill:#378bfe;fill-opacity:1;stroke-width:0.99556434"
     rx="6.1360331"
     ry="5.8150501" />
  <ellipse
     cx="988.34229"
     cy="609.64471"
     id="circle1110-7-9"
     style="fill:#378bfe;fill-opacity:1;stroke-width:0.99556434"
     rx="6.1360331"
     ry="5.8150501" />
  <ellipse
     cx="1009.8182"
     cy="609.64471"
     id="circle1112-6-6"
     style="fill:#378bfe;fill-opacity:1;stroke-width:0.99556434"
     rx="6.1360331"
     ry="5.8150501" />
  <text
     xml:space="preserve"
     style="font-style:normal;font-weight:normal;font-size:40px;line-height:1.25;font-family:sans-serif;letter-spacing:0px;word-spacing:0px;fill:#000000;fill-opacity:1;stroke:none"
     x="128.28345"
     y="466.37146"
     id="text1803"><tspan
       sodipodi:role="line"
       id="tspan1801"
       x="128.28345"
       y="502.86469" /></text>
  <path
     d="m 311.83012,818.1314 c -75.5492,-2.1e-4 -140.57886,-53.36968 -155.31254,-127.45827 -14.73349,-74.08765 24.93351,-148.25245 94.7298,-177.16291 69.79628,-28.91046 150.28745,-4.5166 192.25701,58.28954 41.97009,62.80694 33.72485,146.52775 -19.6965,199.94911 -29.63343,29.79535 -69.95528,46.49715 -111.97777,46.38253 z m 4.42191,-300.02604 c -86.64841,0 -161.56433,55.01733 -161.56433,141.66605 0,86.64871 71.59949,130.61072 158.2479,130.61072 86.64843,0 156.03696,-43.962 156.03696,-130.61072 0,-86.64872 -66.0721,-141.66605 -152.72053,-141.66605 z"
     id="path1080-2"
     inkscape:connector-curvature="0"
     style="fill:#a066fe;fill-opacity:1;stroke-width:0.60892707"
     sodipodi:nodetypes="csssccsssss" />
  <path
     d="M 792.39945,304.99764 C 722.97007,304.99745 663.2081,256.6168 649.66792,189.45378 636.12791,122.29162 672.5817,55.059522 736.72418,28.851523 800.86665,2.6435237 874.83767,24.757121 913.40751,81.692335 c 38.57032,56.935935 30.99298,132.830785 -18.101,181.258475 -27.23298,27.01017 -64.28858,42.15074 -102.90706,42.04683 z m 4.06371,-271.980516 c -79.6295,0 -148.47689,49.874478 -148.47689,128.423536 0,78.54906 65.7996,118.40163 145.42911,118.40163 79.62952,0 143.39726,-39.85257 143.39726,-118.40163 0,-78.549058 -60.71996,-128.423536 -140.34948,-128.423536 z"
     id="path1080-2-4"
     inkscape:connector-curvature="0"
     style="fill:#a066fe;fill-opacity:1;stroke-width:0.55579084"
     sodipodi:nodetypes="csssccsssss" />
</svg>
