<?xml version="1.0" encoding="UTF-8" standalone="no"?>
<svg
   xmlns:dc="http://purl.org/dc/elements/1.1/"
   xmlns:cc="http://creativecommons.org/ns#"
   xmlns:rdf="http://www.w3.org/1999/02/22-rdf-syntax-ns#"
   xmlns:svg="http://www.w3.org/2000/svg"
   xmlns="http://www.w3.org/2000/svg"
   xmlns:sodipodi="http://sodipodi.sourceforge.net/DTD/sodipodi-0.dtd"
   xmlns:inkscape="http://www.inkscape.org/namespaces/inkscape"
   width="16"
   height="14"
   viewBox="0 0 16 14"
   version="1.1"
   id="svg3"
   sodipodi:docname="tip9.svg"
   inkscape:version="0.92.4 (5da689c313, 2019-01-14)">
  <metadata
     id="metadata9">
    <rdf:RDF>
      <cc:Work
         rdf:about="">
        <dc:format>image/svg+xml</dc:format>
        <dc:type
           rdf:resource="http://purl.org/dc/dcmitype/StillImage" />
        <dc:title></dc:title>
      </cc:Work>
    </rdf:RDF>
  </metadata>
  <defs
     id="defs7" />
  <sodipodi:namedview
     pagecolor="#ffffff"
     bordercolor="#666666"
     borderopacity="1"
     objecttolerance="10"
     gridtolerance="10"
     guidetolerance="10"
     inkscape:pageopacity="0"
     inkscape:pageshadow="2"
     inkscape:window-width="1920"
     inkscape:window-height="1017"
     id="namedview5"
     showgrid="false"
     inkscape:zoom="23.8396"
     inkscape:cx="-2.6950491"
     inkscape:cy="11.253591"
     inkscape:window-x="-8"
     inkscape:window-y="-8"
     inkscape:window-maximized="1"
     inkscape:current-layer="svg3" />
  <path
     style="fill:#a0a2c4;fill-opacity:1;stroke:#f44336;stroke-width:0;stroke-miterlimit:4;stroke-dasharray:none;stroke-opacity:1"
     d="M 8.0214844 0.044921875 A 7.9926252 6.9760537 0 0 0 0.029296875 7.0214844 A 7.9926252 6.9760537 0 0 0 8.0214844 13.998047 A 7.9926252 6.9760537 0 0 0 16.015625 7.0214844 A 7.9926252 6.9760537 0 0 0 8.0214844 0.044921875 z M 8.0175781 1.0429688 A 7.0802803 6.0051646 0 0 1 15.097656 7.0488281 A 7.0802803 6.0051646 0 0 1 8.0175781 13.054688 A 7.0802803 6.0051646 0 0 1 0.9375 7.0488281 A 7.0802803 6.0051646 0 0 1 8.0175781 1.0429688 z "
     id="path889" />
  <g
     id="Group_13395"
     data-name="Group 13395"
     transform="matrix(0.5171179,0,0,0.5171179,3.2837881,3.629409)"
     style="fill:#a0a2c4;fill-opacity:1">
    <path
       inkscape:connector-curvature="0"
       id="Path_639"
       d="m 3055.069,1680.056 4.522,-2.611 4.522,-2.626 -4.522,-2.611 -4.522,2.611 -4.522,-2.611 -4.522,2.611 4.522,2.626 z"
       class="cls-2"
       data-name="Path 639"
       transform="translate(-3046.025,-1665.122)"
       style="fill:#a0a2c4;fill-opacity:1" />
    <path
       inkscape:connector-curvature="0"
       id="Path_640"
       d="m 3055.069,1560.848 4.522,-2.611 4.522,-2.626 -4.522,-2.611 -4.522,2.611 -4.522,-2.611 -4.522,2.611 4.522,2.626 z"
       class="cls-2"
       data-name="Path 640"
       transform="translate(-3046.025,-1553)"
       style="fill:#a0a2c4;fill-opacity:1" />
  </g>
</svg>
