<?xml version="1.0" standalone="no"?><!DOCTYPE svg PUBLIC "-//W3C//DTD SVG 1.1//EN" "http://www.w3.org/Graphics/SVG/1.1/DTD/svg11.dtd"><svg class="icon" width="16px" height="16.00px" viewBox="0 0 1024 1024" version="1.1" xmlns="http://www.w3.org/2000/svg"><path d="M938.666667 671.516444c0 292.977778-366.364444 303.729778-420.124445 303.729778l-6.542222-0.056889h-6.542222c-53.816889 0-420.124444-10.695111-420.124445-303.672889 0-316.131556 340.309333-465.351111 340.309334-465.351111S311.580444 164.181333 311.580444 75.093333C311.580444 2.844444 481.223111 0 508.359111 0h7.281778c27.136 0 196.778667 2.844444 196.778667 75.093333 0 89.088-114.062222 131.072-114.062223 131.072S938.666667 355.384889 938.666667 671.516444z m-361.585778-412.444444a57.514667 57.514667 0 0 1-33.621333-54.613333c0.625778-23.722667 15.189333-44.544 36.636444-52.451556 15.246222-5.802667 70.656-33.962667 76.8-70.371555-16.327111-10.979556-69.404444-24.291556-141.255111-24.291556h-7.281778c-71.850667 0-124.928 13.312-141.312 24.291556 6.257778 36.693333 62.350222 65.024 76.8 70.371555 21.504 7.964444 36.067556 28.728889 36.693333 52.451556 0.682667 23.665778-12.686222 45.397333-33.621333 54.613333-2.958222 1.308444-306.631111 138.979556-306.631111 412.444444 0 234.496 304.184889 246.328889 365.169778 246.328889h5.12l1.422222-0.056889h1.536l5.006222 0.056889c60.984889 0 365.226667-11.832889 365.226667-246.328889 0-274.773333-303.616-411.136-306.688-412.444444z m54.328889 372.792889c15.189333 0 27.477333 12.856889 27.477333 28.672a28.103111 28.103111 0 0 1-27.477333 28.672H538.339556v75.320889a29.013333 29.013333 0 0 1-13.368889 25.884444 26.567111 26.567111 0 0 1-28.16 0 29.013333 29.013333 0 0 1-13.368889-25.884444v-75.320889H394.808889a28.103111 28.103111 0 0 1-27.534222-28.672c0-15.815111 12.344889-28.672 27.534222-28.672h88.576v-58.595556H392.533333a27.306667 27.306667 0 0 1-23.836444-14.336 29.752889 29.752889 0 0 1 0-28.672 27.306667 27.306667 0 0 1 23.893333-14.336h47.160889l-45.511111-47.445333a29.582222 29.582222 0 0 1 0-40.618667 26.908444 26.908444 0 0 1 19.456-8.362666c7.281778 0 14.222222 3.015111 19.399111 8.362666L510.862222 509.041778 588.629333 427.804444a26.908444 26.908444 0 0 1 19.399111-8.362666c7.281778 0 14.222222 3.015111 19.399112 8.362666a29.582222 29.582222 0 0 1 0 40.618667l-45.454223 47.445333h47.160889c15.189333 0 27.534222 12.856889 27.534222 28.672a28.103111 28.103111 0 0 1-27.534222 28.672H538.339556v58.595556H631.466667z" fill="#a0a2c4" /></svg>