<svg xmlns="http://www.w3.org/2000/svg" width="16" height="16" viewBox="0 0 16 16">
  <path id="Icon_awesome-edit" data-name="Icon awesome-edit" d="M11.183,2.6l2.506,2.819a.333.333,0,0,1,0,.431L7.622,12.681,5.044,13a.577.577,0,0,1-.6-.672l.286-2.9L10.8,2.6A.251.251,0,0,1,11.183,2.6Zm4.5-.716L14.328.363a1,1,0,0,0-1.533,0L11.811,1.47a.333.333,0,0,0,0,.431L14.317,4.72a.251.251,0,0,0,.383,0l.983-1.106a1.333,1.333,0,0,0,0-1.725Zm-5.017,8.936v3.182H1.778V4H8.161A.323.323,0,0,0,8.4,3.9l1.111-1.25A.383.383,0,0,0,9.272,2H1.333A1.425,1.425,0,0,0,0,3.5v11a1.425,1.425,0,0,0,1.333,1.5h9.778a1.425,1.425,0,0,0,1.333-1.5V9.575a.331.331,0,0,0-.569-.266l-1.111,1.25A.41.41,0,0,0,10.667,10.825Z" transform="translate(0 -0.007)" fill="#ffffff"/>
</svg>
