<svg xmlns="http://www.w3.org/2000/svg" width="82.451" height="54.862" data-name="Component 847 – 4" viewBox="0 0 82.451 54.862">
    <g data-name="Group 13197">
        <path d="M82.448 44.688s-10.562-.485-13.787-2.3a15.289 15.289 0 0 1-7.688 2.059h-26.02a15.423 15.423 0 0 1-15.405-15.405V15.406A15.423 15.423 0 0 1 34.956 0h26.02a15.422 15.422 0 0 1 15.4 15.405v13.636c0 .422-.018.855-.055 1.29v2.325c.005 9.438 6.127 12.032 6.127 12.032zm-47.5-40.7a11.428 11.428 0 0 0-11.415 11.415v13.636a11.429 11.429 0 0 0 11.415 11.416h26.02a11.327 11.327 0 0 0 6.516-2.049l1.094-.764 1.124.719a18.581 18.581 0 0 0 4.248 2.015 17.493 17.493 0 0 1-1.622-7.722l.008-2.589c.031-.347.047-.693.047-1.026V15.403A11.428 11.428 0 0 0 60.968 3.988z" data-name="Path 21710"/>
    </g>
    <g data-name="Group 13198">
        <path d="M62.897 54.862s-10.562-.485-13.787-2.3a15.292 15.292 0 0 1-7.688 2.059h-26.02A15.423 15.423 0 0 1-.003 39.216V25.575a15.423 15.423 0 0 1 15.408-15.4h26.02a15.422 15.422 0 0 1 15.4 15.405v13.635c0 .422-.018.855-.055 1.291v2.326c.005 9.437 6.127 12.03 6.127 12.03zm-47.5-40.7A11.428 11.428 0 0 0 3.982 25.577v13.635a11.428 11.428 0 0 0 11.415 11.416h26.02a11.334 11.334 0 0 0 6.516-2.048l1.094-.764 1.123.719a18.586 18.586 0 0 0 4.249 2.016 17.493 17.493 0 0 1-1.622-7.721l.008-2.589c.031-.348.047-.692.047-1.027V25.575A11.428 11.428 0 0 0 41.417 14.16z" data-name="Path 21711"/>
    </g>
</svg>
