<svg xmlns="http://www.w3.org/2000/svg" id="prefix__Component_599_5" width="294.324" height="277.178" data-name="Component 599 – 5" viewBox="0 0 294.324 277.178">
    <path id="prefix__Path_21609" d="M138.587 0h5.04a138.589 138.589 0 0 1 0 277.178h-5.04a138.589 138.589 0 0 1 0-277.178z" data-name="Path 21609" transform="translate(2.027)" style="fill:#e5e5e5;opacity:0"/>
    <g id="prefix__Group_13193" data-name="Group 13193" transform="translate(0 41.183)">
        <path id="prefix__Path_21689" d="M1878.7 8334.516c-11.517-5.68-18.407-20.5-18.437-39.648l-.016-9.121c.138-1.547.205-3.094.2-4.6l-.076-51.777a51.348 51.348 0 0 0-51.287-51.211H1809l-98.785.152a51.347 51.347 0 0 0-51.215 51.365l.076 51.777a51.34 51.34 0 0 0 51.288 51.2h.08l98.783-.148a50.751 50.751 0 0 0 29.071-9.113 77.66 77.66 0 0 0 40.151 12.137l2.344.039z" data-name="Path 21689" transform="translate(-1659.005 -8139.413)" style="fill:#a067ff"/>
        <path id="prefix__Path_21690" d="M1976.688 8283.426c-11.64-5.773-18.587-20.73-18.587-40.016v-9.164c.133-1.5.2-3.031.2-4.562v-51.77A50.966 50.966 0 0 0 1907.4 8127h-98.786a50.966 50.966 0 0 0-50.908 50.914v51.77a50.973 50.973 0 0 0 50.908 50.914h98.786a50.667 50.667 0 0 0 29.075-9.145 77.105 77.105 0 0 0 40.146 12.25l.656.02z" data-name="Path 21690" transform="translate(-1682.951 -8127)" style="fill:#368bff"/>
        <path id="prefix__Path_21691" d="M1883.936 8229.5a50.967 50.967 0 0 0-50.985-50.836l-23.747.039-50.134.078a50.824 50.824 0 0 0-1.366 11.672v51.77a50.964 50.964 0 0 0 50.908 50.906h75.213l-.013-7.285c.133-1.5.2-3.02.2-4.574z" data-name="Path 21691" transform="translate(-1682.951 -8139.535)" style="fill:#7624fe"/>
    </g>
</svg>
