<svg xmlns="http://www.w3.org/2000/svg" width="16" height="16" viewBox="0 0 16 16">
  <path id="Icon_awesome-file-video" data-name="Icon awesome-file-video" d="M16,3.811V4H10.667V0h.252a1.19,1.19,0,0,1,.707.22L15.707,3.28a.671.671,0,0,1,.293.53ZM9.333,4.25V0H1C.448,0,0,.336,0,.75v14.5c0,.414.448.75,1,.75H15c.552,0,1-.336,1-.75V5H10.333C9.783,5,9.333,4.662,9.333,4.25Zm4,4.5v3.5c0,.67-1.081,1-1.707.53L9.333,11.061V12.25c0,.414-.448.75-1,.75H3.667c-.552,0-1-.336-1-.75V8.75c0-.414.448-.75,1-.75H8.333c.552,0,1,.336,1,.75V9.939L11.626,8.22C12.252,7.751,13.333,8.08,13.333,8.75Z" fill="#7624fe"/>
</svg>
