<svg xmlns="http://www.w3.org/2000/svg" width="21.334" height="20" viewBox="0 0 21.334 20">
  <g id="video-gallery-line" transform="translate(-1.333 -1.333)">
    <path id="Path_214" data-name="Path 214" d="M21.413,6.667H2.587A1.253,1.253,0,0,0,1.333,7.92V20.08a1.253,1.253,0,0,0,1.254,1.253H21.414a1.253,1.253,0,0,0,1.253-1.253V7.92a1.253,1.253,0,0,0-1.254-1.253ZM21.333,20H2.667V8H21.334Z"/>
    <path id="Path_215" data-name="Path 215" d="M20.093,2a.667.667,0,0,0-.667-.667H4.759A.667.667,0,0,0,4.092,2v.667h16Z"/>
    <path id="Path_216" data-name="Path 216" d="M21.413,4.667A.667.667,0,0,0,20.746,4H3.413a.667.667,0,0,0-.667.667v.667H21.413Z"/>
    <path id="Path_217" data-name="Path 217" d="M8.547,17.86a1.16,1.16,0,0,0,.62.187,1.12,1.12,0,0,0,.46-.1L16.14,15.04a1.127,1.127,0,0,0,0-2.067L9.627,10.066A1.133,1.133,0,0,0,8.034,11.1v5.813a1.133,1.133,0,0,0,.513.947Zm.42-6.76a.193.193,0,0,1,.093-.167.2.2,0,0,1,.107,0,.18.18,0,0,1,.08,0l6.513,2.9a.193.193,0,0,1,.12.187.187.187,0,0,1-.12.18L9.247,17.107a.187.187,0,0,1-.187,0,.207.207,0,0,1-.093-.167Z"/>
  </g>
</svg>
