<svg id="filter-circle" xmlns="http://www.w3.org/2000/svg" width="20" height="20" viewBox="0 0 20 20">
  <path id="Path_365" data-name="Path 365" d="M10,18.75A8.75,8.75,0,1,0,1.25,10,8.75,8.75,0,0,0,10,18.75ZM10,20A10,10,0,1,0,0,10,10,10,0,0,0,10,20Z" fill-rule="evenodd"/>
  <path id="Path_366" data-name="Path 366" d="M8.75,14.375a.625.625,0,0,1,.625-.625h1.25a.625.625,0,0,1,0,1.25H9.375A.625.625,0,0,1,8.75,14.375Zm-2.5-3.75A.625.625,0,0,1,6.875,10h6.25a.625.625,0,0,1,0,1.25H6.875A.625.625,0,0,1,6.25,10.625Zm-2.5-3.75a.625.625,0,0,1,.625-.625h11.25a.625.625,0,0,1,0,1.25H4.375A.625.625,0,0,1,3.75,6.875Z" fill-rule="evenodd"/>
</svg>
