<svg xmlns="http://www.w3.org/2000/svg" width="103.154" height="103.154" viewBox="0 0 103.154 103.154">
    <defs>
        <style>
            .cls-2{fill:none;stroke:#17c700;stroke-linecap:round;stroke-linejoin:round;stroke-width:7px}
        </style>
    </defs>
    <g id="Component_849_13" data-name="Component 849 – 13" transform="translate(-11.052 -11.052)">
        <g id="Path_2220" fill="none" stroke="none" data-name="Path 2220">
            <path d="M51.577 0A51.577 51.577 0 1 1 0 51.577 51.577 51.577 0 0 1 51.577 0z" transform="translate(11.052 11.052)"/>
            <path fill="#17c700" d="M51.577 3c-6.56 0-12.92 1.284-18.907 3.816-5.785 2.447-10.98 5.95-15.442 10.412-4.462 4.462-7.965 9.657-10.412 15.442C4.284 38.657 3 45.018 3 51.577c0 6.56 1.284 12.92 3.816 18.908 2.447 5.784 5.95 10.98 10.412 15.441 4.462 4.463 9.657 7.966 15.442 10.412 5.987 2.532 12.348 3.816 18.907 3.816 6.56 0 12.92-1.284 18.908-3.816 5.784-2.446 10.98-5.95 15.441-10.412 4.463-4.462 7.966-9.657 10.412-15.441 2.532-5.987 3.816-12.349 3.816-18.908 0-6.56-1.284-12.92-3.816-18.907-2.446-5.785-5.95-10.98-10.412-15.442-4.462-4.462-9.657-7.965-15.441-10.412C64.498 4.284 58.136 3 51.577 3m0-3c28.485 0 51.577 23.092 51.577 51.577s-23.092 51.577-51.577 51.577S0 80.062 0 51.577 23.092 0 51.577 0z" transform="translate(11.052 11.052)"/>
        </g>
        <g id="Group_13393" data-name="Group 13393" transform="translate(-519.553 -886.153)">
            <path id="Path_21847" d="M561.727 948.688L576.44 963.4l29.426-29.427" class="cls-2" data-name="Path 21847" transform="translate(6.053)"/>
            <path id="Line_8" d="M0 21.759L21.759 0" class="cls-2" data-name="Line 8" transform="translate(574.825 933.974)"/>
            <path id="Line_9" d="M0 0L14.713 14.713" class="cls-2" data-name="Line 9" transform="translate(552.445 948.688)"/>
        </g>
    </g>
</svg>
