<?xml version="1.0" standalone="no"?><!DOCTYPE svg PUBLIC "-//W3C//DTD SVG 1.1//EN" "http://www.w3.org/Graphics/SVG/1.1/DTD/svg11.dtd"><svg class="icon" width="32px" height="32.00px" viewBox="0 0 1024 1024" version="1.1" xmlns="http://www.w3.org/2000/svg"><path d="M346.05056 972.8H132.97152A76.71808 76.71808 0 0 1 56.32 896.17408V681.0624a34.816 34.816 0 1 1 69.632 0v215.11168a7.02464 7.02464 0 0 0 7.01952 7.0144h213.08416a34.816 34.816 0 1 1 0 69.632zM91.136 373.8112a34.816 34.816 0 0 1-34.816-34.816V127.8464A76.72832 76.72832 0 0 1 132.96128 51.2h213.08416a34.816 34.816 0 1 1 0 69.632H132.97152a7.02464 7.02464 0 0 0-7.01952 7.01952v211.15904a34.816 34.816 0 0 1-34.816 34.816zM901.27872 972.8h-211.24096a34.816 34.816 0 0 1 0-69.632h211.24096a7.01952 7.01952 0 0 0 7.0144-7.0144v-215.09632a34.816 34.816 0 1 1 69.632 0v215.10656A76.71808 76.71808 0 0 1 901.27872 972.8zM943.104 373.8112a34.816 34.816 0 0 1-34.816-34.816V127.8464a7.02464 7.02464 0 0 0-7.0144-7.01952h-211.23584a34.816 34.816 0 0 1 0-69.632h211.24096A76.7232 76.7232 0 0 1 977.92 127.84128v211.15904a34.816 34.816 0 0 1-34.816 34.816z m0 0" fill="#ffffff" /></svg>