<svg width="142" height="137" viewBox="0 0 142 137" fill="none" xmlns="http://www.w3.org/2000/svg">
<path d="M89.9663 107.098C89.9663 108.235 89.5149 109.324 88.7115 110.128C87.9081 110.931 86.8184 111.382 85.6822 111.382H25.7047C24.7621 111.382 23.8625 112.239 23.0913 112.796L8.56822 124.235V55.689C8.56822 54.5528 9.01958 53.4631 9.82301 52.6597C10.6264 51.8562 11.7161 51.4049 12.8523 51.4049H29.389V42.8367H12.8523C9.44368 42.8367 6.17464 44.1907 3.76436 46.601C1.35408 49.0113 0 52.2803 0 55.689V132.803C0.00637604 133.599 0.234199 134.377 0.657938 135.05C1.08168 135.724 1.68459 136.266 2.3991 136.616C3.08747 136.929 3.84643 137.054 4.59888 136.979C5.35134 136.904 6.07046 136.631 6.68321 136.187L28.7464 119.951H86.3248C87.9485 119.999 89.5648 119.713 91.0735 119.111C92.5823 118.509 93.9513 117.603 95.096 116.451C96.2406 115.298 97.1364 113.923 97.7278 112.41C98.3193 110.897 98.5939 109.279 98.5345 107.655V102.814H89.9663V107.098Z" fill="url(#paint0_linear_294_3712)"/>
<path d="M128.522 52.3515V93.9931L113.528 82.2975C112.78 81.7171 111.861 81.4007 110.914 81.3978H51.408C50.2718 81.3978 49.1821 80.9464 48.3787 80.143C47.5752 79.3396 47.1239 78.2499 47.1239 77.1137V25.7044C47.1239 24.5682 47.5752 23.4785 48.3787 22.6751C49.1821 21.8716 50.2718 21.4203 51.408 21.4203H87.8229C87.8341 18.5231 88.2376 15.6409 89.0225 12.8521H51.408C47.9993 12.8521 44.7303 14.2061 42.32 16.6164C39.9097 19.0267 38.5557 22.2957 38.5557 25.7044V77.1137C38.5557 80.5223 39.9097 83.7914 42.32 86.2017C44.7303 88.6119 47.9993 89.966 51.408 89.966H109.458L129.936 105.86C130.544 106.31 131.262 106.591 132.014 106.674C132.767 106.756 133.528 106.638 134.22 106.331C134.949 105.984 135.565 105.438 135.997 104.756C136.429 104.074 136.659 103.283 136.662 102.476V48.71C134.132 50.2988 131.392 51.5246 128.522 52.3515Z" fill="url(#paint1_linear_294_3712)"/>
<path d="M119.952 42.8411C131.782 42.8411 141.372 33.2508 141.372 21.4205C141.372 9.5903 131.782 0 119.952 0C108.121 0 98.531 9.5903 98.531 21.4205C98.531 33.2508 108.121 42.8411 119.952 42.8411Z" fill="url(#paint2_linear_294_3712)"/>
<defs>
<linearGradient id="paint0_linear_294_3712" x1="0" y1="79.5386" x2="97.0183" y2="79.5386" gradientUnits="userSpaceOnUse">
<stop stop-color="#7624FE"/>
<stop offset="1" stop-color="#368BFF"/>
</linearGradient>
<linearGradient id="paint1_linear_294_3712" x1="38.5557" y1="49.4308" x2="135.144" y2="49.4308" gradientUnits="userSpaceOnUse">
<stop stop-color="#7624FE"/>
<stop offset="1" stop-color="#368BFF"/>
</linearGradient>
<linearGradient id="paint2_linear_294_3712" x1="98.531" y1="16.6981" x2="140.709" y2="16.6981" gradientUnits="userSpaceOnUse">
<stop stop-color="#7624FE"/>
<stop offset="1" stop-color="#368BFF"/>
</linearGradient>
</defs>
</svg>
