<svg xmlns="http://www.w3.org/2000/svg" width="18" height="16" viewBox="0 0 18 16">
  <path id="Icon_ionic-md-heart-empty" data-name="Icon ionic-md-heart-empty" d="M16.425,4.5a5.408,5.408,0,0,0-4.05,1.829A5.408,5.408,0,0,0,8.325,4.5a4.8,4.8,0,0,0-4.95,4.8c0,3.312,3.059,5.971,7.693,10.071L12.375,20.5l1.307-1.133c4.634-4.1,7.693-6.758,7.693-10.071A4.8,4.8,0,0,0,16.425,4.5Zm-3.5,13.721-.182.163-.372.325L12,18.383l-.182-.163a54.031,54.031,0,0,1-5.309-5.083A6,6,0,0,1,4.764,9.3,3.4,3.4,0,0,1,5.789,6.825a3.592,3.592,0,0,1,2.536-.992,4.031,4.031,0,0,1,2.99,1.354L12.375,8.4l1.06-1.212a4.016,4.016,0,0,1,2.99-1.354,3.61,3.61,0,0,1,2.54.992A3.406,3.406,0,0,1,19.99,9.3a6.033,6.033,0,0,1-1.748,3.842A54.143,54.143,0,0,1,12.929,18.221Z" transform="translate(-3.375 -4.5)"/>
</svg>
