<svg xmlns="http://www.w3.org/2000/svg" width="32.779" height="22.506" viewBox="0 0 32.779 22.506">
    <g id="prefix__Component_850_1" stroke="#fff" data-name="Component 850 – 1" transform="translate(.5 .7)">
        <path id="prefix__Path_21689" d="M1682.868 8195.143c-1.251-.617-2-2.228-2-4.308v-.991c.015-.168.022-.336.022-.5l-.008-5.623a5.578 5.578 0 0 0-5.571-5.562h-.008l-10.73.016a5.577 5.577 0 0 0-5.563 5.58l.008 5.623a5.578 5.578 0 0 0 5.571 5.563h.009l10.73-.016a5.528 5.528 0 0 0 3.158-.99 8.439 8.439 0 0 0 4.361 1.317h.255z" data-name="Path 21689" transform="translate(-1659.005 -8173.949)"/>
        <path id="prefix__Path_21690" stroke-width="1.4px" d="M1781.49 8143.992c-1.264-.627-2.019-2.252-2.019-4.347v-.995q.022-.245.022-.5v-5.623a5.537 5.537 0 0 0-5.53-5.53h-10.73a5.537 5.537 0 0 0-5.53 5.53v5.623a5.536 5.536 0 0 0 5.53 5.53h10.73a5.5 5.5 0 0 0 3.158-.993 8.364 8.364 0 0 0 4.361 1.331h.071z" data-name="Path 21690" transform="translate(-1749.583 -8127)"/>
    </g>
</svg>
