<svg xmlns="http://www.w3.org/2000/svg" width="28" height="28" viewBox="0 0 28 28">
    <g id="icon-settings" transform="translate(-105.813 -457)">
        <g id="Component_636_5" data-name="Component 636 – 5" transform="translate(106.813 458)">
            <path id="Path_1358" d="M567.8 822.128a4.667 4.667 0 1 0 0 9.335 4.668 4.668 0 0 0 0-9.335zm9.248 7.321l-.824 2.013 1.648 3.295-2.106 2.1-3.388-1.556-2.014.824-1.007 3.112-.092.458h-2.93l-1.282-3.569-2.015-.824-3.3 1.647-2.106-2.1 1.557-3.386-.824-2.013-3.571-1.19v-2.929l3.571-1.281.824-2.013-1.465-2.929-.183-.366 2.106-2.1 3.388 1.556 2.015-.824 1.007-3.112.092-.458h2.93l1.282 3.569 2.015.824 3.3-1.647 2.106 2.1-1.557 3.386.824 2.013 3.571 1.19v2.929l-3.571 1.281z" data-name="Path 1358" transform="translate(-554.8 -813.8)"/>
        </g>
        <path id="Rectangle_5694" fill="none" d="M0 0H28V28H0z" data-name="Rectangle 5694" transform="translate(105.813 457)"/>
    </g>
</svg>
