<?xml version="1.0" standalone="no"?><!DOCTYPE svg PUBLIC "-//W3C//DTD SVG 1.1//EN" "http://www.w3.org/Graphics/SVG/1.1/DTD/svg11.dtd"><svg class="icon" width="32px" height="21.98px" viewBox="0 0 1491 1024" version="1.1" xmlns="http://www.w3.org/2000/svg"><path d="M1108.491602 996.154625c-56.919222-28.072869-90.997956-101.371723-90.997956-196.009597v-45.089487a256.614236 256.614236 0 0 0 1.000978-22.749489l-0.363992-255.840754a253.7933 253.7933 0 0 0-253.474807-253.065316h-0.363992l-488.204034 0.727984a253.747801 253.747801 0 0 0-253.110815 253.884297l0.363992 255.840754a253.7933 253.7933 0 0 0 253.474806 253.110815h0.409491l488.204035-0.727984a251.518351 251.518351 0 0 0 143.685772-45.043988 383.965876 383.965876 0 0 0 198.421044 59.922154h11.602239z" fill="#ffffff" /><path d="M1474.485382 804.96792c-57.510708-28.527859-91.862437-102.463699-91.862437-197.784058v-45.271483q1.000978-11.14725 1.000978-22.749489V283.322136a251.927841 251.927841 0 0 0-251.609349-251.609348H643.810539a251.927841 251.927841 0 0 0-251.609348 251.609348v255.840754a251.882342 251.882342 0 0 0 251.609348 251.609349h488.204035a250.244379 250.244379 0 0 0 143.685773-45.180486 380.553452 380.553452 0 0 0 198.421043 60.55914h3.230427z" fill="#ffffff" /></svg>