<svg xmlns="http://www.w3.org/2000/svg" width="28" height="28" viewBox="0 0 28 28">
    <g id="icon-profile" transform="translate(-104.813 -284.986)">
        <path id="Rectangle_5690" fill="none" d="M0 0H28V28H0z" data-name="Rectangle 5690" transform="translate(104.813 284.986)"/>
        <g id="user" transform="translate(106.813 286.986)">
            <path id="user-2" d="M13.187 16.364s-8.621 0-11.854 7.515a35.76 35.76 0 0 0 11.854 2.148 35.76 35.76 0 0 0 11.854-2.147c-3.233-7.516-11.854-7.516-11.854-7.516zm0-1.073c3.233 0 5.388-3.221 5.388-8.589s-5.388-5.369-5.388-5.369S7.8 1.333 7.8 6.7s2.154 8.591 5.387 8.591z" data-name="user" transform="translate(-1.333 -1.333)"/>
        </g>
    </g>
</svg>
