<svg xmlns="http://www.w3.org/2000/svg" width="27.822" height="27.9" data-name="Component 636 – 16" viewBox="0 0 27.822 27.9">
    <path d="M14.01 8.971a5.028 5.028 0 1 0 0 10.056 5.029 5.029 0 0 0 0-10.056zm9.965 7.887l-.888 2.169 1.776 3.549-2.269 2.267-3.651-1.676-2.171.887-1.085 3.352-.1.493H12.43l-1.381-3.845-2.171-.887-3.552 1.775-2.269-2.268 1.677-3.648-.888-2.169-3.848-1.282V12.42l3.848-1.38.888-2.169-1.578-3.155-.2-.394 2.269-2.267 3.65 1.676 2.171-.887L12.131.492l.1-.493h3.157l1.381 3.845 2.171.887 3.552-1.774 2.269 2.267-1.677 3.648.888 2.169 3.848 1.282v3.155l-3.848 1.38z" data-name="Path 1358"/>
</svg>
