<svg xmlns="http://www.w3.org/2000/svg" width="28" height="28" viewBox="0 0 28 28">
    <g id="icon-donation" transform="translate(-105.813 -406)">
        <g id="icon-donation-2" data-name="icon-donation" transform="translate(104.242 403.362)">
            <path id="Path_22003" d="M17.99 53.015c-.167.111-.641.362-1.2.7a2.76 2.76 0 0 0-1.672-1.421 6.973 6.973 0 0 0-3.038.5s-.948.279-1.282.362a16.621 16.621 0 0 0-1.867.585 15.261 15.261 0 0 0-4.041 3.651c-.362.474-1 1.393-1.561 2.229-.223.307-.39.585-.557.808a1.122 1.122 0 0 0 .279 1.561L6.4 64.358a1.181 1.181 0 0 0 .864.2c.028 0 .056 0 .056-.028a1.29 1.29 0 0 0 .669-.474l1.087-1.728a18.81 18.81 0 0 0 4.459-.446h.028c1.644-.446 4.1-2.229 7.218-5.3a2.257 2.257 0 0 0 .167-3.01 2.149 2.149 0 0 0-2.958-.557zm1.756 2.48c-3.679 3.6-5.6 4.654-6.549 4.9h-.028a17.3 17.3 0 0 1-4.1.39.614.614 0 0 0-.223.028l-3.035-2.168a2.961 2.961 0 0 1 .251-.307 14.513 14.513 0 0 1 3.456-3.2 15.121 15.121 0 0 1 1.672-.53c.362-.084 1.338-.39 1.338-.39a6.6 6.6 0 0 1 2.341-.446 1.813 1.813 0 0 1 .585.669c-.446.251-.864.5-1.115.641a14.36 14.36 0 0 1-2.7.836l-.2.028a.754.754 0 0 0 .307 1.477l.2-.028a16.916 16.916 0 0 0 3.093-.975c1.059-.557 1.784-1 1.811-1 0 0 1.7-1 1.9-1.087a.725.725 0 0 1 1 .139.768.768 0 0 1-.004 1.028z" data-name="Path 22003" transform="translate(0 -35.063)" fill="#7624fe"/>
            <path id="Path_22004" d="M48.21 6.219l-3.344-2.368a1.181 1.181 0 0 0-.864-.2c-.028 0-.056 0-.056.028a1.29 1.29 0 0 0-.669.474l-1.086 1.732a18.81 18.81 0 0 0-4.459.446H37.7c-1.644.446-4.1 2.229-7.218 5.3a2.257 2.257 0 0 0-.167 3.01 2.212 2.212 0 0 0 2.982.53c.167-.111.641-.362 1.2-.7a2.76 2.76 0 0 0 1.672 1.421 6.973 6.973 0 0 0 3.038-.5s.948-.279 1.282-.362a16.62 16.62 0 0 0 1.867-.585A15.261 15.261 0 0 0 46.4 10.79c.362-.474 1-1.393 1.561-2.229.223-.307.39-.585.557-.808a1.152 1.152 0 0 0-.308-1.534zm-3.037 3.623a14.513 14.513 0 0 1-3.456 3.2 15.122 15.122 0 0 1-1.672.53c-.362.084-1.338.39-1.338.39a6.6 6.6 0 0 1-2.341.446 1.813 1.813 0 0 1-.585-.669c.446-.251.864-.5 1.115-.641a14.36 14.36 0 0 1 2.7-.836l.2-.028a.754.754 0 0 0-.307-1.477l-.2.028a16.916 16.916 0 0 0-3.093.975c-1.059.557-1.784 1-1.811 1 0 0-1.7 1-1.9 1.087a.725.725 0 0 1-1-.139.764.764 0 0 1 .028-1c3.679-3.6 5.574-4.654 6.549-4.9h.028a17.3 17.3 0 0 1 4.1-.39.614.614 0 0 0 .223-.028l3.038 2.174a2.628 2.628 0 0 0-.278.278z" data-name="Path 22004" transform="translate(-19.658)" fill="#7624fe"/>
        </g>
        <path id="Rectangle_5693" fill="none" d="M0 0H28V28H0z" data-name="Rectangle 5693" transform="translate(105.813 406)"/>
    </g>
</svg>
