<?xml version="1.0" standalone="no"?><!DOCTYPE svg PUBLIC "-//W3C//DTD SVG 1.1//EN" "http://www.w3.org/Graphics/SVG/1.1/DTD/svg11.dtd"><svg class="icon" width="32px" height="32.00px" viewBox="0 0 1024 1024" version="1.1" xmlns="http://www.w3.org/2000/svg"><path d="M515.651669 329.332903a184.520374 184.520374 0 1 0 0 369.040749 184.557073 184.557073 0 0 0 0-369.040749z m365.701179 289.441566l-32.588324 79.599183 65.176648 130.243199-83.269039 83.195642-133.986454-61.506791-79.67258 32.551625-39.81794 123.013583-3.669857 18.092391H457.667939l-50.680715-141.105974-79.67258-32.551625-130.353295 65.139949-83.269039-83.232341 61.54349-133.876357-32.588324-79.599183-141.21607-47.047557V455.906247l141.21607-50.644017 32.588324-79.599183-57.910333-115.783966-7.339712-14.459234 83.269039-83.195642 133.949754 61.506792 79.67258-32.551626L446.695069 18.165789l3.669856-18.092392h115.857363l50.680716 141.105974 79.67258 32.551626 130.353295-65.103251 83.269039 83.195642-61.54349 133.876358 32.588324 79.599182 141.21607 47.047558v115.783966l-141.21607 50.644017z" fill="#ffffff" /></svg>