<svg xmlns="http://www.w3.org/2000/svg" width="20" height="20" viewBox="0 0 20 20">
  <path id="Icon_awesome-user-circle" data-name="Icon awesome-user-circle" d="M10,.563a10,10,0,1,0,10,10A10,10,0,0,0,10,.563Zm0,3.871A3.548,3.548,0,1,1,6.452,7.982,3.548,3.548,0,0,1,10,4.433ZM10,18.3a7.727,7.727,0,0,1-5.907-2.75,4.5,4.5,0,0,1,3.972-2.411.987.987,0,0,1,.286.044A5.339,5.339,0,0,0,10,13.466a5.319,5.319,0,0,0,1.649-.278.987.987,0,0,1,.286-.044,4.5,4.5,0,0,1,3.972,2.411A7.727,7.727,0,0,1,10,18.3Z" transform="translate(0 -0.563)" fill="#7624fe"/>
</svg>
