<svg xmlns="http://www.w3.org/2000/svg" width="14" height="14" viewBox="0 0 14 14">
  <path id="Icon_awesome-user-circle" data-name="Icon awesome-user-circle" d="M7,.563a7,7,0,1,0,7,7A7,7,0,0,0,7,.563Zm0,2.71A2.484,2.484,0,1,1,4.516,5.756,2.484,2.484,0,0,1,7,3.272Zm0,9.71a5.409,5.409,0,0,1-4.135-1.925,3.147,3.147,0,0,1,2.78-1.688.691.691,0,0,1,.2.031A3.737,3.737,0,0,0,7,9.595,3.723,3.723,0,0,0,8.154,9.4a.691.691,0,0,1,.2-.031,3.147,3.147,0,0,1,2.78,1.688A5.409,5.409,0,0,1,7,12.982Z" transform="translate(0 -0.563)" fill="#7624fe"/>
</svg>
