<svg xmlns="http://www.w3.org/2000/svg" width="118" height="101" viewBox="0 0 118 101">
  <g id="Group_74" data-name="Group 74" transform="translate(4784 -2951)">
    <path id="Rectangle_216" data-name="Rectangle 216" d="M16,0,0,16Z" transform="translate(-4733 3019)" fill="#9ca0a4"/>
    <rect id="Rectangle_216-2" data-name="Rectangle 216" width="16" height="16" transform="translate(-4750 3002)" fill="#9ca0a4"/>
    <rect id="Rectangle_216-3" data-name="Rectangle 216" width="16" height="16" transform="translate(-4750 3036)" fill="#9ca0a4"/>
    <rect id="Rectangle_216-4" data-name="Rectangle 216" width="16" height="16" transform="translate(-4733 3036)" fill="#9ca0a4"/>
    <rect id="Rectangle_216-5" data-name="Rectangle 216" width="16" height="16" transform="translate(-4716 3036)" fill="#9ca0a4"/>
    <rect id="Rectangle_216-6" data-name="Rectangle 216" width="16" height="16" transform="translate(-4716 3002)" fill="#9ca0a4"/>
    <rect id="Rectangle_216-7" data-name="Rectangle 216" width="16" height="16" transform="translate(-4733 3002)" fill="#9ca0a4"/>
    <rect id="Rectangle_216-8" data-name="Rectangle 216" width="16" height="16" transform="translate(-4699 2951)" fill="#9ca0a4"/>
    <rect id="Rectangle_216-9" data-name="Rectangle 216" width="16" height="16" transform="translate(-4733 2985)" fill="#9ca0a4"/>
    <rect id="Rectangle_216-10" data-name="Rectangle 216" width="16" height="16" transform="translate(-4767 2951)" fill="#9ca0a4"/>
    <rect id="Rectangle_216-11" data-name="Rectangle 216" width="16" height="16" transform="translate(-4716 2968)" fill="#9ca0a4"/>
    <rect id="Rectangle_216-12" data-name="Rectangle 216" width="16" height="16" transform="translate(-4750 2968)" fill="#9ca0a4"/>
    <rect id="Rectangle_216-13" data-name="Rectangle 216" width="16" height="16" transform="translate(-4767 3002)" fill="#9ca0a4"/>
    <rect id="Rectangle_216-14" data-name="Rectangle 216" width="16" height="16" transform="translate(-4784 3019)" fill="#9ca0a4"/>
    <rect id="Rectangle_216-15" data-name="Rectangle 216" width="16" height="16" transform="translate(-4767 3036)" fill="#9ca0a4"/>
    <rect id="Rectangle_216-16" data-name="Rectangle 216" width="16" height="16" transform="translate(-4699 3002)" fill="#9ca0a4"/>
    <rect id="Rectangle_216-17" data-name="Rectangle 216" width="16" height="16" transform="translate(-4682 3019)" fill="#9ca0a4"/>
    <rect id="Rectangle_216-18" data-name="Rectangle 216" width="16" height="16" transform="translate(-4699 3036)" fill="#9ca0a4"/>
    <rect id="Rectangle_216-19" data-name="Rectangle 216" width="16" height="16" transform="translate(-4767 2951)" fill="#9ca0a4"/>
    <rect id="Rectangle_216-20" data-name="Rectangle 216" width="16" height="16" transform="translate(-4767 3002)" fill="#9ca0a4"/>
    <rect id="Rectangle_216-21" data-name="Rectangle 216" width="16" height="16" transform="translate(-4784 3002)" fill="#9ca0a4"/>
    <rect id="Rectangle_216-22" data-name="Rectangle 216" width="16" height="16" transform="translate(-4682 3002)" fill="#9ca0a4"/>
    <rect id="Rectangle_216-23" data-name="Rectangle 216" width="16" height="16" transform="translate(-4733 3002)" fill="#9ca0a4"/>
    <rect id="Rectangle_216-24" data-name="Rectangle 216" width="16" height="16" rx="5" transform="translate(-4750 3036)" fill="#9ca0a4"/>
    <rect id="Rectangle_216-25" data-name="Rectangle 216" width="16" height="16" transform="translate(-4784 3036)" fill="#9ca0a4"/>
    <rect id="Rectangle_216-26" data-name="Rectangle 216" width="16" height="16" transform="translate(-4699 3036)" fill="#9ca0a4"/>
    <rect id="Rectangle_216-27" data-name="Rectangle 216" width="16" height="16" transform="translate(-4682 3036)" fill="#9ca0a4"/>
    <rect id="Rectangle_216-28" data-name="Rectangle 216" width="16" height="16" transform="translate(-4767 3019)" fill="#9ca0a4"/>
    <rect id="Rectangle_216-29" data-name="Rectangle 216" width="16" height="16" transform="translate(-4699 3019)" fill="#9ca0a4"/>
  </g>
</svg>
