<svg xmlns="http://www.w3.org/2000/svg" width="118" height="101" viewBox="0 0 118 101">
  <g id="Group_31" data-name="Group 31" transform="translate(4216 -3100)">
    <rect id="Rectangle_216" data-name="Rectangle 216" width="16" height="16" transform="translate(-4165 3168)" fill="#9ca0a4"/>
    <rect id="Rectangle_216-2" data-name="Rectangle 216" width="16" height="16" transform="translate(-4148 3168)" fill="#9ca0a4"/>
    <rect id="Rectangle_216-3" data-name="Rectangle 216" width="16" height="16" transform="translate(-4182 3151)" fill="#9ca0a4"/>
    <rect id="Rectangle_216-4" data-name="Rectangle 216" width="16" height="16" transform="translate(-4182 3185)" fill="#9ca0a4"/>
    <rect id="Rectangle_216-5" data-name="Rectangle 216" width="16" height="16" transform="translate(-4148 3185)" fill="#9ca0a4"/>
    <rect id="Rectangle_216-6" data-name="Rectangle 216" width="16" height="16" transform="translate(-4148 3151)" fill="#9ca0a4"/>
    <rect id="Rectangle_216-7" data-name="Rectangle 216" width="16" height="16" transform="translate(-4182 3168)" fill="#9ca0a4"/>
    <rect id="Rectangle_216-8" data-name="Rectangle 216" width="16" height="16" transform="translate(-4165 3117)" fill="#9ca0a4"/>
    <rect id="Rectangle_216-9" data-name="Rectangle 216" width="16" height="16" transform="translate(-4131 3134)" fill="#9ca0a4"/>
    <rect id="Rectangle_216-10" data-name="Rectangle 216" width="16" height="16" transform="translate(-4182 3100)" fill="#9ca0a4"/>
    <rect id="Rectangle_216-11" data-name="Rectangle 216" width="16" height="16" transform="translate(-4199 3134)" fill="#9ca0a4"/>
    <rect id="Rectangle_216-12" data-name="Rectangle 216" width="16" height="16" transform="translate(-4131 3117)" fill="#9ca0a4"/>
    <rect id="Rectangle_216-13" data-name="Rectangle 216" width="16" height="16" transform="translate(-4199 3168)" fill="#9ca0a4"/>
    <rect id="Rectangle_216-14" data-name="Rectangle 216" width="16" height="16" transform="translate(-4131 3168)" fill="#9ca0a4"/>
    <rect id="Rectangle_216-15" data-name="Rectangle 216" width="16" height="16" transform="translate(-4148 3100)" fill="#9ca0a4"/>
    <rect id="Rectangle_216-16" data-name="Rectangle 216" width="16" height="16" transform="translate(-4199 3117)" fill="#9ca0a4"/>
    <rect id="Rectangle_216-17" data-name="Rectangle 216" width="16" height="16" transform="translate(-4216 3100)" fill="#9ca0a4"/>
    <rect id="Rectangle_216-18" data-name="Rectangle 216" width="16" height="16" transform="translate(-4114 3100)" fill="#9ca0a4"/>
  </g>
</svg>
