<svg xmlns="http://www.w3.org/2000/svg" width="118" height="101" viewBox="0 0 118 101">
  <g id="Group_32" data-name="Group 32" transform="translate(4222 -3269)">
    <rect id="Rectangle_216" data-name="Rectangle 216" width="16" height="16" transform="translate(-4154 3337)" fill="#9ca0a4"/>
    <rect id="Rectangle_216-2" data-name="Rectangle 216" width="16" height="16" transform="translate(-4205 3320)" fill="#9ca0a4"/>
    <rect id="Rectangle_216-3" data-name="Rectangle 216" width="16" height="16" transform="translate(-4171 3354)" fill="#9ca0a4"/>
    <rect id="Rectangle_216-4" data-name="Rectangle 216" width="16" height="16" transform="translate(-4137 3320)" fill="#9ca0a4"/>
    <rect id="Rectangle_216-5" data-name="Rectangle 216" width="16" height="16" transform="translate(-4205 3269)" fill="#9ca0a4"/>
    <rect id="Rectangle_216-6" data-name="Rectangle 216" width="16" height="16" transform="translate(-4188 3337)" fill="#9ca0a4"/>
    <rect id="Rectangle_216-7" data-name="Rectangle 216" width="16" height="16" transform="translate(-4120 3286)" fill="#9ca0a4"/>
    <rect id="Rectangle_216-8" data-name="Rectangle 216" width="16" height="16" transform="translate(-4188 3286)" fill="#9ca0a4"/>
    <rect id="Rectangle_216-9" data-name="Rectangle 216" width="16" height="16" transform="translate(-4154 3286)" fill="#9ca0a4"/>
    <rect id="Rectangle_216-10" data-name="Rectangle 216" width="16" height="16" transform="translate(-4171 3303)" fill="#9ca0a4"/>
    <rect id="Rectangle_216-11" data-name="Rectangle 216" width="16" height="16" transform="translate(-4222 3286)" fill="#9ca0a4"/>
    <rect id="Rectangle_216-12" data-name="Rectangle 216" width="16" height="16" transform="translate(-4222 3303)" fill="#9ca0a4"/>
    <rect id="Rectangle_216-13" data-name="Rectangle 216" width="16" height="16" transform="translate(-4120 3303)" fill="#9ca0a4"/>
    <rect id="Rectangle_216-14" data-name="Rectangle 216" width="16" height="16" transform="translate(-4137 3269)" fill="#9ca0a4"/>
  </g>
</svg>
