<svg xmlns="http://www.w3.org/2000/svg" width="19.867" height="21.67" viewBox="0 0 19.867 21.67">
  <g id="notification-line" transform="translate(-2.033 -1.183)">
    <path id="Path_198" data-name="Path 198" d="M21.673,18.553A9.6,9.6,0,0,1,20,16.6a8.42,8.42,0,0,1-.9-3.207V10.1a7.207,7.207,0,0,0-6.293-7.167v-.86a.89.89,0,0,0-1.78,0v.873A7.207,7.207,0,0,0,4.807,10.1v3.293a8.42,8.42,0,0,1-.9,3.207A9.6,9.6,0,0,1,2.26,18.552a.667.667,0,0,0-.227.5v.907a.667.667,0,0,0,.667.667H21.233a.667.667,0,0,0,.667-.667v-.907a.667.667,0,0,0-.227-.5Zm-18.253.74a10.78,10.78,0,0,0,1.627-2,9.493,9.493,0,0,0,1.1-3.9V10.1a5.827,5.827,0,1,1,11.647,0v3.293a9.493,9.493,0,0,0,1.1,3.9,10.78,10.78,0,0,0,1.627,2Z"/>
    <path id="Path_199" data-name="Path 199" d="M12,22.853a1.78,1.78,0,0,0,1.72-1.52H10.213A1.78,1.78,0,0,0,12,22.853Z"/>
  </g>
</svg>
