<svg xmlns="http://www.w3.org/2000/svg" id="prefix__bell" width="20.204" height="22.362" viewBox="0 0 20.204 22.362">
    <path id="prefix__bell-2" fill="#368bff" d="M19.179 11.138C16.3 4.94 14.8 2.585 10.1 2.684c-1.676.034-1.274-1.215-2.553-.741S7.366 3.11 6.06 4.183C2.39 7.192 2.727 9.976 4.428 16.612c.716 2.8-1.727 2.932-.76 5.64.706 1.975 5.91 2.8 11.4.767s8.951-6.081 8.245-8.057c-.966-2.71-2.92-1.214-4.133-3.823zm-4.707 10.21c-4.9 1.819-8.933.75-9.1.274-.293-.821 1.583-3.557 7.189-5.638s8.735-1.309 9.062-.393c.193.542-2.242 3.936-7.147 5.756zM12.9 16.935a18.435 18.435 0 0 0-5.5 3.017 3.878 3.878 0 0 0 3.848.355c1.929-.714 3.115-2.357 2.646-3.668-.006-.017-.014-.029-.021-.046-.319.107-.644.218-.973.342z" data-name="bell" transform="translate(-3.199 -1.835)"/>
</svg>
