<svg xmlns="http://www.w3.org/2000/svg" width="21.334" height="20" viewBox="0 0 21.334 20">
  <g id="image-gallery-line" transform="translate(-1.333 -1.333)">
    <path id="Path_222" data-name="Path 222" d="M21.413,6.667H2.587A1.253,1.253,0,0,0,1.333,7.92V20.08a1.253,1.253,0,0,0,1.254,1.253H21.414a1.253,1.253,0,0,0,1.253-1.253V7.92a1.253,1.253,0,0,0-1.254-1.253ZM21.333,20H2.667V8H21.334Z"/>
    <path id="Path_223" data-name="Path 223" d="M5.707,12.967a2,2,0,1,0-2-2A2,2,0,0,0,5.707,12.967Zm0-3.067a1.067,1.067,0,1,1-1.04,1.067A1.067,1.067,0,0,1,5.707,9.9Z"/>
    <path id="Path_224" data-name="Path 224" d="M5.267,18.667l4-4,2.12,2.12-1.88,1.88H10.84l4.973-4.973L20,17.847V16.514l-3.867-3.847a.473.473,0,0,0-.667,0l-3.44,3.44-2.447-2.44a.473.473,0,0,0-.667,0l-4.965,5Z"/>
    <path id="Path_225" data-name="Path 225" d="M20.093,2a.667.667,0,0,0-.667-.667H4.759A.667.667,0,0,0,4.092,2v.667h16Z"/>
    <path id="Path_226" data-name="Path 226" d="M21.413,4.667A.667.667,0,0,0,20.746,4H3.413a.667.667,0,0,0-.667.667v.667H21.413Z"/>
  </g>
</svg>
