<svg xmlns="http://www.w3.org/2000/svg" width="20" height="16" viewBox="0 0 20 16">
  <g id="Icon_material-photo-camera" data-name="Icon material-photo-camera" transform="translate(-3 -1.865)">
    <path id="Path_4" data-name="Path 4" d="M19.2,16.2a3,3,0,1,1-3-3A3,3,0,0,1,19.2,16.2Z" transform="translate(-3.2 -5.438)" fill="#7624fe"/>
    <path id="Path_5" data-name="Path 5" d="M10,3,8.17,4.778H5A1.9,1.9,0,0,0,3,6.556V17.222A1.9,1.9,0,0,0,5,19H21a1.9,1.9,0,0,0,2-1.778V6.556a1.9,1.9,0,0,0-2-1.778H17.83L16,3Zm3,13.333a4.749,4.749,0,0,1-5-4.444,4.749,4.749,0,0,1,5-4.444,4.749,4.749,0,0,1,5,4.444A4.749,4.749,0,0,1,13,16.333Z" transform="translate(0 -1.135)" fill="#7624fe"/>
  </g>
</svg>
