<svg xmlns="http://www.w3.org/2000/svg" id="prefix__Component_868_1" width="74" height="74" data-name="Component 868 – 1" viewBox="0 0 74 74">
    <g id="prefix__Component_307_359" data-name="Component 307 – 359">
        <g id="prefix__Path_2220" fill="none" stroke="none" data-name="Path 2220">
            <path d="M37 0A37 37 0 1 1 0 37 37 37 0 0 1 37 0z"/>
            <path fill="#ffbd40" d="M37 1c-4.86 0-9.575.952-14.013 2.829-4.286 1.813-8.136 4.409-11.443 7.715-3.306 3.307-5.902 7.157-7.715 11.443C1.952 27.425 1 32.14 1 37c0 4.86.952 9.575 2.829 14.013 1.813 4.286 4.409 8.136 7.715 11.443 3.307 3.306 7.157 5.902 11.443 7.715C27.425 72.048 32.14 73 37 73c4.86 0 9.575-.952 14.013-2.829 4.286-1.813 8.136-4.409 11.443-7.715 3.306-3.307 5.902-7.157 7.715-11.443C72.048 46.575 73 41.86 73 37c0-4.86-.952-9.575-2.829-14.013-1.813-4.286-4.409-8.136-7.715-11.443-3.307-3.306-7.157-5.902-11.443-7.715C46.575 1.952 41.86 1 37 1m0-1c20.435 0 37 16.565 37 37S57.435 74 37 74 0 57.435 0 37 16.565 0 37 0z"/>
        </g>
    </g>
    <g id="prefix__Component_857_1" data-name="Component 857 – 1" transform="translate(14.156 21.512)">
        <path id="prefix__Path_21689" fill="#ffe074" d="M1692.807 8202.217c-1.772-.873-2.832-3.154-2.837-6.1v-1.4c.021-.239.031-.477.031-.708l-.012-7.967a7.9 7.9 0 0 0-7.891-7.879h-.012l-15.2.023a7.9 7.9 0 0 0-7.88 7.9l.012 7.967a7.9 7.9 0 0 0 7.891 7.878h.012l15.2-.022a7.808 7.808 0 0 0 4.473-1.4 11.944 11.944 0 0 0 6.178 1.868l.361.006z" data-name="Path 21689" transform="translate(-1659.005 -8172.197)"/>
        <path id="prefix__Path_21690" fill="#ffc600" d="M1791.4 8151.068c-1.791-.889-2.86-3.189-2.86-6.157v-1.41c.021-.229.031-.467.031-.7v-7.965a7.842 7.842 0 0 0-7.833-7.834h-15.2a7.842 7.842 0 0 0-7.833 7.834v7.965a7.842 7.842 0 0 0 7.833 7.834h15.2a7.792 7.792 0 0 0 4.473-1.407 11.863 11.863 0 0 0 6.177 1.886h.1z" data-name="Path 21690" transform="translate(-1746.201 -8127)"/>
        <path id="prefix__Path_21691" fill="#dead00" d="M1777.126 8186.481a7.843 7.843 0 0 0-7.845-7.822l-3.654.006-7.714.012a7.822 7.822 0 0 0-.21 1.8v7.965a7.841 7.841 0 0 0 7.833 7.833h11.573v-1.121c.02-.23.031-.465.031-.7z" data-name="Path 21691" transform="translate(-1746.201 -8172.639)"/>
    </g>
</svg>
