<svg xmlns="http://www.w3.org/2000/svg" width="10" height="10" viewBox="0 0 10 10">
  <path id="Icon_awesome-question-circle" data-name="Icon awesome-question-circle" d="M10.563,5.563a5,5,0,1,1-5-5A5,5,0,0,1,10.563,5.563ZM5.7,2.216A2.611,2.611,0,0,0,3.347,3.5a.242.242,0,0,0,.055.328l.7.53a.242.242,0,0,0,.336-.043c.36-.457.607-.722,1.155-.722.412,0,.921.265.921.664,0,.3-.249.457-.656.685-.474.266-1.1.6-1.1,1.425V6.45A.242.242,0,0,0,5,6.692H6.127a.242.242,0,0,0,.242-.242V6.423c0-.574,1.677-.6,1.677-2.151A2.3,2.3,0,0,0,5.7,2.216Zm-.134,5a.927.927,0,1,0,.927.927A.928.928,0,0,0,5.563,7.216Z" transform="translate(-0.563 -0.563)"/>
</svg>
