<?xml version="1.0" standalone="no"?><!DOCTYPE svg PUBLIC "-//W3C//DTD SVG 1.1//EN" "http://www.w3.org/Graphics/SVG/1.1/DTD/svg11.dtd"><svg class="icon" width="48px" height="48.00px" viewBox="0 0 1024 1024" version="1.1" xmlns="http://www.w3.org/2000/svg"><path d="M119.51 448.741h0.106c15.672-0.023 29.278-5.688 40.455-16.838 11.19-11.168 16.866-25.074 16.866-41.339v-199.412h199.413c16.21 0 30.113-5.664 41.316-16.842 11.215-11.192 16.884-24.826 16.861-40.531-0.024-15.671-5.689-29.283-16.838-40.454-11.168-11.192-25.074-16.868-41.338-16.868h-256.761c-15.69 0-29.315 5.671-40.483 16.853-11.187 11.183-16.862 24.802-16.862 40.493v256.762c0 16.211 5.665 30.114 16.842 41.317 11.168 11.186 24.765 16.861 40.425 16.861zM119.51 434.051v0 0z" fill="#000000" /><path d="M633.938 191.153h199.388v199.413c0 16.207 5.663 30.104 16.843 41.317 11.162 11.187 24.763 16.861 40.425 16.861h0.105c15.667-0.023 29.277-5.688 40.459-16.842 11.187-11.168 16.862-25.074 16.862-41.335l0.028-256.762c0-15.681-5.671-29.305-16.852-40.488-11.183-11.187-24.802-16.856-40.493-16.856h-256.766c-16.237 0-30.142 5.671-41.319 16.853-11.187 11.183-16.858 24.802-16.858 40.521 0.035 15.672 5.698 29.283 16.842 40.455 11.168 11.191 25.074 16.867 41.335 16.867zM890.595 434.051v0 0z" fill="#000000" /><path d="M745.807 462.004h-481.321c-16.231 0-30.138 5.67-41.331 16.852-11.177 11.187-16.846 24.812-16.846 40.511 0.019 15.671 5.689 29.283 16.837 40.464 11.169 11.187 25.080 16.863 41.34 16.863h481.321c16.216 0 30.117-5.664 41.309-16.837 11.212-11.187 16.885-24.823 16.866-40.528-0.019-15.666-5.683-29.283-16.841-40.464-11.162-11.186-25.069-16.861-41.334-16.861z" fill="#000000" /><path d="M376.348 847.544h-199.413v-199.388c0-16.238-5.669-30.143-16.853-41.32-11.183-11.187-24.807-16.857-40.526-16.857-15.671 0.034-29.277 5.697-40.445 16.84-11.197 11.168-16.87 25.076-16.87 41.337v256.765c0 15.688 5.675 29.311 16.856 40.487 11.183 11.187 24.808 16.857 40.489 16.857 0.333 0 0.668-0.009 1.013-0.028h255.748c16.207 0 30.109-5.664 41.316-16.841 11.215-11.191 16.884-24.826 16.861-40.528-0.024-15.669-5.689-29.286-16.842-40.459-11.173-11.191-25.080-16.865-41.334-16.865z" fill="#000000" /><path d="M948.020 648.156c0-16.236-5.67-30.139-16.853-41.32-11.183-11.187-24.807-16.857-40.522-16.857-15.67 0.034-29.281 5.697-40.454 16.846-11.191 11.174-16.867 25.075-16.867 41.332v199.388h-199.387c-16.236 0-30.137 5.668-41.319 16.852-11.187 11.18-16.858 24.806-16.858 40.525 0.035 15.667 5.698 29.277 16.848 40.454 11.169 11.187 25.075 16.862 41.33 16.862l256.739 0.028c15.681 0 29.3-5.67 40.522-16.882 11.182-11.189 16.853-24.812 16.853-40.493 0-0.34-0.010-0.668-0.028-1.014v-255.723z" fill="#000000" /></svg>