<svg xmlns="http://www.w3.org/2000/svg" width="21.334" height="21.334" viewBox="0 0 21.334 21.334">
  <g id="compass-line" transform="translate(-1.333 -1.333)">
    <path id="Path_202" data-name="Path 202" d="M13.88,10.207,6.973,6c-.307-.173-.74.247-.573.56l4.1,7.04,7.04,4.1a.44.44,0,0,0,.56-.573Zm-2.667,2.667,2-2,3.033,4.96Z"/>
    <path id="Path_203" data-name="Path 203" d="M12,1.333A10.667,10.667,0,1,0,22.667,12,10.667,10.667,0,0,0,12,1.333ZM12.667,21.3V19.687H11.334V21.3A9.333,9.333,0,0,1,2.7,12.667H4.313V11.334H2.7A9.333,9.333,0,0,1,11.333,2.7V4.313h1.333V2.7A9.333,9.333,0,0,1,21.3,11.333H19.687v1.333H21.3A9.333,9.333,0,0,1,12.667,21.3Z"/>
  </g>
</svg>
