<svg xmlns="http://www.w3.org/2000/svg" width="16" height="16" viewBox="0 0 16 16">
  <path id="Icon_ionic-ios-settings" data-name="Icon ionic-ios-settings" d="M19.179,12.5a2.058,2.058,0,0,1,1.321-1.92A8.158,8.158,0,0,0,19.513,8.2a2.087,2.087,0,0,1-.837.179A2.054,2.054,0,0,1,16.8,5.487,8.137,8.137,0,0,0,14.421,4.5a2.057,2.057,0,0,1-3.842,0A8.162,8.162,0,0,0,8.2,5.487,2.054,2.054,0,0,1,6.321,8.378,2.019,2.019,0,0,1,5.483,8.2,8.338,8.338,0,0,0,4.5,10.582a2.058,2.058,0,0,1,0,3.841A8.158,8.158,0,0,0,5.492,16.8,2.055,2.055,0,0,1,8.2,19.513a8.21,8.21,0,0,0,2.379.987,2.054,2.054,0,0,1,3.833,0,8.162,8.162,0,0,0,2.379-.987A2.057,2.057,0,0,1,19.508,16.8a8.205,8.205,0,0,0,.987-2.379A2.068,2.068,0,0,1,19.179,12.5Zm-6.642,3.328a3.332,3.332,0,1,1,3.333-3.332A3.332,3.332,0,0,1,12.538,15.826Z" transform="translate(-4.5 -4.5)" fill="#7624fe"/>
</svg>
