<?xml version="1.0" encoding="UTF-8" standalone="no"?>
<svg
   xmlns:dc="http://purl.org/dc/elements/1.1/"
   xmlns:cc="http://creativecommons.org/ns#"
   xmlns:rdf="http://www.w3.org/1999/02/22-rdf-syntax-ns#"
   xmlns:svg="http://www.w3.org/2000/svg"
   xmlns="http://www.w3.org/2000/svg"
   xmlns:sodipodi="http://sodipodi.sourceforge.net/DTD/sodipodi-0.dtd"
   xmlns:inkscape="http://www.inkscape.org/namespaces/inkscape"
   id="b582dbfc-ed60-4217-aa06-1e10ec960023"
   data-name="Layer 1"
   width="842"
   height="678.37637"
   viewBox="0 0 842 678.37637"
   version="1.1"
   sodipodi:docname="shop.svg"
   inkscape:version="0.92.4 (5da689c313, 2019-01-14)">
  <metadata
     id="metadata129">
    <rdf:RDF>
      <cc:Work
         rdf:about="">
        <dc:format>image/svg+xml</dc:format>
        <dc:type
           rdf:resource="http://purl.org/dc/dcmitype/StillImage" />
      </cc:Work>
    </rdf:RDF>
  </metadata>
  <defs
     id="defs127">
    <linearGradient
       gradientTransform="matrix(0.30296167,0,0,0.41870564,472.30322,76.495852)"
       id="3cf802be-0480-4c68-848a-073112220499"
       x1="635.21997"
       y1="545.34003"
       x2="635.21997"
       y2="43.419998"
       gradientUnits="userSpaceOnUse">
      <stop
         offset="0"
         stop-color="gray"
         stop-opacity="0.25"
         id="stop2001" />
      <stop
         offset="0.54"
         stop-color="gray"
         stop-opacity="0.12"
         id="stop2003" />
      <stop
         offset="1"
         stop-color="gray"
         stop-opacity="0.1"
         id="stop2005" />
    </linearGradient>
  </defs>
  <sodipodi:namedview
     pagecolor="#ffffff"
     bordercolor="#666666"
     borderopacity="1"
     objecttolerance="10"
     gridtolerance="10"
     guidetolerance="10"
     inkscape:pageopacity="0"
     inkscape:pageshadow="2"
     inkscape:window-width="1920"
     inkscape:window-height="1017"
     id="namedview125"
     showgrid="false"
     inkscape:zoom="0.9540063"
     inkscape:cx="401.83439"
     inkscape:cy="369.54101"
     inkscape:window-x="-8"
     inkscape:window-y="-8"
     inkscape:window-maximized="1"
     inkscape:current-layer="b582dbfc-ed60-4217-aa06-1e10ec960023" />
  <title
     id="title2">business_shop</title>
  <path
     d="m 653.08353,401.89538 c -77.65878,-2.2e-4 -144.50428,-54.85994 -159.64936,-131.01733 -15.14489,-76.15642 25.62974,-152.39214 97.37496,-182.109871 71.74524,-29.71772 154.48397,-4.64271 197.62546,59.917191 43.14203,64.56072 34.66655,150.61929 -20.24651,205.53234 -30.46089,30.62733 -71.90866,47.79549 -115.10455,47.67767 z m 1.10548,-304.414001 c -89.06791,0 -161.53035,33.770751 -161.53035,122.838971 0,89.06823 72.46244,161.53008 161.53035,161.53008 89.06793,0 160.42488,-53.66873 160.42488,-142.73697 0,-89.06823 -71.35695,-141.632081 -160.42488,-141.632081 z"
     id="path1080-1"
     inkscape:connector-curvature="0"
     style="fill:#378bfe;fill-opacity:1;stroke-width:0.62593031"
     sodipodi:nodetypes="csssccsssss" />
  <path
     d="M 423.96916,636.01209 C 299.89977,636.01174 193.10592,548.36665 168.9098,426.69593 144.71399,305.02676 209.85643,183.2309 324.47819,135.7532 c 114.62176,-47.477698 246.80699,-7.41731 315.73077,95.72501 68.92466,103.14362 55.38405,240.63268 -32.34625,328.36298 -48.66498,48.9309 -114.88284,76.35913 -183.89355,76.1709 z M 417.3363,153.25844 c -142.29688,0 -251.4316,80.39232 -251.4316,222.68968 0,142.29736 111.34567,222.68874 253.64255,222.68874 142.29688,0 262.48636,-80.39137 262.48636,-222.68874 0,-26.89808 -4.13653,-52.84821 -11.80684,-77.24767 C 637.31924,194.02083 532.73519,153.25844 417.3363,153.25844 Z"
     id="path1080"
     inkscape:connector-curvature="0"
     style="fill:#a066fe;fill-opacity:1"
     sodipodi:nodetypes="csssccssssss" />
  <path
     inkscape:connector-curvature="0"
     style="opacity:0.1;fill:#e32dff;stroke-width:0.76656127;fill-opacity:1"
     d="M 436.12151,187.62601 C 385.84715,185.91279 335.22833,170.00672 286.4759,152.60066 237.72344,135.19458 189.04357,115.9078 138.52991,106.68699 c -32.48977,-5.93147 -68.512429,-6.769034 -90.600625,9.81472 -21.260199,15.98982 -23.853702,43.51518 -23.186402,69.08368 0.497947,19.23349 2.49992,39.47205 14.656011,57.47964 8.433132,12.50253 21.176988,23.01014 30.890667,35.02536 33.796469,41.66493 25.368932,93.04555 5.156456,133.7283 -9.469715,19.08884 -21.22768,37.30963 -27.471667,57.60907 -6.243811,20.29944 -6.482564,43.59139 6.339715,64.31727 12.720854,20.55827 36.604568,35.96946 61.352915,46.81976 50.27961,22.04305 105.74587,28.34767 159.37745,31.91875 118.68539,7.91115 235.82042,4.48467 352.64671,1.05833 43.23658,-1.27161 86.65537,-2.55842 128.15698,-9.19042 23.04953,-3.68517 46.45088,-9.52533 61.00014,-23.64205 18.46088,-17.91626 18.08461,-48.25885 -0.8731,-70.72079 -31.8156,-37.6827 -101.60254,-47.04059 -126.5612,-87.4872 -13.71683,-22.25632 -8.73315,-47.0481 1.07098,-67.69789 21.04405,-44.28423 63.07554,-83.13952 56.00566,-133.75877 -4.85837,-34.77408 -35.29937,-69.58623 -75.21109,-86.04053 -41.84189,-17.3071 -94.87316,-15.1142 -117.83044,13.43147 -23.65582,29.41367 -72.94226,40.69791 -117.32756,39.19032 z"
     id="path2012" />
  <ellipse
     cx="205.33878"
     cy="598.30109"
     rx="172.03658"
     ry="16.748455"
     id="ellipse4"
     style="fill:#3f3d56;stroke-width:0.46164638" />
  <polygon
     points="783.268,614.093 755.975,616.692 759.874,581.601 779.369,585.5 "
     id="polygon6"
     transform="matrix(0.41354947,0,0,0.51533705,29.166706,265.45704)"
     style="fill:#a0616a" />
  <path
     d="m 298.26398,364.91743 c 0,0 1.07494,18.08368 1.07494,18.75348 0,0.66976 -7.52466,46.88368 -7.52466,46.88368 0,0 -10.74954,25.45114 0,24.78136 10.74953,-0.66975 7.52466,-24.11158 7.52466,-24.11158 l 11.28702,-38.84647 -4.83729,-27.46045 z"
     id="path8"
     inkscape:connector-curvature="0"
     style="fill:#a0616a;stroke-width:0.46164638" />
  <polygon
     points="689.692,614.093 716.985,616.692 713.086,581.601 693.591,585.5 "
     id="polygon10"
     transform="matrix(0.41354947,0,0,0.51533705,29.166706,265.45704)"
     style="fill:#a0616a" />
  <path
     d="m 303.63874,429.21506 -2.68737,4.68837 c 0,0 -1.61245,20.09298 0,26.79066 1.61242,6.69769 4.83728,37.50696 4.83728,39.51626 0,2.00929 0.53747,3.34883 0,4.01859 -0.53748,0.66977 -2.14991,0.66978 -1.07495,2.00931 1.07495,1.33952 1.07495,5.35813 1.07495,5.35813 v 3.34882 l 6.98721,49.56275 c 0,0 -4.29983,6.0279 -1.07498,6.0279 3.22487,0 15.04937,0 14.51188,-6.69765 l -1.07495,-0.66978 c 0,0 -1.61243,-44.20461 -1.07495,-46.21392 0.53746,-2.0093 0,-6.02789 0,-6.02789 0,0 -1.07497,-2.00931 0,-2.67907 1.07495,-0.66978 1.07495,-6.02791 1.07495,-6.02791 l 4.83728,-40.85578 c 0,0 4.29981,27.46044 6.9872,30.13953 2.68739,2.67905 2.14991,9.37673 2.14991,9.37673 l 2.14991,58.93948 c 0,0 -2.14991,6.69767 0,8.0372 2.1499,1.33952 11.28701,6.0279 11.82448,-0.66977 0.5375,-6.69765 3.22486,-64.96739 3.22486,-67.64645 0,-2.67907 -0.53746,-4.01861 0,-6.02789 0.53749,-2.0093 -0.53746,-2.0093 0,-2.0093 0.53749,0 -1.07494,-2.00931 -1.07494,-3.34884 v -32.81859 c 0,0 0.53748,-6.69765 1.07494,-8.03719 0.53749,-1.33953 -0.53746,-2.67906 0,-4.68836 0.53749,-2.0093 -1.07494,-8.70697 -1.07494,-8.70697 l -24.18644,-8.03719 z"
     id="path12"
     inkscape:connector-curvature="0"
     style="fill:#2f2e41;stroke-width:0.46164638" />
  <path
     d="m 322.45044,579.24284 c 0,0 2.68739,-3.34883 -1.07496,-3.34883 a 17.494585,21.800555 0 0 0 -6.9872,2.0093 l -2.68739,12.05579 c 0,0 -11.01827,11.05117 1.34369,9.71163 12.36198,-1.33952 10.48081,-0.33487 10.48081,-0.33487 0,0 3.76233,-1.33955 4.29981,-2.67908 0.53748,-1.33953 -1.07495,-20.76277 -1.07495,-20.76277 0,0 -1.61242,5.35813 -4.29981,3.34883 z"
     id="path14"
     inkscape:connector-curvature="0"
     style="fill:#2f2e41;stroke-width:0.46164638" />
  <path
     d="m 345.56194,579.24284 c 0,0 -2.68738,-3.34883 1.07496,-3.34883 a 17.494585,21.800555 0 0 1 6.98721,2.0093 l 2.68737,12.05579 c 0,0 11.01828,11.05117 -1.3437,9.71162 -12.36196,-1.33954 -12.09322,-0.33487 -12.09322,-0.33487 0,0 -3.76234,-1.33955 -4.29982,-2.67907 -0.53747,-1.33953 2.6874,-20.76278 2.6874,-20.76278 0,0 1.61242,5.35814 4.2998,3.34884 z"
     id="path16"
     inkscape:connector-curvature="0"
     style="fill:#2f2e41;stroke-width:0.46164638" />
  <ellipse
     cx="310.62592"
     cy="294.59189"
     id="circle18"
     rx="13.974399"
     ry="17.41394"
     style="fill:#a0616a;stroke-width:0.46164638" />
  <path
     d="m 305.78866,307.31745 c 0,0 2.1499,13.39534 2.1499,15.40465 0,2.0093 9.13711,8.03719 9.13711,8.03719 l 10.21205,-16.0744 c 0,0 -6.44971,-11.38603 -6.44971,-14.06509 z"
     id="path20"
     inkscape:connector-curvature="0"
     style="fill:#a0616a;stroke-width:0.46164638" />
  <path
     d="m 313.85081,324.73142 c 0,0 -4.68453,-1.55376 -6.1046,-4.12571 0,0 -14.85701,18.19081 -14.85701,21.53964 l 11.8245,26.12092 c 0,0 0,9.37672 1.07496,10.04649 1.07495,0.66976 0,0 0,2.67907 0,2.67907 -3.22487,20.09299 -2.14992,22.77207 1.07496,2.67908 2.14992,0.66977 1.07496,4.68836 -1.07496,4.01861 -3.76233,25.45117 -3.76233,25.45117 0,0 9.67457,-4.01861 23.64897,2.67905 13.9744,6.69767 30.63619,-2.67905 30.63619,-2.67905 0,0 -4.29982,-12.05581 -3.22487,-16.07441 1.07496,-4.01859 -2.68738,-11.38604 -2.68738,-11.38604 l -2.68737,-61.61854 c 0,0 3.76233,-27.46046 1.07495,-28.79999 l -5.37478,-2.6791 -17.21215,-2.63612 c 0,0 -4.28692,13.35242 -11.27412,14.02219 z"
     id="path22"
     inkscape:connector-curvature="0"
     style="fill:#d0cde1;stroke-width:0.46164638" />
  <path
     d="m 298.26398,337.45698 -5.37478,4.68837 c 0,0 -2.68738,10.0465 0,14.73486 2.68739,4.68839 3.76235,11.38606 3.76235,11.38606 l 10.74953,-1.33954 z"
     id="path24"
     inkscape:connector-curvature="0"
     style="fill:#d0cde1;stroke-width:0.46164638" />
  <path
     d="m 299.95657,276.18835 -2.42403,-1.20931 c 0,0 5.0684,-6.95344 12.12017,-6.34879 l -1.98335,-2.72094 c 0,0 4.84807,-2.41857 9.25539,3.93021 2.31683,3.33743 4.99745,7.26039 6.66854,11.67956 h 2.59598 l -1.08347,2.97284 3.79212,2.97284 -3.89224,-0.53399 a 13.200913,16.450074 0 0 1 -0.36814,7.69935 l 0.10433,2.34973 c 0,0 -4.51165,-8.69857 -4.51165,-9.90786 v 3.02324 c 0,0 -2.42403,-2.72091 -2.42403,-4.53484 l -1.3222,2.11627 -0.66108,-3.32558 -8.15355,3.32558 1.32218,-2.72091 -5.06841,0.90698 1.98336,-3.32556 c 0,0 -5.72951,3.93021 -5.94992,7.25579 -0.22035,3.32554 -3.08508,7.55809 -3.08508,7.55809 l -1.32219,-3.02324 c 0,0 -1.98333,-13.60461 4.40727,-18.13946 z"
     id="path26"
     inkscape:connector-curvature="0"
     style="fill:#2f2e41;stroke-width:0.46164638" />
  <rect
     x="89.614876"
     y="411.21085"
     width="213.5829"
     height="186.96336"
     id="rect28"
     style="fill:#f2f2f2;stroke-width:0.46164638" />
  <rect
     x="107.59428"
     y="482.54584"
     width="53.628223"
     height="116.65897"
     id="rect30"
     style="fill:#3f3d56;stroke-width:0.46164638" />
  <rect
     x="117.51395"
     y="489.54443"
     width="14.445969"
     height="16.78113"
     id="rect32"
     style="fill:#f2f2f2;stroke-width:0.46164638" />
  <rect
     x="136.85686"
     y="489.54443"
     width="14.445969"
     height="16.78113"
     id="rect34"
     style="fill:#f2f2f2;stroke-width:0.46164638" />
  <rect
     x="117.51395"
     y="512.4278"
     width="14.445969"
     height="17.391359"
     id="rect36"
     style="fill:#f2f2f2;stroke-width:0.46164638" />
  <rect
     x="136.85686"
     y="512.4278"
     width="14.445969"
     height="17.391359"
     id="rect38"
     style="fill:#f2f2f2;stroke-width:0.46164638" />
  <ellipse
     cx="154.40273"
     cy="548.72937"
     id="circle40"
     rx="3.4098849"
     ry="4.2491655"
     style="fill:#7b2dff;stroke-width:0.46164638" />
  <rect
     x="179.2019"
     y="471.47177"
     width="106.01649"
     height="110.86464"
     id="rect42"
     style="fill:#3f3d56;stroke-width:0.46164638" />
  <polygon
     points="679.295,219.117 686.499,244.603 692.008,264.092 716.602,351.134 92.199,351.134 133.831,264.092 143.148,244.603 155.337,219.117 164.654,199.628 175.455,177.051 667.407,177.051 673.786,199.628 "
     id="polygon44"
     transform="matrix(0.41354947,0,0,0.51533705,29.166706,265.45704)"
     style="fill:#3f3d56" />
  <rect
     x="182.92177"
     y="517.44006"
     width="3.7198772"
     height="28.58531"
     id="rect46"
     style="fill:#7b2dff;stroke-width:0.46164638" />
  <rect
     x="182.92177"
     y="521.68921"
     width="3.7198772"
     height="3.4765925"
     id="rect48"
     style="fill:#f2f2f2;stroke-width:0.46164638" />
  <rect
     x="182.92177"
     y="538.29962"
     width="3.7198772"
     height="3.4765925"
     id="rect50"
     style="fill:#f2f2f2;stroke-width:0.46164638" />
  <rect
     x="188.5016"
     y="517.44006"
     width="8.9897013"
     height="28.58531"
     id="rect52"
     style="fill:#7b2dff;stroke-width:0.46164638" />
  <rect
     x="188.5016"
     y="521.68921"
     width="8.9897013"
     height="3.4765925"
     id="rect54"
     style="fill:#f2f2f2;stroke-width:0.46164638" />
  <rect
     x="188.5016"
     y="538.29962"
     width="8.9897013"
     height="3.4765925"
     id="rect56"
     style="fill:#f2f2f2;stroke-width:0.46164638" />
  <rect
     x="199.66122"
     y="517.44006"
     width="3.7198772"
     height="28.58531"
     id="rect58"
     style="fill:#7b2dff;stroke-width:0.46164638" />
  <rect
     x="199.66122"
     y="521.68921"
     width="3.7198772"
     height="3.4765925"
     id="rect60"
     style="fill:#f2f2f2;stroke-width:0.46164638" />
  <rect
     x="199.66122"
     y="538.29962"
     width="3.7198772"
     height="3.4765925"
     id="rect62"
     style="fill:#f2f2f2;stroke-width:0.46164638" />
  <rect
     x="205.24104"
     y="517.44006"
     width="3.7198772"
     height="28.58531"
     id="rect64"
     style="fill:#7b2dff;stroke-width:0.46164638" />
  <rect
     x="205.24104"
     y="521.68921"
     width="3.7198772"
     height="3.4765925"
     id="rect66"
     style="fill:#f2f2f2;stroke-width:0.46164638" />
  <rect
     x="205.24104"
     y="538.29962"
     width="3.7198772"
     height="3.4765925"
     id="rect68"
     style="fill:#f2f2f2;stroke-width:0.46164638" />
  <rect
     x="50.317329"
     y="564.76056"
     width="3.845681"
     height="27.945055"
     transform="matrix(0.90511648,-0.42516368,0.28954155,0.95716545,0,0)"
     id="rect70"
     style="fill:#7b2dff;stroke-width:0.46410128" />
  <rect
     x="50.317345"
     y="568.91455"
     width="3.845681"
     height="3.3987241"
     transform="matrix(0.90511648,-0.42516368,0.28954155,0.95716545,0,0)"
     id="rect72"
     style="fill:#f2f2f2;stroke-width:0.46410128" />
  <rect
     x="50.317322"
     y="585.15289"
     width="3.845681"
     height="3.3987241"
     transform="matrix(0.90511648,-0.42516368,0.28954155,0.95716545,0,0)"
     id="rect74"
     style="fill:#f2f2f2;stroke-width:0.46410128" />
  <rect
     x="272.81879"
     y="517.44006"
     width="8.9897013"
     height="28.58531"
     id="rect76"
     style="fill:#7b2dff;stroke-width:0.46164638" />
  <rect
     x="272.81879"
     y="521.68921"
     width="8.9897013"
     height="3.4765925"
     id="rect78"
     style="fill:#f2f2f2;stroke-width:0.46164638" />
  <rect
     x="272.81879"
     y="538.29962"
     width="8.9897013"
     height="3.4765925"
     id="rect80"
     style="fill:#f2f2f2;stroke-width:0.46164638" />
  <rect
     x="266.92896"
     y="517.44006"
     width="3.7198772"
     height="28.58531"
     id="rect82"
     style="fill:#7b2dff;stroke-width:0.46164638" />
  <rect
     x="266.92896"
     y="521.68921"
     width="3.7198772"
     height="3.4765925"
     id="rect84"
     style="fill:#f2f2f2;stroke-width:0.46164638" />
  <rect
     x="266.92896"
     y="538.29962"
     width="3.7198772"
     height="3.4765925"
     id="rect86"
     style="fill:#f2f2f2;stroke-width:0.46164638" />
  <rect
     x="261.34918"
     y="517.44006"
     width="3.7198772"
     height="28.58531"
     id="rect88"
     style="fill:#7b2dff;stroke-width:0.46164638" />
  <rect
     x="261.34918"
     y="521.68921"
     width="3.7198772"
     height="3.4765925"
     id="rect90"
     style="fill:#f2f2f2;stroke-width:0.46164638" />
  <rect
     x="261.34918"
     y="538.29962"
     width="3.7198772"
     height="3.4765925"
     id="rect92"
     style="fill:#f2f2f2;stroke-width:0.46164638" />
  <rect
     x="-390.61456"
     y="400.80197"
     width="27.945055"
     height="3.845681"
     transform="matrix(0.28954155,-0.95716545,0.90511648,0.42516368,0,0)"
     id="rect94"
     style="fill:#7b2dff;stroke-width:0.46410128" />
  <rect
     x="-370.22223"
     y="400.802"
     width="3.3987241"
     height="3.845681"
     transform="matrix(0.28954155,-0.95716545,0.90511648,0.42516368,0,0)"
     id="rect96"
     style="fill:#f2f2f2;stroke-width:0.46410128" />
  <rect
     x="-386.46054"
     y="400.802"
     width="3.3987241"
     height="3.845681"
     transform="matrix(0.28954155,-0.95716545,0.90511648,0.42516368,0,0)"
     id="rect98"
     style="fill:#f2f2f2;stroke-width:0.46410128" />
  <rect
     x="179.2019"
     y="546.02533"
     width="106.01649"
     height="2.7040145"
     id="rect100"
     style="fill:#f2f2f2;stroke-width:0.46164638" />
  <rect
     x="225.39038"
     y="517.44006"
     width="19.529352"
     height="28.58531"
     id="rect102"
     style="fill:#7b2dff;stroke-width:0.46164638" />
  <rect
     x="230.19522"
     y="523.62067"
     width="9.9196711"
     height="5.4080291"
     id="rect104"
     style="fill:#f2f2f2;stroke-width:0.46164638" />
  <rect
     x="231.28017"
     y="471.47177"
     width="1.8599386"
     height="24.722429"
     id="rect106"
     style="fill:#f2f2f2;stroke-width:0.46164638" />
  <ellipse
     cx="232.21013"
     cy="496.19421"
     id="circle108"
     rx="3.0998964"
     ry="3.8628786"
     style="fill:#f2f2f2;stroke-width:0.46164638" />
  <polygon
     points="155.337,219.117 164.654,199.628 673.786,199.628 679.295,219.117 "
     id="polygon110"
     transform="matrix(0.41354947,0,0,0.51533705,29.166706,265.45704)"
     style="fill:#7b2dff" />
  <polygon
     points="133.831,264.092 143.148,244.603 686.499,244.603 692.008,264.092 "
     id="polygon112"
     transform="matrix(0.41354947,0,0,0.51533705,29.166706,265.45704)"
     style="fill:#7b2dff" />
  <path
     d="m 338.03727,343.48488 c 0,0 -3.11245,9.97333 -2.46231,19.84097 a 8.392205,10.457792 0 0 0 1.38734,4.94041 v 0 l -38.13099,22.55847 c 0,0 -17.22912,2.22289 -12.9293,11.59963 4.29981,9.37673 19.88665,-4.68837 19.88665,-4.68837 0,0 40.84824,-7.36745 44.0731,-14.73488 3.22485,-7.36743 5.37477,-38.1767 5.37477,-38.1767 z"
     id="path114"
     inkscape:connector-curvature="0"
     style="fill:#a0616a;stroke-width:0.46164638" />
  <path
     d="m 339.6497,316.02444 h 8.06214 c 0,0 5.91226,1.33953 7.52468,14.73487 1.61243,13.39533 3.22485,16.74417 1.61243,16.74417 -1.61243,0 -20.96159,-0.66976 -20.96159,-1.33953 0,-0.66976 3.76234,-30.13951 3.76234,-30.13951 z"
     id="path116"
     inkscape:connector-curvature="0"
     style="fill:#d0cde1;stroke-width:0.46164638" />
  <polygon
     transform="matrix(0.30296167,0,0,0.41870564,499.13953,94.676049)"
     style="fill:#7b2dff"
     points="396.32,482.04 168.55,402.86 188.67,398.08 554.92,457.83 534.75,594.32 505.92,669.33 435.45,690.5 93.17,688.83 59.16,609.06 179.42,600.33 158.46,512.87 "
     id="polygon2014" />
  <path
     inkscape:connector-curvature="0"
     style="fill:#7b2dff;stroke-width:0.35616255"
     d="m 528.95699,369.10409 c 0,0 6.36227,-1.40689 10.17956,4.80677 0,0 -2.79934,3.0481 -8.82228,-1.17239 z"
     id="path2016" />
  <path
     inkscape:connector-curvature="0"
     style="fill:#7b2dff;stroke-width:0.35616255"
     d="m 528.29052,368.96589 c 0,0 -4.05968,6.90449 -2.06016,14.5919 0,0 3.30832,-1.82975 3.66887,-11.15011 z"
     id="path2018" />
  <path
     inkscape:connector-curvature="0"
     style="fill:#7b2dff;stroke-width:0.35616255"
     d="m 524.64286,357.61477 c 0,0 2.54489,-6.4522 12.72439,2.57926 0,0 -1.35727,4.33779 -5.85321,3.98608 -4.49595,-0.3517 -5.68356,-3.16539 -6.87118,-6.56534 z"
     id="path2020" />
  <path
     inkscape:connector-curvature="0"
     style="fill:#7b2dff;stroke-width:0.35616255"
     d="m 523.98539,357.15007 c 0,0 -5.2806,-0.83746 -5.79259,15.86893 0,0 3.34772,0.95881 5.72596,-4.32522 2.37823,-5.2841 1.40274,-8.24855 0.0667,-11.54371 z"
     id="path2022" />
  <path
     inkscape:connector-curvature="0"
     style="fill:#7b2dff;stroke-width:0.35616255"
     d="m 520.91035,343.82264 c 0,0 2.96902,-11.37203 13.74235,-3.28267 0,0 -2.46002,10.43415 -12.63958,7.15147 z"
     id="path2024" />
  <path
     inkscape:connector-curvature="0"
     style="fill:#7b2dff;stroke-width:0.35616255"
     d="m 517.60202,326.82315 c 0,0 5.59871,-11.48925 15.52374,-0.83738 0,0 -3.47798,10.78583 -14.67544,4.92396 z"
     id="path2026" />
  <path
     inkscape:connector-curvature="0"
     style="fill:#7b2dff;stroke-width:0.35616255"
     d="m 516.41441,310.64443 c 0,0 6.53186,-10.55557 16.35995,0 0,0 -6.19253,9.26174 -16.35995,2.69647 z"
     id="path2028" />
  <path
     inkscape:connector-curvature="0"
     style="fill:#7b2dff;stroke-width:0.35616255"
     d="m 515.39646,294.93039 c 0,0 6.61666,-11.02033 16.03271,-0.58619 0,0 -7.46495,9.73074 -16.03271,3.16539 z"
     id="path2030" />
  <path
     inkscape:connector-curvature="0"
     style="fill:#7b2dff;stroke-width:0.35616255"
     d="m 515.99023,280.97908 c 0,0 6.96813,-14.18572 15.77827,-4.57227 0,0 -7.46495,12.19273 -15.77827,7.26876 z"
     id="path2032" />
  <path
     inkscape:connector-curvature="0"
     style="fill:#7b2dff;stroke-width:0.35616255"
     d="m 517.60202,264.68307 c 0,0 7.38016,-14.06849 15.94793,-3.28259 0,0 -8.73743,12.19264 -15.94793,5.86187 z"
     id="path2034" />
  <path
     inkscape:connector-curvature="0"
     style="fill:#7b2dff;stroke-width:0.35616255"
     d="m 520.06205,250.11632 c 0,0 8.73744,-13.22272 16.35996,-7.9554 0,0 -9.104,14.04339 -16.74167,11.46413 z"
     id="path2036" />
  <path
     inkscape:connector-curvature="0"
     style="fill:#7b2dff;stroke-width:0.35616255"
     d="m 523.11593,236.30741 c 0,0 10.08255,-16.19553 15.94791,-10.78586 0,0 -7.42863,12.56117 -16.66294,13.81728 z"
     id="path2038" />
  <path
     inkscape:connector-curvature="0"
     style="fill:#7b2dff;stroke-width:0.35616255"
     d="m 527.524,220.29192 c 0,0 8.8253,-13.22273 15.27235,-9.94008 0,0 -7.5498,13.71681 -16.4569,14.06852 z"
     id="path2040" />
  <path
     inkscape:connector-curvature="0"
     style="fill:#7b2dff;stroke-width:0.35616255"
     d="m 531.51404,205.31063 c 0,0 9.75538,-12.66165 13.9968,-10.43415 0,0 -7.04083,14.06851 -14.42099,13.24785 z"
     id="path2042" />
  <path
     inkscape:connector-curvature="0"
     style="fill:#7b2dff;stroke-width:0.35616255"
     d="m 535.4162,191.47659 c 0,0 8.39805,-15.12782 12.98186,-13.95545 0,0 -5.09279,13.4865 -12.98186,15.4921 z"
     id="path2044" />
  <path
     inkscape:connector-curvature="0"
     style="fill:#7b2dff;stroke-width:0.35616255"
     d="m 539.65161,172.82326 c 0,0 7.42255,-11.59395 11.43375,-11.56883 0,0 -5.85929,15.4921 -11.73974,15.34974 z"
     id="path2046" />
  <path
     inkscape:connector-curvature="0"
     style="fill:#7b2dff;stroke-width:0.35616255"
     d="m 542.16011,160.40446 7.1711,-24.15095 c 0,0 0.35748,21.83131 -8.08301,28.6311 z"
     id="path2048" />
  <path
     inkscape:connector-curvature="0"
     style="fill:#7b2dff;stroke-width:0.35616255"
     d="m 545.07156,133.77059 c 0,0 1.18763,-20.16904 0.42412,-21.81037 0,0 5.12611,16.76915 -0.47258,30.72043 z"
     id="path2050" />
  <path
     inkscape:connector-curvature="0"
     style="fill:#7b2dff;stroke-width:0.35616255"
     d="m 520.63166,343.55467 c 0,0 -7.4347,-6.36855 -12.24879,9.21151 0,0 6.61671,6.07123 13.12433,-5.238 z"
     id="path2052" />
  <path
     inkscape:connector-curvature="0"
     style="fill:#7b2dff;stroke-width:0.35616255"
     d="m 517.36266,326.17422 c 0,0 -9.11915,-5.74888 -13.54238,10.51787 0,0 7.04385,6.69926 14.37252,-6.40623 z"
     id="path2054" />
  <path
     inkscape:connector-curvature="0"
     style="fill:#7b2dff;stroke-width:0.35616255"
     d="m 515.99023,311.61159 c 0,0 -6.53185,-10.55557 -16.35988,0 0,0 6.19253,9.26183 16.35988,2.69647 z"
     id="path2056" />
  <path
     inkscape:connector-curvature="0"
     style="fill:#7b2dff;stroke-width:0.35616255"
     d="m 515.17225,294.93039 c 0,0 -6.61666,-11.02033 -16.03272,-0.58619 0,0 7.46495,9.73074 16.03272,3.16539 z"
     id="path2058" />
  <path
     inkscape:connector-curvature="0"
     style="fill:#7b2dff;stroke-width:0.35616255"
     d="m 515.99023,281.38104 c 0,0 -4.64136,-15.88985 -14.72999,-9.0566 0,0 5.45334,14.0895 14.31796,11.69447 z"
     id="path2060" />
  <path
     inkscape:connector-curvature="0"
     style="fill:#7b2dff;stroke-width:0.35616255"
     d="m 518.18673,264.60356 c 0,0 -4.61412,-16.16625 -14.84511,-8.67143 0,0 6.26525,14.81804 14.39067,11.16689 z"
     id="path2062" />
  <path
     inkscape:connector-curvature="0"
     style="fill:#7b2dff;stroke-width:0.35616255"
     d="m 521.04669,250.19588 c 0,0 -1.81777,-17.72381 -10.30068,-19.31071 0,0 1.79956,18.69102 9.15854,22.50545 z"
     id="path2064" />
  <path
     inkscape:connector-curvature="0"
     style="fill:#7b2dff;stroke-width:0.35616255"
     d="m 523.33099,236.3409 c 0,0 -0.70889,-21.35397 -7.72247,-22.09928 0,0 0.2363,16.2081 6.93179,25.12235 z"
     id="path2066" />
  <path
     inkscape:connector-curvature="0"
     style="fill:#7b2dff;stroke-width:0.35616255"
     d="m 528.25111,219.69318 c 0,0 -2.09046,-17.75732 -8.7859,-19.92622 0,0 0.83013,17.19625 8.12243,24.28494 z"
     id="path2068" />
  <path
     inkscape:connector-curvature="0"
     style="fill:#7b2dff;stroke-width:0.35616255"
     d="m 532.30778,205.45718 c 0,0 -0.0698,-18.49841 -4.15969,-21.21582 0,0 -2.53575,16.74823 2.97508,23.57732 z"
     id="path2070" />
  <path
     inkscape:connector-curvature="0"
     style="fill:#7b2dff;stroke-width:0.35616255"
     d="m 535.72822,191.26724 c 0,0 -0.57262,-19.04692 -4.80802,-21.73081 0,0 -1.44815,15.0734 4.17485,22.97856 z"
     id="path2072" />
  <path
     inkscape:connector-curvature="0"
     style="fill:#7b2dff;stroke-width:0.35616255"
     d="m 540.24237,174.34317 c 0,0 -0.0239,-15.49212 -3.04779,-19.12647 0,0 -3.00539,16.97013 1.46932,22.24163 z"
     id="path2074" />
  <path
     inkscape:connector-curvature="0"
     style="fill:#7b2dff;stroke-width:0.35616255"
     d="m 541.80565,159.64241 -2.94178,-25.78389 c 0,0 -3.99604,21.12788 3.08112,30.43989 z"
     id="path2076" />
  <path
     inkscape:connector-curvature="0"
     style="fill:#7b2dff;stroke-width:0.35616255"
     d="m 542.37824,134.01344 c 0,0 -7.5498,-17.33442 -7.39531,-19.26046 0,0 0.80283,18.16764 10.3007,27.21587 z"
     id="path2078" />
  <path
     inkscape:connector-curvature="0"
     style="fill:#7b2dff;stroke-width:0.35616255"
     d="m 543.26288,128.89268 c 0,0 -7.12565,-24.6199 -10.34917,-26.61294 0,0 10.1795,7.1515 10.943,25.90951 z"
     id="path2080" />
  <path
     inkscape:connector-curvature="0"
     style="fill:#444053;stroke-width:0.35616255"
     d="m 539.30923,176.75072 -0.48775,-0.20516 c 6.01379,-27.10283 7.51342,-44.38279 4.22632,-48.7164 l 0.3484,-0.51082 c 3.48707,4.57226 2.07223,21.66382 -4.08697,49.43238 z"
     id="path2082" />
  <path
     inkscape:connector-curvature="0"
     style="fill:#444053;stroke-width:0.35616255"
     d="m 522.7493,240.20975 -0.72103,-0.3559 c 0.63924,-2.48292 1.32697,-5.00354 2.04806,-7.48646 6.27733,-21.62195 11.62158,-41.73658 15.04808,-57.17845 l 0.62715,-0.4187 c -3.43257,15.47117 -8.68287,36.35622 -14.96634,58.00748 -0.71798,2.43687 -1.40269,4.94491 -2.03592,7.43203 z"
     id="path2084" />
  <path
     inkscape:connector-curvature="0"
     style="fill:#444053;stroke-width:0.35616255"
     d="m 537.9217,389.38619 c -0.0969,-0.14656 -9.84325,-15.3163 -16.63871,-41.21321 a 110.33258,152.48423 0 0 1 -6.56517,-47.22161 c -0.46659,-20.15231 2.59336,-42.65355 7.83458,-63.09476 l 0.5696,0.92117 c -11.76706,45.87758 -7.09238,85.18985 -0.89076,108.86348 6.72275,25.66241 16.35995,40.66469 16.4539,40.81538 z"
     id="path2086" />
  <path
     inkscape:connector-curvature="0"
     style="fill:#d5d6db;stroke-width:0.35616779"
     d="m 690.22994,357.17933 c 0,0 -6.86834,11.58562 -1.41487,29.10006 l -54.83769,32.86834 -5.26259,1.5241 -2.42376,-14.65464 1.62089,-18.49424 v -10.10756 z"
     id="path2088" />
  <polygon
     transform="matrix(0.30296167,0,0,0.41870564,499.13953,94.676049)"
     style="fill:#7b2dff"
     points="59.16,609.06 309.68,563.39 641.63,616.27 435.45,690.5 "
     id="polygon2090" />
  <polygon
     transform="matrix(0.30296167,0,0,0.41870564,499.13953,94.676049)"
     style="fill:#7b2dff"
     points="59.16,609.06 309.68,563.39 641.63,616.27 435.45,690.5 "
     id="polygon2092" />
  <path
     inkscape:connector-curvature="0"
     style="fill:#7b2dff;stroke-width:0.35616255"
     d="m 517.06274,349.68873 c 0,0 -7.09839,18.58632 1.08158,35.75328 l 112.55027,33.70572 c 0,0 -6.98629,-14.80539 0.36053,-35.35545 z"
     id="path2094" />
  <path
     inkscape:connector-curvature="0"
     style="opacity:0.1;stroke-width:0.35616255"
     d="m 517.06274,349.68873 c 0,0 -7.09839,18.58632 1.08158,35.75328 l 112.55027,33.70572 c 0,0 -6.98629,-14.80539 0.36053,-35.35545 z"
     id="path2096" />
  <path
     inkscape:connector-curvature="0"
     style="opacity:0.1;stroke-width:0.35616255"
     d="m 520.41653,356.13257 c 0,0 -4.05667,13.59954 0,22.40074"
     id="path2098" />
  <path
     inkscape:connector-curvature="0"
     style="fill:#7b2dff;stroke-width:0.35616255"
     d="m 630.69459,419.14773 62.83425,-37.05543 c 0,0 3.51436,1.04683 1.24215,4.60583 -2.27221,3.55899 -62.86456,36.00868 -62.86456,36.00868 l -113.76211,-37.2648 z"
     id="path2100" />
  <path
     inkscape:connector-curvature="0"
     style="opacity:0.1;stroke-width:0.35616255"
     d="m 630.69459,419.14773 62.83425,-37.05543 c 0,0 3.51436,1.04683 1.24215,4.60583 -2.27221,3.55899 -62.86456,36.00868 -62.86456,36.00868 l -113.76211,-37.2648 z"
     id="path2102" />
  <path
     inkscape:connector-curvature="0"
     style="opacity:0.1;stroke-width:0.35616779"
     d="m 625.54572,387.53551 c 0,0 -6.05941,10.0489 0,25.12233"
     id="path2104" />
  <rect
     style="opacity:0.1;stroke-width:0.35959685"
     x="526.3219"
     y="638.09021"
     width="29.929075"
     height="0.4085938"
     transform="matrix(0.90812106,-0.41870771,0.23466633,0.97207598,0,0)"
     id="rect2106" />
  <rect
     style="opacity:0.1;stroke-width:0.36035386"
     x="509.99677"
     y="664.32147"
     width="36.863323"
     height="0.40590969"
     transform="matrix(0.88520656,-0.46519817,0.26529503,0.96416728,0,0)"
     id="rect2108" />
  <rect
     style="opacity:0.1;stroke-width:0.36082"
     x="499.16565"
     y="681.04968"
     width="43.025505"
     height="0.40413991"
     transform="matrix(0.87039288,-0.49235783,0.28398169,0.9588297,0,0)"
     id="rect2110" />
  <rect
     style="opacity:0.1;stroke-width:0.36148086"
     x="483.72"
     y="701.62787"
     width="50.041435"
     height="0.40144652"
     transform="matrix(0.84826974,-0.52956439,0.3106888,0.95051169,0,0)"
     id="rect2112" />
  <rect
     style="opacity:0.1;stroke-width:0.36125627"
     x="488.67728"
     y="697.59772"
     width="54.53582"
     height="0.40238869"
     transform="matrix(0.85595268,-0.51705416,0.30155529,0.95344869,0,0)"
     id="rect2114" />
  <rect
     style="opacity:0.1;stroke-width:0.36117575"
     x="490.31619"
     y="698.41675"
     width="65.178665"
     height="0.40271962"
     transform="matrix(0.85866503,-0.51253719,0.29829684,0.95447315,0,0)"
     id="rect2116" />
  <polygon
     transform="matrix(0.30296167,0,0,0.41870564,499.13953,94.676049)"
     style="opacity:0.3;fill:#ffffff"
     points="152.23,613.94 328.23,576.94 435.45,597.44 291.23,643.94 "
     id="polygon2118" />
  <path
     inkscape:connector-curvature="0"
     style="fill:#7b2dff;stroke-width:0.35616779"
     d="m 693.53233,352.71178 c 0,0 2.75703,1.53666 1.13916,3.9107 -1.61786,2.37404 -63.61473,27.1698 -63.61473,27.1698 z"
     id="path2120" />
  <path
     inkscape:connector-curvature="0"
     style="fill:#d5d6db;stroke-width:0.35616255"
     d="m 720.30761,316.90825 c 0,0 -6.86509,11.5814 -1.41182,29.10006 l -54.83604,32.86834 -5.26242,1.53245 -2.42371,-14.65464 1.64509,-18.49003 v -10.12012 z"
     id="path2122" />
  <polygon
     transform="matrix(0.30296167,0,0,0.41870564,499.13953,94.676049)"
     style="fill:#3a3768"
     points="158.46,512.87 408.97,467.21 740.93,520.09 534.75,594.32 "
     id="polygon2124" />
  <path
     inkscape:connector-curvature="0"
     style="fill:#3a3768;stroke-width:0.35616255"
     d="m 547.13473,309.41757 c 0,0 -7.1014,18.58639 1.07858,35.75328 l 112.55022,33.7058 c 0,0 -6.98326,-14.81795 0.37265,-35.35967 z"
     id="path2126" />
  <path
     inkscape:connector-curvature="0"
     style="opacity:0.1;stroke-width:0.35616255"
     d="m 547.13473,309.41757 c 0,0 -7.1014,18.58639 1.07858,35.75328 l 112.55022,33.7058 c 0,0 -6.98326,-14.81795 0.37265,-35.35967 l -35.59194,-10.64771 z"
     id="path2128" />
  <path
     inkscape:connector-curvature="0"
     style="opacity:0.1;stroke-width:0.35616255"
     d="m 550.4976,315.86149 c 0,0 -4.05361,13.59532 0,22.40073"
     id="path2130" />
  <path
     inkscape:connector-curvature="0"
     style="fill:#3a3768;stroke-width:0.35616255"
     d="m 660.77566,378.87665 62.83728,-37.05543 c 0,0 3.5113,1.04676 1.23909,4.60575 -2.2722,3.55899 -62.86453,36.00868 -62.86453,36.00868 l -113.76211,-37.2648 z"
     id="path2132" />
  <path
     inkscape:connector-curvature="0"
     style="opacity:0.1;stroke-width:0.35616255"
     d="m 660.77566,378.87665 62.83728,-37.05543 c 0,0 3.5113,1.04676 1.23909,4.60575 -2.2722,3.55899 -62.86453,36.00868 -62.86453,36.00868 l -113.76211,-37.2648 z"
     id="path2134" />
  <path
     inkscape:connector-curvature="0"
     style="opacity:0.1;stroke-width:0.35616779"
     d="m 655.62766,347.26443 c 0,0 -6.05939,10.0489 0,25.12233"
     id="path2136" />
  <rect
     style="opacity:0.1;stroke-width:0.35959685"
     x="565.76398"
     y="613.65594"
     width="29.929075"
     height="0.4085938"
     transform="matrix(0.90812106,-0.41870771,0.23466633,0.97207598,0,0)"
     id="rect2138" />
  <rect
     style="opacity:0.1;stroke-width:0.36035386"
     x="550.62836"
     y="642.16046"
     width="36.863323"
     height="0.40590969"
     transform="matrix(0.88520656,-0.46519817,0.26529503,0.96416728,0,0)"
     id="rect2140" />
  <rect
     style="opacity:0.1;stroke-width:0.36082"
     x="540.50726"
     y="660.27472"
     width="43.025505"
     height="0.40413991"
     transform="matrix(0.87039288,-0.49235783,0.28398169,0.9588297,0,0)"
     id="rect2142" />
  <rect
     style="opacity:0.1;stroke-width:0.36148086"
     x="526.06641"
     y="682.85016"
     width="50.041435"
     height="0.40144652"
     transform="matrix(0.84826974,-0.52956439,0.3106888,0.95051169,0,0)"
     id="rect2144" />
  <rect
     style="opacity:0.1;stroke-width:0.36125627"
     x="530.68109"
     y="678.13074"
     width="54.53582"
     height="0.40238869"
     transform="matrix(0.85595268,-0.51705416,0.30155529,0.95344869,0,0)"
     id="rect2146" />
  <rect
     style="opacity:0.1;stroke-width:0.36117133"
     x="532.20526"
     y="678.71484"
     width="65.177261"
     height="0.40271854"
     transform="matrix(0.85865838,-0.51254832,0.29828885,0.95447565,0,0)"
     id="rect2148" />
  <polygon
     transform="matrix(0.30297059,0,0,0.41870564,499.13728,94.676049)"
     style="opacity:0.45;fill:#ffffff"
     points="427.53,480.76 534.75,501.26 390.53,547.76 251.53,517.76 "
     id="polygon2150" />
  <path
     inkscape:connector-curvature="0"
     style="fill:#3a3768;stroke-width:0.35616255"
     d="m 723.61294,312.44062 c 0,0 2.75394,1.53666 1.13914,3.90656 -1.6148,2.36983 -63.60377,27.1698 -63.60377,27.1698 z"
     id="path2152" />
  <path
     inkscape:connector-curvature="0"
     style="fill:#d5d6db;stroke-width:0.35616255"
     d="m 723.15544,270.83804 c 0,0 -6.8681,20.79712 -1.41483,38.31156 l -54.83604,23.65692 -5.25032,1.53665 -2.4237,-14.65471 1.62086,-18.49424 v -10.12013 z"
     id="path2154" />
  <polygon
     transform="matrix(0.30296167,0,0,0.41870564,499.13953,94.676049)"
     style="fill:#7b2dff"
     points="167.89,402.85 418.41,357.18 750.37,410.06 544.18,484.29 "
     id="polygon2156" />
  <path
     inkscape:connector-curvature="0"
     style="fill:#7b2dff;stroke-width:0.35616255"
     d="m 550.00378,263.34743 c 0,0 -7.11054,18.58633 1.06943,35.75328 l 112.55029,33.70581 c 0,0 -6.98629,-14.81804 0.36961,-35.35554 z"
     id="path2158" />
  <path
     inkscape:connector-curvature="0"
     style="opacity:0.1;stroke-width:0.35616255"
     d="m 550.00378,263.34743 c 0,0 -7.11054,18.58633 1.06943,35.75328 l 112.55029,33.70581 c 0,0 -6.98629,-14.81804 0.36961,-35.35554 z"
     id="path2160" />
  <path
     inkscape:connector-curvature="0"
     style="opacity:0.1;stroke-width:0.35616255"
     d="m 553.35757,269.79128 c 0,0 -4.05667,13.59961 0,22.40073"
     id="path2162" />
  <path
     inkscape:connector-curvature="0"
     style="fill:#7b2dff;stroke-width:0.35616255"
     d="m 663.63561,332.80652 62.83423,-27.84394 c 0,0 3.51437,1.04676 1.24217,4.60575 -2.27222,3.55899 -62.86455,26.79718 -62.86455,26.79718 l -113.7621,-37.2648 z"
     id="path2164" />
  <path
     inkscape:connector-curvature="0"
     style="opacity:0.1;stroke-width:0.35616255"
     d="m 663.63561,332.80652 62.83423,-27.84394 c 0,0 3.51437,1.04676 1.24217,4.60575 -2.27222,3.55899 -62.86455,26.79718 -62.86455,26.79718 l -113.7621,-37.2648 z"
     id="path2166" />
  <path
     inkscape:connector-curvature="0"
     style="opacity:0.1;stroke-width:0.35616779"
     d="m 658.48771,301.19422 c 0,0 -6.0594,10.04896 0,25.12234"
     id="path2168" />
  <rect
     style="opacity:0.1;stroke-width:0.35959685"
     x="579.61926"
     y="572.22949"
     width="29.929075"
     height="0.4085938"
     transform="matrix(0.90812106,-0.41870771,0.23466633,0.97207598,0,0)"
     id="rect2170" />
  <rect
     style="opacity:0.1;stroke-width:0.36035386"
     x="565.96069"
     y="601.77704"
     width="36.863323"
     height="0.40590969"
     transform="matrix(0.88520656,-0.46519817,0.26529503,0.96416728,0,0)"
     id="rect2172" />
  <rect
     style="opacity:0.1;stroke-width:0.36082"
     x="556.74377"
     y="620.56732"
     width="43.025505"
     height="0.40413991"
     transform="matrix(0.87039288,-0.49235783,0.28398169,0.9588297,0,0)"
     id="rect2174" />
  <rect
     style="opacity:0.1;stroke-width:0.36148086"
     x="543.61066"
     y="644.15546"
     width="50.041435"
     height="0.40144652"
     transform="matrix(0.84826974,-0.52956439,0.3106888,0.95051169,0,0)"
     id="rect2176" />
  <rect
     style="opacity:0.1;stroke-width:0.36125627"
     x="547.77954"
     y="639.08759"
     width="54.53582"
     height="0.40238869"
     transform="matrix(0.85595268,-0.51705416,0.30155529,0.95344869,0,0)"
     id="rect2178" />
  <rect
     style="opacity:0.1;stroke-width:0.36117133"
     x="549.14252"
     y="639.54919"
     width="65.177261"
     height="0.40271854"
     transform="matrix(0.85865838,-0.51254832,0.29828885,0.95447565,0,0)"
     id="rect2180" />
  <polygon
     transform="matrix(0.30297059,0,0,0.41870564,499.13728,94.676049)"
     style="opacity:0.3;fill:#ffffff"
     points="436.96,370.73 544.18,391.23 399.96,437.73 260.96,407.73 "
     id="polygon2182" />
  <path
     inkscape:connector-curvature="0"
     style="fill:#7b2dff;stroke-width:0.35616255"
     d="m 726.46984,266.37048 c 0,0 2.75695,1.53666 1.13914,3.9107 -1.61781,2.37405 -63.60375,27.1698 -63.60375,27.1698 z"
     id="path2184" />
  <path
     inkscape:connector-curvature="0"
     style="fill:#7b2dff;stroke-width:0.35616779"
     d="m 593.18543,139.2682 c 0,0 -11.51288,-0.95884 -10.1677,10.20384 0,0 -0.26964,1.97211 1.02405,2.86814 0,0 0.0212,-0.8374 1.18159,-0.5485 a 5.1656487,7.1389311 0 0 0 1.2543,0.0837 2.6116065,3.6092426 0 0 0 1.52999,-0.87091 v 0 c 0,0 3.23876,-1.85069 4.49911,-9.16964 0,0 0.93316,-1.59528 0.90892,-2.00561 l -1.95113,1.14725 c 0,0 0.66352,1.93861 0.1424,3.55063 0,0 -0.0637,-3.47945 -0.43931,-3.39989 -0.0758,0 -1.00889,0.67411 -1.00889,0.67411 0,0 1.14221,3.37895 0.27873,5.83257 0,0 0.32722,-4.16194 -0.63624,-5.58971 l -1.36943,1.10537 c 0,0 1.3361,3.48782 0.43022,6.33501 0,0 0.23329,-4.36709 -0.71803,-6.06704 l -1.24218,1.33986 c 0,0 1.25731,3.43757 0.4908,5.79907 0,0 -0.0999,-5.08308 -0.75742,-5.46829 0,0 -1.08767,1.3231 -1.25127,1.86743 0,0 0.86043,2.51223 0.32418,3.81441 0,0 -0.32418,-3.38734 -0.60594,-3.40408 0,0 -1.0816,2.24426 -1.19371,3.76835 a 5.8958078,8.148012 0 0 1 0.93012,-3.99445 3.244815,4.4843373 0 0 0 -1.65422,1.18493 c 0,0 0.16663,-1.5869 1.92387,-1.72506 0,0 0.89376,-1.70413 1.1331,-1.80463 0,0 -1.74814,-0.20516 -2.8055,0.44383 0,0 0.93315,-1.49478 3.12363,-0.8374 l 1.21188,-1.38173 c 0,0 -2.29652,-0.41871 -3.27209,0.046 0,0 1.12403,-1.32311 3.60232,-0.36009 l 1.3361,-1.10119 c 0,0 -1.96021,-0.58201 -3.12665,-0.37264 0,0 1.23007,-0.91697 3.51749,0.0754 l 0.95133,-0.59037 c 0,0 -1.43305,-0.38941 -1.85418,-0.45221 -0.42113,-0.0628 -0.44235,-0.22192 -0.44235,-0.22192 a 5.0020445,6.9128297 0 0 1 2.69645,0.41872 c 0,0 2.04504,-1.01746 2.00566,-1.19332 z"
     id="path2186" />
  <path
     inkscape:connector-curvature="0"
     style="opacity:0.1;fill:#7b2dff;stroke-width:0.35616255"
     d="m 755.14823,185.14996 c 0,0 -11.51254,-0.95883 -10.16741,10.20385 0,0 -0.26962,1.97211 1.02403,2.86814 0,0 0.0215,-0.83742 1.18154,-0.54852 a 5.3381847,7.3775932 0 0 0 1.25424,0.0837 2.6024408,3.5966815 0 0 0 1.51486,-0.8709 v 0 c 0,0 3.24168,-1.85069 4.49894,-9.16966 0,0 0.9331,-1.59527 0.90885,-2.0056 l -1.94497,1.14726 c 0,0 0.66349,1.93859 0.14236,3.55061 0,0 -0.0636,-3.47944 -0.43621,-3.39989 -0.0758,0 -1.01194,0.67413 -1.01194,0.67413 0,0 1.1422,3.37895 0.28176,5.83256 0,0 0.32724,-4.16194 -0.63924,-5.58972 l -1.36936,1.10539 c 0,0 1.33604,3.48781 0.43018,6.33501 0,0 0.23329,-4.36709 -0.71803,-6.06704 l -1.23909,1.33985 c 0,0 1.25426,3.43758 0.48775,5.79907 0,0 -0.0999,-5.08308 -0.75742,-5.46829 0,0 -1.0846,1.32311 -1.25119,1.86742 0,0 0.86039,2.51225 0.32717,3.81441 0,0 -0.32717,-3.38732 -0.60592,-3.40407 0,0 -1.08158,2.24426 -1.19363,3.76835 a 5.8774565,8.1228892 0 0 1 0.9331,-3.99446 3.2598676,4.5052727 0 0 0 -1.6572,1.18495 c 0,0 0.16965,-1.58689 1.9238,-1.72508 0,0 0.89376,-1.70412 1.13307,-1.80879 0,0 -1.74507,-0.20098 -2.80543,0.44801 0,0 0.93316,-1.49478 3.12357,-0.83742 l 1.2118,-1.38173 c 0,0 -2.29945,-0.4187 -3.27194,0.046 0,0 1.12091,-1.32311 3.60217,-0.36009 l 1.33304,-1.10119 c 0,0 -1.96014,-0.58201 -3.12657,-0.37266 0,0 1.23006,-0.91695 3.51737,0.0754 l 0.95439,-0.59037 c 0,0 -1.43606,-0.38939 -1.85717,-0.45221 -0.42112,-0.0629 -0.44234,-0.22191 -0.44234,-0.22191 a 4.9655418,6.8625855 0 0 1 2.69639,0.41871 c 0,0 2.051,-1.01746 2.01468,-1.1933 z"
     id="path2188" />
  <path
     inkscape:connector-curvature="0"
     style="opacity:0.1;fill:#7b2dff;stroke-width:0.35616779"
     d="m 612.57555,208.22901 c 0,0 -5.01718,-14.37416 -11.40381,-7.28967 0,0 -1.37852,0.63644 -1.31186,2.63366 0,0 0.53019,-0.38102 0.90891,1.15983 a 5.3686389,7.4194635 0 0 0 0.55746,1.5492 2.6146362,3.6134296 0 0 0 1.29975,1.4236 v 0 c 0,0 2.74795,3.0063 7.9863,0.95464 0,0 1.46335,0.34754 1.7027,0.10469 l -1.6724,-1.78786 c 0,0 -0.90892,1.74599 -2.17534,1.90092 0,0 2.16928,-1.77114 1.93599,-2.18145 -0.0484,-0.0837 -0.90891,-0.89185 -0.90891,-0.89185 0,0 -1.57848,3.02724 -3.54779,3.18216 0,0 2.78734,-1.63296 3.21755,-3.4962 l -1.36337,-1.11374 c 0,0 -1.55424,3.31613 -3.79319,3.60923 0,0 2.87217,-1.84648 3.48114,-3.82277 l -1.4482,-0.83742 c 0,0 -1.5603,3.19053 -3.42659,3.42081 0,0 3.163,-2.60014 3.08423,-3.58411 0,0 -1.36641,-0.66156 -1.79055,-0.59875 0,0 -1.15735,2.25683 -2.24804,2.25683 0,0 1.97839,-2.04748 1.8572,-2.37825 0,0 -1.94507,-0.20936 -2.96911,0.41871 a 5.8988375,8.1521989 0 0 1 2.97821,-0.83741 3.2629934,4.5094597 0 0 0 -1.55727,-1.41942 c 0,0 1.08462,-0.56944 2.02686,1.47803 0,0 1.51486,0.24704 1.69361,0.4857 0,0 -0.7241,-2.20239 -1.64817,-3.16122 0,0 1.39974,0.38939 2.039,3.34965 l 1.46941,0.8039 c 0,0 -0.8453,-2.98118 -1.62392,-3.92326 0,0 1.38155,0.7076 1.98446,4.18705 l 1.34518,1.07188 c 0,0 -0.58473,-2.65041 -1.28762,-3.95257 0,0 1.17855,1.03838 1.66634,4.27917 l 0.83923,0.86253 c 0,0 -0.45445,-1.92185 -0.60595,-2.4578 -0.15148,-0.53594 -0.0758,-0.64482 -0.0758,-0.64482 a 4.9717474,6.8709593 0 0 1 1.05434,3.45433 c 0,0 1.62089,1.91767 1.72997,1.79206 z"
     id="path2190" />
  <path
     inkscape:connector-curvature="0"
     style="opacity:0.1;fill:#7b2dff;stroke-width:0.35616255"
     d="m 728.84507,164.84273 c 0,0 -5.014,-14.37416 -11.40345,-7.28967 0,0 -1.37548,0.63644 -1.31186,2.63367 0,0 0.53322,-0.37684 0.90892,1.15981 a 5.2533553,7.2603559 0 0 0 0.56047,1.5534 2.5994112,3.5924944 0 0 0 1.29664,1.41941 v 0 c 0,0 2.75093,3.00631 7.98609,0.95884 0,0 1.4633,0.34333 1.70567,0.10046 l -1.66321,-1.79205 c 0,0 -0.90892,1.75018 -2.17226,1.9051 0,0 2.16619,-1.77531 1.93289,-2.18564 -0.0485,-0.0837 -0.90886,-0.89184 -0.90886,-0.89184 0,0 -1.57541,3.02724 -3.54769,3.18216 0,0 2.79027,-1.63296 3.22045,-3.492 l -1.38451,-1.1054 c 0,0 -1.55117,3.31197 -3.79306,3.60926 0,0 2.87205,-1.85068 3.48405,-3.82697 l -1.45122,-0.83742 c 0,0 -1.56026,3.19473 -3.42343,3.42083 0,0 3.15984,-2.60017 3.08111,-3.57993 0,0 -1.36335,-0.66575 -1.78747,-0.59875 0,0 -1.15737,2.25263 -2.25103,2.25263 0,0 1.98136,-2.04746 1.86017,-2.37824 0,0 -1.94497,-0.20937 -2.97201,0.4187 a 5.8956342,8.148012 0 0 1 2.97808,-0.83742 3.2447195,4.4843373 0 0 0 -1.55417,-1.4194 c 0,0 1.08458,-0.56945 2.02682,1.47803 0,0 1.5148,0.25122 1.69354,0.48989 0,0 -0.7241,-2.20659 -1.65113,-3.16542 0,0 1.39968,0.39358 2.03892,3.37058 l 1.47238,0.80391 c 0,0 -0.84522,-2.98537 -1.62388,-3.92745 0,0 1.38152,0.70761 1.98136,4.18705 l 1.34819,1.07188 c 0,0 -0.58775,-2.64621 -1.29063,-3.95258 0,0 1.18161,1.03839 1.66635,4.27918 l 0.83915,0.86253 c 0,0 -0.45136,-1.92185 -0.60593,-2.4578 -0.15449,-0.53594 -0.0758,-0.64063 -0.0758,-0.64063 a 4.9837196,6.8877076 0 0 1 1.05127,3.45433 c 0,0 1.64511,1.90092 1.73899,1.76694 z"
     id="path2192" />
  <path
     inkscape:connector-curvature="0"
     style="opacity:0.1;fill:#7b2dff;stroke-width:0.35616255"
     d="m 744.86871,235.94314 c 0,0 -5.014,-14.37835 -11.41252,-7.29385 0,0 -1.3755,0.63642 -1.31188,2.63366 0,0 0.53322,-0.37684 0.90893,1.15981 a 5.2503259,7.2561683 0 0 0 0.55744,1.5534 2.5994112,3.5924944 0 0 0 1.29667,1.41941 v 0 c 0,0 2.75086,3.01049 7.98908,0.95883 0,0 1.46029,0.34752 1.70267,0.10045 l -1.67236,-1.78788 c 0,0 -0.90886,1.75019 -2.17526,1.90511 0,0 2.16618,-1.77531 1.93289,-2.18564 -0.0485,-0.0837 -0.90886,-0.89185 -0.90886,-0.89185 0,0 -1.57541,3.02726 -3.54769,3.18636 0,0 2.79027,-1.63714 3.22046,-3.4962 l -1.36635,-1.11374 c 0,0 -1.55119,3.31614 -3.79307,3.60922 0,0 2.87204,-1.85067 3.48405,-3.82696 l -1.45121,-0.83741 c 0,0 -1.56025,3.19053 -3.42344,3.42082 0,0 3.16291,-2.60017 3.08411,-3.58411 0,0 -1.36635,-0.66575 -1.79047,-0.59876 0,0 -1.1573,2.25265 -2.25097,2.25265 0,0 1.98137,-2.04749 1.86018,-2.37825 0,0 -1.94505,-0.20936 -2.97209,0.4187 a 5.9138119,8.173134 0 0 1 2.98117,-0.83741 3.2386604,4.4759632 0 0 0 -1.55725,-1.41941 c 0,0 1.0846,-0.57364 2.02684,1.47802 0,0 1.51479,0.24704 1.69352,0.4857 0,0 -0.72405,-2.20239 -1.64813,-3.1654 0,0 1.39974,0.39357 2.03899,3.37056 l 1.46931,0.80393 c 0,0 -0.84522,-2.98538 -1.62381,-3.92328 0,0 1.38145,0.70343 1.98136,4.18706 l 1.34813,1.0677 c 0,0 -0.58769,-2.64621 -1.29057,-3.95259 0,0 1.18153,1.0384 1.66928,4.28336 l 0.83921,0.83742 c 0,0 -0.45442,-1.92187 -0.60591,-2.45779 -0.15151,-0.53595 -0.0758,-0.64064 -0.0758,-0.64064 a 4.9534234,6.8458372 0 0 1 1.05127,3.45432 c 0,0 1.64812,1.93024 1.742,1.80463 z"
     id="path2194" />
  <ellipse
     style="opacity:0.1;fill:#7b2dff;stroke-width:0.35616255"
     cx="560.32263"
     cy="421.93216"
     rx="6.9650884"
     ry="1.0760734"
     id="ellipse2196" />
  <ellipse
     style="opacity:0.1;fill:#7b2dff;stroke-width:0.35616255"
     cx="514.66321"
     cy="403.64313"
     rx="6.9650884"
     ry="1.0760734"
     id="ellipse2198" />
  <ellipse
     style="opacity:0.1;fill:#7b2dff;stroke-width:0.35616779"
     cx="618.18811"
     cy="453.99484"
     rx="6.9652939"
     ry="1.0760734"
     id="ellipse2200" />
  <ellipse
     style="opacity:0.1;fill:#7b2dff;stroke-width:0.35616255"
     cx="773.48041"
     cy="407.62079"
     rx="6.9650884"
     ry="1.0760734"
     id="ellipse2202" />
  <ellipse
     style="opacity:0.1;fill:#7b2dff;stroke-width:0.35616255"
     cx="715.52069"
     cy="402.39963"
     rx="6.9650884"
     ry="1.0760734"
     id="ellipse2204" />
  <ellipse
     style="opacity:0.1;fill:#7b2dff;stroke-width:0.35616779"
     cx="678.02936"
     cy="426.98587"
     rx="8.2377701"
     ry="1.9553553"
     id="ellipse2206" />
  <path
     inkscape:connector-curvature="0"
     style="fill:#7b2dff;stroke-width:0.35616779"
     d="m 681.70435,407.33191 c 0,0 -11.47046,8.18988 -5.54436,17.83689 0,0 0.55746,2.09351 2.16927,1.94696 0,0 -0.32115,-0.81234 0.90892,-1.46127 a 5.9109563,8.1689471 0 0 0 1.23914,-0.90863 2.9115474,4.0237611 0 0 0 1.10887,-2.04747 v 0 c 0,0 2.345,-4.33778 0.52717,-12.36433 0,0 0.23632,-2.2694 0.0302,-2.63787 l -1.39367,2.642 c 0,0 1.43911,1.33572 1.60573,3.29946 0,0 -1.51484,-3.29524 -1.81781,-2.93097 -0.0667,0.0754 -0.69078,1.44449 -0.69078,1.44449 0,0 2.49648,2.34057 2.6813,5.3804 0,0 -1.40578,-4.25826 -2.92367,-4.86536 l -0.86953,2.14375 c 0,0 2.72673,2.29452 3.0297,5.74466 0,0 -1.58452,-4.37547 -3.20239,-5.25897 l -0.63927,2.26525 c 0,0 2.62978,2.31123 2.87216,5.18352 0,0 -2.19956,-4.80254 -2.99032,-4.65178 0,0 -0.49687,2.12706 -0.43023,2.78442 0,0 1.85722,1.71668 1.89056,3.40401 0,0 -1.71481,-2.9937 -1.9784,-2.7969 0,0 -0.10911,3.01049 0.4181,4.57641 0,0 -0.90893,-2.23585 -0.76046,-4.57641 a 3.6356471,5.0244677 0 0 0 -1.09978,2.44521 c 0,0 -0.49386,-1.65386 1.13311,-3.17795 0,0 0.1545,-2.34057 0.34235,-2.62946 0,0 -1.76025,1.18909 -2.5086,2.64623 0,0 0.27571,-2.1731 2.66311,-3.2534 l 0.60595,-2.29446 c 0,0 -2.38742,1.39846 -3.12363,2.62945 0,0 0.53021,-2.15632 3.31147,-3.19051 l 0.82407,-2.09359 c 0,0 -2.12078,0.98815 -3.15695,2.09359 0,0 0.80287,-1.85488 3.41146,-2.70905 l 0.66955,-1.31893 c 0,0 -1.53908,0.75786 -1.9693,1.03005 -0.43022,0.27211 -0.51505,0.13813 -0.51505,0.13813 a 5.5716292,7.6999967 0 0 1 2.76006,-1.73339 c 0,0 1.51789,-2.59183 1.41185,-2.73418 z"
     id="path2208" />
  <path
     inkscape:connector-curvature="0"
     style="fill:url(#3cf802be-0480-4c68-848a-073112220499);stroke-width:0.35616255"
     d="m 715.74503,252.64949 c -1.98136,-7.4404 -12.88799,-8.13964 -17.62026,-6.2429 -3.36287,1.35242 -10.45218,2.8765 -14.2392,3.64274 l -0.2454,-0.3224 c 0.4908,-0.20098 0.50292,-0.69506 0.44233,-1.42778 a 16.169064,22.346319 0 0 1 0.0302,-2.89745 c 2.32068,0.99651 4.38689,-1.3608 4.38689,-1.3608 v 0 c 2.72665,-1.67482 1.99349,-8.84306 2.51458,-10.8026 0.39081,-1.46547 0.81194,-10.09918 0.99976,-14.40348 h 0.0393 l 0.0212,-1.44454 c 0.0272,-0.62386 0.0394,-0.98813 0.0394,-0.98813 0,0 0.26662,-10.52627 0.7877,-12.65748 0.48474,-1.95954 0.87859,-11.83262 0.93918,-13.39858 0,-0.13398 0,-0.20516 0,-0.20516 l -0.0393,-0.91277 c 0.0272,-0.66576 0.0393,-1.40687 0.0363,-2.18565 0,-3.57994 -0.26964,-8.0894 -0.30296,-8.81795 0,-0.10469 0,-0.23028 0,-0.38102 0.0212,-1.52827 -0.11816,-9.18222 -4.82922,-12.07547 -1.73596,-1.07189 -3.82337,-2.34894 -5.84413,-3.59249 -0.52109,-6.21777 -1.71172,-12.40206 -1.60871,-18.6659 0,-0.94209 0.0606,-1.88416 0.12723,-2.82207 0,0.27215 -0.0213,0.5485 -0.0243,0.8374 0,0.60713 0,1.21844 0,1.82556 0.17875,-7.83397 2.32069,-15.70982 2.12074,-23.37633 -0.0182,0.74948 -0.0576,1.50316 -0.10911,2.25683 a 17.611162,24.339357 0 0 0 -0.58169,-7.70001 c -0.18178,-0.88346 -0.42717,-1.79624 -0.9513,-2.38661 a 3.9172944,5.4138639 0 0 0 -1.66022,-0.9086 33.389406,46.145548 0 0 0 -4.35963,-1.12213 6.7318084,9.3036397 0 0 0 -0.9816,-2.63366 c -3.07202,-5.82837 -7.62251,-11.305041 -13.00312,-12.561151 -2.69938,-0.62807 -5.80473,-0.1047 -7.64068,2.56247 a 5.7320348,7.9219105 0 0 0 -0.53927,0.75367 c -0.98766,1.62877 -1.41181,3.768341 -2.4237,5.392931 -0.0667,0.10882 -0.14239,0.20935 -0.2151,0.31402 -1.98137,2.44943 -5.06855,2.96026 -7.27108,5.15846 a 8.7283263,12.06291 0 0 0 -1.08763,1.31054 18.444306,25.490799 0 0 0 -2.37522,3.99027 c -0.99069,1.92604 -2.00863,3.93165 -2.32371,6.23034 -0.6332,4.60576 1.63599,8.97287 2.0571,13.60793 0.93918,10.37133 -7.36499,19.57448 -5.79262,29.80765 a 9.8765511,13.649803 0 0 0 2.67212,6.62811 c -3.23867,4.05308 -5.99561,7.98472 -5.99561,7.98472 v 0.23447 h -0.51202 l 0.0515,0.83741 h -0.0515 l 0.28177,4.54297 -0.28177,6.61553 c 0,0 0,0.0711 0,0.20517 v 0.0334 0.18005 c 0,0 0,0.0711 0,0.20516 h 0.0182 c 0.0939,2.4243 0.46656,11.14176 0.90888,12.97986 0.52111,2.13123 0.78467,12.65748 0.78467,12.65748 0,0 0.57563,14.87662 1.10279,16.84453 0.52715,1.96792 -0.22116,9.11522 2.51458,10.80261 v 0 a 5.7562718,7.9554071 0 0 0 2.74786,1.57434 c -0.13937,1.56595 -0.0515,2.70064 0.39992,3.05654 a 1.320913,1.8255565 0 0 0 0.63621,0.25122 6.7530155,9.3329487 0 0 0 -0.49382,1.19332 12.833456,17.736371 0 0 1 -3.17504,-1.03421 c -2.93873,-1.67482 -12.69106,-5.44316 -15.52376,-2.79276 -2.83269,2.65041 -9.64933,5.05378 -6.50156,15.7224 3.14778,10.66863 4.6141,10.93661 4.6141,10.93661 a 11.209581,15.492109 0 0 1 2.51762,3.49617 c 0.94524,1.96374 9.75234,6.45641 11.95487,6.45641 a 21.567842,29.807655 0 0 1 2.80239,0.19259 c 0,0 -2.39037,2.89751 -2.07225,4.5807 0.3181,1.6832 -0.72711,15.1571 -0.72711,15.1571 0,0 2.42369,3.37476 3.45982,-1.05096 l 0.0363,0.067 c 0.1939,0.36434 1.24213,2.00986 3.21441,-0.067 a 18.020161,24.904612 0 0 1 2.56307,-2.2442 l 9.54934,-1.86744 a 27.0363,37.365291 0 0 1 2.99023,-0.0293 c 1.51482,0.17169 3.00236,-1.06774 3.93851,-2.02655 1.97834,1.0384 4.20208,2.17309 5.25941,2.58762 2.14498,0.83739 12.00335,4.49268 14.30889,3.34962 a 3.2023049,4.4257186 0 0 0 1.24214,-1.22264 l 2.19951,0.0963 -1.03009,0.28476 c 0,0 2.00561,0.0459 4.73228,0.0963 l -0.11513,0.0922 3.42044,-0.0422 c 5.00492,0.0624 10.62789,0.0837 11.36711,-0.14654 1.15731,-0.35591 7.17111,-0.1047 8.94343,0 h 0.49382 c 0,0 6.60762,-1.8214 3.88092,-11.08736 -2.09646,-7.118 -8.54046,-9.18638 -11.40041,-9.75587 0.80587,-0.22186 1.49965,-0.39354 1.96015,-0.49404 1.99653,-0.41874 5.87443,-2.93097 6.1895,-3.78928 0.31509,-0.85837 3.56585,-3.34963 4.40506,-4.76907 0.83923,-1.41936 3.23562,-11.4809 1.24517,-18.92129 z m -54.73004,20.82221 -0.32416,0.14654 -0.21814,0.10046 -0.41808,0.56942 c -0.33326,-0.3098 -0.69075,-0.63646 -1.0634,-0.97138 0.65743,0.0542 1.33304,0.10882 2.02378,0.1549 z m 28.87528,11.79912 z"
     id="path2210" />
  <path
     inkscape:connector-curvature="0"
     style="fill:#be6f72;stroke-width:0.35616779"
     d="m 680.33492,229.3234 c 0,0 4.63545,16.74823 7.2713,15.0734 2.63584,-1.67482 1.92083,-8.79281 2.42377,-10.74398 0.50292,-1.95117 1.06039,-16.74822 1.06039,-16.74822 0,0 0.25449,-10.46765 0.75742,-12.5863 0.46657,-1.94698 0.8453,-11.76563 0.90893,-13.31066 0,-0.13398 0,-0.20516 0,-0.20516 l -0.49992,-12.14246 -2.82975,-0.97559 -6.56233,3.34965 -0.90891,7.17242 -0.35448,2.80114 -0.15148,1.19332 z"
     id="path2212" />
  <path
     inkscape:connector-curvature="0"
     style="opacity:0.1;stroke-width:0.35616779"
     d="m 681.8619,226.51807 c 0,0 4.42337,5.00354 5.75644,5.44318 1.33307,0.43963 2.1511,4.34198 2.1511,4.34198"
     id="path2214" />
  <path
     inkscape:connector-curvature="0"
     style="fill:#be6f72;stroke-width:0.35616779"
     d="m 644.0845,230.05612 c 0,0 -4.63546,16.74824 -7.27131,15.07342 -2.63583,-1.67483 -1.92083,-8.79283 -2.42376,-10.74398 -0.50292,-1.95117 -1.06039,-16.74824 -1.06039,-16.74824 0,0 -0.2545,-10.46763 -0.75743,-12.58628 -0.46657,-1.94698 -0.84529,-11.76563 -0.90892,-13.31066 0,-0.13399 0,-0.20516 0,-0.20516 l 0.50294,-12.14247 2.82974,-0.97558 6.56235,3.34965 0.9089,7.17242 0.35448,2.80114 0.1515,1.19331 z"
     id="path2216" />
  <rect
     style="fill:#3e373a;stroke-width:0.35616779"
     x="663.92303"
     y="140.42798"
     width="10.346448"
     height="22.287701"
     id="rect2218" />
  <rect
     style="opacity:0.1;stroke-width:0.35616779"
     x="663.92303"
     y="140.42798"
     width="10.346448"
     height="22.287701"
     id="rect2220" />
  <path
     inkscape:connector-curvature="0"
     style="fill:#4b4b5b;stroke-width:0.35616779"
     d="m 642.26668,246.73737 c 0,0 -3.53567,5.37199 -2.22382,6.34759 1.31187,0.97559 9.79808,19.26046 9.79808,19.26046 0,0 27.87329,4.74388 33.12983,-2.37411 5.25653,-7.118 5.15051,-19.83405 5.15051,-19.83405 0,0 -4.22341,1.25612 -4.68393,0.57362 -0.46053,-0.68249 -2.99032,-3.97351 -2.99032,-3.97351 0,0 -35.75659,-2.99793 -38.18035,0 z"
     id="path2222" />
  <path
     inkscape:connector-curvature="0"
     style="opacity:0.02000002;stroke-width:0.35616779"
     d="m 642.26668,246.73737 c 0,0 -3.53567,5.37199 -2.22382,6.34759 1.31187,0.97559 9.79808,19.26046 9.79808,19.26046 0,0 27.87329,4.74388 33.12983,-2.37411 5.25653,-7.118 5.15051,-19.83405 5.15051,-19.83405 0,0 -4.22341,1.25612 -4.68393,0.57362 -0.46053,-0.68249 -2.99032,-3.97351 -2.99032,-3.97351 0,0 -35.75659,-2.99793 -38.18035,0 z"
     id="path2224" />
  <path
     inkscape:connector-curvature="0"
     style="fill:#be6f72;stroke-width:0.35616779"
     d="m 692.44466,178.83587 -9.08911,10.04894 -2.74795,0.27635 -1.0089,0.10045 -16.94514,1.71669 -17.57229,-1.7753 -2.61465,-0.26379 -3.33266,-0.33496 -6.96833,-9.21154 c 0,0 4.93237,-7.30222 9.25272,-12.23039 1.7027,-1.94698 3.31147,-3.5213 4.48396,-4.141 l 0.19997,-0.0963 a 4.9868959,6.8918945 0 0 0 1.92082,-1.85068 c 3.41146,-4.86117 6.56539,-16.85708 6.56539,-16.85708 0,0 15.04855,-10.74399 13.23071,3.34964 -1.81782,14.09363 6.76534,10.60999 6.76534,10.60999 l 2.82974,1.78369 1.11797,0.70762 2.85095,1.80461 6.43207,4.0782 c 5.04748,3.21147 4.62939,12.28482 4.62939,12.28482 z"
     id="path2226" />
  <ellipse
     style="opacity:0.1;stroke-width:0.35616779"
     cx="661.94769"
     cy="136.99043"
     id="circle2228"
     rx="13.533696"
     ry="18.703581" />
  <path
     inkscape:connector-curvature="0"
     style="opacity:0.1;stroke-width:0.35616779"
     d="m 692.46587,192.15909 h -60.80318 c 0,-0.13398 0,-0.20517 0,-0.20517 l 0.50294,-12.14247 c 0,0 4.93237,-7.30221 9.25272,-12.23038 l 38.17429,-2.09353 1.77542,-2.5876 6.43206,4.0782 c 5.05052,3.20728 4.64454,12.28063 4.64454,12.28063 0,0 0.69076,10.5137 0.0211,12.90032 z"
     id="path2230" />
  <path
     inkscape:connector-curvature="0"
     style="fill:#e7c7ca;stroke-width:0.35616779"
     d="m 692.46587,191.74038 h -60.80318 c 0,-0.13399 0,-0.20516 0,-0.20516 l 0.50294,-12.14247 c 0,0 4.93237,-7.30223 9.25272,-12.23039 l 38.17429,-2.09353 1.77542,-2.5876 6.43206,4.0782 c 5.05052,3.20727 4.64454,12.28063 4.64454,12.28063 0,0 0.69076,10.51369 0.0211,12.90032 z"
     id="path2232" />
  <path
     inkscape:connector-curvature="0"
     style="opacity:0.1;stroke-width:0.35616779"
     d="m 652.20108,157.69125 c 0,0 9.59205,16.89058 22.36831,-0.34754 12.77627,-17.2381 1.41488,38.44974 1.41488,38.44974 l -27.57032,4.52202 z"
     id="path2234" />
  <path
     inkscape:connector-curvature="0"
     style="fill:#e7c7ca;stroke-width:0.35616779"
     d="m 652.20108,158.52865 c 0,0 9.59205,16.89059 22.36831,-0.34752 12.77627,-17.23811 1.41488,38.44974 1.41488,38.44974 l -27.57032,4.52202 z"
     id="path2236" />
  <path
     inkscape:connector-curvature="0"
     style="opacity:0.1;stroke-width:0.35616779"
     d="m 678.5171,161.49309 1.01496,21.39166 1.08765,7.11801 0.83015,5.44316 c 0,0 2.12079,41.87056 1.51485,43.9641 -0.60594,2.09352 0.30296,3.76835 0.43022,4.88211 0.12725,1.11376 -0.12726,3.91071 -0.0272,5.16682 0.10003,1.25612 0,1.813 -2.32075,1.36499 -2.32074,-0.44802 -5.55648,-1.22681 -5.55648,-1.22681 0,0 -8.1802,0.83741 -11.00693,-0.55687 -2.82671,-1.39431 -8.1802,-1.39849 -8.1802,-1.39849 0,0 -8.08022,0.28053 -10.70395,-0.13817 -2.62373,-0.41871 -4.04163,4.46758 -5.75644,3.06911 -1.71482,-1.39847 2.01778,-14.93104 3.22966,-18.84175 1.21189,-3.91072 -1.61484,-13.81728 -1.61484,-13.81728 l 3.63565,-27.87324 0.80893,-6.31827 v -19.86339 l 0.19997,-0.0963 a 4.9868959,6.8918945 0 0 0 1.92083,-1.85068 l 0.90892,19.98902 28.47923,1.39847 v -22.49705"
     id="path2238" />
  <path
     inkscape:connector-curvature="0"
     style="fill:#e7c7ca;stroke-width:0.35616779"
     d="m 678.5171,160.65567 1.01496,21.39168 1.08765,7.118 0.83015,5.44317 c 0,0 2.12079,41.87056 1.51485,43.96409 -0.60594,2.09352 0.30296,3.76835 0.43022,4.8821 0.12725,1.11376 -0.12726,3.91071 -0.0272,5.16683 0.10003,1.25613 0,1.813 -2.32075,1.36498 -2.32074,-0.44801 -5.55648,-1.2268 -5.55648,-1.2268 0,0 -8.1802,0.83741 -11.00693,-0.55688 -2.82671,-1.39429 -8.1802,-1.39848 -8.1802,-1.39848 0,0 -8.08022,0.28053 -10.70395,-0.13817 -2.62373,-0.4187 -4.04163,4.46759 -5.75644,3.06911 -1.71482,-1.39848 2.01778,-14.93105 3.22966,-18.84176 1.21189,-3.91071 -1.61484,-13.81728 -1.61484,-13.81728 l 3.63565,-27.87322 0.80893,-6.31829 v -19.86339 l 0.19997,-0.0963 a 4.9868959,6.8918945 0 0 0 1.92083,-1.85069 l 0.90892,19.98902 28.47923,1.39847 v -22.49705"
     id="path2240" />
  <path
     inkscape:connector-curvature="0"
     style="opacity:0.1;stroke-width:0.35616779"
     d="m 681.79221,116.01328 c -0.17268,-0.87509 -0.41203,-1.78368 -0.90891,-2.36987 a 3.7204789,5.1417052 0 0 0 -1.59968,-0.9044 31.605893,43.679372 0 0 0 -4.20523,-1.11375 6.7320065,9.3036397 0 0 0 -0.90892,-2.60854 c -2.9691,-5.79489 -7.36217,-11.259001 -12.53086,-12.494181 -2.70552,-0.64899 -5.84127,-0.067 -7.57427,2.8807 -0.95132,1.620381 -1.36033,3.768341 -2.32075,5.359421 -1.85115,3.09006 -5.19293,3.47108 -7.5258,5.86188 -1.24519,1.25613 -2.14805,3.0775 -3.02971,4.84443 -0.95434,1.91348 -1.93596,3.90653 -2.23894,6.19266 -0.60595,4.56808 1.57847,8.92261 1.98144,13.53256 0.90889,10.31271 -7.08951,19.46144 -5.57769,29.63597 0.88163,5.93306 4.84753,10.11175 8.94975,12.23041 1.44516,0.74947 3.09635,1.49477 3.77197,3.41244 0.30298,0.83741 0.35448,1.80463 0.63927,2.65041 0.95738,2.82207 4.10526,2.93094 5.79582,0.87509 1.69058,-2.05583 2.22382,-5.38036 2.42377,-8.48298 0.81197,-13.5493 -3.11454,-26.93533 -2.65705,-40.51813 0.13633,-4.1075 0.97255,-8.76769 3.63565,-10.62675 3.58414,-2.51223 7.89542,1.67482 11.84009,0.8751 a 23.489309,32.462247 0 0 1 1.13312,19.80895 c -0.62715,3.61344 -1.71179,7.118 -1.79056,10.84447 -0.11817,5.67347 2.09655,10.85705 4.01133,15.87314 a 6.1109169,8.4452928 0 0 1 0.80893,3.06074 5.3383419,7.3775932 0 0 1 -0.43325,3.2031 c -1.08161,4.02376 -2.94791,7.75861 -3.15998,12.04198 a 1.4088132,1.9469812 0 0 0 0.22723,1.43197 1.3027735,1.8004342 0 0 0 0.78166,0.4857 c 3.27208,0.7746 6.10182,-3.23242 7.69848,-7.25618 a 24.613331,34.015646 0 0 0 3.03577,-14.45371 c 0.33023,-8.52484 -1.88145,-16.91152 -1.74512,-25.44475 0.15755,-9.7014 3.32965,-19.46981 1.47244,-28.82788 z"
     id="path2242" />
  <path
     inkscape:connector-curvature="0"
     style="fill:#3e373a;stroke-width:0.35616779"
     d="m 682.09519,115.59458 c -0.1727,-0.87509 -0.41204,-1.78369 -0.90892,-2.36988 a 3.7204789,5.1417052 0 0 0 -1.59967,-0.90439 31.605893,43.679372 0 0 0 -4.20525,-1.11376 6.7320065,9.3036397 0 0 0 -0.90891,-2.60854 c -2.96912,-5.79488 -7.36218,-11.259001 -12.53086,-12.494181 -2.70552,-0.64899 -5.84127,-0.067 -7.57427,2.88069 -0.95133,1.620411 -1.36033,3.768371 -2.32075,5.359451 -1.85114,3.09004 -5.19292,3.47107 -7.52579,5.86187 -1.24521,1.25611 -2.14806,3.07748 -3.02971,4.84444 -0.95435,1.91347 -1.93598,3.90651 -2.23894,6.19263 -0.60595,4.56809 1.57847,8.92264 1.98142,13.53258 0.90891,10.31271 -7.08952,19.46144 -5.57769,29.63598 0.88165,5.93305 4.84754,10.11173 8.94976,12.23038 1.44516,0.74949 3.09636,1.49479 3.77198,3.41246 0.30296,0.83742 0.35447,1.80461 0.63926,2.6504 0.95738,2.82208 4.10526,2.93095 5.79583,0.8751 1.69058,-2.05585 2.2238,-5.38037 2.42376,-8.48298 0.81197,-13.54931 -3.11453,-26.93533 -2.65704,-40.51813 0.13633,-4.10751 0.97253,-8.7677 3.63565,-10.62676 3.58414,-2.51223 7.8954,1.67483 11.84008,0.87511 a 23.489309,32.462247 0 0 1 1.13311,19.80895 c -0.62714,3.61342 -1.71178,7.11799 -1.79055,10.84447 -0.11816,5.67347 2.09655,10.85705 4.01132,15.87314 a 6.1109169,8.4452928 0 0 1 0.80892,3.06073 5.3383419,7.3775932 0 0 1 -0.43322,3.20311 c -1.08162,4.02375 -2.94791,7.75861 -3.16,12.04196 a 1.4088132,1.9469812 0 0 0 0.22724,1.43198 1.3027735,1.8004342 0 0 0 0.78166,0.48569 c 3.27208,0.77462 6.10182,-3.2324 7.69848,-7.25616 a 24.613331,34.015646 0 0 0 3.03576,-14.45371 c 0.33024,-8.52486 -1.88144,-16.91153 -1.7451,-25.44475 0.15755,-9.7014 3.32964,-19.46982 1.47244,-28.82788 z"
     id="path2244" />
  <polygon
     transform="matrix(0.30297059,0,0,0.41870564,499.13728,94.676049)"
     style="fill:#c3c7d9"
     points="621.46,494 615.77,464.58 585.38,467.47 581.79,492.73 "
     id="polygon2246" />
  <path
     inkscape:connector-curvature="0"
     style="fill:#4b4b5b;stroke-width:0.35616255"
     d="m 712.63969,271.7885 c -0.8089,1.39432 -3.93852,3.90655 -4.24149,4.74394 -0.30297,0.8374 -4.03848,3.34964 -5.95925,3.76837 -1.92078,0.41873 -7.97699,2.23592 -9.08886,3.21151 -0.79679,0.70339 -7.19231,2.93089 -11.39438,4.1661 a 32.341159,44.696827 0 0 1 -3.45073,0.85831 c -1.81778,0.13819 -21.71023,-9.21151 -21.71023,-9.21151 l 3.83549,-5.44314 0.21206,-0.10045 c 1.08461,-0.50667 6.0956,-2.84724 8.87679,-3.96095 3.13263,-1.25612 6.76816,-6.41879 6.76816,-6.41879 0,0 5.3503,-2.51225 6.05923,-2.79279 0.70893,-0.28053 -1.81776,-9.76836 -1.81776,-9.76836 0,0 11.61252,-2.22751 16.15694,-4.11588 4.54443,-1.88836 15.04808,-1.18912 16.96588,6.20941 1.91774,7.39852 -0.39086,17.46004 -1.21185,18.85429 z"
     id="path2248" />
  <path
     inkscape:connector-curvature="0"
     style="fill:#e7c7ca;stroke-width:0.35616779"
     d="m 659.72383,295.37418 c 0,0 -2.32075,3.34969 -4.64453,3.07331 -2.32379,-0.27632 -10.44947,0.83745 -10.44947,0.83745 a 16.290729,22.513802 0 0 0 -4.09312,3.27847 c -1.89962,2.06838 -2.90851,0.41865 -3.09636,0.067 l -0.0332,-0.067 c -1.01192,4.4006 -3.33266,1.04675 -3.33266,1.04675 0,0 1.00889,-13.39859 0.69986,-15.07343 -0.30904,-1.67478 1.99657,-4.5513 1.99657,-4.5513 l 2.72673,-0.95888 6.90773,-2.44521 9.89806,4.74394 z"
     id="path2250" />
  <path
     inkscape:connector-curvature="0"
     style="opacity:0.1;stroke-width:0.35616779"
     d="m 639.4854,283.02655 -2.04505,19.60382 -0.0332,-0.067 c -1.01192,4.4006 -3.33266,1.04676 -3.33266,1.04676 0,0 1.00889,-13.39859 0.69986,-15.07337 -0.30904,-1.67485 1.99657,-4.55137 1.99657,-4.55137 z"
     id="path2252" />
  <path
     inkscape:connector-curvature="0"
     style="opacity:0.1;stroke-width:0.35616779"
     d="m 653.77954,227.26336 c 0,0 5.35047,2.51225 9.99804,0"
     id="path2254" />
  <path
     inkscape:connector-curvature="0"
     style="opacity:0.1;stroke-width:0.35616779"
     d="m 672.04564,232.01149 c 0,0 2.22078,1.53246 3.93863,0"
     id="path2256" />
  <path
     inkscape:connector-curvature="0"
     style="opacity:0.1;stroke-width:0.35616779"
     d="m 672.04564,235.64586 c 0,0 3.73565,0.69085 4.44459,-0.70342"
     id="path2258" />
  <path
     inkscape:connector-curvature="0"
     style="opacity:0.1;stroke-width:0.35616779"
     d="m 670.83377,243.45471 c 0,0 7.0168,-1.25611 8.75887,-2.93094"
     id="path2260" />
  <path
     inkscape:connector-curvature="0"
     style="opacity:0.1;stroke-width:0.35616779"
     d="m 649.42283,240.52377 c 0,0 3.93863,3.06912 6.86835,2.93094"
     id="path2262" />
  <path
     inkscape:connector-curvature="0"
     style="opacity:0.1;stroke-width:0.35616779"
     d="m 681.95582,287.67842 a 32.342111,44.696827 0 0 1 -3.45084,0.85831 c -1.81781,0.13819 -21.71088,-9.21151 -21.71088,-9.21151 l 3.83562,-5.44314 0.21207,-0.10045 c 0.60594,0.59034 1.10282,1.09701 1.45729,1.48219 1.66937,1.81719 3.28118,-0.55686 3.88712,-0.55686 0.60594,0 5.85642,6.00008 5.85642,6.00008 0,0 4.84753,1.53664 5.65645,2.93089 0.80895,1.39432 3.63566,1.11799 4.13858,2.09359 0.15149,0.30144 0.16967,1.04254 0.11817,1.94695 z"
     id="path2264" />
  <path
     inkscape:connector-curvature="0"
     style="fill:#4b4b5b;stroke-width:0.35616779"
     d="m 644.62983,251.41011 c 0,0 -4.90205,0.38941 -7.72877,-1.25611 -2.82671,-1.6455 -12.21881,-5.44318 -14.94554,-2.77601 -2.72673,2.66715 -9.29211,5.02446 -6.26241,15.63444 3.02972,10.61003 4.44459,10.88635 4.44459,10.88635 a 10.937238,15.115273 0 0 1 2.42376,3.47526 c 0.90891,1.95539 9.39208,6.41881 11.51289,6.41881 2.12079,0 5.85642,0 11.1069,5.0244 5.25048,5.02448 9.99803,5.58555 9.99803,5.58555 0,0 6.66536,3.76837 8.7407,4.60575 2.07535,0.83746 11.55833,4.46342 13.78213,3.34971 2.22381,-1.11379 3.63565,-8.09779 3.63565,-8.09779 0,0 1.00889,-6.28061 0.50292,-7.25619 -0.50595,-0.97559 -3.33266,-0.69927 -4.13857,-2.09351 -0.80591,-1.39433 -5.65647,-2.93098 -5.65647,-2.93098 0,0 -5.23834,-6.0042 -5.84429,-6.0042 -0.60594,0 -2.21775,2.36983 -3.88712,0.55685 a 88.676462,122.55095 0 0 0 -10.45551,-9.21149 c -3.83562,-2.79278 -7.22889,-15.91084 -7.22889,-15.91084 z"
     id="path2266" />
  <path
     inkscape:connector-curvature="0"
     style="opacity:0.1;stroke-width:0.35616779"
     d="m 634.77421,255.45901 a 5.7867384,7.9972775 0 0 1 4.96568,1.81297 c 2.42377,2.79278 10.57973,8.39924 10.57973,8.39924"
     id="path2268" />
  <path
     inkscape:connector-curvature="0"
     style="opacity:0.1;stroke-width:0.35616779"
     d="m 695.37439,255.28311 c 0,0 -10.80697,2.26105 -12.82475,5.33015"
     id="path2270" />
  <path
     inkscape:connector-curvature="0"
     style="fill:#e7c7ca;stroke-width:0.35616255"
     d="m 707.79229,301.51666 h -0.47566 c -1.7087,-0.0838 -7.4983,-0.33501 -8.61321,0 -1.31181,0.41866 -18.68363,0 -18.68363,0 l 3.3962,-0.97559 c 0,0 -1.26033,-6.10479 -0.4605,-6.61139 0,0 -4.54442,-4.13684 -1.11794,-6.92962 3.4265,-2.7927 7.11961,-1.61618 7.11961,-1.61618 l 8.60108,-4.02797 1.65114,-0.77457 c 0,0 9.69477,0.69927 12.31841,9.91076 2.62368,9.2115 -3.7355,11.02456 -3.7355,11.02456 z"
     id="path2272" />
  <path
     inkscape:connector-curvature="0"
     style="opacity:0.1;stroke-width:0.35616255"
     d="m 707.79229,301.51666 h -0.47566 c 2.82058,-3.21572 9.20092,-13.00507 -9.75839,-20.13976 l 1.65114,-0.77465 c 0,0 9.69477,0.69927 12.31841,9.91077 2.62368,9.21158 -3.7355,11.00364 -3.7355,11.00364 z"
     id="path2274" />
  <ellipse
     style="fill:#4b4b5b;stroke-width:0.35616779"
     cx="689.97235"
     cy="289.93103"
     id="circle2276"
     rx="0.53019851"
     ry="0.73273492" />
  <ellipse
     style="fill:#4b4b5b;stroke-width:0.35616779"
     cx="686.89117"
     cy="291.14108"
     id="circle2278"
     rx="0.53019851"
     ry="0.73273492" />
  <g
     transform="matrix(0.30297059,0,0,0.41870564,499.13728,94.676049)"
     style="opacity:0.1"
     id="g2292">
    <path
       inkscape:connector-curvature="0"
       d="M 658.74,142.83 A 77.59,77.59 0 0 0 653,110.69 c -13,1.94 -27.24,-8.09 -39.08,-2.09 -8.76,4.44 -11.51,15.57 -12,25.38 -0.12,2.59 -0.14,5.18 -0.09,7.77 0,-0.92 0,-1.85 0.09,-2.77 0.46,-9.81 3.21,-20.94 12,-25.38 11.84,-6 26.06,4 39.08,2.09 a 77.38,77.38 0 0 1 5.74,27.14 z"
       transform="translate(-88.58,-43.42)"
       id="path2280" />
    <path
       inkscape:connector-curvature="0"
       d="m 558,141 a 33.32,33.32 0 0 0 -0.13,-6.54 c -1.06,-8.8 -5.87,-17.21 -6.74,-25.79 -1.12,10.35 5.47,20.29 6.74,30.79 C 558,140 558,140.48 558,141 Z"
       transform="translate(-88.58,-43.42)"
       id="path2282" />
    <path
       inkscape:connector-curvature="0"
       d="m 610.69,230.74 c -0.62,7.42 -2.37,15.35 -8,20.27 -5.63,4.92 -16,4.65 -19.13,-2.09 -1,-2 -1.15,-4.33 -2.12,-6.33 -2.22,-4.58 -7.68,-6.36 -12.45,-8.15 -13.55,-5.07 -26.62,-15 -29.53,-29.21 a 30.68,30.68 0 0 1 -0.53,-3.9 31.52,31.52 0 0 0 0.53,8.9 c 2.91,14.17 16,24.14 29.53,29.21 4.77,1.79 10.23,3.57 12.45,8.15 1,2 1.17,4.31 2.12,6.33 3.15,6.74 13.54,7 19.13,2.09 5.59,-4.91 7.33,-12.85 8,-20.27 A 114.29,114.29 0 0 0 611,224 c 0,2.27 -0.13,4.51 -0.31,6.74 z"
       transform="translate(-88.58,-43.42)"
       id="path2284" />
    <path
       inkscape:connector-curvature="0"
       d="m 687.93,157.49 c 0,1.45 0,2.89 0,4.33 0.56,-18.6 7.38,-37.3 6.71,-55.51 -0.52,16.84 -6.33,34.06 -6.71,51.18 z"
       transform="translate(-88.58,-43.42)"
       id="path2286" />
    <path
       inkscape:connector-curvature="0"
       d="m 666.47,232.73 a 12.89,12.89 0 0 0 0.23,-3.61 20,20 0 0 0 -2.67,-7.31 c -5.78,-11 -12.37,-22.26 -13.15,-34.47 0,0.52 -0.07,1 -0.08,1.56 -0.4,13.54 6.91,25.93 13.23,37.91 a 24,24 0 0 1 2.44,5.92 z"
       transform="translate(-88.58,-43.42)"
       id="path2288" />
    <path
       inkscape:connector-curvature="0"
       d="m 693.68,218.26 a 81.37,81.37 0 0 1 -10.09,34.52 c -5.28,9.61 -14.61,19.18 -25.42,17.33 a 4.25,4.25 0 0 1 -2.58,-1.17 2.5,2.5 0 0 1 -0.47,-0.78 c -0.12,0.78 -0.22,1.57 -0.28,2.37 a 4.61,4.61 0 0 0 0.75,3.41 4.25,4.25 0 0 0 2.58,1.17 c 10.81,1.85 20.14,-7.72 25.42,-17.33 a 81.37,81.37 0 0 0 10.09,-34.52 c 0.12,-2.34 0.13,-4.67 0.06,-7 -0.02,0.67 -0.02,1.33 -0.06,2 z"
       transform="translate(-88.58,-43.42)"
       id="path2290" />
  </g>
  <path
     inkscape:connector-curvature="0"
     style="opacity:0.1;fill:none;stroke:#000000;stroke-width:0.35616779;stroke-miterlimit:10"
     d="m 682.95864,293.92968 c 0,0 7.66819,4.44663 12.72478,-5.39295"
     stroke-miterlimit="10"
     id="path2294" />
  <path
     inkscape:connector-curvature="0"
     style="opacity:0.1;fill:none;stroke:#000000;stroke-width:0.35616779;stroke-miterlimit:10"
     d="m 684.46744,301.70082 c 0,0 6.2624,-5.62738 14.23962,-0.18416"
     stroke-miterlimit="10"
     id="path2296" />
  <path
     inkscape:connector-curvature="0"
     style="opacity:0.1;fill:none;stroke:#000000;stroke-width:0.35616779;stroke-miterlimit:10"
     d="m 642.54843,300.42378 c 0,0 2.62979,-8.19822 9.65265,-1.94695"
     stroke-miterlimit="10"
     id="path2298" />
  <path
     inkscape:connector-curvature="0"
     style="opacity:0.1;stroke-width:0.35616779"
     d="m 634.02284,179.1834 5.36258,-6.69929 c 0,0 20.79287,-1.88417 21.6533,7.88422 0,0 7.37128,-11.5814 22.87429,-9.00217 l 6.55931,7.21849 -18.12976,10.99521 -17.61774,8.44529 -12.97623,-8.02658 z"
     id="path2300" />
  <path
     inkscape:connector-curvature="0"
     style="fill:#d5d6db;stroke-width:0.35616779"
     d="m 634.02284,179.6021 5.36258,-6.69928 c 0,0 20.79287,-1.88419 21.6533,7.88422 0,0 7.37128,-11.58139 22.87429,-9.00216 l 6.55931,7.21848 -18.12976,10.99521 -17.61774,8.44529 -12.97623,-8.02659 z"
     id="path2302" />
  <polygon
     transform="matrix(0.30297059,0,0,0.41870564,499.13728,94.676049)"
     style="opacity:0.1"
     points="528.21,302.67 524.61,209.4 524.54,207.83 437.38,204.83 445.21,298.5 "
     id="polygon2304" />
  <polygon
     transform="matrix(0.30297059,0,0,0.41870564,499.13728,94.676049)"
     style="fill:#7b2dff"
     points="528.21,300.67 524.61,207.4 524.54,205.83 437.38,202.83 445.21,296.5 "
     id="polygon2306" />
  <polygon
     transform="matrix(0.30297059,0,0,0.41870564,499.13728,94.676049)"
     style="opacity:0.1"
     points="549.71,215.67 549.71,309.76 633.38,297.67 635.33,202.83 "
     id="polygon2308" />
  <polygon
     transform="matrix(0.30297059,0,0,0.41870564,499.13728,94.676049)"
     style="fill:#7b2dff"
     points="549.71,213.67 549.71,307.76 633.38,295.67 635.33,200.83 "
     id="polygon2310" />
  <polygon
     transform="matrix(0.30297059,0,0,0.41870564,499.13728,94.676049)"
     style="opacity:0.3;fill:#ffffff"
     points="568.89,228.93 569.9,244.69 615.11,239.75 615.14,223.79 "
     id="polygon2312" />
  <path
     inkscape:connector-curvature="0"
     style="fill:#be6f72;stroke-width:0.35616779"
     d="m 635.38621,239.82453 1.42698,5.30501 c 0,0 2.12081,2.51223 4.44156,1.25612 2.32075,-1.25612 4.34459,-1.87999 5.3535,-3.10261 1.00888,-1.22262 2.42376,-7.36503 2.42376,-7.36503 0,0 1.41488,-6.6993 2.82671,-8.37412 1.41185,-1.67482 5.15049,-24.74969 0,-22.49286 -5.1505,2.25681 -9.08913,23.1921 -9.08913,23.1921 0,0 -0.9089,1.53247 -2.22076,1.67482 -1.31186,0.14236 -3.93862,-0.28053 -4.44458,1.25612 -0.50595,1.53665 -2.23289,5.58135 -0.71804,8.65045 z"
     id="path2314" />
  <path
     inkscape:connector-curvature="0"
     style="opacity:0.1;stroke-width:0.35616779"
     d="m 665.68326,184.9741 a 8.7255528,12.058722 0 0 1 -7.60759,-2.6211 l 1.09374,39.04848 c 0,0 2.57524,3.8521 6.51385,2.97283 z"
     id="path2316" />
  <path
     inkscape:connector-curvature="0"
     style="fill:#7b2dff;stroke-width:0.35616779"
     d="m 665.68326,184.13668 a 8.7255528,12.058722 0 0 1 -7.60759,-2.62109 l 1.09374,39.04848 c 0,0 2.57524,3.8521 6.51385,2.97282 z"
     id="path2318" />
  <path
     inkscape:connector-curvature="0"
     style="opacity:0.1;stroke-width:0.35616779"
     d="m 665.68326,184.13668 a 8.7255528,12.058722 0 0 1 -7.60759,-2.62109 l 1.09374,39.04848 c 0,0 2.57524,3.8521 6.51385,2.97282 z"
     id="path2320" />
  <path
     inkscape:connector-curvature="0"
     style="opacity:0.1;stroke-width:0.35616779"
     d="m 666.2892,179.73609 c 0,0 10.55248,-4.45921 13.30344,-3.83115"
     id="path2322" />
  <path
     inkscape:connector-curvature="0"
     style="opacity:0.1;stroke-width:0.35616779"
     d="m 654.48548,177.78911 c 0,0 -10.22829,-3.34965 -11.93705,-2.39919"
     id="path2324" />
  <path
     inkscape:connector-curvature="0"
     style="opacity:0.1;stroke-width:0.35616779"
     d="m 672.94244,180.29297 c 0,0 7.05619,-3.57575 9.6072,-1.8758"
     id="path2326" />
  <path
     inkscape:connector-curvature="0"
     style="opacity:0.1;stroke-width:0.35616779"
     d="m 669.3886,269.9923 a 23.195429,32.056102 0 0 1 3.47811,-2.98536 c 1.81781,-1.21009 5.15049,-4.35042 5.15049,-4.35042"
     id="path2328" />
  <path
     inkscape:connector-curvature="0"
     style="opacity:0.1;stroke-width:0.35616779"
     d="m 642.54843,227.26336 c 0,0 -4.4264,5.00354 -5.75644,5.44318 -1.33005,0.43964 -2.1511,4.34198 -2.1511,4.34198"
     id="path2330" />
  <path
     inkscape:connector-curvature="0"
     style="fill:#be6f72;stroke-width:0.35616779"
     d="m 689.02109,239.07923 -1.41184,5.31757 c 0,0 -2.12079,2.51223 -4.44459,1.25611 -2.32378,-1.25611 -4.34156,-1.87998 -5.35348,-3.1026 -1.01193,-1.22262 -2.42376,-7.36503 -2.42376,-7.36503 0,0 -1.41186,-6.6993 -2.82672,-8.37411 -1.41487,-1.67483 -5.1505,-24.7497 0,-22.49287 5.15049,2.25681 9.08912,23.19211 9.08912,23.19211 0,0 0.9089,1.53246 2.22077,1.67482 1.31187,0.14235 3.93862,-0.28053 4.44459,1.25611 0.50595,1.53666 2.22077,5.58135 0.70591,8.63789 z"
     id="path2332" />
  <path
     inkscape:connector-curvature="0"
     style="opacity:0.1;stroke-width:0.35616779"
     d="m 686.54583,229.29828 c 0,0 2.89336,2.57084 2.88123,5.64416"
     id="path2334" />
  <ellipse
     style="fill:#be6f72;stroke-width:0.35616779"
     cx="661.99615"
     cy="136.07352"
     id="circle2336"
     rx="13.533696"
     ry="18.703581" />
  <path
     inkscape:connector-curvature="0"
     style="fill:#3e373a;stroke-width:0.35616779"
     d="m 653.49779,131.05319 c 1.6421,-0.3559 3.08121,-1.67482 4.6506,-2.43268 3.51143,-1.70413 7.39551,-0.53594 10.94935,1.00071 1.36337,0.59037 2.74794,1.25612 4.17797,1.25612 1.43002,0 2.9479,-0.8081 3.67806,-2.51223 0.6726,-1.56596 0.54233,-3.60087 -0.0243,-5.24639 -0.56655,-1.64551 -1.51485,-2.96862 -2.47224,-4.21637 -3.15089,-4.11169 -7.05921,-7.9554 -11.3826,-7.5367 -1.73905,0.17167 -3.40237,1.03002 -5.00205,1.98049 a 55.140647,76.204429 0 0 0 -5.87156,4.08657 c -1.4573,1.16818 -4.15678,2.72995 -4.99599,4.86535 -1.90872,4.81093 3.32359,9.39994 6.2927,8.75513 z"
     id="path2338" />
  <path
     inkscape:connector-curvature="0"
     style="opacity:0.1;stroke-width:0.35616779"
     d="m 676.95377,126.60653 c -0.73016,1.70414 -2.24804,2.51225 -3.67806,2.51225 -1.43003,0 -2.8146,-0.64063 -4.18099,-1.231 -3.55384,-1.53665 -7.4349,-2.70903 -10.94937,-1.00071 -1.56635,0.75786 -3.00849,2.09353 -4.65059,2.42849 -2.39347,0.51921 -6.24726,-2.36149 -6.66536,-6.02516 -0.46959,4.2331 3.99922,7.85909 6.66536,7.28128 1.6421,-0.3559 3.08424,-1.67482 4.65059,-2.42849 3.51447,-1.70833 7.39553,-0.53595 10.94937,1.0007 1.36639,0.59037 2.74794,1.25613 4.18099,1.23101 1.43305,-0.0251 2.9479,-0.80393 3.67806,-2.51223 a 3.5477856,4.903043 0 0 0 0.42416,-3.06074 3.266023,4.5136467 0 0 1 -0.42416,1.8046 z"
     id="path2340" />
  <path
     inkscape:connector-curvature="0"
     style="fill:#ffd037;stroke-width:0.35616255"
     d="m 790.11002,357.66089 c 0,1.14304 -0.0939,2.06837 -0.20605,2.06837 -0.11209,0 -0.20904,-0.92533 -0.20904,-2.06837 0,-1.14313 0.1151,-0.60299 0.23027,-0.60299 0.11512,0 0.18482,-0.54014 0.18482,0.60299 z"
     id="path2346" />
  <rect
     x="111.73643"
     y="-276.36581"
     width="97.84507"
     height="72.823624"
     transform="rotate(90)"
     id="rect1082-3"
     style="fill:#2f2e41;stroke-width:0.37345448" />
  <rect
     x="191.03149"
     y="108.74876"
     width="97.84507"
     height="38.839264"
     id="rect1084-5"
     style="fill:#7625ff;fill-opacity:1;stroke-width:0.37345448" />
  <rect
     x="191.03149"
     y="152.0695"
     width="97.84507"
     height="38.839264"
     id="rect1086-6"
     style="fill:#7625ff;fill-opacity:1;stroke-width:0.37345448" />
  <rect
     x="191.03149"
     y="195.39017"
     width="97.84507"
     height="38.839264"
     id="rect1088-3"
     style="fill:#7625ff;fill-opacity:1;stroke-width:0.37345448" />
  <rect
     x="191.03149"
     y="125.21671"
     width="97.84507"
     height="5.9752717"
     id="rect1090-5"
     style="fill:#378bfe;fill-opacity:1;stroke-width:0.37345448" />
  <rect
     x="191.03149"
     y="168.53745"
     width="97.84507"
     height="5.9752717"
     id="rect1092-8"
     style="fill:#378bfe;fill-opacity:1;stroke-width:0.37345448" />
  <rect
     x="191.03149"
     y="211.85818"
     width="97.84507"
     height="5.9752717"
     id="rect1094-6"
     style="fill:#378bfe;fill-opacity:1;stroke-width:0.37345448" />
  <circle
     cx="269.83035"
     cy="114.35056"
     r="2.2407267"
     id="circle1096-8"
     style="fill:#378bfe;fill-opacity:1;stroke-width:0.37345448" />
  <circle
     cx="277.67288"
     cy="114.35056"
     r="2.2407267"
     id="circle1098-5"
     style="fill:#378bfe;fill-opacity:1;stroke-width:0.37345448" />
  <circle
     cx="285.51541"
     cy="114.35056"
     r="2.2407267"
     id="circle1100-8"
     style="fill:#378bfe;fill-opacity:1;stroke-width:0.37345448" />
  <circle
     cx="269.83035"
     cy="156.92441"
     r="2.2407267"
     id="circle1102-4"
     style="fill:#378bfe;fill-opacity:1;stroke-width:0.37345448" />
  <circle
     cx="277.67288"
     cy="156.92441"
     r="2.2407267"
     id="circle1104-5"
     style="fill:#378bfe;fill-opacity:1;stroke-width:0.37345448" />
  <circle
     cx="285.51541"
     cy="156.92441"
     r="2.2407267"
     id="circle1106-2"
     style="fill:#378bfe;fill-opacity:1;stroke-width:0.37345448" />
  <circle
     cx="269.83035"
     cy="199.4982"
     r="2.2407267"
     id="circle1108-5"
     style="fill:#378bfe;fill-opacity:1;stroke-width:0.37345448" />
  <circle
     cx="277.67288"
     cy="199.4982"
     r="2.2407267"
     id="circle1110-9"
     style="fill:#378bfe;fill-opacity:1;stroke-width:0.37345448" />
  <circle
     cx="285.51541"
     cy="199.4982"
     r="2.2407267"
     id="circle1112-0"
     style="fill:#378bfe;fill-opacity:1;stroke-width:0.37345448" />
  <rect
     x="33.531757"
     y="-805.63904"
     width="97.84507"
     height="72.823624"
     transform="rotate(90)"
     id="rect1082-30"
     style="fill:#2f2e41;stroke-width:0.37345448" />
  <rect
     x="720.30463"
     y="30.544088"
     width="97.84507"
     height="38.839264"
     id="rect1084-9"
     style="fill:#7625ff;fill-opacity:1;stroke-width:0.37345448" />
  <rect
     x="720.30463"
     y="73.86483"
     width="97.84507"
     height="38.839264"
     id="rect1086-0"
     style="fill:#7625ff;fill-opacity:1;stroke-width:0.37345448" />
  <rect
     x="720.30463"
     y="117.18551"
     width="97.84507"
     height="38.839264"
     id="rect1088-1"
     style="fill:#7625ff;fill-opacity:1;stroke-width:0.37345448" />
  <rect
     x="720.30463"
     y="47.012043"
     width="97.84507"
     height="5.9752717"
     id="rect1090-55"
     style="fill:#378bfe;fill-opacity:1;stroke-width:0.37345448" />
  <rect
     x="720.30463"
     y="90.332787"
     width="97.84507"
     height="5.9752717"
     id="rect1092-83"
     style="fill:#378bfe;fill-opacity:1;stroke-width:0.37345448" />
  <rect
     x="720.30463"
     y="133.65352"
     width="97.84507"
     height="5.9752717"
     id="rect1094-7"
     style="fill:#378bfe;fill-opacity:1;stroke-width:0.37345448" />
  <circle
     cx="799.10358"
     cy="36.145893"
     r="2.2407267"
     id="circle1096-2"
     style="fill:#378bfe;fill-opacity:1;stroke-width:0.37345448" />
  <circle
     cx="806.94611"
     cy="36.145893"
     r="2.2407267"
     id="circle1098-59"
     style="fill:#378bfe;fill-opacity:1;stroke-width:0.37345448" />
  <circle
     cx="814.78864"
     cy="36.145893"
     r="2.2407267"
     id="circle1100-9"
     style="fill:#378bfe;fill-opacity:1;stroke-width:0.37345448" />
  <circle
     cx="799.10358"
     cy="78.719749"
     r="2.2407267"
     id="circle1102-1"
     style="fill:#378bfe;fill-opacity:1;stroke-width:0.37345448" />
  <circle
     cx="806.94611"
     cy="78.719749"
     r="2.2407267"
     id="circle1104-2"
     style="fill:#378bfe;fill-opacity:1;stroke-width:0.37345448" />
  <circle
     cx="814.78864"
     cy="78.719749"
     r="2.2407267"
     id="circle1106-24"
     style="fill:#378bfe;fill-opacity:1;stroke-width:0.37345448" />
  <circle
     cx="799.10358"
     cy="121.29354"
     r="2.2407267"
     id="circle1108-6"
     style="fill:#378bfe;fill-opacity:1;stroke-width:0.37345448" />
  <circle
     cx="806.94611"
     cy="121.29354"
     r="2.2407267"
     id="circle1110-7"
     style="fill:#378bfe;fill-opacity:1;stroke-width:0.37345448" />
  <circle
     cx="814.78864"
     cy="121.29354"
     r="2.2407267"
     id="circle1112-6"
     style="fill:#378bfe;fill-opacity:1;stroke-width:0.37345448" />
  <rect
     x="485.85449"
     y="-587.21112"
     width="97.84507"
     height="72.823624"
     transform="rotate(90)"
     id="rect1082-66"
     style="fill:#2f2e41;stroke-width:0.37345448" />
  <rect
     x="501.87677"
     y="482.86682"
     width="97.84507"
     height="38.839264"
     id="rect1084-98"
     style="fill:#7625ff;fill-opacity:1;stroke-width:0.37345448" />
  <rect
     x="501.87677"
     y="526.18762"
     width="97.84507"
     height="38.839264"
     id="rect1086-60"
     style="fill:#7625ff;fill-opacity:1;stroke-width:0.37345448" />
  <rect
     x="501.87677"
     y="569.5083"
     width="97.84507"
     height="38.839264"
     id="rect1088-6"
     style="fill:#7625ff;fill-opacity:1;stroke-width:0.37345448" />
  <rect
     x="501.87677"
     y="499.33478"
     width="97.84507"
     height="5.9752717"
     id="rect1090-6"
     style="fill:#378bfe;fill-opacity:1;stroke-width:0.37345448" />
  <rect
     x="501.87677"
     y="542.65558"
     width="97.84507"
     height="5.9752717"
     id="rect1092-93"
     style="fill:#378bfe;fill-opacity:1;stroke-width:0.37345448" />
  <rect
     x="501.87677"
     y="585.97632"
     width="97.84507"
     height="5.9752717"
     id="rect1094-8"
     style="fill:#378bfe;fill-opacity:1;stroke-width:0.37345448" />
  <circle
     cx="580.67566"
     cy="488.46863"
     r="2.2407267"
     id="circle1096-9"
     style="fill:#378bfe;fill-opacity:1;stroke-width:0.37345448" />
  <circle
     cx="588.51819"
     cy="488.46863"
     r="2.2407267"
     id="circle1098-58"
     style="fill:#378bfe;fill-opacity:1;stroke-width:0.37345448" />
  <circle
     cx="596.36072"
     cy="488.46863"
     r="2.2407267"
     id="circle1100-79"
     style="fill:#378bfe;fill-opacity:1;stroke-width:0.37345448" />
  <circle
     cx="580.67566"
     cy="531.04254"
     r="2.2407267"
     id="circle1102-0"
     style="fill:#378bfe;fill-opacity:1;stroke-width:0.37345448" />
  <circle
     cx="588.51819"
     cy="531.04254"
     r="2.2407267"
     id="circle1104-23"
     style="fill:#378bfe;fill-opacity:1;stroke-width:0.37345448" />
  <circle
     cx="596.36072"
     cy="531.04254"
     r="2.2407267"
     id="circle1106-7"
     style="fill:#378bfe;fill-opacity:1;stroke-width:0.37345448" />
  <circle
     cx="580.67566"
     cy="573.61633"
     r="2.2407267"
     id="circle1108-8"
     style="fill:#378bfe;fill-opacity:1;stroke-width:0.37345448" />
  <circle
     cx="588.51819"
     cy="573.61633"
     r="2.2407267"
     id="circle1110-77"
     style="fill:#378bfe;fill-opacity:1;stroke-width:0.37345448" />
  <circle
     cx="596.36072"
     cy="573.61633"
     r="2.2407267"
     id="circle1112-21"
     style="fill:#378bfe;fill-opacity:1;stroke-width:0.37345448" />
  <path
     d="m 718.28014,632.6198 a 3.67459,3.67459 0 0 1 -2.04748,-4.441 1.766,1.766 0 0 0 0.0799,-0.40754 v 0 a 1.84257,1.84257 0 0 0 -3.31045,-1.22119 v 0 a 1.7661,1.7661 0 0 0 -0.2039,0.3618 3.67461,3.67461 0 0 1 -4.441,2.04749 1.766,1.766 0 0 0 -0.40754,-0.0799 v 0 a 1.84257,1.84257 0 0 0 -1.22119,3.31045 v 0 a 1.76564,1.76564 0 0 0 0.3618,0.2039 3.67459,3.67459 0 0 1 2.04748,4.441 1.76611,1.76611 0 0 0 -0.0799,0.40755 v 0 a 1.84257,1.84257 0 0 0 3.31045,1.22119 v 0 a 1.76637,1.76637 0 0 0 0.2039,-0.3618 3.67459,3.67459 0 0 1 4.441,-2.04749 1.766,1.766 0 0 0 0.40754,0.0799 v 0 a 1.84257,1.84257 0 0 0 1.22119,-3.31044 v 0 a 1.7661,1.7661 0 0 0 -0.3618,-0.20391 z"
     id="path35"
     inkscape:connector-curvature="0"
     style="opacity:0.5;fill:#4d8af0" />
  <circle
     cx="117.27174"
     cy="189.45065"
     r="6"
     id="circle41"
     style="opacity:0.5;fill:#47e6b1" />
  <polygon
     points="792.921,124.092 795.606,123.018 802.049,128.924 811.177,115.5 814.399,118.185 802.049,134.294 "
     id="polygon67-4"
     transform="translate(-746.39919,239.82436)"
     style="opacity:0.5;fill:#47e6b1" />
  <path
     d="m 74.326821,38.259929 a 3.67459,3.67459 0 0 1 -2.04748,-4.441 1.766,1.766 0 0 0 0.0799,-0.40754 v 0 a 1.84257,1.84257 0 0 0 -3.31045,-1.22119 v 0 a 1.7661,1.7661 0 0 0 -0.2039,0.3618 3.67461,3.67461 0 0 1 -4.441,2.04749 1.766,1.766 0 0 0 -0.40754,-0.0799 v 0 a 1.84257,1.84257 0 0 0 -1.221186,3.31045 v 0 a 1.76564,1.76564 0 0 0 0.361796,0.2039 3.67459,3.67459 0 0 1 2.04748,4.441 1.76611,1.76611 0 0 0 -0.0799,0.40755 v 0 a 1.84257,1.84257 0 0 0 3.31045,1.22119 v 0 a 1.76637,1.76637 0 0 0 0.2039,-0.3618 3.67459,3.67459 0 0 1 4.441,-2.04749 1.766,1.766 0 0 0 0.40754,0.0799 v 0 a 1.84257,1.84257 0 0 0 1.22119,-3.31044 v 0 a 1.7661,1.7661 0 0 0 -0.3618,-0.20391 z"
     id="path23"
     inkscape:connector-curvature="0"
     style="opacity:0.5;fill:#4d8af0" />
  <circle
     cx="657.43634"
     cy="244.30362"
     r="6"
     id="circle27"
     style="opacity:0.5;fill:#f55f44" />
  <path
     d="m 613.32682,67.259929 a 3.67459,3.67459 0 0 1 -2.04748,-4.441 1.766,1.766 0 0 0 0.0799,-0.40754 v 0 a 1.84257,1.84257 0 0 0 -3.31045,-1.22119 v 0 a 1.7661,1.7661 0 0 0 -0.2039,0.3618 3.67461,3.67461 0 0 1 -4.441,2.04749 1.766,1.766 0 0 0 -0.40754,-0.0799 v 0 a 1.84257,1.84257 0 0 0 -1.22119,3.31045 v 0 a 1.76564,1.76564 0 0 0 0.3618,0.2039 3.67459,3.67459 0 0 1 2.04748,4.441 1.76611,1.76611 0 0 0 -0.0799,0.40755 v 0 a 1.84257,1.84257 0 0 0 3.31045,1.22119 v 0 a 1.76637,1.76637 0 0 0 0.2039,-0.3618 3.67459,3.67459 0 0 1 4.441,-2.04749 1.766,1.766 0 0 0 0.40754,0.0799 v 0 a 1.84257,1.84257 0 0 0 1.22119,-3.31044 v 0 a 1.7661,1.7661 0 0 0 -0.3618,-0.20391 z"
     id="path33"
     inkscape:connector-curvature="0"
     style="opacity:0.5;fill:#4d8af0" />
  <circle
     cx="739.12189"
     cy="438.75357"
     r="6"
     id="circle41-6"
     style="opacity:0.5;fill:#47e6b1" />
  <g
     id="g47"
     transform="translate(-97.587508,49.198621)"
     style="opacity:0.5">
    <rect
       x="583.39917"
       width="3"
       height="17"
       id="rect43"
       y="0"
       style="fill:#47e6b1" />
    <rect
       x="753.69958"
       y="66.108109"
       width="3"
       height="17"
       transform="rotate(90,703.10344,-43.596155)"
       id="rect45"
       style="fill:#47e6b1" />
  </g>
</svg>
