<svg xmlns="http://www.w3.org/2000/svg" width="16" height="16" viewBox="0 0 16 16">
  <path id="Icon_awesome-sign-out-alt" data-name="Icon awesome-sign-out-alt" d="M15.779,13.206l-5.334,7c-.476.625-1.3.187-1.3-.708v-4H4.826a.9.9,0,0,1-.762-1v-4a.9.9,0,0,1,.762-1H9.143v-4c0-.892.822-1.333,1.3-.708l5.334,7A1.243,1.243,0,0,1,15.779,13.206ZM6.1,20V18.33a.454.454,0,0,0-.381-.5H3.048A1.206,1.206,0,0,1,2.032,16.5v-8A1.206,1.206,0,0,1,3.048,7.166H5.715a.454.454,0,0,0,.381-.5V5a.454.454,0,0,0-.381-.5H3.048C1.365,4.5,0,6.291,0,8.5v8c0,2.208,1.365,4,3.048,4H5.715A.454.454,0,0,0,6.1,20Z" transform="translate(0 -4.499)" fill="#7624fe"/>
</svg>
