<svg xmlns="http://www.w3.org/2000/svg" width="16" height="16" viewBox="0 0 16 16">
  <path id="Icon_awesome-store" data-name="Icon awesome-store" d="M15.641,3.706,13.955.469a.811.811,0,0,0-.7-.469H2.756a.811.811,0,0,0-.7.469L.366,3.706c-.87,1.672-.1,4,1.527,4.263A2.252,2.252,0,0,0,2.25,8,2.4,2.4,0,0,0,4.167,6.963,2.407,2.407,0,0,0,6.084,8,2.4,2.4,0,0,0,8,6.963,2.407,2.407,0,0,0,9.918,8a2.4,2.4,0,0,0,1.917-1.034A2.411,2.411,0,0,0,13.752,8a2.228,2.228,0,0,0,.356-.028C15.739,7.706,16.514,5.381,15.641,3.706ZM13.757,9a2.774,2.774,0,0,1-.766-.119V12H3.016V8.881A2.9,2.9,0,0,1,2.25,9a2.924,2.924,0,0,1-.468-.038,2.8,2.8,0,0,1-.426-.112V15a.926.926,0,0,0,.831,1H13.825a.926.926,0,0,0,.831-1V8.85a2.275,2.275,0,0,1-.426.112A3.013,3.013,0,0,1,13.757,9Z" transform="translate(-0.004)" fill="#7624fe"/>
</svg>
