<?xml version="1.0" encoding="UTF-8" standalone="no"?>
<svg
   xmlns:dc="http://purl.org/dc/elements/1.1/"
   xmlns:cc="http://creativecommons.org/ns#"
   xmlns:rdf="http://www.w3.org/1999/02/22-rdf-syntax-ns#"
   xmlns:svg="http://www.w3.org/2000/svg"
   xmlns="http://www.w3.org/2000/svg"
   xmlns:sodipodi="http://sodipodi.sourceforge.net/DTD/sodipodi-0.dtd"
   xmlns:inkscape="http://www.inkscape.org/namespaces/inkscape"
   id="baed4b18-14ee-447f-bd84-b0265ca0ad8a"
   data-name="Layer 1"
   width="1049.58"
   height="678.59"
   viewBox="0 0 1049.58 678.59"
   version="1.1"
   sodipodi:docname="tip_wallet.svg"
   inkscape:version="0.92.4 (5da689c313, 2019-01-14)">
  <metadata
     id="metadata242">
    <rdf:RDF>
      <cc:Work
         rdf:about="">
        <dc:format>image/svg+xml</dc:format>
        <dc:type
           rdf:resource="http://purl.org/dc/dcmitype/StillImage" />
      </cc:Work>
    </rdf:RDF>
  </metadata>
  <sodipodi:namedview
     pagecolor="#ffffff"
     bordercolor="#666666"
     borderopacity="1"
     objecttolerance="10"
     gridtolerance="10"
     guidetolerance="10"
     inkscape:pageopacity="0"
     inkscape:pageshadow="2"
     inkscape:window-width="1920"
     inkscape:window-height="1017"
     id="namedview240"
     showgrid="false"
     inkscape:zoom="0.54116887"
     inkscape:cx="71.732545"
     inkscape:cy="407.53685"
     inkscape:window-x="-8"
     inkscape:window-y="-8"
     inkscape:window-maximized="1"
     inkscape:current-layer="baed4b18-14ee-447f-bd84-b0265ca0ad8a" />
  <defs
     id="defs9">
    <linearGradient
       id="b6a338e9-6675-4055-aeec-b883651a73ae"
       x1="790.68"
       y1="664.41"
       x2="790.68"
       y2="175.75"
       gradientUnits="userSpaceOnUse">
      <stop
         offset="0"
         stop-color="gray"
         stop-opacity="0.25"
         id="stop2" />
      <stop
         offset="0.54"
         stop-color="gray"
         stop-opacity="0.12"
         id="stop4" />
      <stop
         offset="1"
         stop-color="gray"
         stop-opacity="0.1"
         id="stop6" />
    </linearGradient>
  </defs>
  <title
     id="title11">wallet</title>
  <path
     inkscape:connector-curvature="0"
     style="opacity:0.5;fill:#a28bff;fill-opacity:1;stroke-width:2.39788961"
     d="m 336.3718,108.01733 c -8.75228,-11.989445 -26.83237,0.98314 -18.65557,13.3083 2.13412,3.21316 4.46007,6.3544 6.66613,9.32779 26.95228,36.352 40.908,80.52113 52.92143,124.16271 2.9494,10.6946 5.8029,22.13253 2.39788,32.7312 4.79579,-28.36703 1.67853,-57.54935 -5.58708,-85.46078 -7.26561,-27.91144 -18.55965,-54.4321 -30.23738,-80.71297 a 71.672922,71.672922 0 0 0 -7.50541,-13.35625 z"
     id="path196" />
  <path
     inkscape:connector-curvature="0"
     style="fill:#a28bff;fill-opacity:1;stroke-width:2.39788961"
     d="m 161.6376,184.48604 c -18.17602,-0.55152 -20.47798,27.00024 -2.39789,28.43897 4.79577,0.38366 9.59155,0.50355 14.09958,0.62345 55.63105,1.51067 108.24075,21.581 158.78826,43.37782 12.39709,5.32332 25.41762,11.31804 32.68323,22.70802 -22.77995,-26.37679 -52.75357,-45.79969 -84.71744,-59.94724 -31.96387,-14.14755 -65.91798,-23.6432 -99.92007,-32.34754 a 87.379099,87.379099 0 0 0 -18.53567,-2.85348 z"
     id="path198" />
  <path
     inkscape:connector-curvature="0"
     style="opacity:0.2;fill:#a28bff;fill-opacity:1;stroke-width:2.39788961"
     d="m 166.62521,252.22642 c -11.46192,0.43162 -8.8722,16.78523 2.68563,16.78523 3.02135,0 6.01871,0 8.89618,-0.23979 35.1051,-1.41475 71.04946,8.27272 105.91477,18.91935 8.56047,2.61369 17.57655,5.58708 23.81106,11.98945 -18.15204,-14.60316 -39.80497,-24.74623 -61.88955,-31.77205 -22.08455,-7.02581 -44.7686,-11.1262 -67.35671,-14.81895 a 61.385975,61.385975 0 0 0 -12.06138,-0.86324 z"
     id="path200" />
  <path
     inkscape:connector-curvature="0"
     style="opacity:0.5;fill:#a28bff;fill-opacity:1;stroke-width:2.39788961"
     d="m 401.42656,555.36763 c 3.26113,11.00632 18.41579,4.46007 15.65822,-6.76205 -0.74335,-2.92543 -1.60659,-5.82687 -2.39789,-8.58444 -10.09512,-33.57046 -9.59156,-70.85764 -7.96099,-107.28158 0.40764,-8.92016 1.05507,-18.41581 5.70697,-26.0411 -9.59157,21.22134 -14.07561,44.69668 -15.41842,67.83631 -1.34283,23.13963 0.33569,46.13539 2.39788,68.93933 a 63.112456,63.112456 0 0 0 2.01423,11.89353 z"
     id="path202" />
  <path
     inkscape:connector-curvature="0"
     style="opacity:0.2;fill:#a28bff;fill-opacity:1;stroke-width:2.39788961"
     d="m 187.5348,92.718797 c -6.90592,-1.198945 -7.43345,8.872193 -0.52753,10.406843 1.79842,0.38366 3.62081,0.69539 5.34729,0.98314 21.14938,3.62081 41.3636,13.95571 60.83446,24.74621 4.79579,2.66167 9.80737,5.58709 12.70881,10.19103 A 116.32164,116.32164 0 0 0 232.97481,112.11773 286.47588,286.47588 0 0 0 194.60859,94.709046 38.366235,38.366235 0 0 0 187.5348,92.718797 Z"
     id="path204" />
  <path
     inkscape:connector-curvature="0"
     style="fill:#a28bff;fill-opacity:1;stroke-width:2.39788961"
     d="m 80.900635,359.36413 c -17.52856,9.01606 -2.70961,33.78627 15.29855,25.5615 4.795775,-2.15809 9.303825,-4.556 13.691945,-6.83399 53.54488,-27.76756 115.74614,-38.00654 176.94028,-45.8956 15.0108,-1.91831 31.0287,-3.62081 44.91248,2.39788 -37.86268,-10.67059 -78.1712,-11.55782 -117.13692,-7.02581 -38.9657,4.53201 -76.87634,14.38734 -114.40331,24.60235 a 103.10925,103.10925 0 0 0 -19.303025,7.19367 z"
     id="path206" />
  <path
     inkscape:connector-curvature="0"
     style="opacity:0.5;fill:#a28bff;fill-opacity:1;stroke-width:2.39788961"
     d="m 131.01654,455.73532 c -12.58892,11.74966 7.07377,25.63343 20.28615,14.38733 3.45296,-2.94941 6.73806,-6.06666 9.87931,-9.01606 38.36623,-35.96835 89.10558,-61.67373 139.60513,-85.29294 12.39709,-5.8029 63.4002,-11.72568 77.02021,-11.41396 -35.5607,3.1892 -108.24073,14.38734 -140.5403,28.9905 -32.29958,14.60314 -62.24922,32.85109 -91.71929,51.38676 a 99.008861,99.008861 0 0 0 -14.53121,10.95837 z"
     id="path208" />
  <path
     inkscape:connector-curvature="0"
     style="fill:#a28bff;fill-opacity:1;stroke-width:2.39788961"
     d="m 220.79353,609.58392 c -3.66876,16.78523 20.38206,17.049 24.84214,0.26377 1.17497,-4.41212 2.11013,-8.82424 3.02134,-13.04453 11.07825,-51.45871 38.24634,-101.40675 66.3496,-149.5324 6.90593,-11.82159 45.55991,-45.70378 56.90193,-53.1852 -27.45585,22.8519 -80.92879,73.3035 -99.15275,103.7567 -18.22395,30.45319 -32.46742,62.34512 -46.18335,94.40492 a 99.392523,99.392523 0 0 0 -5.77891,17.33674 z"
     id="path210" />
  <path
     inkscape:connector-curvature="0"
     style="fill:#a28bff;fill-opacity:1;stroke-width:2.39788961"
     d="m 401.64236,18.98369 c -8.58444,-17.5045951 -33.09086,-3.117256 -25.32171,14.818958 2.03821,4.795779 4.34019,9.303812 6.49828,13.667971 26.3768,53.424981 35.51276,115.218601 42.29881,175.981121 1.65454,14.8909 3.09327,30.78891 -2.97339,44.48086 11.07825,-37.3831 12.54096,-77.33195 8.70434,-116.0099 C 427.01207,113.24473 417.99598,75.549908 408.45238,38.214765 A 99.224671,99.224671 0 0 0 401.64236,18.98369 Z"
     id="path212" />
  <path
     inkscape:connector-curvature="0"
     style="fill:#a28bff;fill-opacity:1;stroke-width:2.39788961"
     d="m 265.01061,48.741501 a 2.7335943,2.7335943 0 0 0 1.46272,0.43162 c 0.95916,0 1.63056,-0.959156 2.01423,-1.822397 2.1581,-4.651906 0.9112,-10.694587 4.22029,-14.603147 a 50.355682,50.355682 0 0 1 8.00894,13.404203 l 12.58892,-3.884582 a 18.703539,18.703539 0 0 1 -2.39788,14.387338 19.590759,19.590759 0 0 1 5.94676,4.028454 6.5941966,6.5941966 0 0 1 1.53466,6.666134 31.700101,31.700101 0 0 1 -8.89618,0.887219 58.964107,58.964107 0 0 1 -0.93518,16.54544 3.1172565,3.1172565 0 0 1 -1.07905,2.086163 c -0.93517,0.599472 -2.13412,0 -3.0693,-0.503557 A 29.014466,29.014466 0 0 1 274.05066,75.382054 l -4.67588,11.174166 a 5.0115894,5.0115894 0 0 1 -2.08616,2.805531 3.3810244,3.3810244 0 0 1 -3.93254,-1.342818 9.5915586,9.5915586 0 0 1 -1.39079,-4.244264 l -1.75045,-10.646631 a 2.5417631,2.5417631 0 0 0 -0.5755,-1.510671 2.781552,2.781552 0 0 0 -1.87034,-0.527535 q -6.66614,-0.191831 -13.3083,-0.143873 c -0.76731,-2.397889 1.5826,-4.55599 3.8606,-5.539126 2.27799,-0.983133 4.96363,-1.750459 6.11463,-3.956517 2.39788,-4.484054 -3.69275,-10.742546 -1.12702,-14.627127 2.97339,-4.484054 7.81712,0 11.7017,1.918312 z"
     id="path214" />
  <path
     inkscape:connector-curvature="0"
     style="opacity:0.5;fill:#a28bff;fill-opacity:1;stroke-width:2.39788961"
     d="m 507.94084,108.01733 c 8.7523,-11.989445 26.83239,0.98314 18.65559,13.3083 -2.13413,3.21316 -4.48406,6.3544 -6.69012,9.32779 -26.9283,36.352 -40.76413,80.52113 -52.92143,124.16271 -2.94939,10.6946 -5.80288,22.13253 -2.39789,32.7312 -4.79577,-28.36703 -1.67852,-57.54935 5.58708,-85.46078 7.26561,-27.91144 18.55968,-54.4321 30.23739,-80.71297 a 71.672922,71.672922 0 0 1 7.52938,-13.35625 z"
     id="path216" />
  <path
     inkscape:connector-curvature="0"
     style="fill:#a28bff;fill-opacity:1;stroke-width:2.39788961"
     d="m 682.67506,184.48604 c 18.17601,-0.55152 20.47798,27.00024 2.39789,28.43897 -4.79578,0.38366 -9.59156,0.50355 -14.09959,0.62345 -55.63104,1.51067 -108.24074,21.581 -158.78825,43.37782 -12.42106,5.32332 -25.44162,11.31804 -32.68325,22.70802 22.77996,-26.37679 52.75358,-45.79969 84.71745,-59.94724 31.96387,-14.14755 65.89401,-23.54727 99.89608,-32.27559 a 87.834697,87.834697 0 0 1 18.55967,-2.92543 z"
     id="path218" />
  <path
     inkscape:connector-curvature="0"
     style="opacity:0.5;fill:#a28bff;fill-opacity:1;stroke-width:2.39788961"
     d="m 677.73542,252.22642 c 11.48588,0.43162 8.89616,16.78523 -2.66167,16.78523 -3.02134,0 -6.04268,0 -8.92016,-0.23979 -35.08111,-1.41475 -71.02548,8.27272 -105.8908,18.91935 -8.56047,2.61369 -17.6005,5.58708 -23.81104,11.98945 18.15203,-14.60316 39.78098,-24.74623 61.88953,-31.77205 22.10855,-7.02581 44.76861,-11.1262 67.35672,-14.81895 a 61.29006,61.29006 0 0 1 12.03742,-0.86324 z"
     id="path220" />
  <path
     inkscape:connector-curvature="0"
     style="opacity:0.2;fill:#a28bff;fill-opacity:1;stroke-width:2.39788961"
     d="m 656.75387,92.718797 c 6.90592,-1.198945 7.43346,8.872193 0.55152,10.406843 -1.79842,0.38366 -3.62081,0.69539 -5.3473,0.98314 -21.14938,3.62081 -41.38757,13.95571 -60.85843,24.74621 -4.79578,2.66167 -9.7834,5.58709 -12.68484,10.19103 a 116.32164,116.32164 0 0 1 32.92302,-26.92829 286.47588,286.47588 0 0 1 38.36624,-17.408684 38.054509,38.054509 0 0 1 7.04979,-1.990249 z"
     id="path222" />
  <path
     inkscape:connector-curvature="0"
     style="opacity:0.2;fill:#a28bff;fill-opacity:1;stroke-width:2.39788961"
     d="m 476.96011,576.22927 c -1.55863,6.83399 -11.05428,3.42897 -9.80737,-3.50092 0.3357,-1.82239 0.76732,-3.62081 1.15098,-5.32332 4.79579,-20.90959 3.06931,-43.56965 0.62346,-65.67819 -0.59947,-5.4432 -1.3668,-11.19814 -4.50804,-15.65822 a 116.48948,116.48948 0 0 1 11.98946,40.76412 290.72015,290.72015 0 0 1 1.27087,42.08296 37.790741,37.790741 0 0 1 -0.71936,7.31357 z"
     id="path224" />
  <path
     inkscape:connector-curvature="0"
     style="opacity:0.5;fill:#a28bff;fill-opacity:1;stroke-width:2.39788961"
     d="m 652.34175,530.76528 c 5.39526,9.13596 -7.86508,8.53649 -13.66796,-0.62345 -1.53466,-2.3979 -2.92543,-4.79578 -4.29222,-7.19367 -16.42555,-27.93541 -41.41156,-55.58308 -66.5894,-82.29558 -6.18656,-6.54624 -12.87668,-13.45215 -20.66981,-17.81631 a 325.12986,325.12986 0 0 1 54.14435,46.27926 c 16.16177,16.78523 30.42922,34.50564 44.40891,52.08218 a 86.060259,86.060259 0 0 1 6.66613,9.56757 z"
     id="path226" />
  <path
     inkscape:connector-curvature="0"
     style="opacity:0.2;fill:#a28bff;fill-opacity:1;stroke-width:2.39788961"
     d="m 172.4281,530.76528 c -5.39525,9.13596 7.86508,8.53649 13.66797,-0.62345 1.53465,-2.3979 2.9494,-4.79578 4.29222,-7.19367 16.42555,-27.93541 41.43554,-55.58308 66.5894,-82.29558 6.18656,-6.54624 12.87666,-13.45215 20.66981,-17.81631 a 325.12986,325.12986 0 0 0 -54.14435,46.27926 c -16.16178,16.78523 -30.42922,34.50564 -44.40893,52.08218 a 86.060259,86.060259 0 0 0 -6.66612,9.56757 z"
     id="path228" />
  <path
     inkscape:connector-curvature="0"
     style="opacity:0.2;fill:#a28bff;fill-opacity:1;stroke-width:2.39788961"
     d="m 347.92964,576.22927 c 1.55863,6.83399 11.05427,3.42897 9.80737,-3.50092 -0.3357,-1.82239 -0.76733,-3.62081 -1.15099,-5.32332 -4.79578,-20.90959 -3.0693,-43.56965 -0.62345,-65.67819 0.59947,-5.4432 1.36679,-11.19814 4.48406,-15.65822 a 116.94509,116.94509 0 0 0 -11.98945,40.76412 287.33912,287.33912 0 0 0 -1.27089,42.08296 37.790741,37.790741 0 0 0 0.74335,7.31357 z"
     id="path230" />
  <path
     inkscape:connector-curvature="0"
     style="opacity:0.2;fill:#a28bff;fill-opacity:1;stroke-width:2.39788961"
     d="m 601.48252,161.37038 c 6.90591,-1.19895 7.43346,8.87219 0.52753,10.40684 -1.79841,0.38365 -3.62081,0.69539 -5.34729,0.98314 -21.14939,3.62081 -41.36359,13.95572 -60.83447,24.74621 -4.79577,2.66167 -9.80736,5.58709 -12.7088,10.19104 a 116.32164,116.32164 0 0 1 32.92302,-26.83239 289.54518,289.54518 0 0 1 38.36624,-17.40867 38.366235,38.366235 0 0 1 7.07377,-2.08617 z"
     id="path232" />
  <path
     inkscape:connector-curvature="0"
     style="opacity:0.2;fill:#a28bff;fill-opacity:1;stroke-width:2.39788961"
     d="m 536.97929,26.585 c 5.94676,-3.69275 10.19102,5.443209 4.38814,9.423706 -1.53466,1.055072 -3.09328,2.014228 -4.60396,2.925426 -18.24793,11.270081 -33.16281,28.414992 -47.19046,45.703776 -3.42899,4.244266 -7.00184,8.824234 -7.961,14.195508 a 116.46551,116.46551 0 0 1 20.50196,-37.071375 291.60736,291.60736 0 0 1 29.06242,-30.501157 38.366235,38.366235 0 0 1 5.8029,-4.675884 z"
     id="path234" />
  <path
     inkscape:connector-curvature="0"
     style="fill:#a28bff;fill-opacity:1;stroke-width:2.39788961"
     d="m 763.41215,359.36413 c 17.52846,9.01606 2.70956,33.78627 -15.29864,25.5615 -4.79575,-2.15809 -9.30378,-4.556 -13.69192,-6.83399 -53.54495,-27.76756 -115.77019,-38.00654 -176.94035,-45.8956 -15.03476,-1.91831 -31.02868,-3.62081 -44.91247,2.39788 37.86268,-10.67059 78.14723,-11.55782 117.1369,-7.02581 38.9897,4.53201 76.73247,14.38734 114.4034,24.60235 a 103.10925,103.10925 0 0 1 19.30308,7.19367 z"
     id="path236" />
  <path
     inkscape:connector-curvature="0"
     style="opacity:0.5;fill:#a28bff;fill-opacity:1;stroke-width:2.39788961"
     d="m 713.34407,455.73532 c 12.58899,11.74966 -7.19367,25.63343 -20.28614,14.38733 -3.45297,-2.94941 -6.73807,-6.06666 -9.87932,-9.01606 -38.36623,-35.96835 -89.10558,-61.67373 -139.60513,-85.29294 -12.39709,-5.8029 -63.42418,-11.72568 -77.0442,-11.41396 35.58469,3.1892 108.26472,14.38734 140.5643,28.9905 32.29958,14.60314 62.20126,32.92302 91.64734,51.43473 a 97.977771,97.977771 0 0 1 14.60315,10.9104 z"
     id="path238" />
  <path
     inkscape:connector-curvature="0"
     style="fill:#a28bff;fill-opacity:1;stroke-width:2.39788961"
     d="m 565.03459,628.76703 c 1.53465,17.14492 -22.3723,14.38734 -24.67428,-2.85349 -0.62345,-4.50803 -0.98314,-9.01606 -1.3668,-13.30829 -4.55599,-52.44183 -25.24977,-105.50714 -47.11853,-156.6781 -5.3473,-12.56495 -39.42131,-51.0271 -49.78019,-59.94725 24.38654,26.08904 71.09743,82.84709 85.38885,115.31451 14.29143,32.46744 24.38654,66.03789 33.97811,99.46446 a 100.39964,100.39964 0 0 1 3.57284,18.00816 z"
     id="path240" />
  <path
     inkscape:connector-curvature="0"
     style="fill:#a28bff;fill-opacity:1;stroke-width:2.39788961"
     d="m 579.42193,48.741501 a 2.7575731,2.7575731 0 0 1 -1.48669,0.43162 c -0.93517,0 -1.60659,-0.959156 -2.01422,-1.822397 -2.13413,-4.651906 -0.91121,-10.694587 -4.19631,-14.603147 a 49.708253,49.708253 0 0 0 -8.00896,13.404203 l -12.58891,-3.884582 a 18.799455,18.799455 0 0 0 2.39789,14.387338 19.78259,19.78259 0 0 0 -5.92279,4.028454 6.5941966,6.5941966 0 0 0 -1.53466,6.666134 31.700101,31.700101 0 0 0 8.89618,0.887219 58.076887,58.076887 0 0 0 0.93518,16.54544 3.021341,3.021341 0 0 0 1.07904,2.086163 c 0.93519,0.599472 2.13413,0 3.06931,-0.503557 a 29.206296,29.206296 0 0 0 10.35889,-10.982335 l 4.79576,11.174166 a 4.7957793,4.7957793 0 0 0 2.08616,2.805531 3.3810244,3.3810244 0 0 0 3.93254,-1.342818 10.310925,10.310925 0 0 0 1.39079,-4.244264 l 1.75046,-10.646631 a 2.5417631,2.5417631 0 0 1 0.57549,-1.510671 2.7096153,2.7096153 0 0 1 1.84638,-0.527535 c 4.46006,-0.119894 8.89617,-0.167852 13.33226,-0.143873 0.76732,-2.397889 -1.60659,-4.55599 -3.86061,-5.539126 -2.254,-0.983133 -4.9876,-1.750459 -6.11462,-3.956517 -2.39788,-4.484054 3.66878,-10.742546 1.12702,-14.627127 -3.23714,-4.484054 -8.08089,0 -11.84558,1.918312 z"
     id="path242" />
  <path
     inkscape:connector-curvature="0"
     style="opacity:0.2;fill:#a28bff;fill-opacity:1;stroke-width:2.39788961"
     d="m 617.28461,567.06933 a 3.4050032,3.4050032 0 0 1 -1.48669,0.43162 c -0.95915,0 -1.63057,-0.95915 -2.01423,-1.82239 -2.15809,-4.65191 -0.91119,-10.69459 -4.22028,-14.62713 a 51.50667,51.50667 0 0 0 -8.00896,13.42818 L 589.0135,560.5231 a 18.751497,18.751497 0 0 0 2.39788,14.38732 19.590759,19.590759 0 0 0 -5.94676,4.02846 6.5941966,6.5941966 0 0 0 -1.53466,6.66614 32.6113,32.6113 0 0 0 8.89617,0.88722 58.748297,58.748297 0 0 0 0.93519,16.52147 3.1652143,3.1652143 0 0 0 1.07905,2.11013 3.0453198,3.0453198 0 0 0 3.06929,-0.50356 29.206296,29.206296 0 0 0 10.35888,-10.98233 l 4.79579,11.17417 a 5.083526,5.083526 0 0 0 2.08616,2.80552 3.4050032,3.4050032 0 0 0 3.93254,-1.36679 9.5915586,9.5915586 0 0 0 1.39078,-4.24426 l 1.75044,-10.62265 a 1.9902484,1.9902484 0 0 1 2.39791,-2.03821 c 4.43608,-0.14389 8.87218,-0.16786 13.30828,-0.14389 0.76733,-2.39788 -1.58261,-4.55598 -3.8606,-5.53911 -2.278,-0.98313 -4.96364,-1.75046 -6.11462,-3.95652 -2.39789,-4.50803 3.69275,-10.76653 1.127,-14.62713 -3.09327,-4.43609 -7.93701,0.048 -11.79761,1.99025 z"
     id="path244" />
  <path
     inkscape:connector-curvature="0"
     style="fill:#a28bff;fill-opacity:1;stroke-width:2.39788961"
     d="m 723.91883,219.61512 a 2.997362,2.997362 0 0 1 -1.46271,0.4556 2.7096153,2.7096153 0 0 1 -2.0143,-1.8224 c -2.15809,-4.67589 -0.9112,-10.69459 -4.22028,-14.62713 a 49.852126,49.852126 0 0 0 -8.00896,13.42819 l -12.58891,-3.90855 a 18.847412,18.847412 0 0 0 2.39789,14.38732 19.350969,19.350969 0 0 0 -5.9228,4.02846 6.5702176,6.5702176 0 0 0 -1.53464,6.64216 31.700101,31.700101 0 0 0 8.89617,0.88721 58.028929,58.028929 0 0 0 0.93518,16.54544 3.1652143,3.1652143 0 0 0 1.07905,2.11014 3.0692988,3.0692988 0 0 0 3.0693,-0.52752 29.32619,29.32619 0 0 0 10.35888,-10.95836 l 4.79578,11.17416 a 4.9396528,4.9396528 0 0 0 2.08623,2.78155 3.3570455,3.3570455 0 0 0 3.93254,-1.34282 9.9752205,9.9752205 0 0 0 1.39078,-4.24426 l 1.75046,-10.64663 a 2.5417631,2.5417631 0 0 1 0.5755,-1.48669 2.6616575,2.6616575 0 0 1 1.87034,-0.55152 c 4.43609,0 8.8722,-0.16785 13.3083,0 0.76731,-2.39789 -1.58261,-4.55598 -3.86061,-5.5631 -2.278,-1.00712 -4.96363,-1.72648 -6.11462,-3.93254 -2.39789,-4.50803 3.69275,-10.76653 1.12701,-14.62713 -3.11727,-4.60395 -7.96099,-0.19183 -11.84558,1.79842 z"
     id="path246" />
  <path
     inkscape:connector-curvature="0"
     style="fill:#a28bff;fill-opacity:1;stroke-width:2.39788961"
     d="m 297.526,619.05558 a 4.2682436,4.2682436 0 0 1 -2.06218,0.59947 c -1.34282,0 -2.25402,-1.34281 -2.80553,-2.54176 -2.99737,-6.49829 -1.27089,-14.89089 -5.87483,-20.35808 a 69.682674,69.682674 0 0 0 -11.15019,18.70354 l -17.52857,-5.44322 a 25.993123,25.993123 0 0 0 3.33307,20.09432 27.431858,27.431858 0 0 0 -8.27273,5.61106 9.2078964,9.2078964 0 0 0 -2.13412,9.27984 44.7686,44.7686 0 0 0 12.37311,1.24689 81.672122,81.672122 0 0 0 1.31884,23.04373 3.237151,3.237151 0 0 0 5.77892,2.20605 40.572293,40.572293 0 0 0 14.38733,-15.29853 l 6.52226,15.58629 a 6.8819433,6.8819433 0 0 0 2.90144,3.88457 4.627927,4.627927 0 0 0 5.46719,-1.87035 13.643991,13.643991 0 0 0 1.94231,-5.92278 l 2.39788,-14.81896 a 3.716729,3.716729 0 0 1 0.79129,-2.08617 3.6447923,3.6447923 0 0 1 2.58973,-0.74334 c 6.18656,-0.19184 12.39709,-0.23979 18.58364,-0.19184 1.05508,-3.2851 -2.23002,-6.35441 -5.39524,-7.74518 -3.16523,-1.39078 -6.92991,-2.39789 -8.51252,-5.49116 -3.23714,-6.28248 5.13148,-14.98682 1.58261,-20.38207 -4.07642,-6.30645 -10.83845,-0.048 -16.23371,2.63768 z"
     id="path248" />
  <path
     inkscape:connector-curvature="0"
     style="fill:#a28bff;fill-opacity:1;stroke-width:2.39788961"
     d="m 120.10614,229.99798 a 4.2682436,4.2682436 0 0 1 -2.06218,0.59947 c -1.31884,0 -2.25402,-1.31883 -2.80553,-2.54175 -2.99737,-6.47431 -1.27089,-14.89091 -5.87483,-20.35809 a 70.042357,70.042357 0 0 0 -11.150195,18.70354 l -17.55255,-5.44321 a 26.08904,26.08904 0 0 0 3.30909,20.09432 27.359921,27.359921 0 0 0 -8.27272,5.63504 9.1839174,9.1839174 0 0 0 -2.13413,9.27983 44.744621,44.744621 0 0 0 12.37311,1.22292 82.559341,82.559341 0 0 0 1.31885,23.04373 4.3162014,4.3162014 0 0 0 1.51066,2.92542 4.2202858,4.2202858 0 0 0 4.26825,-0.6954 40.764124,40.764124 0 0 0 14.387345,-15.29853 l 6.52226,15.56231 a 7.0258167,7.0258167 0 0 0 2.90145,3.90856 4.7957793,4.7957793 0 0 0 5.46718,-1.89433 13.332266,13.332266 0 0 0 1.94229,-5.89882 l 2.3979,-14.84293 a 3.5728555,3.5728555 0 0 1 0.81528,-2.08617 3.6927501,3.6927501 0 0 1 2.58972,-0.74334 q 9.27982,-0.23979 18.55966,-0.19183 c 1.05507,-3.28511 -2.23003,-6.35441 -5.39525,-7.74519 -3.16521,-1.39078 -6.9299,-2.39788 -8.48852,-5.49116 -3.23716,-6.2585 5.1075,-14.98682 1.55862,-20.38207 -4.02846,-6.30645 -10.76652,-0.14386 -16.18576,2.63768 z"
     id="path250" />
  <path
     inkscape:connector-curvature="0"
     style="opacity:0.2;fill:#a28bff;fill-opacity:1;stroke-width:2.39788961"
     d="m 658.55228,470.91396 a 2.1101428,2.1101428 0 0 1 -1.10302,0.3357 c -0.71937,0 -1.19895,-0.71937 -1.48668,-1.34282 -1.6066,-3.45296 -0.67142,-7.91303 -3.11726,-10.83846 a 36.711691,36.711691 0 0 0 -5.92279,9.95124 l -9.32779,-2.90145 a 13.979697,13.979697 0 0 0 1.75045,10.6946 13.691949,13.691949 0 0 0 -4.36415,2.97337 4.7957793,4.7957793 0 0 0 -1.151,4.93966 24.266644,24.266644 0 0 0 6.57023,0.64744 43.593635,43.593635 0 0 0 0.71936,12.22923 2.1581007,2.1581007 0 0 0 0.7913,1.55863 c 0.67141,0.43161 1.58262,0 2.3979,-0.35968 a 21.844775,21.844775 0 0 0 7.64926,-8.12886 l 3.47694,8.27273 a 3.6447923,3.6447923 0 0 0 1.53465,2.06218 2.3978897,2.3978897 0 0 0 2.90146,-1.00711 7.193669,7.193669 0 0 0 1.03108,-3.14124 l 1.29487,-7.86508 a 2.0382062,2.0382062 0 0 1 0.43161,-1.12701 1.9902484,1.9902484 0 0 1 1.39078,-0.38366 c 3.28511,0 6.57022,-0.11989 9.85532,0 0.55152,-1.75045 -1.19894,-3.38102 -2.87746,-4.12437 -1.67852,-0.74334 -3.66877,-1.27089 -4.50803,-2.90144 -1.72648,-3.33307 2.70962,-7.96099 0.83926,-10.83846 -2.42187,-3.45296 -6.0187,-0.21581 -8.77629,1.29486 z"
     id="path252" />
  <path
     inkscape:connector-curvature="0"
     style="opacity:0.2;fill:#a28bff;fill-opacity:1;stroke-width:2.39788961"
     d="m 417.44446,610.0635 a 2.565742,2.565742 0 0 1 -1.10303,0.33569 c -0.69538,0 -1.17496,-0.71936 -1.4867,-1.36679 -1.5826,-3.45296 -0.67139,-7.91303 -3.11724,-10.81448 a 37.191269,37.191269 0 0 0 -5.9228,9.92727 l -9.30381,-2.87748 a 13.811845,13.811845 0 0 0 1.75047,10.67061 14.387339,14.387339 0 0 0 -4.38814,2.99736 4.7957793,4.7957793 0 0 0 -1.15099,4.91567 24.458474,24.458474 0 0 0 6.59419,0.67142 42.754372,42.754372 0 0 0 0.6954,12.22924 2.3978897,2.3978897 0 0 0 0.79129,1.55862 2.2540163,2.2540163 0 0 0 2.27799,-0.38367 21.581007,21.581007 0 0 0 7.67326,-8.12884 l 3.45297,8.27272 a 3.7407078,3.7407078 0 0 0 1.55862,2.08616 2.5177842,2.5177842 0 0 0 2.90144,-1.00711 7.4814157,7.4814157 0 0 0 1.0311,-3.14124 l 1.29488,-7.88905 a 1.8703539,1.8703539 0 0 1 0.43163,-1.10303 1.9183117,1.9183117 0 0 1 1.36679,-0.38365 c 3.28511,0 6.57022,-0.14388 9.85533,-0.1199 0.57549,-1.72648 -1.17497,-3.35705 -2.8535,-4.1004 -1.67852,-0.74334 -3.66877,-1.29486 -4.53201,-2.92542 -1.7025,-3.33307 2.7336,-7.96099 0.83927,-10.81449 -2.20605,-3.35703 -5.77891,-0.024 -8.65641,1.39079 z"
     id="path254" />
  <path
     inkscape:connector-curvature="0"
     style="opacity:0.5;fill:#a28bff;fill-opacity:1;stroke-width:2.39788961"
     d="m 184.22571,123.0521 a 2.3978897,2.3978897 0 0 1 -1.10303,0.33571 c -0.71937,0 -1.19894,-0.71937 -1.48668,-1.34282 -1.60659,-3.45296 -0.67142,-7.91304 -3.11727,-10.83846 a 36.711691,36.711691 0 0 0 -5.92278,9.95125 l -9.32779,-2.90145 a 13.883782,13.883782 0 0 0 1.77443,10.69458 13.524097,13.524097 0 0 0 -4.38814,2.97339 4.7957793,4.7957793 0 0 0 -1.15098,4.91567 23.379425,23.379425 0 0 0 6.57022,0.67141 43.593635,43.593635 0 0 0 0.71937,12.22924 2.2540163,2.2540163 0 0 0 0.7913,1.55862 c 0.67141,0.43162 1.5826,0 2.278,-0.35968 a 21.844775,21.844775 0 0 0 7.64926,-8.12885 l 3.47694,8.27273 a 3.6447923,3.6447923 0 0 0 1.53465,2.06218 2.3978897,2.3978897 0 0 0 2.90145,-1.00712 7.193669,7.193669 0 0 0 1.03109,-3.14123 l 1.29487,-7.86508 a 2.0382062,2.0382062 0 0 1 0.43162,-1.127 1.9902484,1.9902484 0 0 1 1.39077,-0.38367 c 3.28511,0 6.57021,-0.11989 9.85532,0 0.55153,-1.75046 -1.19894,-3.38102 -2.87746,-4.12437 -1.67853,-0.74334 -3.66877,-1.27089 -4.50803,-2.90145 -1.72648,-3.33307 2.70961,-7.96099 0.83926,-10.83845 -2.20605,-3.45297 -5.8029,-0.048 -8.65639,1.29485 z"
     id="path256" />
  <path
     inkscape:connector-curvature="0"
     style="opacity:0.5;fill:#a28bff;fill-opacity:1;stroke-width:2.39788961"
     d="m 308.46037,397.4666 a 2.1820796,2.1820796 0 0 1 -1.07905,0.3357 c -0.71936,0 -1.19894,-0.71936 -1.51066,-1.34282 -1.58261,-3.45297 -0.67141,-7.91303 -3.09328,-10.83845 a 37.407078,37.407078 0 0 0 -5.94677,9.95123 l -9.42371,-2.90144 a 13.979697,13.979697 0 0 0 1.75046,10.69459 14.075613,14.075613 0 0 0 -4.38814,2.97337 4.7957793,4.7957793 0 0 0 -1.127,4.79579 23.283509,23.283509 0 0 0 6.57022,0.67141 44.504832,44.504832 0 0 0 0.69539,12.22924 2.1820796,2.1820796 0 0 0 0.81528,1.55862 c 0.67141,0.43162 1.5826,0 2.25402,-0.35968 a 21.700902,21.700902 0 0 0 7.67324,-8.12885 l 3.47694,8.27272 a 3.6447923,3.6447923 0 0 0 1.53465,2.06219 2.3978897,2.3978897 0 0 0 2.90144,-1.00712 7.3855001,7.3855001 0 0 0 1.0311,-3.14123 l 1.29485,-7.86508 a 2.0382062,2.0382062 0 0 1 0.43163,-1.12701 1.9183117,1.9183117 0 0 1 1.3668,-0.38367 c 3.28511,0 6.57021,0 9.8793,0 0.55152,-1.75045 -1.19894,-3.38101 -2.87746,-4.12437 -1.67853,-0.74334 -3.66877,-1.27088 -4.50804,-2.90144 -1.72649,-3.33307 2.70962,-7.96099 0.83927,-10.83846 -2.20606,-3.38102 -5.8029,0.024 -8.56048,1.41476 z"
     id="path258" />
  <path
     inkscape:connector-curvature="0"
     style="opacity:0.5;fill:#a28bff;fill-opacity:1;stroke-width:2.39788961"
     d="m 218.25176,290.52071 a 2.1581007,2.1581007 0 0 1 -1.07904,0.31174 c -0.71937,0 -1.19895,-0.69539 -1.51067,-1.34282 -1.58261,-3.45297 -0.67141,-7.91304 -3.11726,-10.81449 a 37.191269,37.191269 0 0 0 -5.92279,9.92726 l -9.30382,-2.87746 a 13.907761,13.907761 0 0 0 1.75047,10.6706 14.627127,14.627127 0 0 0 -4.38814,2.97338 4.7957793,4.7957793 0 0 0 -1.127,4.93966 23.25953,23.25953 0 0 0 6.57022,0.64743 43.761487,43.761487 0 0 0 0.69539,12.25321 2.3978897,2.3978897 0 0 0 0.81527,1.55864 c 0.67141,0.43162 1.55862,0 2.25402,-0.38366 a 21.700902,21.700902 0 0 0 7.67325,-8.12885 l 3.47694,8.27272 a 3.5728555,3.5728555 0 0 0 1.53465,2.06219 2.3978897,2.3978897 0 0 0 2.90144,-0.98314 7.6013102,7.6013102 0 0 0 1.0311,-3.14123 l 1.29485,-7.88906 a 1.9662696,1.9662696 0 0 1 0.43162,-1.10304 1.9422906,1.9422906 0 0 1 1.36681,-0.40764 c 3.2851,0 6.57021,-0.11989 9.85532,0 0.5755,-1.75045 -1.17496,-3.35704 -2.85348,-4.10038 -1.67853,-0.74335 -3.66878,-1.29487 -4.50804,-2.92543 -1.72649,-3.33307 2.70961,-7.96099 0.81529,-10.83847 -2.18209,-3.42898 -5.77892,-0.11989 -8.6564,1.31884 z"
     id="path260" />
  <path
     inkscape:connector-curvature="0"
     style="opacity:0.5;fill:#a28bff;fill-opacity:1;stroke-width:2.39788961"
     d="m 605.19925,315.69856 a 2.1820796,2.1820796 0 0 1 -1.07905,0.3357 c -0.71937,0 -1.19895,-0.71937 -1.4867,-1.3668 -1.60658,-3.42898 -0.69539,-7.91303 -3.11725,-10.81447 a 36.711691,36.711691 0 0 0 -5.92279,9.95124 l -9.37574,-2.90145 a 13.907761,13.907761 0 0 0 1.75044,10.67061 14.55519,14.55519 0 0 0 -4.38813,2.99736 4.7957793,4.7957793 0 0 0 -1.127,4.91567 24.194706,24.194706 0 0 0 6.57021,0.67142 44.504832,44.504832 0 0 0 0.69539,12.22924 2.2540163,2.2540163 0 0 0 0.81529,1.55862 c 0.6714,0.43161 1.5826,0 2.25401,-0.38367 a 21.365198,21.365198 0 0 0 7.67324,-8.12884 l 3.47694,8.27272 a 3.716729,3.716729 0 0 0 1.53465,2.08616 2.3978897,2.3978897 0 0 0 2.90146,-1.00711 7.4814157,7.4814157 0 0 0 1.03108,-3.14124 l 1.29487,-7.86508 a 2.0382062,2.0382062 0 0 1 0.43162,-1.127 1.9183117,1.9183117 0 0 1 1.36679,-0.38366 c 3.28511,0 6.59419,-0.1199 9.8793,0 0.55153,-1.75046 -1.19894,-3.38103 -2.87746,-4.12438 -1.67852,-0.74334 -3.66877,-1.29485 -4.50803,-2.92542 -1.72648,-3.33307 2.70962,-7.96099 0.83926,-10.81448 -2.15811,-3.45296 -5.63504,-0.1199 -8.6324,1.29486 z"
     id="path262" />
  <path
     inkscape:connector-curvature="0"
     style="opacity:0.2;fill:#a28bff;fill-opacity:1;stroke-width:2.39788961"
     d="m 417.44446,294.64509 a 2.3978897,2.3978897 0 0 1 -1.10303,0.33571 c -0.69538,0 -1.17496,-0.71937 -1.4867,-1.34283 -1.5826,-3.45296 -0.67139,-7.91303 -3.11724,-10.83846 a 37.335142,37.335142 0 0 0 -5.9228,9.95124 l -9.30381,-2.90144 a 13.883782,13.883782 0 0 0 1.75047,10.69459 13.787866,13.787866 0 0 0 -4.38814,2.97337 4.7957793,4.7957793 0 0 0 -1.15099,4.91568 23.547276,23.547276 0 0 0 6.59419,0.67141 42.706415,42.706415 0 0 0 0.6954,12.22924 2.2540163,2.2540163 0 0 0 0.79129,1.55863 2.3978897,2.3978897 0 0 0 2.27799,-0.35968 21.892732,21.892732 0 0 0 7.67326,-8.12885 l 3.45297,8.27272 a 3.6927501,3.6927501 0 0 0 1.55862,2.06218 2.3978897,2.3978897 0 0 0 2.90144,-1.00711 7.3855001,7.3855001 0 0 0 1.0311,-3.14123 l 1.29488,-7.86508 a 1.8703539,1.8703539 0 0 1 0.43163,-1.12702 1.9183117,1.9183117 0 0 1 1.36679,-0.38366 c 3.28511,0 6.57022,-0.11989 9.85533,0 0.57549,-1.75045 -1.17497,-3.38103 -2.8535,-4.12437 -1.67852,-0.74334 -3.66877,-1.27089 -4.53201,-2.90144 -1.7025,-3.33307 2.7336,-7.961 0.83927,-10.83847 -2.20605,-3.45295 -5.77891,-0.11989 -8.65641,1.29487 z"
     id="path264" />
  <path
     inkscape:connector-curvature="0"
     style="opacity:0.3;fill:#a28bff;fill-opacity:1;stroke-width:2.39788961"
     d="m 358.5283,320.27852 a 2.3978897,2.3978897 0 0 1 -1.10302,0.33572 c -0.69539,0 -1.19895,-0.71937 -1.48668,-1.34282 -1.58261,-3.45296 -0.67142,-7.93702 -3.11726,-10.83847 a 37.335142,37.335142 0 0 0 -5.99473,9.90329 l -9.32779,-2.90145 a 13.883782,13.883782 0 0 0 1.77444,10.69459 13.787866,13.787866 0 0 0 -4.38814,2.97338 4.7957793,4.7957793 0 0 0 -1.15099,4.91567 23.547276,23.547276 0 0 0 6.5942,0.67142 42.706415,42.706415 0 0 0 0.69539,12.22924 2.2540163,2.2540163 0 0 0 0.7913,1.55862 2.3978897,2.3978897 0 0 0 2.27799,-0.35968 21.892732,21.892732 0 0 0 7.67326,-8.12886 l 3.45295,8.27273 a 3.7407078,3.7407078 0 0 0 1.53466,2.06218 2.3978897,2.3978897 0 0 0 2.92542,-1.00711 7.0497956,7.0497956 0 0 0 1.00712,-3.14124 l 1.29485,-7.86508 a 2.2300374,2.2300374 0 0 1 0.43163,-1.127 1.9902484,1.9902484 0 0 1 1.39077,-0.38366 c 3.2851,0 6.57022,-0.1199 9.85533,0 0.57549,-1.75046 -1.17497,-3.38103 -2.85349,-4.12437 -1.67852,-0.74335 -3.69275,-1.27089 -4.53201,-2.90144 -1.70251,-3.33307 2.7336,-7.961 0.83926,-10.83847 -2.13412,-3.40501 -5.70698,-0.072 -8.58446,1.34281 z"
     id="path266" />
  <path
     inkscape:connector-curvature="0"
     style="opacity:0.2;fill:#a28bff;fill-opacity:1;stroke-width:2.39788961"
     d="m 303.6646,165.15905 a 2.3978897,2.3978897 0 0 1 -1.10303,0.3357 c -0.71936,0 -1.19895,-0.71936 -1.48669,-1.3668 -1.58261,-3.42898 -0.67141,-7.91303 -3.11726,-10.81449 a 36.951479,36.951479 0 0 0 -5.92279,9.92727 l -9.32779,-2.87746 a 13.811845,13.811845 0 0 0 1.77444,10.67061 13.979697,13.979697 0 0 0 -4.38814,2.99735 4.7957793,4.7957793 0 0 0 -1.15098,4.91569 24.290623,24.290623 0 0 0 6.57022,0.67139 43.641592,43.641592 0 0 0 0.71936,12.22925 2.2540163,2.2540163 0 0 0 0.7913,1.55863 c 0.67141,0.43161 1.58262,0 2.27799,-0.38366 a 21.581007,21.581007 0 0 0 7.64928,-8.12886 l 3.47694,8.27273 a 3.716729,3.716729 0 0 0 1.53465,2.08616 2.3978897,2.3978897 0 0 0 2.90144,-1.00711 7.193669,7.193669 0 0 0 1.03109,-3.14123 l 1.29487,-7.86508 a 2.0382062,2.0382062 0 0 1 0.43161,-1.12702 1.9902484,1.9902484 0 0 1 1.39078,-0.38366 c 3.2851,0 6.57022,-0.14387 9.85533,-0.11989 0.55151,-1.72649 -1.17497,-3.35704 -2.87747,-4.10039 -1.7025,-0.74335 -3.66877,-1.29486 -4.50803,-2.92542 -1.72648,-3.33307 2.70961,-7.961 0.83926,-10.81449 -2.25402,-3.35705 -5.85084,-0.024 -8.65638,1.39078 z"
     id="path268" />
  <path
     inkscape:connector-curvature="0"
     style="opacity:0.3;fill:#a28bff;fill-opacity:1;stroke-width:2.39788961"
     d="m 411.78544,367.58889 a 2.1820796,2.1820796 0 0 1 -1.10303,0.31173 c -0.69538,0 -1.17496,-0.69539 -1.48668,-1.34283 -1.58262,-3.45294 -0.67142,-7.91303 -3.11726,-10.81447 a 37.191269,37.191269 0 0 0 -5.9228,9.92726 l -9.30381,-2.87747 a 13.811845,13.811845 0 0 0 1.75047,10.67061 14.627127,14.627127 0 0 0 -4.38814,2.97338 4.7957793,4.7957793 0 0 0 -1.12702,4.93965 23.25953,23.25953 0 0 0 6.57022,0.64743 43.761487,43.761487 0 0 0 0.69539,12.25322 2.3978897,2.3978897 0 0 0 0.79131,1.55863 2.2540163,2.2540163 0 0 0 2.39789,-0.38366 21.72488,21.72488 0 0 0 7.67324,-8.12884 l 3.45296,8.27271 a 3.8606024,3.8606024 0 0 0 1.55864,2.08617 2.5177842,2.5177842 0 0 0 2.90144,-1.00712 7.4814157,7.4814157 0 0 0 1.0311,-3.14123 l 1.29485,-7.88906 a 2.0382062,2.0382062 0 0 1 0.43162,-1.10304 1.9422906,1.9422906 0 0 1 1.36681,-0.40763 c 3.28512,0 6.57023,-0.11989 9.85534,0 0.5755,-1.75046 -1.17496,-3.35705 -2.85348,-4.10039 -1.67853,-0.74335 -3.66877,-1.29486 -4.50807,-2.92543 -1.72648,-3.33307 2.70965,-7.96099 0.81532,-10.81449 -2.30201,-3.45295 -5.89884,-0.14386 -8.77631,1.29487 z"
     id="path270" />
  <rect
     y="685.70276"
     width="1049.58"
     height="7.6700001"
     id="rect13"
     x="105.32756"
     style="fill:#85848b" />
  <path
     d="m 636.53088,308.16929 c 6.23037,-2.42112 12.53225,-5.23402 17.12625,-10.0777 0.73035,-0.75012 1.36698,-1.88185 0.80134,-2.71253 a 2.42,2.42 0 0 0 -0.87311,-0.66346 61.78,61.78 0 0 1 -10.73208,-7.17409 1,1 0 0 0 -0.57349,-0.28002 0.94,0.94 0 0 0 -0.56222,0.3058 c -2.206,2.07637 -3.52548,4.94551 -5.69481,7.04747 a 11.9,11.9 0 0 1 -3.84336,2.47745 c -1.23125,0.49893 -3.33329,0.40144 -4.32056,1.09779 2.68534,3.514 6.09303,6.305 8.67204,9.97929 z"
     id="path19"
     inkscape:connector-curvature="0"
     style="fill:#368bff" />
  <path
     d="m 741.39275,238.53321 c 2.40551,-4.7234 4.8799,-9.65501 4.93413,-14.95504 a 1.87,1.87 0 0 0 -0.17203,-0.9651 1.92,1.92 0 0 0 -0.75506,-0.61383 37.16,37.16 0 0 0 -13.00756,-4.38829 27.21,27.21 0 0 0 -2.27459,6.70121 c -0.41207,1.5446 -2.20346,4.6135 -1.3841,6.18272 0.4778,0.87847 2.05107,1.34324 2.9268,1.82314 1.1573,0.59995 2.28903,1.23659 3.40395,1.90512 0.59661,0.3016 6.53081,3.94958 6.32846,4.31007 z"
     id="path21"
     inkscape:connector-curvature="0"
     style="fill:#368bff" />
  <path
     d="m 665.76002,307.51394 a 4.45,4.45 0 0 1 0.68285,2.9298 3.93,3.93 0 0 1 -0.99803,1.68117 c -6.5571,7.34573 -17.96116,8.83567 -24.52458,16.12792 -1.34896,1.4964 -2.46674,3.20855 -3.83882,4.68337 a 30.52,30.52 0 0 1 -5.55681,4.43391 c -2.72447,1.83473 -5.51907,3.58239 -8.35744,5.22864 a 23.66,23.66 0 0 1 -6.82881,2.97427 8.91,8.91 0 0 1 -7.15336,-1.2432 4.33,4.33 0 0 1 -1.77972,-2.6861 3.46,3.46 0 0 1 0.0581,-1.16993 8.77,8.77 0 0 1 1.06935,-2.59649 l 1.94442,-3.56193 a 22.89,22.89 0 0 1 3.2325,-4.87723 c 0.9757,-1.03156 2.14113,-1.88173 3.16785,-2.86135 3.53894,-3.51852 4.93849,-8.60545 6.18131,-13.43638 l 1.71098,-6.56541 a 4.67,4.67 0 0 1 0.79797,-1.90249 4.46,4.46 0 0 1 1.66615,-1.12251 26.74,26.74 0 0 1 13.1385,-2.31947 16.39,16.39 0 0 0 3.61997,0.12564 c 2.89591,-0.36844 5.57952,-2.73874 7.14422,-5.11517 0.73959,-1.1308 0.33918,-1.32282 0.23372,-2.56317 -0.10546,-1.24036 0.61748,-2.46456 2.04557,-2.05742 a 2.94,2.94 0 0 1 1.18181,0.79152 c 2.45521,2.42115 3.81759,5.72127 5.47078,8.76077 a 4.54,4.54 0 0 0 0.94017,1.30999 9.05,9.05 0 0 0 1.50656,0.86534 3.37,3.37 0 0 1 0.34847,0.24303 10.17,10.17 0 0 1 2.89635,3.92288 z"
     id="path23"
     inkscape:connector-curvature="0"
     style="fill:#514e7f" />
  <path
     d="m 665.76002,307.51394 a 4.45,4.45 0 0 1 0.68285,2.9298 3.93,3.93 0 0 1 -0.99803,1.68117 c -6.5571,7.34573 -17.96116,8.83567 -24.52458,16.12792 -1.34896,1.4964 -2.46674,3.20855 -3.83882,4.68337 a 30.52,30.52 0 0 1 -5.55681,4.43391 c -2.72447,1.83473 -5.51907,3.58239 -8.35744,5.22864 a 23.66,23.66 0 0 1 -6.82881,2.97427 8.91,8.91 0 0 1 -7.15336,-1.2432 4.33,4.33 0 0 1 -1.77972,-2.6861 3.46,3.46 0 0 1 0.0581,-1.16993 c 1.01429,0.73466 2.07359,1.86602 2.63028,2.17794 a 6.49,6.49 0 0 0 5.30807,0.67595 10.78,10.78 0 0 0 3.2702,-2.35922 c 6.3853,-5.84074 14.21569,-10.13386 19.79986,-16.75688 1.91255,-2.28104 3.5389,-4.81621 5.77989,-6.7864 2.24099,-1.97019 5.04146,-3.28847 7.55742,-4.94149 3.98237,-2.5986 7.33129,-6.04791 11.07538,-8.93809 a 10.17,10.17 0 0 1 2.87555,3.96834 z"
     id="path25"
     inkscape:connector-curvature="0"
     style="fill:#464353" />
  <path
     d="m 759.75118,227.85363 c 1.29533,3.30244 0.78408,7.0297 -0.14022,10.45797 -0.9243,3.42828 -2.25393,6.78105 -2.55266,10.31302 -0.35479,4.37071 0.87046,8.88376 -0.38918,13.09775 a 18.1,18.1 0 0 1 -2.15214,4.41484 27.91,27.91 0 0 1 -3.39173,4.54264 c -3.38173,3.53547 -7.9541,5.63535 -12.40425,7.64599 a 13.09,13.09 0 0 1 -4.48376,1.42561 13.92,13.92 0 0 1 -2.25047,-0.11922 9.17,9.17 0 0 1 -4.0688,-1.202 3,3 0 0 1 -1.29636,-1.7765 5.12,5.12 0 0 1 0.20813,-2.5265 33,33 0 0 1 1.57758,-4.4666 21.07,21.07 0 0 0 2.11218,-5.7022 12.92,12.92 0 0 0 -0.35631,-4.35958 35.48,35.48 0 0 0 -2.52196,-7.33664 24.25,24.25 0 0 1 -1.98075,-4.751 c -0.61133,-2.67272 -0.0171,-5.6824 -1.5148,-7.9755 a 1.93,1.93 0 0 1 -0.47118,-1.07559 1.63,1.63 0 0 1 0.53585,-0.9403 16.3,16.3 0 0 1 3.66872,-3.25899 5.57,5.57 0 0 1 4.73177,-0.5929 c 0.98915,0.39544 1.94827,1.21702 2.97963,1.02033 a 3.38,3.38 0 0 0 1.36394,-0.67355 c 2.04159,-1.39501 4.17748,-2.90961 5.12201,-5.23331 a 8.73,8.73 0 0 0 -0.49603,-6.98147 c -0.4348,-0.7994 -1.24889,-1.43805 -0.0771,-2.23473 0.86429,-0.62946 2.14689,-0.0294 2.95573,0.32756 2.96007,1.36109 6.0214,2.80371 8.18209,5.24844 a 2.51,2.51 0 0 1 0.70061,-0.57458 3.87,3.87 0 0 1 3.58113,-0.0923 6.35,6.35 0 0 1 2.82837,3.37929 z"
     id="path27"
     inkscape:connector-curvature="0"
     style="fill:#514e7f" />
  <path
     d="m 759.75118,227.85363 c 1.29533,3.30244 0.78408,7.0297 -0.14022,10.45797 -0.9243,3.42828 -2.25393,6.78105 -2.55266,10.31302 -0.35479,4.37071 0.87046,8.88376 -0.38918,13.09775 a 18.1,18.1 0 0 1 -2.15214,4.41484 27.91,27.91 0 0 1 -3.39173,4.54264 c -3.38173,3.53547 -7.9541,5.63535 -12.40425,7.64599 a 13.09,13.09 0 0 1 -4.48376,1.42561 13.92,13.92 0 0 1 -2.25047,-0.11922 9.17,9.17 0 0 1 -4.0688,-1.202 7.31,7.31 0 0 1 2.29139,-2.0659 c 1.95482,-0.92663 4.31752,0.11052 6.43696,-0.3251 3.01672,-0.62767 4.60559,-3.85962 6.89298,-5.91196 1.49322,-1.3358 3.35142,-2.20988 4.73151,-3.71182 a 14.66,14.66 0 0 0 2.58553,-4.43428 22.35,22.35 0 0 0 1.96035,-6.21156 29.05,29.05 0 0 0 -0.20733,-6.13674 78.5,78.5 0 0 1 -0.19952,-12.00347 7.52,7.52 0 0 1 0.28552,-1.84005 c 0.20743,-0.60231 0.52968,-1.11908 0.8137,-1.70614 1.03546,-2.28209 0.57486,-4.86605 0.024,-7.34397 a 11.27,11.27 0 0 1 -0.33329,-2.26617 3.87,3.87 0 0 1 3.58113,-0.0923 6.35,6.35 0 0 1 2.97032,3.47284 z"
     id="path29"
     inkscape:connector-curvature="0"
     style="fill:#464353" />
  <path
     d="M 574.87251,85.953418"
     id="path41"
     inkscape:connector-curvature="0"
     style="fill:#464353" />
  <path
     d="m 540.07605,165.15466 c 3.54858,3.76165 4.38394,9.29499 5.37864,14.38877 a 117.88,117.88 0 0 0 6.74256,22.40081 19.82,19.82 0 0 1 1.72988,5.65014 c 0.14786,1.82061 -0.28531,3.66128 -0.28109,5.46896 -0.076,4.7996 2.41351,9.25112 5.14542,13.20652 1.80375,2.60473 3.75206,5.11944 5.78668,7.54168 2.48729,2.96148 5.21392,5.98631 6.00669,9.767 1.43805,-1.24888 3.69642,0.2662 4.49405,1.98384 0.79762,1.71764 1.26992,3.86266 2.84814,4.85977 2.42183,-0.36103 3.94925,2.40537 5.05837,4.59107 a 54.25,54.25 0 0 0 7.42584,10.30422 q 16.5784,19.55543 33.65213,38.68208 c 8.6749,-1.73583 18.64977,-4.0535 23.99581,-11.09342 0.99758,-1.30527 1.80403,-2.96193 1.32867,-4.54751 a 5.86,5.86 0 0 0 -1.51383,-2.11355 l -9.99718,-10.38551 c -2.42239,-2.50729 -4.89733,-5.11122 -6.1153,-8.37606 -0.90291,-2.43445 -1.24253,-5.40295 -3.43401,-6.79504 -0.75043,-0.47975 -1.63924,-0.69071 -2.43205,-1.10188 -3.15689,-1.61831 -4.10748,-5.56359 -5.66312,-8.7586 a 8.24,8.24 0 0 0 -1.27772,-2.01431 11.88,11.88 0 0 0 -2.24851,-1.74811 39.92,39.92 0 0 1 -13.35439,-15.34406 4.91,4.91 0 0 0 -1.54497,-2.108 8.38,8.38 0 0 1 -1.07747,-0.6206 2.9,2.9 0 0 1 -0.72812,-1.77822 17.5,17.5 0 0 1 -4.13908,-1.16377 4.31,4.31 0 0 0 -2.57032,-6.27445 2.25,2.25 0 0 0 -0.90912,-3.91092 c -0.59291,-0.0646 -1.23558,0.11424 -1.78672,-0.16655 -0.82795,-0.39205 -0.93356,-1.50711 -0.92449,-2.41133 l 0.0353,-4.81162 c 0.033,-3.58098 -1.47347,-7.167 -1.26414,-10.69589 0.26631,-5.11941 -0.52326,-10.2337 -1.30651,-15.29452 l -2.96067,-19.52875 5.85722,1.28794 a 14.32,14.32 0 0 1 5.29377,1.94729 18.3,18.3 0 0 1 3.49018,3.88448 c 6.27449,8.06181 16.01995,12.71036 22.82892,20.31072 1.51274,1.69296 2.9287,3.56378 4.9474,4.61727 a 14,14 0 0 1 1.95088,1.03347 9.76,9.76 0 0 1 1.90532,2.43565 14.23,14.23 0 0 0 10.14437,6.09357 c 2.69002,0.27856 5.62507,-0.12256 7.84429,1.4252 a 9.32,9.32 0 0 0 1.89619,1.39333 c 1.56988,0.62599 3.68839,-0.35552 4.8713,0.8566 0.6632,0.67518 0.76233,1.86205 1.59259,2.32115 a 2.65,2.65 0 0 0 1.37168,0.19877 l 7.27168,-0.25547 c 8.13444,-0.28076 15.39676,5.28581 23.02394,8.0699 a 39,39 0 0 1 7.40064,3.35125 c 4.02092,2.53714 7.45023,6.60271 12.15522,7.04889 a 11.06,11.06 0 0 1 3.503,0.49661 c 1.85456,0.83543 2.54386,3.04456 3.6152,4.78408 1.07135,1.73952 3.60281,3.12882 5.0108,1.65724 a 14.23,14.23 0 0 0 3.6074,6.63244 38,38 0 0 0 15.79482,-19.22298 c 0.87594,-2.36608 1.4706,-5.10281 0.28411,-7.32611 a 2.26,2.26 0 0 0 -0.84322,-0.9643 3.57,3.57 0 0 0 -1.82171,-0.27273 c -6.92662,0.0109 -12.18939,-5.83504 -17.86221,-9.81871 -4.98143,-3.52872 -10.73295,-5.77344 -16.09026,-8.65377 -11.59203,-6.15995 -22.26252,-15.43931 -35.33625,-16.55872 -2.87681,-0.24527 -6.01022,-0.14606 -8.32978,-1.8783 -1.29094,-0.97122 -2.16393,-2.40882 -3.35577,-3.49086 -1.19185,-1.08204 -3.01465,-1.77536 -4.43776,-1.00132 -0.26054,-2.36265 -1.69917,-4.63095 -2.78363,-6.75037 a 9.17,9.17 0 0 0 -1.81177,-2.5776 15.23,15.23 0 0 0 -2.89551,-1.95399 29.74,29.74 0 0 1 -11.26411,-12.08695 c -1.31056,-2.577 -2.28639,-5.43851 -4.36939,-7.4474 -1.05067,-1.01083 -2.33389,-1.75858 -3.43974,-2.6825 a 25,25 0 0 1 -4.69114,-6.00883 l -5.11875,-8.1554 a 47.28,47.28 0 0 0 -5.62841,-7.75297 c -5.32133,-5.59778 -22.00954,-32.094302 -29.7089,-31.913572 -7.69937,0.18072 -6.54783,26.931592 -13.09626,31.028322 a 34.29,34.29 0 0 0 -7.86252,6.47345 c -3.58917,4.13778 -5.65605,9.33724 -7.66453,14.41386 l -6.76607,17.23778 c -1.45524,3.60321 -2.50623,6.86135 -4.58259,9.9714 z"
     id="path45"
     inkscape:connector-curvature="0"
     style="fill:#464353" />
  <path
     d="M 660.34876,69.16125 654.41447,58.25068 A 34.48,34.48 0 0 0 607.6551,44.44445 l -430.87988,234.3565 a 34.48,34.48 0 0 0 -13.81979,46.75537 l 10.94163,20.11693 z"
     id="path55"
     inkscape:connector-curvature="0"
     style="fill:#33323d" />
  <path
     d="m 285.60654,239.69096 c 0,0 -1.4,86.86 14,115.44 15.4,28.58 22,152.91 22,152.91 0,0 161.44,16.7 273.94,-20 112.5,-36.7 351.88002,-51.71 351.88002,-51.71 l -40.34002,-271.89 c 0,0 -199.29,-12.78 -312.66,41.29 -113.37,54.07 -308.82,33.96 -308.82,33.96 z"
     id="path57"
     inkscape:connector-curvature="0"
     style="fill:#8dd070" />
  <path
     d="m 285.60654,239.69096 c 0,0 -1.4,86.86 14,115.44 15.4,28.58 22,152.91 22,152.91 0,0 161.44,16.7 273.94,-20 112.5,-36.7 351.88002,-51.71 351.88002,-51.71 l -40.34002,-271.89 c 0,0 -199.29,-12.78 -312.66,41.29 -113.37,54.07 -308.82,33.96 -308.82,33.96 z"
     id="path59"
     inkscape:connector-curvature="0"
     style="opacity:0.1" />
  <path
     d="m 321.33654,271.42096 c 0,0 -5.05,71.67 7.62,94.57 12.67,22.9 13.26,125.13 13.26,125.13 0,0 145.29,6.74 248.64,-28.44 103.35,-35.18 320.53,-58 320.53,-58 l -24.68,-222.35 c 0,0 -179.7,-1.85 -284.58,47.67 -104.88,49.52 -280.79,41.42 -280.79,41.42 z"
     id="path61"
     inkscape:connector-curvature="0"
     style="fill:#8dd070" />
  <ellipse
     cx="473.46423"
     cy="532.3548"
     rx="37.720001"
     ry="80.900002"
     transform="rotate(-35.641866)"
     id="ellipse63"
     style="opacity:0.1" />
  <path
     d="m 797.82654,31.990967 c 0,0 -193.61,49 -284.91,135.249993 -91.3,86.25 -283.5,127.09 -283.5,127.09 0,0 25.32,83.09 48.74,105.57 23.42,22.48 67.84,138.8 67.84,138.8 0,0 158.77,-33.66 254.57,-103.14 95.8,-69.48 319.07,-157.23 319.07,-157.23 z"
     id="path65"
     inkscape:connector-curvature="0"
     style="opacity:0.2" />
  <path
     d="m 226.50654,281.89096 c 0,0 25.31,83.1 48.71,105.58 23.4,22.48 67.84,138.79 67.84,138.79 0,0 158.79,-33.65 254.6,-103.13 95.81,-69.48 319.06,-157.2 319.06,-157.2 l -121.81,-246.369993 c 0,0 -193.6,49 -284.9,135.249993 -91.3,86.25 -283.5,127.08 -283.5,127.08 z"
     id="path67"
     inkscape:connector-curvature="0"
     style="fill:#8dd070" />
  <path
     d="m 226.50654,281.89096 c 0,0 25.31,83.1 48.71,105.58 23.4,22.48 67.84,138.79 67.84,138.79 0,0 158.79,-33.65 254.6,-103.13 95.81,-69.48 319.06,-157.2 319.06,-157.2 l -121.81,-246.369993 c 0,0 -193.6,49 -284.9,135.249993 -91.3,86.25 -283.5,127.08 -283.5,127.08 z"
     id="path69"
     inkscape:connector-curvature="0"
     style="opacity:0.1" />
  <path
     d="m 275.7601,295.5874 c 0,0 17.19,69.77 36.28,87.67 19.09,17.9 51,115 51,115 0,0 140.34,-38.18 227.91,-103.38 87.57,-65.2 287.29,-153.47 287.29,-153.47 l -91.71,-204.119989 c 0,0 -171.59,53.37 -256.22,132.689989 -84.63,79.32 -254.55,125.61 -254.55,125.61 z"
     id="path71"
     inkscape:connector-curvature="0"
     style="fill:#8dd070" />
  <ellipse
     cx="-450.78534"
     cy="552.06012"
     rx="37.720001"
     ry="80.900002"
     transform="rotate(-113.27378)"
     id="ellipse73"
     style="opacity:0.1" />
  <path
     d="m 681.49977,80.93511 164.84127,303.07153 a 29.83,29.83 0 0 1 -11.9607,40.46228 L 383.72615,669.58072 A 29.83,29.83 0 0 1 343.27743,657.62403 L 161.81824,323.99937 c 15.52227,-2.22724 15.52227,-2.22724 28.58492,-9.85568 L 641.05737,69.031899 a 29.84,29.84 0 0 1 40.4424,11.903211 z"
     id="path75"
     inkscape:connector-curvature="0"
     style="opacity:0.1" />
  <path
     d="m 681.49977,80.93511 164.84124,303.07153 a 29.84,29.84 0 0 1 -11.9607,40.46228 L 383.72615,669.58072 A 29.83,29.83 0 0 1 343.27743,657.62403 L 161.81347,323.99059 c 15.5175,-2.23602 15.5175,-2.23602 28.58493,-9.85568 L 641.0526,69.02312 a 29.84,29.84 0 0 1 40.44717,11.91199 z"
     id="path77"
     inkscape:connector-curvature="0"
     style="fill:#574f60;fill-opacity:1" />
  <path
     d="m 723.79786,160.32988 52.71576,96.9214 -93.9961,51.12469 a 55.17,55.17 0 0 1 -52.71576,-96.9214 z"
     id="path79"
     inkscape:connector-curvature="0"
     style="opacity:0.1" />
  <path
     d="m 723.7883,160.31231 52.72532,96.93897 -93.9961,51.12468 a 55.17,55.17 0 0 1 -52.71576,-96.9214 z"
     id="path81"
     inkscape:connector-curvature="0"
     style="fill:#33323d" />
  <circle
     cx="476.14951"
     cy="541.04083"
     r="21.51"
     id="circle83"
     style="opacity:0.1"
     transform="rotate(-28.541866)" />
  <circle
     cx="477.90842"
     cy="541.43866"
     r="21.51"
     id="circle85"
     style="fill:#368bff"
     transform="rotate(-28.541866)" />
  <path
     d="m 802.28703,233.49394 20.95534,-15.30217 c 0,0 -5.6944,20.02438 -20.95534,15.30217 z"
     id="path123"
     inkscape:connector-curvature="0"
     style="opacity:0.05" />
  <path
     d="m 742.85981,91.919851 c 0,0 -10.42999,25.821599 -18.00198,28.266649 -7.57199,2.44506 18.00198,-28.266649 18.00198,-28.266649 z"
     id="path127"
     inkscape:connector-curvature="0"
     style="opacity:0.1" />
  <path
     d="m 778.24721,114.65684 c 0,0 -12.57274,11.06161 -9.86882,17.05848 2.70393,5.99688 9.86882,-17.05848 9.86882,-17.05848 z"
     id="path129"
     inkscape:connector-curvature="0"
     style="opacity:0.1" />
  <path
     d="m 792.39306,221.89227 -6.767,4.63677 -1.6069,-1.04982 v 0 a 7.19,7.19 0 0 1 7.1991,-5.60034 z"
     id="path159"
     inkscape:connector-curvature="0"
     style="opacity:0.1" />
  <path
     d="m 779.42109,55.22921 -8.2626,7.32852 -0.9665,-1.29565 a 9.52,9.52 0 0 1 7.4007,-8.05502 z"
     id="path177"
     inkscape:connector-curvature="0"
     style="opacity:0.1" />
  <path
     d="m 826.39003,184.20988 c 0.613,1.94328 -13.86409,11.76397 -13.86409,11.76397 l 3.51632,-11.95274 v 0 l 0.23149,-0.0348 v 0 a 34.86,34.86 0 0 1 10.11628,0.22361 z"
     id="path187"
     inkscape:connector-curvature="0"
     style="opacity:0.1" />
  <path
     d="m 553.92713,207.59438 c -0.2547,0.13856 10.896,0.90371 14.4915,2.13547 0,0 -9.7895,-5.14821 -14.4915,-2.13547 z"
     id="path215"
     inkscape:connector-curvature="0"
     style="opacity:0.1" />
</svg>
