<?xml version="1.0" standalone="no"?><!DOCTYPE svg PUBLIC "-//W3C//DTD SVG 1.1//EN" "http://www.w3.org/Graphics/SVG/1.1/DTD/svg11.dtd"><svg class="icon" width="32px" height="32.00px" viewBox="0 0 1024 1024" version="1.1" xmlns="http://www.w3.org/2000/svg"><path d="M295.2 338c120.2 61 221.7 57.4 221.7 57.4s-38.5-134.8 80.5-194.6 200.9 41 200.9 41 20.8-5.7 36.2-11.4c15.5-5.7 37.8-15.9 37.8-15.9l-36.7 65.8 56.5-6s-7 10.2-29.6 31-31.9 31.6-31.9 31.6 8.1 162.3-77 287.2C668.5 749 558.6 824 398.9 839.8c-159.7 15.8-263.7-49.2-263.7-49.2s69.8-4 114.3-21.1S358 707.4 358 707.4s-91-28.1-123.7-59.8c-32.7-31.6-40.8-50.4-40.8-50.4l89.8-1.2s-94.5-50.4-121.3-90.3-30.3-78.5-30.3-78.5l69.1 28s-57.4-78.4-65.6-139.4c-8.2-61 10.5-93.8 10.5-93.8s29.3 55 149.5 116z" fill="#5DD7FC" /></svg>