<svg xmlns="http://www.w3.org/2000/svg" width="118" height="101" viewBox="0 0 118 101">
  <g id="Group_92" data-name="Group 92" transform="translate(5211 -2832)">
    <path id="Rectangle_216" data-name="Rectangle 216" d="M16,0,0,16Z" transform="translate(-5160 2900)" fill="#9ca0a4"/>
    <rect id="Rectangle_216-2" data-name="Rectangle 216" width="16" height="16" transform="translate(-5177 2883)" fill="#9ca0a4"/>
    <rect id="Rectangle_216-3" data-name="Rectangle 216" width="16" height="16" transform="translate(-5177 2917)" fill="#9ca0a4"/>
    <rect id="Rectangle_216-4" data-name="Rectangle 216" width="16" height="16" transform="translate(-5160 2917)" fill="#9ca0a4"/>
    <rect id="Rectangle_216-5" data-name="Rectangle 216" width="16" height="16" transform="translate(-5143 2917)" fill="#9ca0a4"/>
    <rect id="Rectangle_216-6" data-name="Rectangle 216" width="16" height="16" transform="translate(-5143 2883)" fill="#9ca0a4"/>
    <rect id="Rectangle_216-7" data-name="Rectangle 216" width="16" height="16" transform="translate(-5143 2832)" fill="#9ca0a4"/>
    <rect id="Rectangle_216-8" data-name="Rectangle 216" width="16" height="16" transform="translate(-5126 2883)" fill="#9ca0a4"/>
    <rect id="Rectangle_216-9" data-name="Rectangle 216" width="16" height="16" transform="translate(-5177 2832)" fill="#9ca0a4"/>
    <rect id="Rectangle_216-10" data-name="Rectangle 216" width="16" height="16" transform="translate(-5160 2832)" fill="#9ca0a4"/>
    <rect id="Rectangle_216-11" data-name="Rectangle 216" width="16" height="16" transform="translate(-5194 2849)" fill="#9ca0a4"/>
    <rect id="Rectangle_216-12" data-name="Rectangle 216" width="16" height="16" transform="translate(-5211 2900)" fill="#9ca0a4"/>
    <rect id="Rectangle_216-13" data-name="Rectangle 216" width="16" height="16" transform="translate(-5194 2917)" fill="#9ca0a4"/>
    <rect id="Rectangle_216-14" data-name="Rectangle 216" width="16" height="16" transform="translate(-5109 2900)" fill="#9ca0a4"/>
    <rect id="Rectangle_216-15" data-name="Rectangle 216" width="16" height="16" transform="translate(-5126 2917)" fill="#9ca0a4"/>
    <rect id="Rectangle_216-16" data-name="Rectangle 216" width="16" height="16" transform="translate(-5194 2883)" fill="#9ca0a4"/>
    <rect id="Rectangle_216-17" data-name="Rectangle 216" width="16" height="16" transform="translate(-5211 2883)" fill="#9ca0a4"/>
    <rect id="Rectangle_216-18" data-name="Rectangle 216" width="16" height="16" transform="translate(-5109 2883)" fill="#9ca0a4"/>
    <rect id="Rectangle_216-19" data-name="Rectangle 216" width="16" height="16" transform="translate(-5160 2883)" fill="#9ca0a4"/>
    <rect id="Rectangle_216-20" data-name="Rectangle 216" width="16" height="16" rx="5" transform="translate(-5177 2917)" fill="#9ca0a4"/>
    <rect id="Rectangle_216-21" data-name="Rectangle 216" width="16" height="16" transform="translate(-5211 2917)" fill="#9ca0a4"/>
    <rect id="Rectangle_216-22" data-name="Rectangle 216" width="16" height="16" transform="translate(-5126 2917)" fill="#9ca0a4"/>
    <rect id="Rectangle_216-23" data-name="Rectangle 216" width="16" height="16" transform="translate(-5109 2917)" fill="#9ca0a4"/>
    <rect id="Rectangle_216-24" data-name="Rectangle 216" width="16" height="16" transform="translate(-5126 2849)" fill="#9ca0a4"/>
    <rect id="Rectangle_216-25" data-name="Rectangle 216" width="16" height="16" transform="translate(-5194 2866)" fill="#9ca0a4"/>
    <rect id="Rectangle_216-26" data-name="Rectangle 216" width="16" height="16" transform="translate(-5126 2866)" fill="#9ca0a4"/>
  </g>
</svg>
