<svg xmlns="http://www.w3.org/2000/svg" id="prefix__user2" width="24.409" height="22.72" viewBox="0 0 24.409 22.72">
    <path id="prefix__user2-2" d="M23.912 20.454a12.15 12.15 0 0 0-7.5-6.812 11.428 11.428 0 0 0 1.776-6.621 5.736 5.736 0 0 0-5.9-6 5.739 5.739 0 0 0-6 5.9 11.438 11.438 0 0 0 1.66 6.651 12.146 12.146 0 0 0-7.622 6.68l-.418.949.959.394a33.479 33.479 0 0 0 11.224 2.145 33.488 33.488 0 0 0 11.261-1.948l.965-.376-.4-.958zM12.263 3.039A3.784 3.784 0 0 1 16.162 7c-.027 3.029-.85 5.332-2.256 6.32a3.922 3.922 0 0 1-1.741.513 3.8 3.8 0 0 1-1.714-.542c-1.39-1.013-2.172-3.33-2.145-6.359a3.781 3.781 0 0 1 3.958-3.892zm-.158 18.676a32.2 32.2 0 0 1-9.443-1.625 10.631 10.631 0 0 1 7.391-4.99 11.937 11.937 0 0 1 2.112-.2 11.866 11.866 0 0 1 2.1.236 10.644 10.644 0 0 1 7.306 5.119 32.029 32.029 0 0 1-9.471 1.46z" data-name="user2" transform="translate(.095 -1.018)" style="fill:#afb1cb"/>
</svg>
