<svg xmlns="http://www.w3.org/2000/svg" width="18.127" height="14.688" viewBox="0 0 18.127 14.688">
    <g id="prefix__bubble">
        <path id="prefix__users" fill="#368aff" d="M12.095 12.782s-4.872 0-6.7 4.264a20.149 20.149 0 0 0 6.7 1.218 20.149 20.149 0 0 0 6.7-1.218c-1.829-4.264-6.7-4.264-6.7-4.264zm0-.608c1.827 0 3.045-1.827 3.045-4.873a2.982 2.982 0 0 0-3.045-3.045A2.982 2.982 0 0 0 9.05 7.3c0 3.047 1.218 4.875 3.045 4.875zM6.184 10.1a2.014 2.014 0 0 0 1.525-.7 8.759 8.759 0 0 1-.235-2.1 2.8 2.8 0 0 1 1-2.331 2.622 2.622 0 0 0-2.29-1.393 2.456 2.456 0 0 0-2.508 2.508c0 2.508 1 4.012 2.508 4.012zm2.364 1.965l-.085-.991a7.13 7.13 0 0 0-2.279-.474s-4.012 0-5.517 3.511a16.687 16.687 0 0 0 4.449.962 18.2 18.2 0 0 1 3.432-3.008z" transform="translate(-.667 -3.576)"/>
    </g>
</svg>
