<svg xmlns="http://www.w3.org/2000/svg" xmlns:xlink="http://www.w3.org/1999/xlink" id="Component_164_1" width="168.253" height="190.071" viewBox="0 0 168.253 190.071">
    <defs>
        <linearGradient id="linear-gradient" x1=".5" x2=".5" y1="1" gradientUnits="objectBoundingBox">
            <stop offset="0" stop-color="gray" stop-opacity=".251"/>
            <stop offset=".54" stop-color="gray" stop-opacity=".122"/>
            <stop offset="1" stop-color="gray" stop-opacity=".102"/>
        </linearGradient>
        <linearGradient id="linear-gradient-2" x1=".5" x2=".5" y1="1" y2="0" xlink:href="#linear-gradient"/>
        <linearGradient id="linear-gradient-3" x1="-.001" x2="1" y1=".5" y2=".5" xlink:href="#linear-gradient"/>
        <style>
            .cls-1{opacity:.2}.cls-2{fill:#3f3d56}.cls-3{fill:#368bff}.cls-4{opacity:.1}.cls-7{fill:#e5e7eb}.cls-8{fill:#fff}.cls-10{opacity:.4}.cls-11{fill:#d6d8e0}.cls-15{fill:#a0616a}.cls-17{fill:#f86d70}
        </style>
    </defs>
    <g id="Group_13459" class="cls-1" transform="translate(119.163 98.747)">
        <path id="Path_21958" d="M747.433 750.194a5.76 5.76 0 0 1-.522.8q-2.6-1.829-5.291-3.591l.116-.23a5.08 5.08 0 0 1 1.8-1.96 3.006 3.006 0 0 1 3.024-.247 3.04 3.04 0 0 1 1.485 2.641 5.1 5.1 0 0 1-.612 2.587z" class="cls-2" transform="translate(-741.62 -675.466)"/>
        <ellipse id="Ellipse_2427" cx="4.219" cy="3.222" class="cls-2" rx="4.219" ry="3.222" transform="rotate(-62.09 59.18 34.992)"/>
        <ellipse id="Ellipse_2428" cx="4.219" cy="3.222" class="cls-2" rx="4.219" ry="3.222" transform="rotate(-62.09 56.602 30.709)"/>
        <ellipse id="Ellipse_2429" cx="4.219" cy="3.222" class="cls-2" rx="4.219" ry="3.222" transform="rotate(-62.09 54.024 26.425)"/>
        <ellipse id="Ellipse_2430" cx="4.219" cy="3.222" class="cls-2" rx="4.219" ry="3.222" transform="rotate(-62.09 51.447 22.144)"/>
        <path id="Path_21959" d="M761.223 483.211a15.272 15.272 0 0 1-.247-2.123l8.147 2.742L761 479.6a15.455 15.455 0 0 1 5.464-10.946l7.872 11.384-6.112-12.66a15.435 15.435 0 1 1 14.442 27.194 15.443 15.443 0 0 1 .247 3.314l-12.373-.1 12.2 2.009a15.435 15.435 0 0 1-8.981 11.631 15.435 15.435 0 1 1-21.443-11.356 15.44 15.44 0 0 1 8.934-16.865z" class="cls-3" transform="translate(-742.755 -465.029)"/>
        <path id="Path_21960" d="M781.057 608.244a15.378 15.378 0 0 1-7.384 6.887 15.435 15.435 0 1 1-21.443-11.356c-.599-3.289 29.639 2.937 28.827 4.469z" class="cls-4" transform="translate(-742.695 -568.728)"/>
    </g>
    <g id="Group_13460" class="cls-1" transform="translate(0 .303)">
        <path id="Path_21961" d="M476.073 658.738a10.709 10.709 0 0 0 .591 1.745q5.719-2.19 11.569-4.207c-.035-.158-.069-.322-.109-.495a9.782 9.782 0 0 0-2.433-4.509 5.391 5.391 0 0 0-9.537 2.319 9.788 9.788 0 0 0-.081 5.147z" class="cls-2" transform="translate(-422.395 -505.196)"/>
        <ellipse id="Ellipse_2431" cx="6.204" cy="8.119" class="cls-2" rx="6.204" ry="8.119" transform="rotate(-13.72 589.916 -137.338)"/>
        <ellipse id="Ellipse_2432" cx="6.204" cy="8.119" class="cls-2" rx="6.204" ry="8.119" transform="rotate(-13.72 548.665 -132.368)"/>
        <ellipse id="Ellipse_2433" cx="6.204" cy="8.119" class="cls-2" rx="6.204" ry="8.119" transform="rotate(-13.72 507.415 -127.405)"/>
        <ellipse id="Ellipse_2434" cx="6.204" cy="8.119" class="cls-2" rx="6.204" ry="8.119" transform="rotate(-13.72 466.178 -122.445)"/>
        <path id="Path_21962" d="M316.834 109.236a29.358 29.358 0 0 0 1.438-3.851L301.8 106.65l17.164-4.061a29.775 29.775 0 0 0-5.031-23.015L293.862 97.11l17.387-20.745a29.714 29.714 0 1 0-39.8 43.938 29.532 29.532 0 0 0-2.007 6.068l23.161 5.662-23.703-2.009a29.731 29.731 0 0 0 11.27 25.984 29.714 29.714 0 1 0 45.378-11.074 29.716 29.716 0 0 0-8.713-35.7z" class="cls-3" transform="translate(-260.093 -67.221)"/>
        <path id="Path_21963" d="M298.636 355.687a29.575 29.575 0 0 0 10.532 16.333 29.714 29.714 0 1 0 45.378-11.074c2.671-5.846-56.702-8.499-55.91-5.259z" class="cls-4" transform="translate(-289.092 -283.248)"/>
    </g>
    <path id="Path_21964" fill="url(#linear-gradient)" d="M536.619 107.639h-.552V77.878A11.972 11.972 0 0 0 524 66h-67.59a11.975 11.975 0 0 0-12.067 11.878v12.337h-.161a.705.705 0 0 0-.71.7v5.939a.705.705 0 0 0 .71.7h.173v6.065h-.218a.7.7 0 0 0-.708.7v11.356a.705.705 0 0 0 .708.7h.218v4.454h-.188a.7.7 0 0 0-.71.7v11.461a.7.7 0 0 0 .71.7h.188v104.028a11.972 11.972 0 0 0 12.067 11.882H524a11.975 11.975 0 0 0 12.067-11.878V129.9h.554a.705.705 0 0 0 .71-.7v-20.863a.705.705 0 0 0-.71-.7z" transform="translate(-398.06 -66)"/>
    <g id="Group_13461" opacity="0.9" transform="translate(46.706 1.237)">
        <rect id="Rectangle_5593" width="2.665" height="21.98" class="cls-7" rx="1.333" transform="translate(88.68 41.132)"/>
        <rect id="Rectangle_5594" width="1.497" height="7.236" class="cls-7" rx=".749" transform="translate(.054 23.913)"/>
        <rect id="Rectangle_5595" width="1.688" height="12.594" class="cls-7" rx=".844" transform="translate(0 37.16)"/>
        <rect id="Rectangle_5596" width="1.606" height="12.703" class="cls-7" rx=".803" transform="translate(.027 54.161)"/>
        <rect id="Rectangle_5597" width="83.217" height="177.322" class="cls-8" rx="7" transform="translate(3.901 2)"/>
        <rect id="Rectangle_5598" width="12.46" height="2.529" class="cls-7" rx="1.265" transform="translate(36.905 5.415)"/>
        <circle id="Ellipse_2435" cx="1.435" cy="1.435" r="1.435" class="cls-7" transform="translate(51.246 5.244)"/>
    </g>
    <path id="Path_21965" fill="#ececf3" d="M545.852 90.09h-10.213v1.237a5.835 5.835 0 0 1-5.839 5.833h-32.558a5.835 5.835 0 0 1-5.835-5.833V90.09h-9.582a7.085 7.085 0 0 0-7.085 7.085v157.707a7.085 7.085 0 0 0 7.085 7.085h64.027a7.085 7.085 0 0 0 7.085-7.085V97.175a7.085 7.085 0 0 0-7.085-7.085z" transform="translate(-421.622 -84.128)"/>
    <ellipse id="Ellipse_2436" cx="14.153" cy="2.393" class="cls-3" rx="14.153" ry="2.393" transform="translate(7.418 184.074)"/>
    <path id="Path_21966" d="M331.078 783.818a4.143 4.143 0 0 0 1.349-2.037 1.814 1.814 0 0 0-.943-2.074 2.645 2.645 0 0 0-2.492.874 3.334 3.334 0 0 1-2.425 1.171 3.687 3.687 0 0 0 1.141-3.465 1.428 1.428 0 0 0-.317-.7c-.48-.515-1.351-.294-1.928.111-1.829 1.287-2.341 3.774-2.351 6.013a11.325 11.325 0 0 1-.035-2.475 2.551 2.551 0 0 0-.928-2.193 2.819 2.819 0 0 0-1.42-.332 2.939 2.939 0 0 0-2.3.653 2.287 2.287 0 0 0 .089 2.826 8.89 8.89 0 0 0 2.382 1.91 5.277 5.277 0 0 1 1.7 1.623 1.461 1.461 0 0 1 .126.29h5.155a14.455 14.455 0 0 0 3.197-2.195z" class="cls-3" transform="translate(-303.654 -601.266)"/>
    <g id="Group_13462" class="cls-10" transform="translate(145.335 167.335)">
        <ellipse id="Ellipse_2437" cx="8.077" cy="1.366" class="cls-3" rx="8.077" ry="1.366" transform="translate(0 4.602)"/>
        <path id="Path_21967" d="M870.779 745.918a2.361 2.361 0 0 0 .772-1.161 1.037 1.037 0 0 0-.539-1.185 1.522 1.522 0 0 0-1.423.495c-.4.341-.859.742-1.383.668a2.1 2.1 0 0 0 .651-1.98.807.807 0 0 0-.181-.4c-.275-.294-.772-.168-1.1.062a4.118 4.118 0 0 0-1.344 3.432 6.571 6.571 0 0 1-.017-1.413 1.464 1.464 0 0 0-.532-1.252 1.613 1.613 0 0 0-.809-.188 1.686 1.686 0 0 0-1.314.371 1.307 1.307 0 0 0 .052 1.614 5.05 5.05 0 0 0 1.361 1.089 3.041 3.041 0 0 1 .97.926.844.844 0 0 1 .072.166h2.945a8.168 8.168 0 0 0 1.819-1.244z" class="cls-3" transform="translate(-859.363 -742.185)"/>
    </g>
    <g id="Group_13463" class="cls-10" transform="translate(21.621 151.983)">
        <ellipse id="Ellipse_2438" cx="8.077" cy="1.366" class="cls-3" rx="8.077" ry="1.366" transform="translate(0 4.602)"/>
        <path id="Path_21968" d="M370.869 683.887a2.334 2.334 0 0 0 .77-1.163 1.032 1.032 0 0 0-.539-1.183 1.516 1.516 0 0 0-1.42.495 1.916 1.916 0 0 1-1.383.668 2.113 2.113 0 0 0 .651-1.98.837.837 0 0 0-.181-.4c-.275-.292-.772-.166-1.1.064a4.1 4.1 0 0 0-1.341 3.43 6.412 6.412 0 0 1-.02-1.413 1.418 1.418 0 0 0-.53-1.237 1.6 1.6 0 0 0-.812-.191 1.672 1.672 0 0 0-1.312.374 1.307 1.307 0 0 0 .052 1.613 5.122 5.122 0 0 0 1.359 1.089 2.992 2.992 0 0 1 .97.926 1.016 1.016 0 0 1 .074.166h2.942a8.24 8.24 0 0 0 1.821-1.257z" class="cls-3" transform="translate(-359.451 -680.153)"/>
    </g>
    <path id="Rectangle_5599" d="M0 0H12.643V12.643H0z" class="cls-11" transform="translate(59.117 19.056)"/>
    <path id="Rectangle_5600" d="M0 0H26.489V2.408H0z" class="cls-11" transform="translate(81.089 19.959)"/>
    <path id="Rectangle_5601" d="M0 0H43.646V2.408H0z" class="cls-11" transform="translate(81.089 24.173)"/>
    <path id="Rectangle_5602" d="M0 0H43.646V2.408H0z" class="cls-11" transform="translate(81.089 28.388)"/>
    <path id="Rectangle_5603" d="M0 0H12.643V12.643H0z" class="cls-11" transform="translate(59.213 42.233)"/>
    <path id="Rectangle_5604" d="M0 0H26.489V2.408H0z" class="cls-11" transform="translate(81.186 43.137)"/>
    <path id="Rectangle_5605" d="M0 0H43.646V2.408H0z" class="cls-11" transform="translate(81.186 47.351)"/>
    <path id="Rectangle_5606" d="M0 0H43.646V2.408H0z" class="cls-11" transform="translate(81.186 51.563)"/>
    <path id="Rectangle_5607" d="M0 0H12.643V12.643H0z" class="cls-11" transform="translate(59.31 65.411)"/>
    <path id="Rectangle_5608" d="M0 0H26.489V2.408H0z" class="cls-11" transform="translate(81.285 66.312)"/>
    <path id="Rectangle_5609" d="M0 0H43.646V2.408H0z" class="cls-11" transform="translate(81.285 70.526)"/>
    <path id="Rectangle_5610" d="M0 0H43.646V2.408H0z" class="cls-11" transform="translate(81.285 74.74)"/>
    <path id="Rectangle_5611" d="M0 0H12.643V12.643H0z" class="cls-11" transform="translate(59.406 88.587)"/>
    <path id="Rectangle_5612" d="M0 0H26.489V2.408H0z" class="cls-11" transform="translate(81.381 89.489)"/>
    <path id="Rectangle_5613" d="M0 0H43.646V2.408H0z" class="cls-11" transform="translate(81.381 93.704)"/>
    <path id="Rectangle_5614" d="M0 0H43.646V2.408H0z" class="cls-11" transform="translate(81.381 97.919)"/>
    <path id="Rectangle_5615" d="M0 0H12.643V12.643H0z" class="cls-11" transform="translate(59.505 111.765)"/>
    <path id="Rectangle_5616" d="M0 0H26.489V2.408H0z" class="cls-11" transform="translate(81.478 112.668)"/>
    <path id="Rectangle_5617" d="M0 0H43.646V2.408H0z" class="cls-11" transform="translate(81.478 116.882)"/>
    <path id="Rectangle_5618" d="M0 0H43.646V2.408H0z" class="cls-11" transform="translate(81.478 121.097)"/>
    <path id="Rectangle_5619" d="M0 0H12.643V12.643H0z" class="cls-11" transform="translate(59.602 134.942)"/>
    <path id="Rectangle_5620" d="M0 0H26.489V2.408H0z" class="cls-11" transform="translate(81.575 135.846)"/>
    <path id="Rectangle_5621" d="M0 0H43.646V2.408H0z" class="cls-11" transform="translate(81.575 140.06)"/>
    <path id="Rectangle_5622" d="M0 0H43.646V2.408H0z" class="cls-11" transform="translate(81.575 144.274)"/>
    <path id="Rectangle_5623" d="M0 0H12.643V12.643H0z" class="cls-11" transform="translate(59.698 158.12)"/>
    <path id="Rectangle_5624" d="M0 0H26.489V2.408H0z" class="cls-11" transform="translate(81.671 159.023)"/>
    <path id="Rectangle_5625" d="M0 0H43.646V2.408H0z" class="cls-11" transform="translate(81.671 163.237)"/>
    <path id="Rectangle_5626" d="M0 0H43.646V2.408H0z" class="cls-11" transform="translate(81.671 167.452)"/>
    <path id="Rectangle_5627" fill="url(#linear-gradient-2)" d="M0 0H107.76V26.788H0z" transform="translate(38.337 57.178)"/>
    <path id="Rectangle_5628" d="M0 0H106.857V25.586H0z" class="cls-8" transform="translate(38.938 57.781)"/>
    <path id="Rectangle_5629" d="M0 0H12.643V12.643H0z" class="cls-3" transform="translate(59.557 64.253)"/>
    <g id="Group_13464" opacity="0.5" transform="translate(81.533 65.156)">
        <path id="Rectangle_5630" d="M0 0H26.489V2.408H0z" class="cls-3"/>
        <path id="Rectangle_5631" d="M0 0H43.646V2.408H0z" class="cls-3" transform="translate(0 4.214)"/>
        <path id="Rectangle_5632" d="M0 0H43.646V2.408H0z" class="cls-3" transform="translate(0 8.429)"/>
    </g>
    <path id="Path_21969" fill="url(#linear-gradient-3)" d="M454.955 386.363a2.2 2.2 0 0 0-2.6-.4 3.82 3.82 0 0 0-1.292 1.75 13.547 13.547 0 0 0-1.349 2.984c-.572 2.947-2.918 5.236-3.858 8.085a16.062 16.062 0 0 1-1.027 3.036 9.663 9.663 0 0 1-.841 1.158 32.611 32.611 0 0 0-3.217 4.907 3.948 3.948 0 0 0-1.465.911 5.056 5.056 0 0 1-1.98.938 1.868 1.868 0 0 0-.812.3c-.341.285-.389.8-.666 1.141a1.777 1.777 0 0 1-.742.495c0-.087-.012-.173-.015-.262-.012-.458-.02-.918-.02-1.378a5.182 5.182 0 0 0-.015-6.726 10.15 10.15 0 0 1 .285-2.126.944.944 0 0 0-.2-.975c-.136-.106-.312-.146-.458-.247a1.994 1.994 0 0 1-.495-.629 2.673 2.673 0 0 0-3.361-.859c-.893.47-1.435 1.411-2.227 2.049-.406.327-.874.572-1.279.9a5.313 5.313 0 0 0-1.656 2.692 15.422 15.422 0 0 0-.45 3.177 2.868 2.868 0 0 0 .037.965 2.548 2.548 0 0 0 .364.742 8.32 8.32 0 0 0 3.076 2.933 1.2 1.2 0 0 1 0 .191 1.368 1.368 0 0 1-.054.294l-.144-.04a5.681 5.681 0 0 1-1.576-.369c-.812-.455-1.057-1.566-1.834-2.076a1.4 1.4 0 0 0-.208-.111 13.889 13.889 0 0 0-.8-4.125 5.14 5.14 0 0 1-.473-1.955 4.806 4.806 0 0 1 .6-1.769 44.981 44.981 0 0 0 2.227-6.1q.616-1.948 1.237-3.9a6.143 6.143 0 0 0 1.086-1.034 5.516 5.516 0 0 0 1.26-2.7 3.831 3.831 0 0 0-.7-2.861 1.653 1.653 0 0 0-1.163-.713 1.512 1.512 0 0 0-1.086.495 4.83 4.83 0 0 0-.93 1.6 7.136 7.136 0 0 0-.777 2.992c.032.861.354 1.824-.148 2.524a60.381 60.381 0 0 0-4.192 7.441 13.31 13.31 0 0 0-.846 1.866 10.4 10.4 0 0 0-.443 3.217 43.14 43.14 0 0 0 .544 6.1 7.836 7.836 0 0 0 .72 2.673 11.207 11.207 0 0 0-.443 3.009 1.715 1.715 0 0 0 .109.69 2.851 2.851 0 0 0 .547.688 3.081 3.081 0 0 1 .742 2.435 6.908 6.908 0 0 0 .22 2.44c.495 2.2.99 4.393 1.386 6.607a4.226 4.226 0 0 1 .094 1.257 7.417 7.417 0 0 0-.337 1.769 6.691 6.691 0 0 1 .158.846 2.091 2.091 0 0 1-.148.634c-.564 1.641-2.081 5.4-2.064 7.139l.4-.094c-.4 2.254-1.331 4.41-1.821 6.657a22.271 22.271 0 0 0-.46 4.979 18.472 18.472 0 0 1-.04 2.252c-.077.666-.247 1.317-.342 1.98a17.938 17.938 0 0 0-.119 2.68 27.365 27.365 0 0 0 .247 4.207c.379 2.376-.285 4.737-.465 7.135a42.883 42.883 0 0 1-.569 5c-.136.7-.307 1.391-.4 2.1-.277 2.094.126 4.251-.309 6.318-.205.968-.572 2.054-.032 2.881.171.26.416.463.6.713a.906.906 0 0 1 .173.874c-.106.228-.354.376-.416.619-.1.381.3.693.656.856l.1.04a.918.918 0 0 0 .193.742 1.574 1.574 0 0 0 .76.4l4.672 1.415a6.235 6.235 0 0 0 3.217.371.809.809 0 0 0 .186.4 1.574 1.574 0 0 0 .76.4l4.638 1.406a5.415 5.415 0 0 0 3.648.228 2.071 2.071 0 0 0 .836-.631 2.207 2.207 0 0 0 .3-1.849 1.507 1.507 0 0 0-.45-.827 1.98 1.98 0 0 0-1.079-.354 2.18 2.18 0 0 1-.945-.247.68.68 0 0 1-.215-.225q.4-.4.777-.822c-.2-.069-.275-.361-.294-.574-.294-3.153.893-6.234 1.344-9.367a20.043 20.043 0 0 0 .119-4.746c-.054-.6-.136-1.19-.161-1.789-.116-3.118 1.373-6.117 1.321-9.238-.025-1.46.742-2.9 1.116-4.313a15.615 15.615 0 0 0 .344-3.861l.059-10.211a12.775 12.775 0 0 0-.44-4.1 5.2 5.2 0 0 1-.178-2.242c1.26-.557 2.452-1.381 3.8-1.237.359-.953-.067-4.128-.4-5.09a21.891 21.891 0 0 1-.742-11.789c.3-1.408-.114-2.905.225-4.308a2.6 2.6 0 0 1 .369-.926.99.99 0 0 1 .849-.448c0-.859-.017-1.732-.074-2.6a6.187 6.187 0 0 0 1.378-1.586 24.459 24.459 0 0 0 1.678-3.977c.908-2.376 2.148-4.605 3.19-6.929s1.143-4.865 1.98-7.271a5.464 5.464 0 0 1 2.66-3.064 4.244 4.244 0 0 0 1.381-.831 2.227 2.227 0 0 0 .48-1.18 3.12 3.12 0 0 0-.8-2.633zM426 488.6c.1-.111.2-.223.294-.344-.312-.049-.693-.277-.7-.594a3.286 3.286 0 0 1 .2-.928 3.712 3.712 0 0 0 .069-1.648c-.069-.384-.2-.742-.277-1.133a10.587 10.587 0 0 1-.148-1.282 21.2 21.2 0 0 0-.9-4.544c-.448-1.433.166-2.883.324-4.375a8.626 8.626 0 0 1 .29-2.1c.146-.4.386-.742.532-1.143a5.233 5.233 0 0 0-.069-2.9c1.465-2.655 1.95-5.823 2.5-8.812l.93-5.031a4.9 4.9 0 0 1 .742-2.123 26.09 26.09 0 0 1 .564 6.766 10.046 10.046 0 0 0 .025 1.98c.114.72.413 1.4.587 2.108a25.7 25.7 0 0 1 .247 4.808c.032.648.116 1.3.144 1.945.121 2.868-.839 5.657-1.787 8.367a31.055 31.055 0 0 0-.99 5.288c-.262 1.665-.522 3.333-.656 5.014-.04.512-.072 1.039-.134 1.559a4.073 4.073 0 0 0-.483-.077 2.18 2.18 0 0 1-.945-.247 1.1 1.1 0 0 1-.359-.554z" transform="translate(-378.219 -305.802)"/>
    <path id="Path_21970" d="M467.136 814.421a2.007 2.007 0 0 1 1.079.351 1.5 1.5 0 0 1 .45.822 2.188 2.188 0 0 1-.3 1.839 2.054 2.054 0 0 1-.836.624 5.4 5.4 0 0 1-3.648-.223l-4.672-1.408a1.569 1.569 0 0 1-.76-.394 1.029 1.029 0 0 1-.02-1.2 2.344 2.344 0 0 1 .99-.789 11.125 11.125 0 0 1 4.7-.9c.594-.012 1.178-.141 1.581.317.213.247.176.51.495.72a2.144 2.144 0 0 0 .935.243z" class="cls-2" transform="translate(-409.212 -628.228)"/>
    <path id="Path_21971" d="M431.466 804.039a1.98 1.98 0 0 1 1.079.349 1.527 1.527 0 0 1 .45.822 2.185 2.185 0 0 1-.3 1.839 2.059 2.059 0 0 1-.836.626 5.4 5.4 0 0 1-3.648-.225l-4.672-1.408a1.549 1.549 0 0 1-.76-.393 1.029 1.029 0 0 1-.02-1.2 2.329 2.329 0 0 1 .99-.789 11.1 11.1 0 0 1 4.69-.9c.591 0 1.178-.141 1.581.317.213.247.176.512.495.72a2.18 2.18 0 0 0 .948.245z" class="cls-2" transform="translate(-382.369 -620.418)"/>
    <path id="Path_21972" d="M431.3 600.431a57.535 57.535 0 0 0-8.285-.233 1.627 1.627 0 0 0-.537.084c-.609.247-.7 1.044-.762 1.7-.233 2.64-1.4 5.1-1.98 7.694a21.967 21.967 0 0 0-.46 4.949 18.19 18.19 0 0 1-.04 2.227c-.077.663-.247 1.309-.342 1.98a17.7 17.7 0 0 0-.119 2.663 27.014 27.014 0 0 0 .247 4.175c.379 2.361-.285 4.7-.465 7.088a42.4 42.4 0 0 1-.569 4.972c-.136.693-.307 1.381-.4 2.081-.277 2.081.126 4.227-.309 6.278-.205.96-.572 2.039-.032 2.861.171.26.416.46.6.708a.9.9 0 0 1 .173.869c-.106.225-.354.374-.416.614-.1.379.3.69.656.851a6.837 6.837 0 0 0 7.959-1.967c-.312-.05-.693-.275-.7-.589a3.25 3.25 0 0 1 .2-.923 3.663 3.663 0 0 0 .069-1.638c-.069-.379-.2-.742-.277-1.126a10.429 10.429 0 0 1-.148-1.272 20.94 20.94 0 0 0-.9-4.514c-.448-1.423.166-2.863.324-4.348a8.52 8.52 0 0 1 .29-2.089c.146-.393.386-.742.532-1.136a5.163 5.163 0 0 0-.069-2.878c1.465-2.64 1.95-5.786 2.5-8.755l.931-5a4.829 4.829 0 0 1 .742-2.108 25.758 25.758 0 0 1 .564 6.724 9.9 9.9 0 0 0 .025 1.953c.114.715.413 1.391.586 2.1a25.349 25.349 0 0 1 .247 4.776c.032.643.116 1.287.144 1.933.121 2.848-.839 5.62-1.787 8.31a30.7 30.7 0 0 0-.99 5.254c-.262 1.656-.522 3.311-.656 4.982-.121 1.534-.173 3.195-1.128 4.4a8.1 8.1 0 0 0 2.794 1.339 5.182 5.182 0 0 0 3.447-.666 10.89 10.89 0 0 0 2.722-2.316c-.2-.069-.275-.361-.294-.572-.294-3.13.893-6.187 1.344-9.3a19.8 19.8 0 0 0 .119-4.717c-.054-.591-.136-1.18-.161-1.774-.116-3.1 1.373-6.08 1.322-9.179-.025-1.45.742-2.883 1.116-4.286a15.375 15.375 0 0 0 .344-3.833l.059-10.146a12.624 12.624 0 0 0-.44-4.073c-.544-1.557.077-3.348.171-4.994a20.6 20.6 0 0 1-7.961.867z" class="cls-2" transform="translate(-378.143 -467.513)"/>
    <path id="Path_21973" d="M510.037 414.923a32.352 32.352 0 0 1 3.789-5.984 9.764 9.764 0 0 0 .841-1.148 15.874 15.874 0 0 0 1.027-3.017c.94-2.831 3.286-5.105 3.858-8.033a13.6 13.6 0 0 1 1.349-2.97 3.746 3.746 0 0 1 1.292-1.732 2.2 2.2 0 0 1 2.6.4 3.083 3.083 0 0 1 .794 2.611 2.181 2.181 0 0 1-.48 1.173 4.3 4.3 0 0 1-1.381.829 5.419 5.419 0 0 0-2.66 3.041c-.827 2.391-.93 4.92-1.98 7.224s-2.282 4.519-3.19 6.877a23.7 23.7 0 0 1-1.678 3.96 4.874 4.874 0 0 1-3.356 2.46 8.429 8.429 0 0 0-.416-2.633c-.297-.987-.859-2.147-.409-3.058z" class="cls-15" transform="translate(-448.057 -311.154)"/>
    <path id="Path_21974" d="M432.963 413.614a13.721 13.721 0 0 0-.8-5.142 5.092 5.092 0 0 1-.473-1.943 4.748 4.748 0 0 1 .6-1.757 44.494 44.494 0 0 0 2.227-6.058l1.237-3.87a6.187 6.187 0 0 0 1.086-1.027 5.479 5.479 0 0 0 1.26-2.687 3.791 3.791 0 0 0-.7-2.843 1.643 1.643 0 0 0-1.163-.705 1.5 1.5 0 0 0-1.086.495 4.785 4.785 0 0 0-.93 1.589 7.049 7.049 0 0 0-.777 2.97c.032.856.354 1.811-.148 2.507a59.948 59.948 0 0 0-4.192 7.392 13.169 13.169 0 0 0-.846 1.854 10.274 10.274 0 0 0-.443 3.2 42.592 42.592 0 0 0 .544 6.058 5.413 5.413 0 0 0 1.359 3.465 20.253 20.253 0 0 1 3.245-3.498z" class="cls-15" transform="translate(-386.306 -307.999)"/>
    <circle id="Ellipse_2439" cx="5.135" cy="5.135" r="5.135" class="cls-15" transform="translate(47.82 96.313)"/>
    <path id="Path_21975" d="M456.874 487.755a6.851 6.851 0 0 1-1.106 2.561c-.294.495-.666 1.022-1.237 1.076a24.746 24.746 0 0 0 4.662 1.876 5.3 5.3 0 0 0 1.705.275 4.165 4.165 0 0 0 1.418-.364 7.041 7.041 0 0 0 3.994-4.7 9.269 9.269 0 0 1-1.906-.146 1.406 1.406 0 0 1-.935-.458 1.507 1.507 0 0 1-.193-.829q-.037-1.284 0-2.569a10.147 10.147 0 0 0-3.732.458c-.495.161-.99.356-1.5.483-.312.077-1.171 0-1.4.181-.344.273.321 1.525.23 2.156z" class="cls-15" transform="translate(-406.413 -380.9)"/>
    <path id="Path_21976" d="M441.537 488.041a3.229 3.229 0 0 0-2.455-2.866 5.678 5.678 0 0 1-1.576-.366c-.812-.453-1.057-1.557-1.834-2.064a2.168 2.168 0 0 0-2.564.418 5.523 5.523 0 0 0-1.3 2.445 12.312 12.312 0 0 0-.666 3.749 1.7 1.7 0 0 0 .109.688 2.888 2.888 0 0 0 .547.685 3.039 3.039 0 0 1 .742 2.415 6.839 6.839 0 0 0 .22 2.428c.495 2.18.99 4.363 1.386 6.563a4.177 4.177 0 0 1 .094 1.237 7.321 7.321 0 0 0-.337 1.755 6.663 6.663 0 0 1 .158.844 2.046 2.046 0 0 1-.148.626c-.564 1.633-2.081 5.37-2.064 7.095a42.921 42.921 0 0 1 9.24-.836 19.412 19.412 0 0 1 2.245.1c1.789.191 3.62.713 5.355.23 1.609-.448 3.036-1.732 4.7-1.569.359-.948-.067-4.1-.4-5.058a21.614 21.614 0 0 1-.742-11.713c.3-1.4-.114-2.885.225-4.279a2.564 2.564 0 0 1 .369-.921.99.99 0 0 1 .849-.445 31.527 31.527 0 0 0-.619-6.664c-.166-.78-.51-1.7-1.294-1.834-.708-.119-1.3.478-1.871.918a5.112 5.112 0 0 1-1.98.93 1.863 1.863 0 0 0-.812.294c-.341.282-.389.792-.666 1.136-.495.616-1.6.562-1.953 1.272a4.453 4.453 0 0 0-.188.651 2.381 2.381 0 0 1-.814 1.052 4.593 4.593 0 0 1-1.956 1.084z" class="cls-3" transform="translate(-388.813 -378.065)"/>
    <path id="Path_21977" fill="#2d293d" d="M460.057 444.858a.939.939 0 0 0-.2-.97c-.136-.106-.312-.146-.458-.247a1.979 1.979 0 0 1-.495-.626 2.687 2.687 0 0 0-3.368-.849c-.893.468-1.435 1.4-2.227 2.037-.406.327-.874.569-1.279.893a5.281 5.281 0 0 0-1.656 2.678 15.238 15.238 0 0 0-.448 3.16 2.838 2.838 0 0 0 .037.96 2.522 2.522 0 0 0 .364.73 8.234 8.234 0 0 0 3.242 3 5.028 5.028 0 0 0 4.321.077.77.77 0 0 0 .332-.267.93.93 0 0 0 .049-.572 3.922 3.922 0 0 1 .433-2.188c.247-.495.616-.921.817-1.435a5.1 5.1 0 0 0 .233-1.777 19.044 19.044 0 0 1 .303-4.604z" transform="translate(-402.93 -348.869)"/>
    <path id="Rectangle_5633" d="M0 0H12.643V12.643H0z" class="cls-3" transform="translate(59.505 64.403)"/>
    <path id="Path_21978" d="M522.009 360.509a1.66 1.66 0 0 1-.856.777 2.126 2.126 0 0 1-.681.129 1.921 1.921 0 0 1-.742-.092 1.705 1.705 0 0 1-.784-.626 3.96 3.96 0 0 1-.455-.911 1.01 1.01 0 0 1-.092-.515.742.742 0 0 0 .495-.28.626.626 0 0 0 .012-.495c-.015-.049-.03-.1-.047-.141-.037-.109-.166-.314-.077-.406s.3-.089.379-.126a3.572 3.572 0 0 1 .77-.344 1.871 1.871 0 0 1 .73.047.248.248 0 0 1 .092.035.213.213 0 0 1 .067.1c.069.168.109.354.163.527a1.088 1.088 0 0 0 .272.483 1.367 1.367 0 0 0 .379.228l.332.151a.472.472 0 0 1 .156.1.412.412 0 0 1 .074.2 1.9 1.9 0 0 1-.187 1.159z" class="cls-15" transform="translate(-454.474 -285.336)"/>
    <path id="Path_21979" d="M522.056 358.218a1.72 1.72 0 0 1-2.076.309c-.015-.049-.03-.1-.047-.141-.037-.109-.166-.314-.077-.406s.3-.089.379-.126a3.57 3.57 0 0 1 .77-.344 1.871 1.871 0 0 1 .73.047.248.248 0 0 1 .092.035.213.213 0 0 1 .067.1c.068.175.106.353.162.526z" class="cls-4" transform="translate(-455.55 -285.358)"/>
    <circle id="Ellipse_2440" cx="1.717" cy="1.717" r="1.717" class="cls-15" transform="translate(63.551 69.878)"/>
    <path id="Path_21980" d="M518.122 366.754h-8.082c-.247-.552-.47-1.106-.72-1.658a1.151 1.151 0 0 1 .146-.371.4.4 0 0 1 .332-.186c.072 0 .153.027.205-.025s.035-.094.072-.129a.3.3 0 0 1 .2-.03.448.448 0 0 0 .381-.191.609.609 0 0 1 .1-.126.551.551 0 0 1 .208-.054c.2-.045.319-.247.47-.374a.282.282 0 0 1 .3-.082.184.184 0 0 1 .062.052.56.56 0 0 1 .082.205 1.836 1.836 0 0 0 .646 1.042 1.465 1.465 0 0 0 2.212-.552 2.881 2.881 0 0 0 .2-.938v-.037a.708.708 0 0 1 .589.116 3.321 3.321 0 0 0 .525.329c.22.087.495.087.646.247.064.064.109.153.191.193a.569.569 0 0 0 .158.037.938.938 0 0 1 .621.544 4.238 4.238 0 0 1 .346 1.252z" class="cls-17" transform="translate(-447.645 -289.709)"/>
    <path id="Path_21981" d="M515.025 343.08a1.3 1.3 0 0 0-.3.346 1.7 1.7 0 0 1-.6.589.742.742 0 0 0-.275.171.458.458 0 0 0-.072.193 3.622 3.622 0 0 0-.077.73.78.78 0 0 0 .059.361c.049.1.144.193.161.307a.9.9 0 0 1-.03.267.233.233 0 0 0 .092.247.629.629 0 0 0 .139.032c.247.054.332.346.369.586.084 0 .121-.1.141-.181l.247-1.151c.03-.124.074-.27.2-.312a.626.626 0 0 1 .262 0c.341.03.629-.235.963-.309a1.313 1.313 0 0 1 .327-.02c.262 0 .569.121.626.366a.123.123 0 0 0 .052.109.208.208 0 0 0 .116 0c.166-.017.265.171.314.324l.173.562c.027.084.072.186.163.2a.173.173 0 0 0 .171-.151.685.685 0 0 0-.035-.247 2.678 2.678 0 0 1 .121-1.111 1.217 1.217 0 0 0-.168-1.076c-.094-.1-.218-.178-.3-.287s-.126-.225-.21-.327a2.161 2.161 0 0 0-1.2-.525 2.46 2.46 0 0 0-1.429.307z" class="cls-2" transform="translate(-450.941 -274.271)"/>
    <g id="Group_13465" opacity="0.1" transform="translate(62.762 70.162)">
        <path id="Path_21982" d="M518.683 352.021c-.092 0-.136-.111-.163-.2l-.173-.562c-.049-.153-.148-.342-.314-.327a.208.208 0 0 1-.116 0c-.037-.02-.042-.067-.052-.109-.057-.247-.364-.354-.626-.366a1.206 1.206 0 0 0-.327.022c-.334.072-.621.337-.963.307a.723.723 0 0 0-.262 0c-.126.045-.171.188-.2.314-.087.384-.171.767-.247 1.148-.02.079-.057.176-.141.181-.037-.247-.121-.532-.369-.586a.515.515 0 0 1-.139-.032.156.156 0 0 1-.072-.082.8.8 0 0 1-.02.106.233.233 0 0 0 .092.247.629.629 0 0 0 .139.032c.247.054.332.346.369.587.084 0 .121-.1.141-.181.087-.384.171-.767.247-1.151.03-.124.074-.27.2-.312a.626.626 0 0 1 .262 0c.341.03.629-.235.963-.309a1.311 1.311 0 0 1 .327-.02c.262 0 .569.121.626.366a.123.123 0 0 0 .052.109.208.208 0 0 0 .116 0c.166-.017.265.171.314.324l.173.562c.027.084.072.186.163.2a.173.173 0 0 0 .171-.151.5.5 0 0 0-.025-.2.153.153 0 0 1-.146.083z" transform="translate(-514.298 -350.226)"/>
        <path id="Path_21983" d="M513.931 352.28c-.017-.114-.111-.2-.161-.307a.628.628 0 0 1-.057-.223v.124a.779.779 0 0 0 .059.361c.04.084.109.158.144.247a.552.552 0 0 0 .015-.202z" transform="translate(-513.711 -351.198)"/>
        <path id="Path_21984" d="M532.04 349.807a3.216 3.216 0 0 0-.141.99 6.021 6.021 0 0 1 .141-.723 1.9 1.9 0 0 0 .042-.554 2.242 2.242 0 0 1-.042.287z" transform="translate(-527.398 -349.52)"/>
    </g>
    <path id="Path_21985" d="M508.978 371.654h-1.928a6.063 6.063 0 0 1 .453-1.5.344.344 0 0 1 .082-.131.119.119 0 0 1 .027-.022c.057-.045.136-.062.2-.1s.069-.087.126-.1a1.71 1.71 0 0 1 .629.1.627.627 0 0 1 .166.042.559.559 0 0 1 .262.322 3.037 3.037 0 0 1-.017 1.389z" class="cls-17" transform="translate(-445.936 -294.61)"/>
</svg>
