<?xml version="1.0" encoding="UTF-8" standalone="no"?>
<svg
   xmlns:dc="http://purl.org/dc/elements/1.1/"
   xmlns:cc="http://creativecommons.org/ns#"
   xmlns:rdf="http://www.w3.org/1999/02/22-rdf-syntax-ns#"
   xmlns:svg="http://www.w3.org/2000/svg"
   xmlns="http://www.w3.org/2000/svg"
   xmlns:sodipodi="http://sodipodi.sourceforge.net/DTD/sodipodi-0.dtd"
   xmlns:inkscape="http://www.inkscape.org/namespaces/inkscape"
   id="f921693e-33a8-40f4-b606-3710578972cc"
   data-name="Layer 1"
   width="859.39917"
   height="767.78379"
   viewBox="0 0 859.39917 767.78379"
   version="1.1"
   sodipodi:docname="art.svg"
   inkscape:version="0.92.4 (5da689c313, 2019-01-14)">
  <metadata
     id="metadata102">
    <rdf:RDF>
      <cc:Work
         rdf:about="">
        <dc:format>image/svg+xml</dc:format>
        <dc:type
           rdf:resource="http://purl.org/dc/dcmitype/StillImage" />
        <dc:title>Security on</dc:title>
      </cc:Work>
    </rdf:RDF>
  </metadata>
  <sodipodi:namedview
     pagecolor="#ffffff"
     bordercolor="#666666"
     borderopacity="1"
     objecttolerance="10"
     gridtolerance="10"
     guidetolerance="10"
     inkscape:pageopacity="0"
     inkscape:pageshadow="2"
     inkscape:window-width="1920"
     inkscape:window-height="1017"
     id="namedview100"
     showgrid="false"
     inkscape:zoom="0.70710678"
     inkscape:cx="413.51496"
     inkscape:cy="243.83612"
     inkscape:window-x="-8"
     inkscape:window-y="-8"
     inkscape:window-maximized="1"
     inkscape:current-layer="f921693e-33a8-40f4-b606-3710578972cc" />
  <defs
     id="defs9">
    <linearGradient
       id="b629f179-8ab2-4411-a7df-956765958247"
       x1="344.9209"
       y1="369.39721"
       x2="505.39917"
       y2="369.39721"
       gradientUnits="userSpaceOnUse">
      <stop
         offset="0"
         stop-color="gray"
         stop-opacity="0.25"
         id="stop2" />
      <stop
         offset="0.53514"
         stop-color="gray"
         stop-opacity="0.12"
         id="stop4" />
      <stop
         offset="1"
         stop-color="gray"
         stop-opacity="0.1"
         id="stop6" />
    </linearGradient>
  </defs>
  <title
     id="title11">Security on</title>
  <path
     d="m 435.89461,693.50191 c -197.26975,5e-5 -367.071493,11.02019 -405.543205,26.31858 -38.4712331,15.2982 65.10495,30.61232 247.353025,36.58197 182.24807,5.96967 392.42192,0.93263 502.01044,-12.03607 109.58994,-12.96887 88.06045,-30.25619 -51.43032,-41.28705 -77.37712,-6.15238 -182.66327,-9.6011 -292.38994,-9.57743 z m -62.26385,41.03152 c -226.25137,0 -348.057451,9.55979 -348.057451,-8.33211 0,-17.89191 159.552921,2.53773 385.804291,2.53773 226.2514,0 434.83833,-20.42964 434.83833,-2.53773 0,3.38205 -6.57717,6.64492 -18.77291,9.71282 -52.32278,13.16199 -270.32863,-1.38071 -453.81226,-1.38071 z"
     id="path1080"
     inkscape:connector-curvature="0"
     style="fill:#a066fe;fill-opacity:1;stroke-width:0.44712377"
     sodipodi:nodetypes="csssccssssss" />
  <path
     d="m 179.09234,46.806087 a 3.67459,3.67459 0 0 1 -2.04748,-4.441 1.766,1.766 0 0 0 0.0799,-0.40754 v 0 a 1.84257,1.84257 0 0 0 -3.31045,-1.22119 v 0 a 1.7661,1.7661 0 0 0 -0.2039,0.3618 3.67461,3.67461 0 0 1 -4.441,2.04749 1.766,1.766 0 0 0 -0.40754,-0.07991 v 0 a 1.84257,1.84257 0 0 0 -1.22119,3.31045 v 0 a 1.76564,1.76564 0 0 0 0.3618,0.2039 3.67459,3.67459 0 0 1 2.04748,4.441 1.76611,1.76611 0 0 0 -0.0799,0.40755 v 0 a 1.84257,1.84257 0 0 0 3.31045,1.22119 v 0 a 1.76637,1.76637 0 0 0 0.2039,-0.3618 3.67459,3.67459 0 0 1 4.441,-2.04749 1.766,1.766 0 0 0 0.40754,0.0799 v 0 a 1.84257,1.84257 0 0 0 1.22119,-3.31044 v 0 a 1.7661,1.7661 0 0 0 -0.3618,-0.20391 z"
     id="path23"
     inkscape:connector-curvature="0"
     style="opacity:0.5;fill:#4d8af0" />
  <path
     d="m 33.092343,371.80609 a 3.67459,3.67459 0 0 1 -2.04748,-4.441 1.766,1.766 0 0 0 0.0799,-0.40754 v 0 a 1.84257,1.84257 0 0 0 -3.31045,-1.22119 v 0 a 1.7661,1.7661 0 0 0 -0.2039,0.3618 3.67461,3.67461 0 0 1 -4.441,2.04749 1.766,1.766 0 0 0 -0.40754,-0.0799 v 0 a 1.84257,1.84257 0 0 0 -1.22119,3.31045 v 0 a 1.76564,1.76564 0 0 0 0.3618,0.2039 3.67459,3.67459 0 0 1 2.04748,4.441 1.76611,1.76611 0 0 0 -0.0799,0.40755 v 0 a 1.84257,1.84257 0 0 0 3.31045,1.22119 v 0 a 1.76637,1.76637 0 0 0 0.2039,-0.3618 3.67459,3.67459 0 0 1 4.441,-2.04749 1.766,1.766 0 0 0 0.40754,0.0799 v 0 a 1.84257,1.84257 0 0 0 1.22119,-3.31044 v 0 a 1.7661,1.7661 0 0 0 -0.3618,-0.20391 z"
     id="path25"
     inkscape:connector-curvature="0"
     style="opacity:0.5;fill:#4d8af0" />
  <circle
     cx="762.20184"
     cy="252.84978"
     r="6"
     id="circle27"
     style="opacity:0.5;fill:#f55f44" />
  <circle
     cx="136.61606"
     cy="629.52386"
     r="6"
     id="circle29"
     style="opacity:0.5;fill:#f55f44" />
  <circle
     cx="719.2738"
     cy="532.15912"
     r="6"
     id="circle31"
     style="opacity:0.5;fill:#f55f44" />
  <path
     d="m 718.09234,75.806087 a 3.67459,3.67459 0 0 1 -2.04748,-4.441 1.766,1.766 0 0 0 0.0799,-0.40754 v 0 a 1.84257,1.84257 0 0 0 -3.31045,-1.22119 v 0 a 1.7661,1.7661 0 0 0 -0.2039,0.3618 3.67461,3.67461 0 0 1 -4.441,2.04749 1.766,1.766 0 0 0 -0.40754,-0.07991 v 0 a 1.84257,1.84257 0 0 0 -1.22119,3.31045 v 0 a 1.76564,1.76564 0 0 0 0.3618,0.2039 3.67459,3.67459 0 0 1 2.04748,4.441 1.76611,1.76611 0 0 0 -0.0799,0.40755 v 0 a 1.84257,1.84257 0 0 0 3.31045,1.22119 v 0 a 1.76637,1.76637 0 0 0 0.2039,-0.3618 3.67459,3.67459 0 0 1 4.441,-2.04749 1.766,1.766 0 0 0 0.40754,0.0799 v 0 a 1.84257,1.84257 0 0 0 1.22119,-3.31044 v 0 a 1.7661,1.7661 0 0 0 -0.3618,-0.20391 z"
     id="path33"
     inkscape:connector-curvature="0"
     style="opacity:0.5;fill:#4d8af0" />
  <path
     d="m 818.09234,703.80609 a 3.67459,3.67459 0 0 1 -2.04748,-4.441 1.766,1.766 0 0 0 0.0799,-0.40754 v 0 a 1.84257,1.84257 0 0 0 -3.31045,-1.22119 v 0 a 1.7661,1.7661 0 0 0 -0.2039,0.3618 3.67461,3.67461 0 0 1 -4.441,2.04749 1.766,1.766 0 0 0 -0.40754,-0.0799 v 0 a 1.84257,1.84257 0 0 0 -1.22119,3.31045 v 0 a 1.76564,1.76564 0 0 0 0.3618,0.2039 3.67459,3.67459 0 0 1 2.04748,4.441 1.76611,1.76611 0 0 0 -0.0799,0.40755 v 0 a 1.84257,1.84257 0 0 0 3.31045,1.22119 v 0 a 1.76637,1.76637 0 0 0 0.2039,-0.3618 3.67459,3.67459 0 0 1 4.441,-2.04749 1.766,1.766 0 0 0 0.40754,0.0799 v 0 a 1.84257,1.84257 0 0 0 1.22119,-3.31044 v 0 a 1.7661,1.7661 0 0 0 -0.3618,-0.20391 z"
     id="path35"
     inkscape:connector-curvature="0"
     style="opacity:0.5;fill:#4d8af0" />
  <path
     d="m 26.092343,181.80609 a 3.67459,3.67459 0 0 1 -2.04748,-4.441 1.766,1.766 0 0 0 0.0799,-0.40754 v 0 a 1.84257,1.84257 0 0 0 -3.31045,-1.22119 v 0 a 1.7661,1.7661 0 0 0 -0.2039,0.3618 3.67461,3.67461 0 0 1 -4.441,2.04749 1.766,1.766 0 0 0 -0.40754,-0.0799 v 0 a 1.84257,1.84257 0 0 0 -1.22119,3.31045 v 0 a 1.76564,1.76564 0 0 0 0.3618,0.2039 3.67459,3.67459 0 0 1 2.04748,4.441 1.76611,1.76611 0 0 0 -0.0799,0.40755 v 0 a 1.84257,1.84257 0 0 0 3.31045,1.22119 v 0 a 1.76637,1.76637 0 0 0 0.2039,-0.3618 3.67459,3.67459 0 0 1 4.441,-2.04749 1.766,1.766 0 0 0 0.40754,0.0799 v 0 a 1.84257,1.84257 0 0 0 1.22119,-3.31044 v 0 a 1.7661,1.7661 0 0 0 -0.3618,-0.20391 z"
     id="path37"
     inkscape:connector-curvature="0"
     style="opacity:0.5;fill:#4d8af0" />
  <circle
     cx="93.201843"
     cy="282.84979"
     r="6"
     id="circle39"
     style="opacity:0.5;fill:#47e6b1" />
  <circle
     cx="801.63916"
     cy="399.86313"
     r="6"
     id="circle41"
     style="opacity:0.5;fill:#47e6b1" />
  <g
     id="g47"
     transform="translate(-187.01565,68.862742)"
     style="opacity:0.5">
    <rect
       x="583.39917"
       width="3"
       height="17"
       id="rect43"
       y="0"
       style="fill:#47e6b1" />
    <rect
       x="753.69958"
       y="66.108109"
       width="3"
       height="17"
       transform="rotate(90,703.10344,-43.596155)"
       id="rect45"
       style="fill:#47e6b1" />
  </g>
  <g
     id="g53"
     transform="translate(13.802673,-1.1502228)"
     style="opacity:0.5">
    <rect
       x="594.39917"
       y="666"
       width="3"
       height="17"
       id="rect49"
       style="fill:#47e6b1" />
    <rect
       x="764.69958"
       y="732.10809"
       width="3"
       height="17"
       transform="rotate(90,714.10344,622.40385)"
       id="rect51"
       style="fill:#47e6b1" />
  </g>
  <g
     id="g59"
     transform="translate(13.802673,-1.1502228)"
     style="opacity:0.5">
    <rect
       x="26.39917"
       y="702"
       width="3"
       height="17"
       id="rect55"
       style="fill:#47e6b1" />
    <rect
       x="196.69958"
       y="768.10809"
       width="3"
       height="17"
       transform="rotate(90,146.10343,658.40385)"
       id="rect57"
       style="fill:#47e6b1" />
  </g>
  <g
     id="g65"
     transform="translate(-623.42073,124.22406)"
     style="opacity:0.5">
    <rect
       x="709.39917"
       y="396"
       width="3"
       height="17"
       id="rect61"
       style="fill:#47e6b1" />
    <rect
       x="879.69958"
       y="462.10812"
       width="3"
       height="17"
       transform="rotate(90,829.10344,352.40385)"
       id="rect63"
       style="fill:#47e6b1" />
  </g>
  <polygon
     points="811.177,115.5 814.399,118.185 802.049,134.294 792.921,124.092 795.606,123.018 802.049,128.924 "
     id="polygon67"
     transform="translate(-441.57409,341.08946)"
     style="opacity:0.5;fill:#47e6b1" />
  <rect
     x="65.395706"
     style="fill:#378bfe;fill-opacity:1"
     y="109.6684"
     width="281.41977"
     height="281.41977"
     id="rect2371" />
  <path
     inkscape:connector-curvature="0"
     style="fill:#7625ff"
     d="m 346.81548,179.68426 v 6.4591 a 29.20519,29.20519 0 0 1 -10.03614,-11.3755 c -3.74665,-7.66268 -3.628,-16.49523 -3.50929,-25.03951 0.13566,-10.15483 0.27121,-19.73331 -6.17091,-25.972 -7.08634,-6.84908 -18.4279,-5.88275 -29.39644,-4.95025 -1.28845,0.10172 -2.57689,0.22029 -3.84837,0.322 -11.00248,0.83078 -23.25956,-1.94953 -29.21,-9.4597 h 7.42538 c 5.44195,3.6618 13.76593,4.95025 21.41164,4.3738 1.23764,-0.0848 2.50912,-0.20343 3.78059,-0.30514 11.545,-0.9832 24.63265,-2.10216 33.36349,6.35737 8.03571,7.7645 7.88308,18.91961 7.73056,29.70169 -0.11868,7.951 -0.22039,16.15626 3.00072,22.73392 a 23.24979,23.24979 0 0 0 5.45877,7.15422 z"
     id="path2373" />
  <path
     inkscape:connector-curvature="0"
     style="fill:#7625ff"
     d="m 346.81548,224.35536 v 7.56108 a 32.155,32.155 0 0 0 -4.13653,-4.45865 c -8.7477,-7.71359 -21.30993,-9.40889 -33.44824,-11.07025 -1.57661,-0.20354 -3.11939,-0.42383 -4.66207,-0.64423 -19.68251,-2.83122 -31.88859,-9.59545 -37.2966,-20.63187 -3.74665,-7.66268 -3.628,-16.49523 -3.50928,-25.03951 0.13565,-10.15483 0.2712,-19.73331 -6.17092,-25.972 -7.08634,-6.84908 -18.4279,-5.88275 -29.39644,-4.95025 -1.28844,0.10171 -2.57689,0.22029 -3.84836,0.322 -14.13885,1.068 -30.36288,-3.83129 -32.58372,-17.07158 -0.7628,-4.5435 0.373,-8.71387 2.05135,-12.73172 h 5.56064 c -1.8649,4.03482 -3.25505,7.934 -2.59386,11.88407 1.67833,10.10392 15.27467,13.73189 27.19257,12.83333 1.23764,-0.0848 2.50911,-0.20343 3.78059,-0.30514 11.545,-0.9832 24.63265,-2.10216 33.36349,6.35737 8.0357,7.7645 7.88308,18.9196 7.73056,29.70169 -0.11868,7.951 -0.2204,16.15625 3.00071,22.73392 4.61117,9.426 15.54587,15.2577 33.44824,17.83459 1.5257,0.2204 3.06849,0.44079 4.61116,0.64422 12.88434,1.74621 26.22634,3.56009 36.14381,12.29093 q 0.3815,0.33061 0.7629,0.712 z"
     id="path2375" />
  <path
     inkscape:connector-curvature="0"
     style="fill:#7625ff"
     d="m 346.81548,351.808 v 10.44311 c -6.12,-6.51 -11.23984,-15.44416 -15.156,-26.61623 -0.83068,-2.37336 -1.62753,-4.79773 -2.42427,-7.222 -4.39087,-13.27412 -8.93426,-26.98914 -19.75028,-35.75381 -11.562,-9.35809 -28.125,-11.42631 -44.14557,-13.42685 -2.05135,-0.25423 -4.1026,-0.50857 -6.137,-0.77977 -25.972,-3.44151 -42.06038,-11.62973 -49.19763,-25.02264 -4.95025,-9.30718 -4.79773,-20.02149 -4.64511,-30.37975 0.18646,-12.30789 0.373,-23.93762 -8.13742,-31.4987 -9.34112,-8.307 -24.31064,-7.13725 -38.7715,-6.00132 -1.71227,0.13555 -3.40757,0.2712 -5.06893,0.38988 -18.66526,1.28845 -40.07691,-4.6451 -42.99288,-20.69964 -1.441,-7.86612 2.23781,-14.83388 5.781,-21.58114 2.03438,-3.86533 3.96694,-7.5441 4.95025,-11.32459 2.06832,-7.78147 -0.4916,-16.54614 -6.17092,-22.66615 h 8.307 a 29.86869,29.86869 0 0 1 4.39077,24.12408 c -1.16966,4.42471 -3.33969,8.56125 -5.44185,12.56223 -3.23808,6.137 -6.27263,11.93488 -5.20458,17.86843 2.23781,12.24 20.15714,16.64785 35.8725,15.56284 1.64449,-0.11869 3.32283,-0.25434 5.00116,-0.37292 15.22386,-1.2037 32.482,-2.54295 44.01,7.71359 10.59562,9.4089 10.39219,22.93736 10.18877,36.00816 -0.13566,9.64626 -0.28828,19.59766 3.95,27.58256 6.08617,11.40933 20.53016,18.49567 44.14567,21.63194 2.00044,0.2713 4.03483,0.52554 6.0691,0.77987 17.02088,2.11913 34.60113,4.306 47.67193,14.90165 12.257,9.93454 17.08855,24.4971 21.73365,38.585 0.79685,2.4074 1.59359,4.78076 2.4074,7.13725 a 80.35091,80.35091 0 0 0 8.76474,18.05492 z"
     id="path2377" />
  <path
     inkscape:connector-curvature="0"
     style="fill:#7625ff"
     d="m 65.395713,223.30436 c 7.73057,9.358 24.12412,12.81647 38.822367,11.79929 1.66139,-0.11868 3.35669,-0.2543 5.06894,-0.38992 14.46091,-1.13585 29.43041,-2.30561 38.77151,6.00136 8.51041,7.561 8.32392,19.19079 8.13744,31.49867 -0.15258,10.35828 -0.30515,21.07258 4.64512,30.37977 7.13721,13.39287 23.22561,21.58117 49.1976,25.02263 2.03436,0.27125 4.08567,0.52554 6.137,0.77984 16.02058,2.00045 32.58366,4.06871 44.14561,13.42677 10.816,8.7647 15.35941,22.47968 19.75024,35.75387 0.79679,2.42428 1.59358,4.84856 2.42428,7.222 0.76288,2.18694 1.57663,4.27216 2.42428,6.28956 h 7.25588 c -1.27148,-2.76334 -2.35647,-5.52667 -3.28888,-8.17134 -0.81375,-2.35647 -1.61054,-4.72989 -2.40733,-7.13721 -4.64512,-14.08795 -9.47672,-28.65057 -21.73374,-38.585 -13.07076,-10.59562 -30.651,-12.78256 -47.67183,-14.90168 -2.03436,-0.2543 -4.06872,-0.50859 -6.06918,-0.77984 -23.61552,-3.13631 -38.05948,-10.22266 -44.1456,-21.632 -4.23825,-7.98486 -4.08568,-17.93627 -3.95,-27.58253 0.20343,-13.07076 0.40687,-26.59925 -10.18876,-36.00816 -11.528,-10.25657 -28.78619,-8.91728 -44.01,-7.71362 -1.67835,0.11867 -3.35669,0.2543 -5.00113,0.373 -15.715427,1.085 -33.634747,-3.32279 -35.872547,-15.56286 -1.068,-5.93355 1.96655,-11.73147 5.20457,-17.86846 2.10217,-4.0009 4.27216,-8.13744 5.44191,-12.56217 3.18717,-12.10444 -2.18693,-25.51426 -13.08771,-32.838 v 8.307 c 5.9505,6.137 8.663,15.10513 6.56081,23.073 -0.98327,3.78052 -2.91592,7.45932 -4.95028,11.32461 -0.54249,1.03413 -1.085,2.05131 -1.61053,3.1024 z"
     id="path2379" />
  <path
     inkscape:connector-curvature="0"
     style="fill:#7625ff"
     d="m 189.88156,391.08817 h -7.03543 c -0.373,-1.102 -0.72907,-2.22084 -1.102,-3.33979 -4.39088,-13.27412 -8.93427,-26.98915 -19.75029,-35.75382 -11.562,-9.35809 -28.125,-11.4263 -44.14557,-13.42685 -2.05135,-0.25423 -4.1026,-0.50857 -6.137,-0.77977 -22.920437,-3.03465 -38.161167,-9.78191 -46.315557,-20.53005 v -16.86826 a 31.99435,31.99435 0 0 0 3.13626,9.66323 c 6.08618,11.40934 20.53016,18.49568 44.145677,21.63194 2.00044,0.27131 4.03482,0.52554 6.0691,0.77988 17.02087,2.11912 34.60112,4.306 47.67192,14.90164 12.257,9.93454 17.08855,24.49711 21.73366,38.58505 0.57644,1.72923 1.13592,3.4415 1.72923,5.1368 z"
     id="path2381" />
  <rect
     style="fill:#378bfe;fill-opacity:1"
     x="446.83823"
     y="109.6684"
     width="281.41977"
     height="281.41977"
     id="rect2383" />
  <path
     inkscape:connector-curvature="0"
     style="fill:#7625ff"
     d="m 582.46216,130.012 a 89.85757,89.85757 0 0 1 -135.624,77.3226 v -97.66624 h 133.30145 a 89.3085,89.3085 0 0 1 2.32255,20.34364 z"
     id="path2385" />
  <circle
     style="fill:#7625ff"
     cx="655.36005"
     cy="185.95688"
     r="54.249592"
     id="circle2387" />
  <circle
     style="fill:#7625ff"
     cx="533.29846"
     cy="301.23727"
     r="38.991901"
     id="circle2389" />
  <path
     inkscape:connector-curvature="0"
     style="fill:#7625ff"
     d="m 728.25795,344.976 v 46.11217 H 672.46571 A 38.99494,38.99494 0 0 1 728.25799,344.976 Z"
     id="path2391" />
  <circle
     style="fill:#7625ff"
     cx="631.62585"
     cy="299.54196"
     r="10.1718"
     id="circle2393" />
  <circle
     style="fill:#f2f2f2"
     cx="203.32979"
     cy="109.88988"
     r="25.54335"
     id="circle2403" />
  <circle
     style="fill:#f2f2f2"
     cx="597.97443"
     cy="109.88988"
     r="25.54335"
     id="circle2405" />
  <circle
     style="fill:#ffb8b8"
     cx="571.79254"
     cy="234.4137"
     r="24.26618"
     id="circle2409" />
  <path
     inkscape:connector-curvature="0"
     style="fill:#ffb8b8"
     d="m 559.02086,245.9082 c 0,0 6.38584,33.20635 3.8315,39.59219 -2.55434,6.38584 35.76069,-2.55434 35.76069,-2.55434 0,0 -7.663,-33.20635 -6.38584,-40.86935 1.27716,-7.663 -33.20635,3.8315 -33.20635,3.8315 z"
     id="path2411" />
  <polygon
     style="fill:#ffb8b8"
     points="470.636,304.604 468.467,281.029 451.479,276.507 454.033,310.99 466.71,365.146 470.636,379.957 477.022,356.968 "
     id="polygon2413"
     transform="translate(65.395713,84.346538)" />
  <path
     inkscape:connector-curvature="0"
     style="fill:#ffb8b8"
     d="m 650.97691,355.74459 v 35.76068 c 0,0 -3.83151,45.978 -11.49451,57.47253 -7.663,11.49453 -10.21734,-45.978 -10.21734,-45.978 l 6.00472,-42.14652 z"
     id="path2415" />
  <path
     inkscape:connector-curvature="0"
     style="fill:#2f2e41"
     d="m 537.30902,466.85814 c 0,0 -6.38584,7.663 -1.27717,85.57021 5.10867,77.90721 -2.55433,134.10256 14.04886,134.10256 0,0 -5.10867,16.60318 8.94017,17.88034 14.04884,1.27716 20.43468,2.55434 21.71185,-1.27716 1.27717,-3.8315 3.8315,-21.71185 0,-21.71185 0,0 0,5.10867 2.55433,-15.326 2.55433,-20.43467 2.55434,-117.49939 8.94017,-130.27107 l 20.43466,47.25519 c 0,0 0,21.71185 3.8315,31.92918 3.8315,10.21733 10.21734,68.967 10.21734,68.967 l -1.27717,8.94017 c 0,0 30.652,5.10867 31.92918,0 1.27718,-5.10867 1.27717,-12.77167 0,-15.326 -1.27717,-2.55433 -1.27716,-2.55433 1.27717,-7.663 2.55433,-5.10867 2.55433,-8.94017 1.27717,-12.77168 -1.27716,-3.83151 -1.27717,-86.84737 -1.27717,-86.84737 0,0 -2.55433,-100.89622 -17.88034,-106.00488 -15.32601,-5.10866 -103.45055,2.55436 -103.45055,2.55436 z"
     id="path2417" />
  <path
     inkscape:connector-curvature="0"
     style="fill:#2f2e41"
     d="m 553.91219,694.19392 -10.21733,17.88034 c 0,0 -15.9646,-5.74726 -12.77168,8.94017 27.4591,1.91575 46.61661,-0.63859 46.61661,-0.63859 0,0 6.38583,2.55434 7.663,-1.27716 1.27717,-3.8315 -3.19292,-17.24176 -7.02442,-17.24176 -3.8315,0 -24.26618,-7.663 -24.26618,-7.663 z"
     id="path2419" />
  <path
     inkscape:connector-curvature="0"
     style="fill:#2f2e41"
     d="m 627.9879,689.08525 c 0,0 -10.21734,22.989 -6.38584,24.26617 3.8315,1.27717 38.315,6.38584 40.86935,7.663 2.55435,1.27716 15.326,2.55433 16.60318,-5.10867 1.27718,-7.663 -6.38584,-10.21734 -6.38584,-10.21734 0,0 -14.04884,-2.55433 -17.88034,-15.326 -3.8315,-12.77167 -26.82051,-1.27716 -26.82051,-1.27716 z"
     id="path2421" />
  <path
     inkscape:connector-curvature="0"
     style="fill:#a066fe;fill-opacity:1"
     d="m 601.16738,279.11455 c 0,0 -34.48351,-6.38584 -42.14652,0 -7.66301,6.38584 -39.59215,19.15751 -39.59215,25.54335 0,6.38584 16.60317,68.967 16.60317,68.967 0,0 -8.94017,94.51038 0,97.06471 8.94017,2.55433 24.26618,-5.10867 42.14652,3.8315 17.88034,8.94017 68.967,-7.663 68.967,-7.663 0,0 -19.1575,-81.73871 -14.04884,-97.06471 5.10866,-15.326 8.94015,-67.68984 8.94015,-67.68984 0,0 -21.71182,-22.98901 -40.86933,-22.98901 z"
     id="path2423" />
  <path
     inkscape:connector-curvature="0"
     style="fill:#a066fe;fill-opacity:1"
     d="m 528.36885,300.82636 -8.94017,2.55434 c 0,0 -19.15751,60.02686 -11.49451,62.5812 7.663,2.55434 29.37485,7.663 31.92918,7.663 2.55433,0 -11.4945,-72.79854 -11.4945,-72.79854 z"
     id="path2425" />
  <path
     inkscape:connector-curvature="0"
     style="fill:#a066fe;fill-opacity:1"
     d="m 621.60206,294.44056 20.43468,7.663 c 0,0 26.82051,49.80953 20.43467,56.19536 -6.38584,6.38583 -34.48351,12.77167 -34.48351,12.77167 z"
     id="path2427" />
  <path
     inkscape:connector-curvature="0"
     style="fill:#2f2e41"
     d="m 571.05547,204.44147 a 13.71573,13.71573 0 0 0 -6.07019,0.268 15.82759,15.82759 0 0 0 -4.31392,2.82985 50.4916,50.4916 0 0 1 -7.37585,4.88674 c -2.06956,1.12349 -4.29419,2.16336 -5.739,4.0229 a 12.21131,12.21131 0 0 0 -1.61977,3.06606 36.74031,36.74031 0 0 0 -1.93172,19.99594 9.191,9.191 0 0 0 0.85074,2.74569 c 1.3274,2.44565 4.2592,3.40946 6.72893,4.6915 4.689,2.43407 8.24343,6.5327 12.0893,10.15493 a 23.63371,23.63371 0 0 0 4.77654,3.68109 c 5.48669,2.99147 12.19306,2.01557 18.35208,0.95775 a 3.30733,3.30733 0 0 0 3.30082,-3.33887 l 4.86152,-21.86575 a 35.67314,35.67314 0 0 0 1.246,-9.94447 c -0.33919,-5.30791 -3.21279,-12.66061 -7.10829,-16.431 -4.53895,-4.39317 -12.1141,-5.09224 -18.04719,-5.72036 z"
     id="path2429" />
  <ellipse
     style="fill:#7625ff;stroke-width:0.51158845"
     cx="685.9978"
     cy="286.94336"
     id="circle2387-8"
     rx="26.626352"
     ry="28.928289" />
  <ellipse
     style="fill:#ffffff;stroke-width:0.719491"
     cx="366.79398"
     cy="631.85785"
     id="circle3978"
     rx="14.988095"
     ry="14.045311" />
  <path
     inkscape:connector-curvature="0"
     style="fill:#e6e6e6;stroke-width:0.719491"
     d="m 121.81172,528.14697 h -5.57435 a 0.73904722,0.69255951 0 0 0 -0.73905,0.69256 v 2.29286 a 0.73903978,0.69255255 0 0 0 0.73905,0.69255 h 0.92374 v 3.43546 h 3.72684 v -3.43546 h 0.92374 a 0.73904722,0.69255951 0 0 0 0.73905,-0.69255 v -2.29286 a 0.73905465,0.69256648 0 0 0 -0.73902,-0.69256 z"
     id="path3980" />
  <path
     inkscape:connector-curvature="0"
     d="m 120.64967,528.89407 a 1.5944615,1.4941663 0 0 1 -3.18892,0"
     style="opacity:0.2;isolation:isolate;stroke-width:0.719491"
     id="path3984" />
  <path
     inkscape:connector-curvature="0"
     style="fill:#ffffff;stroke-width:0.719491"
     d="m 304.71936,651.92753 h -21.69652 a 2.22751,2.0873946 0 0 0 -2.20162,2.40482 l 3.27865,19.97074 h 18.8265 l 3.98237,-19.90345 a 2.2275843,2.0874643 0 0 0 -2.18938,-2.47211 z"
     id="path3994" />
  <ellipse
     style="fill:#ffffff;stroke-width:0.719491"
     cx="237.71651"
     cy="640.95203"
     id="circle3998"
     rx="14.988095"
     ry="14.045311" />
  <polygon
     transform="matrix(0.74324656,0,0,0.69649471,-225.47944,209.79445)"
     style="fill:#3f3d56"
     points="571.879,684.845 515.578,418.694 467.529,418.694 467.529,406.752 525.258,406.752 581.559,672.902 837.751,672.902 837.751,684.845 "
     id="polygon4028" />
  <ellipse
     style="fill:#3f3d56;stroke-width:0.719491"
     cx="228.52605"
     cy="702.82684"
     id="circle4030"
     rx="19.020704"
     ry="17.824261" />
  <ellipse
     style="fill:#3f3d56;stroke-width:0.719491"
     cx="370.5473"
     cy="702.82684"
     id="circle4032"
     rx="19.020704"
     ry="17.824261" />
  <path
     inkscape:connector-curvature="0"
     style="fill:#3f3d56;stroke-width:0.719491"
     d="M 393.5732,682.86821 H 201.31135 L 167.3886,525.77255 h 258.01906 a 9.1162907,8.5428558 0 0 1 9.0051,9.86716 l -31.8357,140.01292 a 9.0703878,8.4998403 0 0 1 -9.00386,7.21558 z M 203.39917,680.49164 H 393.5732 a 6.5447913,6.1331095 0 0 0 6.49749,-5.20803 l 31.83569,-140.01292 a 6.5778361,6.1640757 0 0 0 -6.49872,-7.12158 H 170.46707 Z"
     id="path4034" />
  <polygon
     transform="matrix(0.74324656,0,0,0.69649471,-225.47944,209.79445)"
     style="fill:#3f3d56"
     points="594.623,455.653 597.989,455.097 627.879,677.943 624.513,678.499 "
     id="polygon4036" />
  <polygon
     transform="matrix(0.74324656,0,0,0.69649471,-225.47944,209.79445)"
     style="fill:#3f3d56"
     points="787.343,676.242 816.36,455.102 819.729,455.648 790.712,676.788 "
     id="polygon4038" />
  <rect
     style="fill:#3f3d56;stroke-width:0.719491"
     x="300.82452"
     y="526.96088"
     width="2.5360911"
     height="155.21089"
     id="rect4040" />
  <rect
     style="fill:#3f3d56;stroke-width:0.719491"
     x="-570.51672"
     y="181.81175"
     width="2.3765731"
     height="245.49106"
     transform="matrix(0.00258382,-0.99999666,0.99999743,0.00226899,0,0)"
     id="rect4042" />
  <rect
     style="fill:#3f3d56;stroke-width:0.71949118"
     x="188.14354"
     y="644.56934"
     width="215.6731"
     height="2.3766289"
     transform="matrix(0.99997948,-0.00640574,0.00729452,0.99997339,0,0)"
     id="rect4044" />
</svg>
