<svg xmlns="http://www.w3.org/2000/svg" width="21.334" height="21.335" viewBox="0 0 21.334 21.335">
  <g id="settings-line" transform="translate(-1.334 -1.333)">
    <path id="Path_227" data-name="Path 227" d="M12.067,7.333A4.667,4.667,0,1,0,16.734,12a4.639,4.639,0,0,0-4.667-4.667Zm0,8A3.333,3.333,0,1,1,15.4,12,3.3,3.3,0,0,1,12.067,15.333Z"/>
    <path id="Path_228" data-name="Path 228" d="M21.867,9.8,20,9.2l-.4-1,.933-1.733a1.122,1.122,0,0,0-.2-1.267l-1.6-1.6a1.122,1.122,0,0,0-1.267-.2l-1.733.933-1-.4-.6-1.867a1.084,1.084,0,0,0-1-.733H10.866a.933.933,0,0,0-.933.8L9.333,4a2.958,2.958,0,0,0-1.067.4L6.533,3.467a1.122,1.122,0,0,0-1.267.2l-1.6,1.6a1.122,1.122,0,0,0-.2,1.267L4.334,8.2c-.133.333-.267.733-.4,1.067l-1.867.6a1.083,1.083,0,0,0-.733,1v2.267a1.061,1.061,0,0,0,.8,1l1.867.6.4,1-.933,1.733a1.122,1.122,0,0,0,.2,1.267l1.6,1.6a1.122,1.122,0,0,0,1.267.2L8.268,19.6l1,.4.6,1.933a1.083,1.083,0,0,0,1,.733h2.267a1.083,1.083,0,0,0,1-.733l.6-1.933,1-.4,1.733.933a1.122,1.122,0,0,0,1.267-.2l1.6-1.6a1.122,1.122,0,0,0,.2-1.267L19.6,15.735l.4-1,1.933-.6a1.083,1.083,0,0,0,.733-1V10.868a1.141,1.141,0,0,0-.8-1.067Zm-.533,3.133-2.4.733L18.867,14l-.6,1.4-.2.333,1.2,2.2-1.333,1.333-2.2-1.2-.333.2a6.3,6.3,0,0,1-1.4.6l-.333.067-.733,2.4H11.068l-.733-2.4L10,18.865l-1.4-.6-.333-.2-2.2,1.2L4.736,17.932l1.2-2.2-.2-.333a6.3,6.3,0,0,1-.6-1.4l-.067-.333-2.4-.733V11.066L4.934,10.4l.133-.333a5.647,5.647,0,0,1,.6-1.467l.2-.333-1.133-2.2L6.067,4.733,8.2,5.933l.333-.2A5.633,5.633,0,0,1,10,5.133L10.333,5l.734-2.333h1.867L13.667,5,14,5.133a6.3,6.3,0,0,1,1.4.6l.333.2,2.2-1.2,1.333,1.333-1.2,2.2.2.333a6.3,6.3,0,0,1,.6,1.4l.067.333,2.4.733v1.867Z"/>
  </g>
</svg>
