<svg xmlns="http://www.w3.org/2000/svg" width="19.333" height="18.666" viewBox="0 0 19.333 18.666">
  <g id="sign-out-line" transform="translate(-3.334 -2.667)">
    <path id="Path_229" data-name="Path 229" d="M4.667,4H15.334v6.533h1.333V4a1.333,1.333,0,0,0-1.333-1.333H4.667A1.333,1.333,0,0,0,3.334,4V20a1.333,1.333,0,0,0,1.333,1.333H15.334A1.333,1.333,0,0,0,16.667,20h-12Z" fill="#fff"/>
    <path id="Path_230" data-name="Path 230" d="M18.773,11.52a.667.667,0,0,0-.94.94l2.254,2.207H10.42a.667.667,0,0,0,0,1.334h9.667l-2.253,2.307a.667.667,0,1,0,.94.94l3.893-3.867Z" fill="#fff"/>
  </g>
</svg>
