<?xml version="1.0" standalone="no"?><!DOCTYPE svg PUBLIC "-//W3C//DTD SVG 1.1//EN" "http://www.w3.org/Graphics/SVG/1.1/DTD/svg11.dtd"><svg class="icon" width="32px" height="32.00px" viewBox="0 0 1024 1024" version="1.1" xmlns="http://www.w3.org/2000/svg"><path d="M512 1024C229.376 1024 0 794.624 0 512S229.376 0 512 0s512 229.376 512 512-229.376 512-512 512z m0-975.36C257.024 48.64 48.64 257.024 48.64 512c0 254.976 207.872 463.36 463.36 463.36S975.36 767.488 975.36 512 766.976 48.64 512 48.64z" fill="#ffffff" /><path d="M548.864 512l195.072-195.072c9.728-9.728 9.728-25.6 0-36.864l-1.536-1.536c-9.728-9.728-25.6-9.728-35.328 0L512 475.136 316.928 280.064c-9.728-9.728-25.6-9.728-35.328 0l-1.536 1.536c-9.728 9.728-9.728 25.6 0 36.864L475.136 512 280.064 707.072c-9.728 9.728-9.728 25.6 0 36.864l1.536 1.536c9.728 9.728 25.6 9.728 35.328 0L512 548.864l195.072 195.072c9.728 9.728 25.6 9.728 35.328 0l1.536-1.536c9.728-9.728 9.728-25.6 0-36.864L548.864 512z" fill="#ffffff" /></svg>