<svg xmlns="http://www.w3.org/2000/svg" width="21.301" height="20.666" viewBox="0 0 21.301 20.666">
  <g id="chat-bubble-line" transform="translate(-1.333 -1.667)">
    <path id="Path_165" data-name="Path 165" d="M12,1.667C6.12,1.667,1.333,5.854,1.333,11S6.12,20.333,12,20.333a12,12,0,0,0,3.253-.453l3.687,2.347a.667.667,0,0,0,1.027-.56V17.18A8.667,8.667,0,0,0,22.634,11C22.667,5.853,17.88,1.667,12,1.667Zm6.86,14.74a.667.667,0,0,0-.213.487v3.56l-2.92-1.86a.667.667,0,0,0-.553-.073A10.667,10.667,0,0,1,12,19c-5.147,0-9.333-3.587-9.333-8S6.855,3,12,3s9.333,3.587,9.333,8a7.387,7.387,0,0,1-2.473,5.407Z" fill="#fff"/>
    <path id="Path_166" data-name="Path 166" d="M16.667,10.333H7.333a.667.667,0,0,0,0,1.333h9.333a.667.667,0,0,0,0-1.333Z" fill="#fff"/>
    <path id="Path_167" data-name="Path 167" d="M14.5,13.667h-5A.667.667,0,0,0,9.5,15h5a.667.667,0,0,0,0-1.333Z" fill="#fff"/>
    <path id="Path_168" data-name="Path 168" d="M7.52,8.333h8.96A.667.667,0,0,0,16.48,7H7.52a.667.667,0,0,0,0,1.333Z" fill="#fff"/>
  </g>
</svg>
