<svg width="22" height="22" viewBox="0 0 22 22" fill="none" xmlns="http://www.w3.org/2000/svg">
<path d="M21.4733 10.5266L11.4733 0.526625C11.3484 0.402458 11.1795 0.332764 11.0033 0.332764C10.8272 0.332764 10.6582 0.402458 10.5333 0.526625L0.533336 10.5266C0.424119 10.6542 0.367048 10.8182 0.373529 10.986C0.38001 11.1538 0.449565 11.3129 0.568294 11.4317C0.687024 11.5504 0.846183 11.62 1.01397 11.6264C1.18175 11.6329 1.3458 11.5758 1.47334 11.4666L11 1.93996L20.5267 11.4733C20.6542 11.5825 20.8183 11.6396 20.986 11.6331C21.1538 11.6266 21.313 11.5571 21.4317 11.4383C21.5504 11.3196 21.62 11.1604 21.6265 10.9927C21.633 10.8249 21.5759 10.6608 21.4667 10.5333L21.4733 10.5266Z" fill="#ffffff"/>
<path d="M17.6667 20.3334H14.3333V13.6668H7.66667V20.3334H4.33333V11.0001L3 12.3334V20.3334C3 20.687 3.14048 21.0262 3.39052 21.2762C3.64057 21.5263 3.97971 21.6668 4.33333 21.6668H9V15.0001H13V21.6668H17.6667C18.0203 21.6668 18.3594 21.5263 18.6095 21.2762C18.8595 21.0262 19 20.687 19 20.3334V12.1734L17.6667 10.8401V20.3334Z" fill="#ffffff"/>
</svg>
