<svg xmlns="http://www.w3.org/2000/svg" width="17.333" height="20.001" viewBox="0 0 17.333 20.001">
  <g id="house-door-fill" transform="translate(-1.875 -1.248)">
    <path id="Path_281" data-name="Path 281" d="M8.542,15.528v5.007a.692.692,0,0,1-.667.714H2.542a.692.692,0,0,1-.667-.714v-10a.741.741,0,0,1,.194-.506l8-8.571a.636.636,0,0,1,.944,0l8,8.571a.741.741,0,0,1,.194.506v10a.692.692,0,0,1-.667.714H13.208a.692.692,0,0,1-.667-.714v-5a.744.744,0,0,0-.667-.714H9.209A.743.743,0,0,0,8.542,15.528Z" transform="translate(0)" fill="#fff"/>
  </g>
</svg>
