<svg width="22" height="22" viewBox="0 0 22 22" fill="none" xmlns="http://www.w3.org/2000/svg">
<path d="M21 11.6666C20.9123 11.6671 20.8253 11.6502 20.7441 11.6171C20.6628 11.5839 20.589 11.535 20.5267 11.4732L11 1.93988L1.47333 11.4732C1.3458 11.5824 1.18175 11.6395 1.01396 11.633C0.84618 11.6265 0.68702 11.557 0.56829 11.4383C0.449561 11.3195 0.380006 11.1604 0.373525 10.9926C0.367044 10.8248 0.424115 10.6608 0.533333 10.5332L10.5333 0.533217C10.6582 0.40905 10.8272 0.339355 11.0033 0.339355C11.1795 0.339355 11.3484 0.40905 11.4733 0.533217L21.4733 10.5332C21.5651 10.6268 21.6272 10.7454 21.6519 10.8741C21.6767 11.0028 21.6629 11.1359 21.6124 11.2568C21.5619 11.3777 21.4769 11.4811 21.368 11.554C21.259 11.6269 21.1311 11.666 21 11.6666Z" fill="#ffffff"/>
<path d="M11 4.19336L3 12.22V20.3334C3 20.687 3.14048 21.0261 3.39052 21.2762C3.64057 21.5262 3.97971 21.6667 4.33333 21.6667H9V15H13V21.6667H17.6667C18.0203 21.6667 18.3594 21.5262 18.6095 21.2762C18.8595 21.0261 19 20.687 19 20.3334V12.1734L11 4.19336Z" fill="#ffffff"/>
</svg>
