<svg xmlns="http://www.w3.org/2000/svg" width="21.334" height="18.96" viewBox="0 0 21.334 18.96">
    <path fill="#ffffff" d="M14.911 3.085l3.341 3.341a.362.362 0 0 1 0 .511l-8.089 8.089-3.437.381a.72.72 0 0 1-.8-.8l.381-3.437L14.4 3.085a.362.362 0 0 1 .511 0zm6-.848L19.1.429a1.449 1.449 0 0 0-2.044 0L15.748 1.74a.362.362 0 0 0 0 .511l3.341 3.341a.362.362 0 0 0 .511 0l1.311-1.311a1.449 1.449 0 0 0 0-2.044zm-6.688 10.589V16.6H2.37V4.744h8.511a.455.455 0 0 0 .315-.13l1.482-1.482a.444.444 0 0 0-.315-.759H1.778A1.778 1.778 0 0 0 0 4.152v13.037a1.778 1.778 0 0 0 1.778 1.778h13.037a1.778 1.778 0 0 0 1.778-1.778v-5.845a.445.445 0 0 0-.759-.315l-1.482 1.482a.455.455 0 0 0-.129.315z" transform="translate(0 -.007)"/>
</svg>
