<svg xmlns="http://www.w3.org/2000/svg" width="28" height="28" viewBox="0 0 28 28">
    <g id="icon-Feeds" transform="translate(-105.813 -349.301)">
        <path id="Rectangle_5691" fill="none" d="M0 0H28V28H0z" data-name="Rectangle 5691" transform="translate(105.813 349.301)"/>
        <path id="icon-Feeds-2" d="M6247.813-12269.925h-20a3 3 0 0 1-3-3v-17a3 3 0 0 1 3-3h20a3 3 0 0 1 3 3v17a3 3 0 0 1-3 3zm-19.5-5a.5.5 0 0 0-.5.5.5.5 0 0 0 .5.5h19a.5.5 0 0 0 .5-.5.5.5 0 0 0-.5-.5zm0-3a.5.5 0 0 0-.5.5.5.5 0 0 0 .5.5h19a.5.5 0 0 0 .5-.5.5.5 0 0 0-.5-.5zm0-3a.5.5 0 0 0-.5.5.5.5 0 0 0 .5.5h19a.5.5 0 0 0 .5-.5.5.5 0 0 0-.5-.5zm2.5-9a3 3 0 0 0-3 3 3 3 0 0 0 3 3 3 3 0 0 0 3-3 3 3 0 0 0-3.002-2.998zm6 2a1 1 0 0 0-1 1 1 1 0 0 0 1 1h10a1 1 0 0 0 1-1 1 1 0 0 0-1-1z" data-name="icon-Feeds" transform="translate(-6118.001 12644.227)" fill="#ffffff"/>
    </g>
</svg>
