<svg width="20" height="22" viewBox="0 0 20 22" fill="none" xmlns="http://www.w3.org/2000/svg">
<path d="M19.9 17.7533L19.6733 17.5534C19.0303 16.9804 18.4674 16.3234 18 15.6C17.4895 14.6017 17.1835 13.5115 17.1 12.3934V9.10002C17.1044 7.34376 16.4673 5.64633 15.3085 4.32666C14.1496 3.007 12.5488 2.15592 10.8067 1.93335V1.07335C10.8067 0.837307 10.7129 0.610932 10.546 0.444025C10.3791 0.277117 10.1527 0.18335 9.91667 0.18335C9.68062 0.18335 9.45425 0.277117 9.28734 0.444025C9.12043 0.610932 9.02667 0.837307 9.02667 1.07335V1.94668C7.30017 2.1853 5.71865 3.04152 4.57502 4.35675C3.43139 5.67199 2.80315 7.35711 2.80667 9.10002V12.3934C2.72317 13.5115 2.41718 14.6017 1.90667 15.6C1.44725 16.3216 0.893463 16.9785 0.26 17.5534L0.0333328 17.7533V19.6334H19.9V17.7533Z" fill="#ffffff"/>
<path d="M8.21333 20.3333C8.27179 20.7558 8.48119 21.143 8.80286 21.4232C9.12452 21.7035 9.53672 21.8578 9.96333 21.8578C10.3899 21.8578 10.8021 21.7035 11.1238 21.4232C11.4455 21.143 11.6549 20.7558 11.7133 20.3333H8.21333Z" fill="#ffffff"/>
</svg>
