<svg width="20" height="22" viewBox="0 0 20 22" fill="none" xmlns="http://www.w3.org/2000/svg">
<path d="M19.6733 17.5534C19.0305 16.9802 18.4676 16.3232 18 15.6C17.4895 14.6017 17.1835 13.5115 17.1 12.3934V9.10002C17.1044 7.34376 16.4673 5.64633 15.3085 4.32667C14.1496 3.007 12.5488 2.15592 10.8067 1.93335V1.07335C10.8067 0.837307 10.7129 0.610932 10.546 0.444025C10.3791 0.277117 10.1527 0.18335 9.91667 0.18335C9.68062 0.18335 9.45425 0.277117 9.28734 0.444025C9.12043 0.610932 9.02667 0.837307 9.02667 1.07335V1.94668C7.30017 2.1853 5.71865 3.04152 4.57502 4.35675C3.43139 5.67199 2.80315 7.35711 2.80667 9.10002V12.3934C2.72317 13.5115 2.41718 14.6017 1.90667 15.6C1.44725 16.3216 0.893463 16.9785 0.26 17.5534C0.188887 17.6158 0.131894 17.6927 0.0928111 17.7789C0.0537285 17.8651 0.0334527 17.9587 0.0333328 18.0534V18.96C0.0333328 19.1368 0.103571 19.3064 0.228595 19.4314C0.353619 19.5564 0.523189 19.6267 0.7 19.6267H19.2333C19.4101 19.6267 19.5797 19.5564 19.7047 19.4314C19.8298 19.3064 19.9 19.1368 19.9 18.96V18.0534C19.8999 17.9587 19.8796 17.8651 19.8405 17.7789C19.8014 17.6927 19.7444 17.6158 19.6733 17.5534ZM1.42 18.2934C2.04027 17.6942 2.5864 17.0227 3.04667 16.2934C3.68974 15.0877 4.06495 13.7574 4.14667 12.3934V9.10002C4.12023 8.31871 4.25128 7.54007 4.53203 6.81046C4.81278 6.08086 5.23747 5.41521 5.78083 4.85315C6.32419 4.2911 6.97509 3.84413 7.69479 3.53887C8.41448 3.2336 9.18824 3.07629 9.97 3.07629C10.7518 3.07629 11.5255 3.2336 12.2452 3.53887C12.9649 3.84413 13.6158 4.2911 14.1592 4.85315C14.7025 5.41521 15.1272 6.08086 15.408 6.81046C15.6887 7.54007 15.8198 8.31871 15.7933 9.10002V12.3934C15.875 13.7574 16.2503 15.0877 16.8933 16.2934C17.3536 17.0227 17.8997 17.6942 18.52 18.2934H1.42Z" fill="#ffffff"/>
<path d="M10 21.8533C10.42 21.8436 10.823 21.6857 11.1377 21.4075C11.4525 21.1294 11.6588 20.7488 11.72 20.3333H8.21333C8.27632 20.7601 8.49222 21.1496 8.82087 21.4292C9.14952 21.7088 9.56855 21.8595 10 21.8533Z" fill="#ffffff"/>
</svg>
