<svg xmlns="http://www.w3.org/2000/svg" width="19.867" height="21.672" viewBox="0 0 19.867 21.672">
  <g id="notification-solid" transform="translate(-2.033 -1.183)">
    <path id="Path_200" data-name="Path 200" d="M21.9,18.753l-.227-.2A9.58,9.58,0,0,1,20,16.6a8.42,8.42,0,0,1-.9-3.207V10.1a7.207,7.207,0,0,0-6.293-7.167v-.86a.89.89,0,0,0-1.78,0v.873A7.207,7.207,0,0,0,4.807,10.1v3.293a8.42,8.42,0,0,1-.9,3.207A9.6,9.6,0,0,1,2.26,18.552l-.227.2v1.88H21.9Z" fill="#fff"/>
    <path id="Path_201" data-name="Path 201" d="M10.213,21.333a1.767,1.767,0,0,0,3.5,0Z" fill="#fff"/>
  </g>
</svg>
