<svg xmlns="http://www.w3.org/2000/svg" width="21.333" height="18.665" viewBox="0 0 21.333 18.665">
  <g id="camera-line" transform="translate(-1.334 -2.667)">
    <path id="Path_218" data-name="Path 218" d="M21.333,5.333H16.466L15.759,3.52a1.333,1.333,0,0,0-1.239-.853H9.48a1.333,1.333,0,0,0-1.247.853l-.7,1.813H2.667A1.333,1.333,0,0,0,1.334,6.666V20a1.333,1.333,0,0,0,1.333,1.333H21.334A1.333,1.333,0,0,0,22.667,20V6.667a1.333,1.333,0,0,0-1.333-1.333Zm0,14.667H2.667V6.667h5.78L9.48,4h5.04l1.033,2.667h5.78Z" fill="#fff"/>
    <path id="Path_219" data-name="Path 219" d="M6,12.667a6,6,0,1,0,6-6,6,6,0,0,0-6,6Zm10.933,0A4.933,4.933,0,1,1,12,7.734a4.933,4.933,0,0,1,4.933,4.933Z" fill="#fff"/>
    <path id="Path_220" data-name="Path 220" d="M6.247,8.553a.533.533,0,0,0-.533-.533h-1.6a.534.534,0,0,0,0,1.067h1.6a.533.533,0,0,0,.533-.533Z" fill="#fff"/>
    <path id="Path_221" data-name="Path 221" d="M8.227,12.667A3.713,3.713,0,0,0,10.387,16l.567-.913a2.667,2.667,0,1,1,2.74-4.407l.573-.92a3.707,3.707,0,0,0-6.04,2.907Z" fill="#fff"/>
  </g>
</svg>
