<svg width="22" height="22" viewBox="0 0 22 22" fill="none" xmlns="http://www.w3.org/2000/svg">
<path d="M11 0.333252C8.89033 0.333252 6.82804 0.958841 5.07392 2.13091C3.31979 3.30298 1.95262 4.96888 1.14528 6.91796C0.33795 8.86704 0.126714 11.0118 0.53829 13.0809C0.949866 15.15 1.96577 17.0506 3.45753 18.5424C4.94929 20.0342 6.84991 21.0501 8.91904 21.4616C10.9882 21.8732 13.1329 21.662 15.082 20.8546C17.031 20.0473 18.6969 18.6801 19.869 16.926C21.0411 15.1719 21.6667 13.1096 21.6667 10.9999C21.6667 8.17094 20.5429 5.45783 18.5425 3.45745C16.5421 1.45706 13.829 0.333252 11 0.333252V0.333252ZM3.31333 11.6666H1.7C1.7 11.4466 1.66667 11.2266 1.66667 10.9999C1.66667 10.7733 1.66667 10.5533 1.7 10.3333H3.31333V11.6666ZM10.3333 1.69992C10.5533 1.69992 10.7733 1.66659 11 1.66659C11.2267 1.66659 11.4467 1.66659 11.6667 1.69992V3.31325H10.3333V1.69992ZM11.6667 20.2999C11.4467 20.2999 11.2267 20.3333 11 20.3333C10.7733 20.3333 10.5533 20.3333 10.3333 20.2999V18.6866H11.6667V20.2999ZM17 16.5799C16.9452 16.6451 16.8707 16.6907 16.7878 16.71C16.7048 16.7292 16.6179 16.721 16.54 16.6866L9.5 12.5866L5.4 5.54659C5.23333 5.23325 5.66 4.81325 5.97333 4.98659L12.8867 9.20659L17.1067 16.1199C17.1411 16.1978 17.1493 16.2848 17.13 16.3677C17.1108 16.4507 17.0652 16.5251 17 16.5799V16.5799ZM18.6867 11.6666V10.3333H20.3C20.3 10.5533 20.3333 10.7733 20.3333 10.9999C20.3333 11.2266 20.3333 11.4466 20.3 11.6666H18.6867Z" fill="#ffffff"/>
<path d="M10.18 11.9001L15.2333 14.8467L12.2 9.88672L10.18 11.9001Z" fill="#ffffff"/>
</svg>
