<svg width="22" height="22" viewBox="0 0 22 22" fill="none" xmlns="http://www.w3.org/2000/svg">
<path d="M12.88 9.20664L5.97334 4.99997C5.66667 4.82664 5.23334 5.24664 5.4 5.55997L9.5 12.6L16.54 16.7C16.6195 16.7288 16.7056 16.7341 16.788 16.7153C16.8704 16.6964 16.9457 16.6543 17.0048 16.5938C17.0638 16.5333 17.1042 16.4571 17.1211 16.3742C17.138 16.2914 17.1307 16.2054 17.1 16.1266L12.88 9.20664ZM10.2133 11.8733L12.2133 9.87331L15.2467 14.8333L10.2133 11.8733Z" fill="#ffffff"/>
<path d="M11 0.333252C8.89033 0.333252 6.82804 0.958841 5.07392 2.13091C3.31979 3.30298 1.95262 4.96888 1.14528 6.91796C0.33795 8.86704 0.126714 11.0118 0.53829 13.0809C0.949866 15.15 1.96577 17.0506 3.45753 18.5424C4.94929 20.0342 6.84991 21.0501 8.91904 21.4616C10.9882 21.8732 13.1329 21.662 15.082 20.8546C17.031 20.0473 18.6969 18.6801 19.869 16.926C21.0411 15.1719 21.6667 13.1096 21.6667 10.9999C21.6667 8.17094 20.5429 5.45783 18.5425 3.45745C16.5421 1.45706 13.829 0.333252 11 0.333252ZM11.6667 20.2999V18.6866H10.3333V20.2999C8.09733 20.1377 5.99444 19.176 4.40919 17.5907C2.82394 16.0055 1.86226 13.9026 1.7 11.6666H3.31333V10.3333H1.7C1.86226 8.09725 2.82394 5.99436 4.40919 4.40911C5.99444 2.82386 8.09733 1.86218 10.3333 1.69992V3.31325H11.6667V1.69992C13.9027 1.86218 16.0056 2.82386 17.5908 4.40911C19.1761 5.99436 20.1377 8.09725 20.3 10.3333H18.6867V11.6666H20.3C20.1377 13.9026 19.1761 16.0055 17.5908 17.5907C16.0056 19.176 13.9027 20.1377 11.6667 20.2999Z" fill="#ffffff"/>
</svg>
