<svg xmlns="http://www.w3.org/2000/svg" width="21.334" height="21.334" viewBox="0 0 21.334 21.334">
  <g id="compass-solid" transform="translate(-1.333 -1.333)">
    <path id="Path_204" data-name="Path 204" d="M12,1.333A10.667,10.667,0,1,0,22.667,12,10.667,10.667,0,0,0,12,1.333ZM4.313,12.667H2.7c0-.22-.033-.44-.033-.667a4.47,4.47,0,0,1,.033-.667H4.313ZM11.333,2.7c.22,0,.44-.033.667-.033a4.47,4.47,0,0,1,.667.033V4.313H11.334Zm1.333,18.6c-.22,0-.44.033-.667.033a4.469,4.469,0,0,1-.667-.033V19.687h1.333ZM18,17.58a.393.393,0,0,1-.46.107l-7.04-4.1L6.4,6.547c-.167-.313.26-.733.573-.56l6.913,4.22,4.22,6.913a.393.393,0,0,1-.107.46Zm1.688-4.913V11.334H21.3c0,.22.033.44.033.667a4.469,4.469,0,0,1-.033.667Z" fill="#fff"/>
    <path id="Path_205" data-name="Path 205" d="M11.18,12.9l5.053,2.947L13.2,10.887Z" fill="#fff"/>
  </g>
</svg>
