<svg xmlns="http://www.w3.org/2000/svg" width="19.583" height="15.927" viewBox="0 0 19.583 15.927">
  <path id="Exclusion_15" data-name="Exclusion 15" d="M9,15H9L4.5,12.371,0,9.727,4.5,7.1,9,9.727,13.5,7.1,18,9.727l-4.5,2.644L9,15ZM4.5,7.745h0L1.081,9.775l4.09,2.376L9,14.354l4.009-2.391,3.747-2.188L13.421,7.909,9,10.486,4.5,7.745ZM9,7.9H9L4.5,5.273,0,2.629,4.5,0,9,2.629,13.5,0,18,2.629,13.5,5.273,9,7.9ZM4.5.6h0L1.081,2.629l4.09,2.376L9,7.208,13.01,4.817l3.747-2.188L13.421.762,9,3.341,4.5.6Z" transform="translate(0.791 0.463)" fill="#fff" stroke="#fff" stroke-width="0.8"/>
</svg>
