<svg width="18" height="20" viewBox="0 0 18 20" fill="none" xmlns="http://www.w3.org/2000/svg">
<path d="M17.4067 14.3466C16.3354 13.1859 15.0355 12.2596 13.5886 11.6261C12.1418 10.9926 10.5795 10.6655 9 10.6655C7.42055 10.6655 5.8582 10.9926 4.41137 11.6261C2.96454 12.2596 1.66457 13.1859 0.593333 14.3466C0.427944 14.5294 0.335428 14.7667 0.333333 15.0132V19.0132C0.336839 19.2761 0.443741 19.5271 0.630899 19.7117C0.818057 19.8964 1.07041 19.9999 1.33333 19.9999H16.6667C16.9319 19.9999 17.1862 19.8945 17.3738 19.707C17.5613 19.5195 17.6667 19.2651 17.6667 18.9999V14.9999C17.6614 14.7579 17.569 14.526 17.4067 14.3466Z" fill="#ffffff"/>
<path d="M9 9.33333C11.5773 9.33333 13.6667 7.244 13.6667 4.66667C13.6667 2.08934 11.5773 0 9 0C6.42267 0 4.33333 2.08934 4.33333 4.66667C4.33333 7.244 6.42267 9.33333 9 9.33333Z" fill="#ffffff"/>
</svg>
