<svg xmlns="http://www.w3.org/2000/svg" width="17.333" height="20.001" viewBox="0 0 17.333 20.001">
  <g id="avatar-line" transform="translate(-3.333 -1.999)">
    <path id="Path_206" data-name="Path 206" d="M12,11.333A4.667,4.667,0,1,0,7.333,6.666,4.667,4.667,0,0,0,12,11.333Zm0-8A3.333,3.333,0,1,1,8.667,6.666,3.333,3.333,0,0,1,12,3.333Z" fill="#fff"/>
    <path id="Path_207" data-name="Path 207" d="M20.313,16.247a11.44,11.44,0,0,0-16.62,0,1.333,1.333,0,0,0-.36.913v3.507A1.333,1.333,0,0,0,4.666,22H19.333a1.333,1.333,0,0,0,1.333-1.333V17.16A1.333,1.333,0,0,0,20.313,16.247Zm-.98,4.42H4.667V17.154a10.113,10.113,0,0,1,14.667,0Z" fill="#fff"/>
  </g>
</svg>
