<svg width="18" height="20" viewBox="0 0 18 20" fill="none" xmlns="http://www.w3.org/2000/svg">
<path d="M9 9.33334C9.92298 9.33334 10.8252 9.05964 11.5927 8.54686C12.3601 8.03408 12.9582 7.30525 13.3114 6.45253C13.6646 5.5998 13.7571 4.66149 13.577 3.75625C13.3969 2.851 12.9525 2.01948 12.2998 1.36684C11.6472 0.714192 10.8157 0.269735 9.91042 0.0896708C9.00518 -0.0903936 8.06687 0.00202199 7.21414 0.355231C6.36142 0.70844 5.63259 1.30658 5.11981 2.07401C4.60703 2.84144 4.33333 3.74369 4.33333 4.66667C4.33333 5.90435 4.825 7.09133 5.70017 7.9665C6.57534 8.84167 7.76232 9.33334 9 9.33334ZM9 1.33334C9.65927 1.33334 10.3037 1.52883 10.8519 1.8951C11.4001 2.26137 11.8273 2.78197 12.0796 3.39106C12.3319 4.00014 12.3979 4.67037 12.2693 5.31697C12.1407 5.96357 11.8232 6.55752 11.357 7.02369C10.8908 7.48987 10.2969 7.80734 9.6503 7.93595C9.0037 8.06457 8.33348 7.99856 7.72439 7.74627C7.1153 7.49398 6.59471 7.06673 6.22843 6.51857C5.86216 5.97041 5.66667 5.32594 5.66667 4.66667C5.66667 3.78261 6.01786 2.93477 6.64298 2.30965C7.2681 1.68452 8.11594 1.33334 9 1.33334Z" fill="#ffffff"/>
<path d="M17.3133 14.2468C16.2442 13.1168 14.9559 12.2167 13.527 11.6016C12.0982 10.9865 10.5589 10.6692 9.00333 10.6692C7.44773 10.6692 5.90846 10.9865 4.47964 11.6016C3.05082 12.2167 1.76246 13.1168 0.693334 14.2468C0.461542 14.4944 0.332807 14.821 0.333334 15.1601V18.6668C0.333334 19.0204 0.473809 19.3595 0.723858 19.6096C0.973906 19.8596 1.31305 20.0001 1.66667 20.0001H16.3333C16.687 20.0001 17.0261 19.8596 17.2761 19.6096C17.5262 19.3595 17.6667 19.0204 17.6667 18.6668V15.1601C17.669 14.8219 17.5427 14.4954 17.3133 14.2468ZM16.3333 18.6668H1.66667V15.1534C2.61149 14.1586 3.74886 13.3663 5.00957 12.825C6.27028 12.2836 7.62797 12.0044 9 12.0044C10.372 12.0044 11.7297 12.2836 12.9904 12.825C14.2511 13.3663 15.3885 14.1586 16.3333 15.1534V18.6668Z" fill="#ffffff"/>
</svg>
