<svg xmlns="http://www.w3.org/2000/svg" width="21.334" height="16.001" viewBox="0 0 21.334 16.001">
  <path id="video-camera-line" d="M22.667,6.893a1.407,1.407,0,0,0-.773-1.267,1.333,1.333,0,0,0-1.42.1L17.333,7.733v-2.4A1.333,1.333,0,0,0,16,4H4A2.667,2.667,0,0,0,1.333,6.667V17.334A2.667,2.667,0,0,0,4,20H16a1.333,1.333,0,0,0,1.333-1.333v-2.4l3.093,2a1.38,1.38,0,0,0,1.467.133,1.407,1.407,0,0,0,.774-1.294ZM21.287,17.18a.177.177,0,0,1-.127-.04L16,13.847v4.82H4a1.333,1.333,0,0,1-1.333-1.333V6.667A1.333,1.333,0,0,1,4,5.334H16v4.82l5.2-3.333a.091.091,0,0,1,.134.073V17.107a.073.073,0,0,1-.047.073Z" transform="translate(-1.333 -4)" fill="#fff"/>
</svg>
